<?xml version="1.0" encoding="UTF-8" standalone="no"?>
<!-- Created with Inkscape (http://www.inkscape.org/) -->

<svg
   xmlns:dc="http://purl.org/dc/elements/1.1/"
   xmlns:cc="http://creativecommons.org/ns#"
   xmlns:rdf="http://www.w3.org/1999/02/22-rdf-syntax-ns#"
   xmlns:svg="http://www.w3.org/2000/svg"
   xmlns="http://www.w3.org/2000/svg"
   xmlns:xlink="http://www.w3.org/1999/xlink"
   xmlns:sodipodi="http://sodipodi.sourceforge.net/DTD/sodipodi-0.dtd"
   xmlns:inkscape="http://www.inkscape.org/namespaces/inkscape"
   width="90.878494mm"
   height="40.633709mm"
   viewBox="0 0 322.01041 143.97771"
   id="svg3933"
   version="1.1"
   inkscape:version="0.91 r13725"
   sodipodi:docname="FLISOL-logo.svg">
  <defs
     id="defs3935">
    <filter
       style="color-interpolation-filters:sRGB"
       inkscape:collect="always"
       id="filter14511">
      <feGaussianBlur
         inkscape:collect="always"
         stdDeviation="0.85627009"
         id="feGaussianBlur14513" />
    </filter>
    <filter
       style="color-interpolation-filters:sRGB"
       inkscape:collect="always"
       id="filter14506-80-6-24">
      <feGaussianBlur
         inkscape:collect="always"
         stdDeviation="0.70957443"
         id="feGaussianBlur14508-15-9-58" />
    </filter>
    <filter
       style="color-interpolation-filters:sRGB"
       inkscape:collect="always"
       id="filter14511-1">
      <feGaussianBlur
         inkscape:collect="always"
         stdDeviation="0.85627009"
         id="feGaussianBlur14513-1" />
    </filter>
    <filter
       style="color-interpolation-filters:sRGB"
       inkscape:collect="always"
       id="filter14506-80-6-946">
      <feGaussianBlur
         inkscape:collect="always"
         stdDeviation="0.70957443"
         id="feGaussianBlur14508-15-9-03" />
    </filter>
    <filter
       style="color-interpolation-filters:sRGB"
       inkscape:collect="always"
       id="filter14511-9">
      <feGaussianBlur
         inkscape:collect="always"
         stdDeviation="0.85627009"
         id="feGaussianBlur14513-0" />
    </filter>
    <filter
       style="color-interpolation-filters:sRGB"
       inkscape:collect="always"
       id="filter14511-3">
      <feGaussianBlur
         inkscape:collect="always"
         stdDeviation="0.85627009"
         id="feGaussianBlur14513-8" />
    </filter>
    <filter
       style="color-interpolation-filters:sRGB"
       inkscape:collect="always"
       id="filter14506-80-6-9">
      <feGaussianBlur
         inkscape:collect="always"
         stdDeviation="0.70957443"
         id="feGaussianBlur14508-15-9-7" />
    </filter>
    <filter
       style="color-interpolation-filters:sRGB"
       inkscape:collect="always"
       id="filter14506-80-3-8">
      <feGaussianBlur
         inkscape:collect="always"
         stdDeviation="0.70957443"
         id="feGaussianBlur14508-15-7-9" />
    </filter>
    <filter
       style="color-interpolation-filters:sRGB"
       inkscape:collect="always"
       id="filter14506-80-6">
      <feGaussianBlur
         inkscape:collect="always"
         stdDeviation="0.70957443"
         id="feGaussianBlur14508-15-9" />
    </filter>
    <filter
       style="color-interpolation-filters:sRGB"
       inkscape:collect="always"
       id="filter14506-80-3">
      <feGaussianBlur
         inkscape:collect="always"
         stdDeviation="0.70957443"
         id="feGaussianBlur14508-15-7" />
    </filter>
    <filter
       style="color-interpolation-filters:sRGB"
       inkscape:collect="always"
       id="filter14506-80-6-8">
      <feGaussianBlur
         inkscape:collect="always"
         stdDeviation="0.70957443"
         id="feGaussianBlur14508-15-9-27" />
    </filter>
    <filter
       style="color-interpolation-filters:sRGB"
       inkscape:collect="always"
       id="filter14506-80-6-94">
      <feGaussianBlur
         inkscape:collect="always"
         stdDeviation="0.70957443"
         id="feGaussianBlur14508-15-9-1" />
    </filter>
    <filter
       style="color-interpolation-filters:sRGB"
       inkscape:collect="always"
       id="filter14506-80-6-6">
      <feGaussianBlur
         inkscape:collect="always"
         stdDeviation="0.70957443"
         id="feGaussianBlur14508-15-9-0" />
    </filter>
    <filter
       style="color-interpolation-filters:sRGB"
       inkscape:collect="always"
       id="filter14506-80-6-66">
      <feGaussianBlur
         inkscape:collect="always"
         stdDeviation="0.70957443"
         id="feGaussianBlur14508-15-9-6" />
    </filter>
    <filter
       style="color-interpolation-filters:sRGB"
       inkscape:collect="always"
       id="filter14506-80-6-67">
      <feGaussianBlur
         inkscape:collect="always"
         stdDeviation="0.70957443"
         id="feGaussianBlur14508-15-9-14" />
    </filter>
    <filter
       style="color-interpolation-filters:sRGB"
       inkscape:collect="always"
       id="filter14506-80-6-61">
      <feGaussianBlur
         inkscape:collect="always"
         stdDeviation="0.70957443"
         id="feGaussianBlur14508-15-9-2" />
    </filter>
    <filter
       style="color-interpolation-filters:sRGB"
       inkscape:collect="always"
       id="filter14506-80-6-4">
      <feGaussianBlur
         inkscape:collect="always"
         stdDeviation="0.70957443"
         id="feGaussianBlur14508-15-9-9" />
    </filter>
    <filter
       style="color-interpolation-filters:sRGB"
       inkscape:collect="always"
       id="filter14506-80-6-2">
      <feGaussianBlur
         inkscape:collect="always"
         stdDeviation="0.70957443"
         id="feGaussianBlur14508-15-9-3" />
    </filter>
    <filter
       style="color-interpolation-filters:sRGB"
       inkscape:collect="always"
       id="filter14506-80-6-1">
      <feGaussianBlur
         inkscape:collect="always"
         stdDeviation="0.70957443"
         id="feGaussianBlur14508-15-9-5" />
    </filter>
    <filter
       style="color-interpolation-filters:sRGB"
       inkscape:collect="always"
       id="filter14506-80-6-3">
      <feGaussianBlur
         inkscape:collect="always"
         stdDeviation="0.70957443"
         id="feGaussianBlur14508-15-9-16" />
    </filter>
    <filter
       style="color-interpolation-filters:sRGB"
       inkscape:collect="always"
       id="filter14506-80-6-12">
      <feGaussianBlur
         inkscape:collect="always"
         stdDeviation="0.70957443"
         id="feGaussianBlur14508-15-9-60" />
    </filter>
    <filter
       style="color-interpolation-filters:sRGB"
       inkscape:collect="always"
       id="filter14506-80-6-121">
      <feGaussianBlur
         inkscape:collect="always"
         stdDeviation="0.70957443"
         id="feGaussianBlur14508-15-9-4" />
    </filter>
    <filter
       style="color-interpolation-filters:sRGB"
       inkscape:collect="always"
       id="filter14506-80-6-82">
      <feGaussianBlur
         inkscape:collect="always"
         stdDeviation="0.70957443"
         id="feGaussianBlur14508-15-9-45" />
    </filter>
    <radialGradient
       r="68.636078"
       fy="170.44995"
       fx="339.39481"
       cy="170.44995"
       cx="339.39481"
       gradientUnits="userSpaceOnUse"
       id="radialGradient20235"
       xlink:href="#linearGradient11737"
       inkscape:collect="always" />
    <linearGradient
       id="linearGradient11737">
      <stop
         style="stop-color:#ffffff;stop-opacity:0;"
         offset="0"
         id="stop11739" />
      <stop
         id="stop11741"
         offset="0.7044031"
         style="stop-color:#0046af;stop-opacity:0;" />
      <stop
         id="stop11743"
         offset="0.86842364"
         style="stop-color:#0044ab;stop-opacity:0.42352942;" />
      <stop
         style="stop-color:#003996;stop-opacity:0.64999998;"
         offset="0.95386213"
         id="stop11745" />
      <stop
         style="stop-color:#002c80;stop-opacity:1;"
         offset="1"
         id="stop11747" />
    </linearGradient>
    <radialGradient
       r="68.136078"
       fy="131.75188"
       fx="360.3381"
       cy="131.75188"
       cx="360.3381"
       gradientTransform="matrix(2.0322283,0,0,2.0322283,-350.33294,-138.65768)"
       gradientUnits="userSpaceOnUse"
       id="radialGradient20237"
       xlink:href="#linearGradient11729"
       inkscape:collect="always" />
    <linearGradient
       id="linearGradient11729">
      <stop
         id="stop11731"
         offset="0"
         style="stop-color:#5bcaff;stop-opacity:1;" />
      <stop
         id="stop11733"
         offset="1"
         style="stop-color:#0071de;stop-opacity:1;" />
    </linearGradient>
    <filter
       style="color-interpolation-filters:sRGB"
       height="1.3200001"
       y="-0.16"
       width="1.3200001"
       x="-0.16"
       id="filter4645"
       inkscape:collect="always">
      <feGaussianBlur
         id="feGaussianBlur4647"
         stdDeviation="9.0848104"
         inkscape:collect="always" />
    </filter>
    <filter
       style="color-interpolation-filters:sRGB"
       inkscape:collect="always"
       id="filter15293">
      <feGaussianBlur
         inkscape:collect="always"
         stdDeviation="2.6999294"
         id="feGaussianBlur15295" />
    </filter>
    <linearGradient
       y2="138.7977"
       x2="571.87354"
       y1="92.872658"
       x1="530.65643"
       gradientTransform="matrix(-0.70212229,-0.41616513,-0.24563742,0.64033837,1757.0439,1465.4203)"
       gradientUnits="userSpaceOnUse"
       id="linearGradient20239"
       xlink:href="#linearGradient5073"
       inkscape:collect="always" />
    <linearGradient
       id="linearGradient5073">
      <stop
         id="stop5075"
         offset="0"
         style="stop-color:#ffffff;stop-opacity:1;" />
      <stop
         id="stop5077"
         offset="1"
         style="stop-color:#ffffff;stop-opacity:0;" />
    </linearGradient>
  </defs>
  <sodipodi:namedview
     id="base"
     pagecolor="#ffffff"
     bordercolor="#666666"
     borderopacity="1.0"
     inkscape:pageopacity="0.0"
     inkscape:pageshadow="2"
     inkscape:zoom="1.979899"
     inkscape:cx="134.44778"
     inkscape:cy="82.497829"
     inkscape:document-units="px"
     inkscape:current-layer="layer1"
     showgrid="false"
     fit-margin-top="0"
     fit-margin-left="0"
     fit-margin-right="0"
     fit-margin-bottom="0"
     inkscape:window-width="1440"
     inkscape:window-height="824"
     inkscape:window-x="0"
     inkscape:window-y="27"
     inkscape:window-maximized="1" />
  <metadata
     id="metadata3938">
    <rdf:RDF>
      <cc:Work
         rdf:about="">
        <dc:format>image/svg+xml</dc:format>
        <dc:type
           rdf:resource="http://purl.org/dc/dcmitype/StillImage" />
        <dc:title />
      </cc:Work>
    </rdf:RDF>
  </metadata>
  <g
     inkscape:label="Capa 1"
     inkscape:groupmode="layer"
     id="layer1"
     transform="translate(-21.851931,-31.801926)">
    <g
       style="fill:#4d4d4d"
       id="g20107"
       transform="matrix(0.66435283,0,0,0.66435283,-602.12716,-784.37043)">
      <path
         inkscape:connector-curvature="0"
         id="path20109"
         d="m 1298.8819,1323.1321 -48.7309,-48.4378 -28.5637,26.4018 23.8704,22.6029 15.9396,-15.5149 -11.1295,-10.6669 -13.5053,10.2568 -1.1593,-1.1669 11.4957,-11.977 c 1.7249,-1.7291 3.6099,-2.2914 5.8319,-0.3989 l 11.5745,11.1743 c 1.3851,1.7362 1.6911,3.4408 0.5451,5.1029 0,0 -7.005,9.3261 -16.6236,17.7401 -2.9987,2.1967 -5.6051,1.6537 -7.9717,-0.564 l -25.4373,-22.151 c -2.3484,-2.6921 -1.8467,-6.0636 0.6079,-8.5762 l 29.2542,-31.2085 c 2.7645,-3.2037 9.1831,-2.9987 11.9686,0.097 l 51.0113,48.784 z"
         style="color:#000000;display:inline;overflow:visible;visibility:visible;fill:#ff7d23;fill-opacity:1;fill-rule:nonzero;stroke:none;stroke-width:2.59126377;marker:none;enable-background:accumulate"
         sodipodi:nodetypes="cccccccccccccccccccc" />
      <path
         transform="matrix(0,-0.88548957,0.88548957,0,2365.753,129.53043)"
         sodipodi:nodetypes="cccccccccccccccccccccccccccccccccc"
         inkscape:connector-curvature="0"
         id="path20111"
         d="m -1323.2724,-1299.9234 c -1.0643,-0.099 -2.0814,0.2102 -3.1562,1.125 -0.02,0.017 -0.042,0.014 -0.063,0.031 l -24.7812,28.5313 c -0.02,0.021 -0.041,0.042 -0.062,0.062 -1.033,1.1023 -1.5008,2.0454 -1.5937,2.9062 -0.091,0.8461 0.1372,1.7967 1.0937,3.125 0.017,0.023 0.014,0.039 0.031,0.063 9.2143,10.4941 19.3609,18.1454 19.5,18.25 0.8033,0.6802 2.5621,0.8617 3.2946,0.3254 l 12.5021,-13.4846 c 0.7731,-1.44 0.092,-2.7525 -0.7664,-3.6221 l -11.7412,-13.0598 11.8974,13.6223 c 0.6453,0.8488 -0.051,1.5235 -0.7827,2.2991 l -12.0718,12.5365 c -0.8378,0.8893 -1.5643,1.3557 -2.4188,0.4824 l -17.7267,-17.7558 c -0.815,-0.8294 -0.8295,-2.3111 -0.031,-3.1563 l 25.5312,-26.9687 c 0.8561,-0.8928 2.4733,-0.8776 3.3126,0.031 l 29.8124,32.25 c 0.7806,0.8423 0.7661,2.2983 -0.031,3.125 l -53.1562,53.4687 6.4374,6.8125 53.4376,-55.875 c 0.04,-0.043 0.082,-0.085 0.125,-0.125 1.1209,-1.0087 1.9378,-3.0223 1.9687,-5.0938 0.031,-2.0714 -0.7094,-4.0211 -1.8437,-5 -0.021,-0.02 -0.042,-0.041 -0.063,-0.062 l -35.25,-33.0626 c -0.01,-0.01 -0.021,-0.021 -0.031,-0.031 -1.1159,-1.0901 -2.2918,-1.6494 -3.375,-1.75 z"
         style="color:#000000;display:inline;overflow:visible;visibility:visible;opacity:0.6857143;fill:#ffb44f;fill-opacity:1;fill-rule:nonzero;stroke:none;stroke-width:2.59126377;marker:none;filter:url(#filter14511);enable-background:accumulate" />
      <path
         transform="matrix(0.88548957,0,0,0.88548957,2519.976,2390.9311)"
         inkscape:connector-curvature="0"
         id="path20113"
         d="m -1473.2089,-1233.1614 35.1032,-37.1835 c 0,0 2.8603,-1.6468 5.3739,-1.6468 2.5135,0 4.8538,2.1669 4.8538,2.1669 l 33.4564,31.6362 -1.8202,0.5201 -34.1498,-31.8963 c 0,0 -1.6468,-1.0401 -3.727,-0.7801 -2.0802,0.2601 -3.9004,1.8202 -3.9004,1.8202 z"
         style="color:#000000;display:inline;overflow:visible;visibility:visible;opacity:0.56734691;fill:#ffffff;fill-opacity:1;fill-rule:nonzero;stroke:none;stroke-width:1px;marker:none;filter:url(#filter14506-80-6-24);enable-background:accumulate" />
      <path
         style="color:#000000;display:inline;overflow:visible;visibility:visible;fill:#ff7d23;fill-opacity:1;fill-rule:nonzero;stroke:none;stroke-width:2.59126377;marker:none;enable-background:accumulate"
         d="m 1272.8575,1337.4177 -50.7248,4.5281 c 0,0 2.4921,12.308 -4.5996,11.237 -7.0917,-1.0709 -2.5579,-16.7977 -2.5579,-16.7977 l 58.2093,-2.0192 z"
         id="path20115"
         inkscape:connector-curvature="0"
         sodipodi:nodetypes="ccsccc" />
      <path
         style="color:#000000;display:inline;overflow:visible;visibility:visible;opacity:0.6857143;fill:#ffb44f;fill-opacity:1;fill-rule:nonzero;stroke:none;stroke-width:2.59126377;marker:none;filter:url(#filter14511-1);enable-background:accumulate"
         d="m -1269.6991,-1208.0559 c -1.0072,0.083 -1.9322,0.2662 -2.6875,0.5312 -1.5106,0.5299 -2.2819,1.1806 -2.5,2.625 -0.2411,1.5967 0.1437,2.1992 0.9063,2.7812 0.7625,0.5821 2.1451,0.987 3.6562,1.125 3.0223,0.2762 6.375,-0.375 6.375,-0.375 0.8234,-0.163 1.7118,0.5072 1.7812,1.3438 l 3.7931,44.1749 1.1389,-0.01 -1.6194,-50.9477 c -1.2298,-0.3219 -4.1371,-1.0363 -7.6563,-1.25 -1.0938,-0.067 -2.1803,-0.083 -3.1875,0 z"
         id="path20117"
         inkscape:connector-curvature="0"
         sodipodi:nodetypes="ccscccccccccc"
         transform="matrix(-8.6499305e-4,-0.88548915,0.88548915,-8.6499305e-4,2283.462,221.26007)"
         inkscape:transform-center-x="-24.590277"
         inkscape:transform-center-y="6.7306959" />
      <path
         transform="matrix(0.88548957,0,0,0.88548957,2519.976,2390.9311)"
         inkscape:connector-curvature="0"
         id="path20119"
         d="m -1420.4928,-1191.5216 c 0,0 -51.7161,1.3282 -52.0482,1.4942 -0.332,0.166 -1.3282,5.4787 -1.3282,6.5579 0,1.0791 0.3321,3.4865 0.3321,3.4865 0,0 1.2452,-8.3012 1.9093,-8.6332 0.664,-0.3321 51.135,-1.9923 51.135,-1.9923 z"
         style="color:#000000;display:inline;overflow:visible;visibility:visible;opacity:0.56734691;fill:#ffffff;fill-opacity:1;fill-rule:nonzero;stroke:none;stroke-width:1px;marker:none;filter:url(#filter14506-80-6-946);enable-background:accumulate" />
      <ellipse
         style="color:#000000;display:inline;overflow:visible;visibility:visible;fill:#ff7d23;fill-opacity:1;fill-rule:nonzero;stroke:none;stroke-width:2.59126377;marker:none;enable-background:accumulate"
         id="path20121"
         transform="matrix(0.95103732,0.44634623,-0.44634623,0.95103732,1617.6646,933.28897)"
         cx="-148.45714"
         cy="505.67648"
         rx="4.8000002"
         ry="7.0285716" />
      <ellipse
         transform="matrix(0.95103732,0.44634623,-0.44634623,0.95103732,1603.9446,938.66548)"
         id="path20123"
         style="color:#000000;display:inline;overflow:visible;visibility:visible;fill:#ff7d23;fill-opacity:1;fill-rule:nonzero;stroke:none;stroke-width:2.59126377;marker:none;enable-background:accumulate"
         cx="-148.45714"
         cy="505.67648"
         rx="4.8000002"
         ry="7.0285716" />
      <ellipse
         transform="matrix(0.69262061,0.32506464,-0.32506464,0.69262061,1518.2574,1044.9133)"
         id="path20125"
         style="color:#000000;display:inline;overflow:visible;visibility:visible;opacity:0.6857143;fill:#ffb44f;fill-opacity:1;fill-rule:nonzero;stroke:none;stroke-width:2.99897122;marker:none;filter:url(#filter14511-9);enable-background:accumulate"
         cx="-148.45714"
         cy="505.67648"
         rx="4.8000002"
         ry="7.0285716" />
      <ellipse
         style="color:#000000;display:inline;overflow:visible;visibility:visible;opacity:0.6857143;fill:#ffb44f;fill-opacity:1;fill-rule:nonzero;stroke:none;stroke-width:3.10946083;marker:none;filter:url(#filter14511-3);enable-background:accumulate"
         id="path20127"
         transform="matrix(0.66800949,0.313514,-0.313514,0.66800949,1494.7501,1060.7076)"
         cx="-148.45714"
         cy="505.67648"
         rx="4.8000002"
         ry="7.0285716" />
      <path
         sodipodi:nodetypes="cccccccccccccccccccc"
         style="color:#000000;display:inline;overflow:visible;visibility:visible;fill:#ff7d23;fill-opacity:1;fill-rule:nonzero;stroke:none;stroke-width:2.59126377;marker:none;enable-background:accumulate"
         d="m 1325.4465,1351.5525 48.731,48.4378 28.5637,-26.4019 -23.8704,-22.6028 -15.9396,15.5148 11.1294,10.667 13.5053,-10.2568 1.1594,1.1668 -11.4958,11.977 c -1.7248,1.7291 -3.6099,2.2914 -5.8318,0.3989 l -11.5745,-11.1742 c -1.3852,-1.7363 -1.6911,-3.4408 -0.5451,-5.1029 0,0 7.005,-9.3262 16.6235,-17.7402 2.9987,-2.1967 5.6052,-1.6536 7.9717,0.5641 l 25.4373,22.1509 c 2.3484,2.6921 1.8467,6.0636 -0.6079,8.5762 l -29.2542,31.2085 c -2.7645,3.2037 -9.1831,2.9988 -11.9686,-0.097 l -51.0113,-48.7841 z"
         id="path20129"
         inkscape:connector-curvature="0" />
      <path
         transform="matrix(0,0.88548957,-0.88548957,0,258.57539,2545.1541)"
         style="color:#000000;display:inline;overflow:visible;visibility:visible;opacity:0.6857143;fill:#ffb44f;fill-opacity:1;fill-rule:nonzero;stroke:none;stroke-width:2.59126377;marker:none;filter:url(#filter14511);enable-background:accumulate"
         d="m -1323.2724,-1299.9234 c -1.0643,-0.099 -2.0814,0.2102 -3.1562,1.125 -0.02,0.017 -0.042,0.014 -0.063,0.031 l -24.7812,28.5313 c -0.02,0.021 -0.041,0.042 -0.062,0.062 -1.033,1.1023 -1.5008,2.0454 -1.5937,2.9062 -0.091,0.8461 0.1372,1.7967 1.0937,3.125 0.017,0.023 0.014,0.039 0.031,0.063 9.2143,10.4941 19.3609,18.1454 19.5,18.25 0.8033,0.6802 2.5621,0.8617 3.2946,0.3254 l 12.5021,-13.4846 c 0.7731,-1.44 0.092,-2.7525 -0.7664,-3.6221 l -11.7412,-13.0598 11.8974,13.6223 c 0.6453,0.8488 -0.051,1.5235 -0.7827,2.2991 l -12.0718,12.5365 c -0.8378,0.8893 -1.5643,1.3557 -2.4188,0.4824 l -17.7267,-17.7558 c -0.815,-0.8294 -0.8295,-2.3111 -0.031,-3.1563 l 25.5312,-26.9687 c 0.8561,-0.8928 2.4733,-0.8776 3.3126,0.031 l 29.8124,32.25 c 0.7806,0.8423 0.7661,2.2983 -0.031,3.125 l -53.1562,53.4687 6.4374,6.8125 53.4376,-55.875 c 0.04,-0.043 0.082,-0.085 0.125,-0.125 1.1209,-1.0087 1.9378,-3.0223 1.9687,-5.0938 0.031,-2.0714 -0.7094,-4.0211 -1.8437,-5 -0.021,-0.02 -0.042,-0.041 -0.063,-0.062 l -35.25,-33.0626 c -0.01,-0.01 -0.021,-0.021 -0.031,-0.031 -1.1159,-1.0901 -2.2918,-1.6494 -3.375,-1.75 z"
         id="path20131"
         inkscape:connector-curvature="0"
         sodipodi:nodetypes="cccccccccccccccccccccccccccccccccc" />
      <path
         sodipodi:nodetypes="ccsccc"
         inkscape:connector-curvature="0"
         id="path20133"
         d="m 1351.471,1337.2669 50.7247,-4.5282 c 0,0 -2.492,-12.308 4.5997,-11.237 7.0917,1.0709 2.5578,16.7977 2.5578,16.7977 l -58.2092,2.0192 z"
         style="color:#000000;display:inline;overflow:visible;visibility:visible;fill:#ff7d23;fill-opacity:1;fill-rule:nonzero;stroke:none;stroke-width:2.59126377;marker:none;enable-background:accumulate" />
      <path
         inkscape:transform-center-y="-6.7306757"
         inkscape:transform-center-x="24.590278"
         transform="matrix(8.6499305e-4,0.88548915,-0.88548915,8.6499305e-4,340.83666,2453.1)"
         sodipodi:nodetypes="ccscccccccccc"
         inkscape:connector-curvature="0"
         id="path20135"
         d="m -1269.6991,-1208.0559 c -1.0072,0.083 -1.9322,0.2662 -2.6875,0.5312 -1.5106,0.5299 -2.2819,1.1806 -2.5,2.625 -0.2411,1.5967 0.1437,2.1992 0.9063,2.7812 0.7625,0.5821 2.1451,0.987 3.6562,1.125 3.0223,0.2762 6.375,-0.375 6.375,-0.375 0.8234,-0.163 1.7118,0.5072 1.7812,1.3438 l 3.7931,44.1749 1.1389,-0.01 -1.6194,-50.9477 c -1.2298,-0.3219 -4.1371,-1.0363 -7.6563,-1.25 -1.0938,-0.067 -2.1803,-0.083 -3.1875,0 z"
         style="color:#000000;display:inline;overflow:visible;visibility:visible;opacity:0.6857143;fill:#ffb44f;fill-opacity:1;fill-rule:nonzero;stroke:none;stroke-width:2.59126377;marker:none;filter:url(#filter14511-1);enable-background:accumulate" />
      <path
         transform="matrix(0.88548957,0,0,0.88548957,2519.976,2390.9311)"
         sodipodi:nodetypes="ccccsccc"
         inkscape:connector-curvature="0"
         id="path20137"
         d="m -1306.156,-1189.687 45.2219,-4.3176 c 0,0 -1.9984,-11.6018 1.9428,-12.268 3.9413,-0.6661 4.5753,2.9001 4.5753,2.9001 0,0 -2.238,-2.5397 -4.4618,-1.4703 -2.1536,1.0356 -0.724,11.5043 -0.724,11.5043 l -46.4838,4.3657 z"
         style="color:#000000;display:inline;overflow:visible;visibility:visible;opacity:0.56734691;fill:#ffffff;fill-opacity:1;fill-rule:nonzero;stroke:none;stroke-width:1px;marker:none;filter:url(#filter14506-80-6-9);enable-background:accumulate" />
      <ellipse
         transform="matrix(-0.95103732,-0.44634623,0.44634623,-0.95103732,1006.6638,1741.3955)"
         id="path20139"
         style="color:#000000;display:inline;overflow:visible;visibility:visible;fill:#ff7d23;fill-opacity:1;fill-rule:nonzero;stroke:none;stroke-width:2.59126377;marker:none;enable-background:accumulate"
         cx="-148.45714"
         cy="505.67648"
         rx="4.8000002"
         ry="7.0285716" />
      <ellipse
         style="color:#000000;display:inline;overflow:visible;visibility:visible;fill:#ff7d23;fill-opacity:1;fill-rule:nonzero;stroke:none;stroke-width:2.59126377;marker:none;enable-background:accumulate"
         id="path20141"
         transform="matrix(-0.95103732,-0.44634623,0.44634623,-0.95103732,1020.3839,1736.019)"
         cx="-148.45714"
         cy="505.67648"
         rx="4.8000002"
         ry="7.0285716" />
      <ellipse
         style="color:#000000;display:inline;overflow:visible;visibility:visible;opacity:0.6857143;fill:#ffb44f;fill-opacity:1;fill-rule:nonzero;stroke:none;stroke-width:2.99897122;marker:none;filter:url(#filter14511-9);enable-background:accumulate"
         id="path20143"
         transform="matrix(-0.69262061,-0.32506464,0.32506464,-0.69262061,1106.4998,1628.1373)"
         cx="-148.45714"
         cy="505.67648"
         rx="4.8000002"
         ry="7.0285716" />
      <ellipse
         transform="matrix(-0.66800949,-0.313514,0.313514,-0.66800949,1129.901,1611.8436)"
         id="path20145"
         style="color:#000000;display:inline;overflow:visible;visibility:visible;opacity:0.6857143;fill:#ffb44f;fill-opacity:1;fill-rule:nonzero;stroke:none;stroke-width:3.10946083;marker:none;filter:url(#filter14511-3);enable-background:accumulate"
         cx="-148.45714"
         cy="505.67648"
         rx="4.8000002"
         ry="7.0285716" />
      <path
         sodipodi:nodetypes="cccccccccccccccccccc"
         style="color:#000000;display:inline;overflow:visible;visibility:visible;fill:#ff7d23;fill-opacity:1;fill-rule:nonzero;stroke:none;stroke-width:2.59126377;marker:none;enable-background:accumulate"
         d="m 1297.954,1350.6246 -48.4378,48.7309 26.4019,28.5637 22.6028,-23.8704 -15.5148,-15.9396 -10.667,11.1295 10.2568,13.5053 -1.1668,1.1593 -11.977,-11.4957 c -1.7291,-1.7249 -2.2914,-3.6099 -0.399,-5.8319 l 11.1743,-11.5745 c 1.7363,-1.3851 3.4408,-1.6911 5.1029,-0.5451 0,0 9.3262,7.005 17.7402,16.6236 2.1967,2.9987 1.6536,5.6051 -0.5641,7.9717 l -22.151,25.4373 c -2.692,2.3484 -6.0635,1.8467 -8.5761,-0.6079 l -31.2085,-29.2542 c -3.2037,-2.7645 -2.9988,-9.1832 0.097,-11.9686 l 48.784,-51.0113 z"
         id="path20147"
         inkscape:connector-curvature="0" />
      <path
         transform="matrix(-0.88548957,0,0,-0.88548957,104.69776,282.8325)"
         style="color:#000000;display:inline;overflow:visible;visibility:visible;opacity:0.6857143;fill:#ffb44f;fill-opacity:1;fill-rule:nonzero;stroke:none;stroke-width:2.59126377;marker:none;filter:url(#filter14511);enable-background:accumulate"
         d="m -1323.2724,-1299.9234 c -1.0643,-0.099 -2.0814,0.2102 -3.1562,1.125 -0.02,0.017 -0.042,0.014 -0.063,0.031 l -24.7812,28.5313 c -0.02,0.021 -0.041,0.042 -0.062,0.062 -1.033,1.1023 -1.5008,2.0454 -1.5937,2.9062 -0.091,0.8461 0.1372,1.7967 1.0937,3.125 0.017,0.023 0.014,0.039 0.031,0.063 9.2143,10.4941 19.3609,18.1454 19.5,18.25 0.8033,0.6802 2.5621,0.8617 3.2946,0.3254 l 12.5021,-13.4846 c 0.7731,-1.44 0.092,-2.7525 -0.7664,-3.6221 l -11.7412,-13.0598 11.8974,13.6223 c 0.6453,0.8488 -0.051,1.5235 -0.7827,2.2991 l -12.0718,12.5365 c -0.8378,0.8893 -1.5643,1.3557 -2.4188,0.4824 l -17.7267,-17.7558 c -0.815,-0.8294 -0.8295,-2.3111 -0.031,-3.1563 l 25.5312,-26.9687 c 0.8561,-0.8928 2.4733,-0.8776 3.3126,0.031 l 29.8124,32.25 c 0.7806,0.8423 0.7661,2.2983 -0.031,3.125 l -53.1562,53.4687 6.4374,6.8125 53.4376,-55.875 c 0.04,-0.043 0.082,-0.085 0.125,-0.125 1.1209,-1.0087 1.9378,-3.0223 1.9687,-5.0938 0.031,-2.0714 -0.7094,-4.0211 -1.8437,-5 -0.021,-0.02 -0.042,-0.041 -0.063,-0.062 l -35.25,-33.0626 c -0.01,-0.01 -0.021,-0.021 -0.031,-0.031 -1.1159,-1.0901 -2.2918,-1.6494 -3.375,-1.75 z"
         id="path20149"
         inkscape:connector-curvature="0"
         sodipodi:nodetypes="cccccccccccccccccccccccccccccccccc" />
      <path
         sodipodi:nodetypes="ccsccc"
         inkscape:connector-curvature="0"
         id="path20151"
         d="m 1312.2396,1376.649 4.5281,50.7248 c 0,0 12.3081,-2.4921 11.2371,4.5996 -1.0709,7.0917 -16.7977,2.5579 -16.7977,2.5579 l -2.0192,-58.2093 z"
         style="color:#000000;display:inline;overflow:visible;visibility:visible;fill:#ff7d23;fill-opacity:1;fill-rule:nonzero;stroke:none;stroke-width:2.59126377;marker:none;enable-background:accumulate" />
      <ellipse
         transform="matrix(0.44634623,-0.95103732,0.95103732,0.44634623,908.11094,1031.8418)"
         id="path20153"
         style="color:#000000;display:inline;overflow:visible;visibility:visible;fill:#ff7d23;fill-opacity:1;fill-rule:nonzero;stroke:none;stroke-width:2.59126377;marker:none;enable-background:accumulate"
         cx="-148.45714"
         cy="505.67648"
         rx="4.8000002"
         ry="7.0285716" />
      <ellipse
         style="color:#000000;display:inline;overflow:visible;visibility:visible;fill:#ff7d23;fill-opacity:1;fill-rule:nonzero;stroke:none;stroke-width:2.59126377;marker:none;enable-background:accumulate"
         id="path20155"
         transform="matrix(0.44634623,-0.95103732,0.95103732,0.44634623,913.48746,1045.5619)"
         cx="-148.45714"
         cy="505.67648"
         rx="4.8000002"
         ry="7.0285716" />
      <ellipse
         style="color:#000000;display:inline;overflow:visible;visibility:visible;opacity:0.6857143;fill:#ffb44f;fill-opacity:1;fill-rule:nonzero;stroke:none;stroke-width:2.99897122;marker:none;filter:url(#filter14511-9);enable-background:accumulate"
         id="path20157"
         transform="matrix(0.32506464,-0.69262061,0.69262061,0.32506464,1020.1508,1131.2985)"
         cx="-148.45714"
         cy="505.67648"
         rx="4.8000002"
         ry="7.0285716" />
      <ellipse
         transform="matrix(0.313514,-0.66800949,0.66800949,0.313514,1036.3487,1154.4888)"
         id="path20159"
         style="color:#000000;display:inline;overflow:visible;visibility:visible;opacity:0.6857143;fill:#ffb44f;fill-opacity:1;fill-rule:nonzero;stroke:none;stroke-width:3.10946083;marker:none;filter:url(#filter14511-3);enable-background:accumulate"
         cx="-148.45714"
         cy="505.67648"
         rx="4.8000002"
         ry="7.0285716" />
      <path
         inkscape:connector-curvature="0"
         id="path20161"
         d="m 1326.3744,1324.06 48.4378,-48.731 -26.4018,-28.5637 -22.6029,23.8704 15.5149,15.9396 10.6669,-11.1294 -10.2568,-13.5053 1.1668,-1.1594 11.9771,11.4958 c 1.7291,1.7248 2.2914,3.6099 0.3989,5.8318 l -11.1743,11.5745 c -1.7362,1.3852 -3.4408,1.6911 -5.1029,0.5451 0,0 -9.3261,-7.005 -17.7401,-16.6235 -2.1967,-2.9987 -1.6537,-5.6052 0.564,-7.9717 l 22.151,-25.4373 c 2.6921,-2.3484 6.0636,-1.8467 8.5761,0.6079 l 31.2086,29.2541 c 3.2037,2.7645 2.9987,9.1832 -0.097,11.9687 l -48.784,51.0113 z"
         style="color:#000000;display:inline;overflow:visible;visibility:visible;fill:#ff7d23;fill-opacity:1;fill-rule:nonzero;stroke:none;stroke-width:2.59126377;marker:none;enable-background:accumulate"
         sodipodi:nodetypes="cccccccccccccccccccc" />
      <path
         transform="matrix(0.88548957,0,0,0.88548957,2519.976,2390.9311)"
         sodipodi:nodetypes="cccccccccccccccccccccccccccccccccc"
         inkscape:connector-curvature="0"
         id="path20163"
         d="m -1323.2724,-1299.9234 c -1.0643,-0.099 -2.0814,0.2102 -3.1562,1.125 -0.02,0.017 -0.042,0.014 -0.063,0.031 l -24.7812,28.5313 c -0.02,0.021 -0.041,0.042 -0.062,0.062 -1.033,1.1023 -1.5008,2.0454 -1.5937,2.9062 -0.091,0.8461 0.1372,1.7967 1.0937,3.125 0.017,0.023 0.014,0.039 0.031,0.063 9.2143,10.4941 19.3609,18.1454 19.5,18.25 0.8033,0.6802 2.5621,0.8617 3.2946,0.3254 l 12.5021,-13.4846 c 0.7731,-1.44 0.092,-2.7525 -0.7664,-3.6221 l -11.7412,-13.0598 11.8974,13.6223 c 0.6453,0.8488 -0.051,1.5235 -0.7827,2.2991 l -12.0718,12.5365 c -0.8378,0.8893 -1.5643,1.3557 -2.4188,0.4824 l -17.7267,-17.7558 c -0.815,-0.8294 -0.8295,-2.3111 -0.031,-3.1563 l 25.5312,-26.9687 c 0.8561,-0.8928 2.4733,-0.8776 3.3126,0.031 l 29.8124,32.25 c 0.7806,0.8423 0.7661,2.2983 -0.031,3.125 l -53.1562,53.4687 6.4374,6.8125 53.4376,-55.875 c 0.04,-0.043 0.082,-0.085 0.125,-0.125 1.1209,-1.0087 1.9378,-3.0223 1.9687,-5.0938 0.031,-2.0714 -0.7094,-4.0211 -1.8437,-5 -0.021,-0.02 -0.042,-0.041 -0.063,-0.062 l -35.25,-33.0626 c -0.01,-0.01 -0.021,-0.021 -0.031,-0.031 -1.1159,-1.0901 -2.2918,-1.6494 -3.375,-1.75 z"
         style="color:#000000;display:inline;overflow:visible;visibility:visible;opacity:0.6857143;fill:#ffb44f;fill-opacity:1;fill-rule:nonzero;stroke:none;stroke-width:2.59126377;marker:none;filter:url(#filter14511);enable-background:accumulate" />
      <path
         style="color:#000000;display:inline;overflow:visible;visibility:visible;fill:#ff7d23;fill-opacity:1;fill-rule:nonzero;stroke:none;stroke-width:2.59126377;marker:none;enable-background:accumulate"
         d="m 1312.0888,1298.0355 -4.5281,-50.7247 c 0,0 -12.308,2.492 -11.237,-4.5997 1.0709,-7.0917 16.7977,-2.5578 16.7977,-2.5578 l 2.0192,58.2092 z"
         id="path20165"
         inkscape:connector-curvature="0"
         sodipodi:nodetypes="ccsccc" />
      <path
         transform="matrix(0.88548957,0,0,0.88548957,2519.976,2390.9311)"
         style="color:#000000;display:inline;overflow:visible;visibility:visible;opacity:0.6857143;fill:#ffb44f;fill-opacity:1;fill-rule:nonzero;stroke:none;stroke-width:2.59126377;marker:none;filter:url(#filter14511-1);enable-background:accumulate"
         d="m -1374.9422,-1300.3744 c -1.0072,0.083 -1.9322,0.2662 -2.6875,0.5312 -1.5106,0.5299 -2.2819,1.1806 -2.5,2.625 -0.2411,1.5967 0.1437,2.1992 0.9063,2.7812 0.7625,0.5821 2.1451,0.987 3.6562,1.125 3.0223,0.2762 6.375,-0.375 6.375,-0.375 0.8234,-0.163 1.7118,0.5072 1.7812,1.3438 l 3.7931,44.1749 1.1389,-0.01 -1.6194,-50.9477 c -1.2298,-0.3219 -4.1371,-1.0363 -7.6563,-1.25 -1.0938,-0.067 -2.1803,-0.083 -3.1875,0 z"
         id="path20167"
         inkscape:connector-curvature="0"
         sodipodi:nodetypes="ccscccccccccc" />
      <ellipse
         style="color:#000000;display:inline;overflow:visible;visibility:visible;fill:#ff7d23;fill-opacity:1;fill-rule:nonzero;stroke:none;stroke-width:2.59126377;marker:none;enable-background:accumulate"
         id="path20169"
         transform="matrix(-0.44634623,0.95103732,-0.95103732,-0.44634623,1716.2175,1642.8427)"
         cx="-148.45714"
         cy="505.67648"
         rx="4.8000002"
         ry="7.0285716" />
      <path
         transform="matrix(0.88548957,0,0,0.88548957,2519.976,2390.9311)"
         sodipodi:nodetypes="ccccsssc"
         inkscape:connector-curvature="0"
         id="path20171"
         d="m -1366.0757,-1296.8757 2.9879,48.4826 0.7523,0.041 -2.5177,-50.2026 c 0,0 -5.0273,-1.8468 -10.1572,-1.4364 -5.1299,0.4104 -5.1299,1.9494 -5.1299,2.2572 0,0.3078 2.9754,-0.7182 6.5663,-0.7182 3.5909,0 7.4983,1.5764 7.4983,1.5764 z"
         style="color:#000000;display:inline;overflow:visible;visibility:visible;opacity:0.56734691;fill:#ffffff;fill-opacity:1;fill-rule:nonzero;stroke:none;stroke-width:1px;marker:none;filter:url(#filter14506-80-3-8);enable-background:accumulate" />
      <ellipse
         transform="matrix(-0.44634623,0.95103732,-0.95103732,-0.44634623,1710.8409,1629.1226)"
         id="path20173"
         style="color:#000000;display:inline;overflow:visible;visibility:visible;fill:#ff7d23;fill-opacity:1;fill-rule:nonzero;stroke:none;stroke-width:2.59126377;marker:none;enable-background:accumulate"
         cx="-148.45714"
         cy="505.67648"
         rx="4.8000002"
         ry="7.0285716" />
      <path
         transform="matrix(0.88548957,0,0,0.88548957,2519.976,2390.9311)"
         sodipodi:nodetypes="ccccccccccccsscczccscccccccc"
         inkscape:connector-curvature="0"
         id="path20175"
         d="m -1323.7812,-1299.625 c -0.2035,0.014 -0.9298,0.053 -1.139,0.111 -1.6737,0.4648 -2.719,1.483 -2.719,1.483 0,0 3.3668,-1.1259 5.1336,-0.1962 1.7667,0.9299 36.9813,34.4239 37.8181,35.5397 1.9299,2.6425 2.3022,5.2601 2.3022,5.2601 0,0 0.9676,-3.5887 -0.4272,-5.5414 -1.3947,-1.9527 -38.3125,-35.9062 -38.3125,-35.9062 0,0 -1.2324,-0.8479 -2.6562,-0.75 z m -5.3438,24.5625 c 0,0 11.6962,13.072 12.6259,14.8387 0.93,1.7668 -0.4793,3.3216 -0.4793,3.3216 0,0 1.5274,-1.3831 1.9022,-2.1541 0.4701,-0.9673 -0.3964,-2.2288 -0.8613,-2.6937 -0.465,-0.465 -13.1875,-13.3125 -13.1875,-13.3125 z m -20.1875,8.2813 c 0,0 -1.1539,0.8518 -1.2774,2.3766 -0.1235,1.5248 16.6211,18.5454 18.016,19.0103 1.7111,0.4649 2.4765,-1.1529 2.4765,-1.1529 0,0 -0.9301,0.3099 -1.395,0.3099 -0.4649,0 -17.0135,-16.95 -17.8504,-18.1588 -0.8369,-1.2089 0.03,-2.3851 0.03,-2.3851 z m 57.1875,7.625 -28.8125,29.4687 1.2813,2.5 c 0,0 24.5465,-27.0503 26.4062,-29.375 1.8597,-2.3246 1.125,-2.5937 1.125,-2.5937 z"
         style="color:#000000;display:inline;overflow:visible;visibility:visible;opacity:0.56734691;fill:#ffffff;fill-opacity:1;fill-rule:nonzero;stroke:none;stroke-width:1px;marker:none;filter:url(#filter14506-80-6);enable-background:accumulate" />
      <ellipse
         transform="matrix(-0.32506464,0.69262061,-0.69262061,-0.32506464,1602.9114,1542.6954)"
         id="path20177"
         style="color:#000000;display:inline;overflow:visible;visibility:visible;opacity:0.6857143;fill:#ffb44f;fill-opacity:1;fill-rule:nonzero;stroke:none;stroke-width:2.99897122;marker:none;filter:url(#filter14511-9);enable-background:accumulate"
         cx="-148.45714"
         cy="505.67648"
         rx="4.8000002"
         ry="7.0285716" />
      <path
         transform="matrix(0.88548957,0,0,0.88548957,2519.976,2390.9311)"
         style="color:#000000;display:inline;overflow:visible;visibility:visible;opacity:0.56734691;fill:#ffffff;fill-opacity:1;fill-rule:nonzero;stroke:none;stroke-width:1px;marker:none;filter:url(#filter14506-80-3);enable-background:accumulate"
         d="m -1382.1923,-1262.03 c 0,0 1.7414,-2.4152 4.8221,-2.2572 4.0013,0.2052 7.6948,5.5403 7.6948,5.5403 0,0 -5.0272,-3.3857 -7.4896,-3.6935 -2.4623,-0.3078 -5.0273,0.4104 -5.0273,0.4104 z"
         id="path20179"
         inkscape:connector-curvature="0"
         sodipodi:nodetypes="cscsc" />
      <ellipse
         style="color:#000000;display:inline;overflow:visible;visibility:visible;opacity:0.6857143;fill:#ffb44f;fill-opacity:1;fill-rule:nonzero;stroke:none;stroke-width:3.10946083;marker:none;filter:url(#filter14511-3);enable-background:accumulate"
         id="path20181"
         transform="matrix(-0.313514,0.66800949,-0.66800949,-0.313514,1586.7135,1519.3899)"
         cx="-148.45714"
         cy="505.67648"
         rx="4.8000002"
         ry="7.0285716" />
      <path
         transform="matrix(0.88548957,0,0,0.88548957,2519.976,2390.9311)"
         sodipodi:nodetypes="cscsc"
         inkscape:connector-curvature="0"
         id="path20183"
         d="m -1388.6559,-1277.7274 c 0,0 1.7414,-2.4152 4.8221,-2.2572 4.0013,0.2052 7.6948,5.5403 7.6948,5.5403 0,0 -5.0272,-3.3857 -7.4896,-3.6935 -2.4623,-0.3078 -5.0273,0.4104 -5.0273,0.4104 z"
         style="color:#000000;display:inline;overflow:visible;visibility:visible;opacity:0.56734691;fill:#ffffff;fill-opacity:1;fill-rule:nonzero;stroke:none;stroke-width:1px;marker:none;filter:url(#filter14506-80-3);enable-background:accumulate" />
      <path
         transform="matrix(0.88548957,0,0,0.88548957,2519.976,2390.9311)"
         inkscape:connector-curvature="0"
         id="path20185"
         d="m -1412.5395,-1158.7811 -32.5646,33.7015 c 0,0 -0.7309,1.2993 -0.8121,2.9235 -0.081,1.6242 0.3248,3.0859 0.3248,3.0859 0,0 0.8121,-4.2228 2.2739,-5.847 1.4617,-1.6241 31.9149,-32.3209 31.9149,-32.3209 z"
         style="color:#000000;display:inline;overflow:visible;visibility:visible;opacity:0.56734691;fill:#ffffff;fill-opacity:1;fill-rule:nonzero;stroke:none;stroke-width:1px;marker:none;filter:url(#filter14506-80-6-8);enable-background:accumulate" />
      <path
         transform="matrix(0.88548957,0,0,0.88548957,2519.976,2390.9311)"
         inkscape:connector-curvature="0"
         id="path20187"
         d="m -1324.5275,-1147.2279 30.4476,30.4476 c 0,0 33.4589,-29.89 34.0166,-30.8937 0.5576,-1.0038 -33.5705,33.5704 -33.5705,33.5704 l -32.2321,-32.4551 z"
         style="color:#000000;display:inline;overflow:visible;visibility:visible;opacity:0.56734691;fill:#ffffff;fill-opacity:1;fill-rule:nonzero;stroke:none;stroke-width:1px;marker:none;filter:url(#filter14506-80-6-94);enable-background:accumulate" />
      <path
         transform="matrix(0.88548957,0,0,0.88548957,2519.976,2390.9311)"
         sodipodi:nodetypes="ccczc"
         inkscape:connector-curvature="0"
         id="path20189"
         d="m -1282.4724,-1210.88 c 0,0 1.8873,-3.6637 4.8849,-3.7192 2.9976,-0.055 3.4972,3.9968 3.4972,3.9968 0,0 -1.8238,-2.4183 -3.8302,-2.4425 -2.0064,-0.024 -4.5519,2.1649 -4.5519,2.1649 z"
         style="color:#000000;display:inline;overflow:visible;visibility:visible;opacity:0.56734691;fill:#ffffff;fill-opacity:1;fill-rule:nonzero;stroke:none;stroke-width:1px;marker:none;filter:url(#filter14506-80-6-6);enable-background:accumulate" />
      <path
         transform="matrix(0.88548957,0,0,0.88548957,2519.976,2390.9311)"
         style="color:#000000;display:inline;overflow:visible;visibility:visible;opacity:0.56734691;fill:#ffffff;fill-opacity:1;fill-rule:nonzero;stroke:none;stroke-width:1px;marker:none;filter:url(#filter14506-80-6-6);enable-background:accumulate"
         d="m -1298.1265,-1204.7738 c 0,0 1.8873,-3.6637 4.8849,-3.7192 2.9976,-0.055 3.4972,3.9968 3.4972,3.9968 0,0 -2.2204,-2.5536 -3.8302,-2.4425 -1.6099,0.111 -4.5519,2.1649 -4.5519,2.1649 z"
         id="path20191"
         inkscape:connector-curvature="0" />
      <path
         transform="matrix(0.88548957,0,0,0.88548957,2519.976,2390.9311)"
         sodipodi:nodetypes="ccccszc"
         inkscape:connector-curvature="0"
         id="path20193"
         d="m -1310.3633,-1159.0501 19.5178,-19.7407 c 1.7149,-1.5693 3.5719,-1.7264 5.7995,-0.3346 l 30.2246,26.5441 c 0,0 -26.0853,-21.6601 -31.3597,-25.6338 -0.4902,-0.3692 -1.85,-0.4434 -2.8022,0.032 -0.9523,0.4758 -21.38,19.1325 -21.38,19.1325 z"
         style="color:#000000;display:inline;overflow:visible;visibility:visible;opacity:0.56734691;fill:#ffffff;fill-opacity:1;fill-rule:nonzero;stroke:none;stroke-width:1px;marker:none;filter:url(#filter14506-80-6-66);enable-background:accumulate" />
      <path
         transform="matrix(0.88548957,0,0,0.88548957,2519.976,2390.9311)"
         inkscape:connector-curvature="0"
         id="path20195"
         d="m -1307.575,-1156.0388 13.3836,12.1568 13.0489,-9.8146 c 0,0 -12.4913,11.4875 -13.0489,11.376 -0.5577,-0.1115 -13.3836,-13.7182 -13.3836,-13.7182 z"
         style="color:#000000;display:inline;overflow:visible;visibility:visible;opacity:0.56734691;fill:#ffffff;fill-opacity:1;fill-rule:nonzero;stroke:none;stroke-width:1px;marker:none;filter:url(#filter14506-80-6-67);enable-background:accumulate" />
      <path
         style="color:#000000;display:inline;overflow:visible;visibility:visible;opacity:0.6857143;fill:#ffb44f;fill-opacity:1;fill-rule:nonzero;stroke:none;stroke-width:2.59126377;marker:none;filter:url(#filter14511-1);enable-background:accumulate"
         d="m -1269.6991,-1208.0559 c -1.0072,0.083 -1.9322,0.2662 -2.6875,0.5312 -1.5106,0.5299 -2.2819,1.1806 -2.5,2.625 -0.2411,1.5967 0.1437,2.1992 0.9063,2.7812 0.7625,0.5821 2.1451,0.987 3.6562,1.125 3.0223,0.2762 6.375,-0.375 6.375,-0.375 0.8234,-0.163 1.7118,0.5072 1.7812,1.3438 l 3.7931,44.1749 1.1389,-0.01 -1.6194,-50.9477 c -1.2298,-0.3219 -4.1371,-1.0363 -7.6563,-1.25 -1.0938,-0.067 -2.1803,-0.083 -3.1875,0 z"
         id="path20197"
         inkscape:connector-curvature="0"
         sodipodi:nodetypes="ccscccccccccc"
         transform="matrix(-0.88547954,-0.00421679,0.00421679,-0.88547954,202.79256,359.37325)"
         inkscape:transform-center-x="-6.8834051"
         inkscape:transform-center-y="-24.567136" />
      <path
         transform="matrix(0.88548957,0,0,0.88548957,2519.976,2390.9311)"
         inkscape:connector-curvature="0"
         id="path20199"
         d="m -1358.6983,-1122.7245 c 0,0 0.7308,-3.0048 4.5476,-3.0048 3.8168,0 6.8216,3.8168 6.8216,3.8168 0,0 -5.6846,-2.4362 -7.7149,-2.4362 -2.0302,0 -3.6543,1.6242 -3.6543,1.6242 z"
         style="color:#000000;display:inline;overflow:visible;visibility:visible;opacity:0.56734691;fill:#ffffff;fill-opacity:1;fill-rule:nonzero;stroke:none;stroke-width:1px;marker:none;filter:url(#filter14506-80-6-61);enable-background:accumulate" />
      <path
         transform="matrix(0.88548957,0,0,0.88548957,2519.976,2390.9311)"
         style="color:#000000;display:inline;overflow:visible;visibility:visible;opacity:0.56734691;fill:#ffffff;fill-opacity:1;fill-rule:nonzero;stroke:none;stroke-width:1px;marker:none;filter:url(#filter14506-80-6-61);enable-background:accumulate"
         d="m -1352.0392,-1107.1325 c 0,0 0.7308,-3.0048 4.5476,-3.0048 3.8168,0 6.8216,3.8168 6.8216,3.8168 0,0 -5.6846,-2.4362 -7.7149,-2.4362 -2.0302,0 -3.6543,1.6242 -3.6543,1.6242 z"
         id="path20201"
         inkscape:connector-curvature="0" />
      <path
         transform="matrix(0.88548957,0,0,0.88548957,2519.976,2390.9311)"
         inkscape:connector-curvature="0"
         id="path20203"
         d="m -1363.1648,-1131.0078 3.5732,44.2586 c 0,0 3.898,-0.6497 5.847,-0.6497 1.949,0 5.9282,0.8121 6.3342,2.8423 0.4061,2.0302 -0.2436,2.3551 -0.2436,2.3551 0,0 -0.406,-4.0605 -6.9027,-3.8168 -6.4967,0.2436 -6.1718,0.2436 -6.1718,0.2436 l -3.2484,-46.0452 z"
         style="color:#000000;display:inline;overflow:visible;visibility:visible;opacity:0.56734691;fill:#ffffff;fill-opacity:1;fill-rule:nonzero;stroke:none;stroke-width:1px;marker:none;filter:url(#filter14506-80-6-4);enable-background:accumulate" />
      <path
         transform="matrix(0.88548957,0,0,0.88548957,2519.976,2390.9311)"
         inkscape:connector-curvature="0"
         id="path20205"
         d="m -1412.9456,-1121.9125 14.0491,-13.8054 c 0,0 0.9745,-0.7309 1.949,-0.7309 0.9745,0 2.1114,0.4061 2.1114,0.4061 l 19.0028,18.0282 c 0,0 1.2181,1.6242 1.4617,2.3551 0.2437,0.7309 -20.4645,-19.0028 -21.2766,-19.3276 -0.8121,-0.3249 -2.0302,-0.3249 -2.9235,0.3248 -0.8933,0.6497 -14.3739,12.7497 -14.3739,12.7497 z"
         style="color:#000000;display:inline;overflow:visible;visibility:visible;opacity:0.56734691;fill:#ffffff;fill-opacity:1;fill-rule:nonzero;stroke:none;stroke-width:1px;marker:none;filter:url(#filter14506-80-6-2);enable-background:accumulate" />
      <path
         transform="matrix(0.88548957,0,0,0.88548957,2519.976,2390.9311)"
         inkscape:connector-curvature="0"
         id="path20207"
         d="m -1409.7784,-1119.5574 11.6128,14.7799 c 0,0 -11.8565,-13.4806 -11.9377,-13.8054 -0.081,-0.3248 0.3249,-0.9745 0.3249,-0.9745 z"
         style="color:#000000;display:inline;overflow:visible;visibility:visible;opacity:0.56734691;fill:#ffffff;fill-opacity:1;fill-rule:nonzero;stroke:none;stroke-width:1px;marker:none;filter:url(#filter14506-80-6-1);enable-background:accumulate" />
      <path
         transform="matrix(0.88548957,0,0,0.88548957,2519.976,2390.9311)"
         inkscape:connector-curvature="0"
         id="path20209"
         d="m -1377.2139,-1114.1977 c 0,0 -0.812,0 -1.2181,0.2437 -0.406,0.2436 -26.0679,27.6108 -26.0679,27.6108 l -31.0216,-33.2954 0,-1.1369 c 0,0 -1.2181,1.0557 -0.4873,1.949 0.7309,0.8933 31.6713,34.1887 31.6713,34.1887 z"
         style="color:#000000;display:inline;overflow:visible;visibility:visible;opacity:0.56734691;fill:#ffffff;fill-opacity:1;fill-rule:nonzero;stroke:none;stroke-width:1px;marker:none;filter:url(#filter14506-80-6-3);enable-background:accumulate" />
      <path
         transform="matrix(0.88548957,0,0,0.88548957,2519.976,2390.9311)"
         inkscape:connector-curvature="0"
         id="path20211"
         d="m -1447.3658,-1178.3983 -4.2543,2.8108 c 0,0 1.6713,-3.0387 4.4062,-3.0387 2.7349,0 3.7225,3.4945 3.7225,3.4945 0,0 -2.279,-2.5829 -4.1783,-2.279 -1.8992,0.3038 -3.9504,1.8232 0.3039,-0.9876 z"
         style="color:#000000;display:inline;overflow:visible;visibility:visible;opacity:0.56734691;fill:#ffffff;fill-opacity:1;fill-rule:nonzero;stroke:none;stroke-width:1px;marker:none;filter:url(#filter14506-80-6-12);enable-background:accumulate" />
      <path
         transform="matrix(0.88548957,0,0,0.88548957,2519.976,2390.9311)"
         style="color:#000000;display:inline;overflow:visible;visibility:visible;opacity:0.56734691;fill:#ffffff;fill-opacity:1;fill-rule:nonzero;stroke:none;stroke-width:1px;marker:none;filter:url(#filter14506-80-6-12);enable-background:accumulate"
         d="m -1431.4882,-1184.172 -4.2543,2.8108 c 0,0 1.6713,-3.0387 4.4062,-3.0387 2.7349,0 3.7225,3.4945 3.7225,3.4945 0,0 -2.279,-2.5829 -4.1783,-2.279 -1.8992,0.3038 -3.9504,1.8232 0.3039,-0.9876 z"
         id="path20213"
         inkscape:connector-curvature="0" />
      <path
         transform="matrix(0.88548957,0,0,0.88548957,2519.976,2390.9311)"
         inkscape:connector-curvature="0"
         id="path20215"
         d="m -1449.2,-1225.014 13.0012,-13.0879 c 0,0 1.2134,-0.8667 2.1669,-0.8667 0.9534,0 2.5135,0.9534 2.5135,0.9534 0,0 13.5213,12.8278 13.7813,13.7812 0.26,0.9535 0.26,2.1669 0.26,2.1669 0,0 -0.6067,-2.1669 -3.467,-4.6804 -2.8602,-2.5136 -11.6144,-10.661 -11.6144,-10.661 0,0 -0.8667,-0.52 -1.7335,-0.3467 -0.8667,0.1733 -14.908,12.7412 -14.908,12.7412 z"
         style="color:#000000;display:inline;overflow:visible;visibility:visible;opacity:0.56734691;fill:#ffffff;fill-opacity:1;fill-rule:nonzero;stroke:none;stroke-width:1px;marker:none;filter:url(#filter14506-80-6-121);enable-background:accumulate" />
      <path
         transform="matrix(0.88548957,0,0,0.88548957,2519.976,2390.9311)"
         inkscape:connector-curvature="0"
         id="path20217"
         d="m -1466.9683,-1231.5146 c 0,0 -0.6067,0.78 -0.26,1.0401 0.3467,0.26 27.5625,26.3491 27.5625,26.3491 l 1.6468,-0.9535 c 0,0 -0.7801,1.4735 -1.3868,1.5602 -0.6067,0.087 -0.6934,0 -6.1539,-4.7671 -5.4605,-4.7671 -22.9688,-21.322 -22.6221,-22.1021 0.3467,-0.78 1.2135,-1.1267 1.2135,-1.1267 z"
         style="color:#000000;display:inline;overflow:visible;visibility:visible;opacity:0.56734691;fill:#ffffff;fill-opacity:1;fill-rule:nonzero;stroke:none;stroke-width:1px;marker:none;filter:url(#filter14506-80-6-82);enable-background:accumulate" />
      <path
         inkscape:connector-curvature="0"
         id="path20219"
         d="m 1057.6513,1283.371 a 7.084625,7.084625 0 0 0 -7,7.1875 l 0,93.5625 a 7.09375,7.09375 0 0 0 14.1875,0 l 0,-93.5625 a 7.084625,7.084625 0 0 0 -7.1875,-7.1875 z m -50.1875,0.3437 a 7.084625,7.084625 0 0 0 -7,7.1876 l 0,73.0312 c 0,14.9723 12.2776,27.25 27.25,27.25 l 12.625,0 a 7.084625,7.084625 0 1 0 0,-14.1562 l -12.625,0 c -7.3684,0 -13.0937,-5.7254 -13.0937,-13.0938 l 0,-73.0312 a 7.084625,7.084625 0 0 0 -7.1563,-7.1876 z m 186.5938,0 a 7.084625,7.084625 0 0 0 -6.9688,7.1876 l 0,73.0312 c 0,14.9723 12.2464,27.25 27.2188,27.25 l 12.625,0 a 7.084625,7.084625 0 1 0 0,-14.1562 l -12.625,0 c -7.3685,0 -13.0625,-5.7254 -13.0625,-13.0938 l 0,-73.0312 a 7.084625,7.084625 0 0 0 -7.1875,-7.1876 z m -216.53128,0.125 c -14.97231,0 -27.25,12.2464 -27.25,27.2188 l 0,16.9375 a 7.084625,7.084625 0 0 0 0,13.9063 l 0,42.2187 a 7.084625,7.084625 0 1 0 14.15625,0 l 0,-42.0625 22.1875,0 a 7.09375,7.09375 0 0 0 0,-14.1875 l -22.1875,0 0,-16.8125 c 0,-7.3686 5.72523,-13.0625 13.09375,-13.0625 l 12.59375,0 a 7.084625,7.084625 0 1 0 0,-14.1563 l -12.59375,0 z m 113.78128,0.875 -0.3438,0.031 c 0,0 -5.7587,0.5976 -11.5,4.1563 -5.7412,3.5587 -11.8437,11.0549 -11.8437,22.0937 0,10.1817 3.4139,17.8702 8.2187,23.0625 4.8048,5.1922 10.371,8.1028 14.7813,11.0312 5.0095,3.3264 9.6926,6.0652 12.6562,8.875 2.9637,2.81 4.375,5.0227 4.375,9.5 0,9.2701 -6.9883,14.25 -12,14.25 -8.747,0 -17.3437,-0.5624 -17.3437,-0.5624 a 6.6072322,6.6072322 0 0 0 -0.8438,13.1874 c 0,0 8.8905,0.5626 18.1875,0.5626 13.0325,0 25.1875,-11.4799 25.1875,-27.4376 0,-8.1365 -3.8153,-14.6817 -8.4687,-19.0937 -4.6535,-4.4121 -9.9585,-7.3071 -14.4375,-10.2813 -5.0783,-3.372 -9.5547,-5.9184 -12.4063,-9 -2.8515,-3.0815 -4.7187,-6.5329 -4.7187,-14.0937 0,-6.7039 2.6261,-9.0162 5.625,-10.875 2.8744,-1.7817 5.6098,-2.1857 5.8437,-2.2187 l 17.4688,0 a 6.6006599,6.6006599 0 1 0 0,-13.1876 l -18.0625,0 -0.375,0 z m 52.6562,26.5626 c -11.0761,0 -20.1875,9.1425 -20.1875,20.2187 l 0,39.4687 c 0,11.0762 9.1114,20.2188 20.1875,20.2188 l 18.6563,0 c 11.0761,0 20.2187,-9.1425 20.2187,-20.2188 l 0,-39.4687 c 0,-11.0762 -9.1426,-20.2187 -20.2187,-20.2187 l -18.6563,0 z m 0,14.1562 18.6563,0 c 3.4722,0 6.0312,2.5902 6.0312,6.0625 l 0,39.4687 c 0,3.4723 -2.559,6.0626 -6.0312,6.0626 l -18.6563,0 c -3.4722,0 -6.0312,-2.5903 -6.0312,-6.0626 l 0,-39.4687 c 0,-3.4723 2.559,-6.0625 6.0312,-6.0625 z"
         style="color:#000000;font-style:normal;font-variant:normal;font-weight:normal;font-stretch:normal;font-size:medium;line-height:normal;font-family:Sans;-inkscape-font-specification:Sans;text-indent:0;text-align:start;text-decoration:none;text-decoration-line:none;letter-spacing:normal;word-spacing:normal;text-transform:none;direction:ltr;block-progression:tb;writing-mode:lr-tb;baseline-shift:baseline;text-anchor:start;display:inline;overflow:visible;visibility:visible;fill:#ff8e2a;fill-opacity:1;stroke:none;stroke-width:2;marker:none;enable-background:accumulate" />
      <circle
         transform="matrix(0.92285934,0,0,0.92285934,1503.5875,847.8506)"
         id="path20221"
         style="color:#000000;display:inline;overflow:visible;visibility:visible;fill:#ffffff;fill-opacity:1;fill-rule:nonzero;stroke:#0055d4;stroke-width:6.50153255;stroke-opacity:1;marker:none;enable-background:accumulate"
         cx="-207"
         cy="530.36218"
         r="53" />
      <circle
         id="path20223"
         style="color:#000000;display:inline;overflow:visible;visibility:visible;fill:#0055d4;fill-opacity:1;fill-rule:nonzero;stroke:none;stroke-width:1;marker:none;enable-background:accumulate"
         transform="matrix(0.7586773,0,0,0.7586773,1055.0644,1207.9839)"
         cx="339.39481"
         cy="170.44995"
         r="68.136078" />
      <circle
         transform="matrix(0.7586773,0,0,0.7586773,1055.0644,1207.9839)"
         style="color:#000000;display:inline;overflow:visible;visibility:visible;opacity:0.4820717;fill:url(#radialGradient20235);fill-opacity:1;fill-rule:nonzero;stroke:none;stroke-width:1;marker:none;enable-background:accumulate"
         id="path20225"
         cx="339.39481"
         cy="170.44995"
         r="68.136078" />
      <circle
         id="path20227"
         style="color:#000000;display:inline;overflow:visible;visibility:visible;fill:url(#radialGradient20237);fill-opacity:1;fill-rule:nonzero;stroke:none;stroke-width:1.35547781;marker:none;filter:url(#filter4645);enable-background:accumulate"
         transform="matrix(0.57670427,0,0,0.57670427,1116.8252,1231.4316)"
         cx="339.39481"
         cy="170.44995"
         r="68.136078" />
      <path
         transform="matrix(0.87315755,0,0,0.87315755,2503.5473,2376.2329)"
         inkscape:connector-curvature="0"
         id="path20229"
         d="m -1392.4809,-1232.0483 c -0.8019,0.033 -1.509,0.2328 -2.0475,0.6749 -0.2982,2.8855 0.7189,6.5887 2.9222,8.6149 -0.1902,-0.2464 -0.4195,-0.6929 -0.7355,-1.4291 -0.9777,-1.6628 -2.7369,-9.0374 0.656,-5.4787 1.989,4.1785 2.6367,9.2781 5.7252,12.9819 2.3538,3.8651 6.8255,4.1147 10.5955,5.0816 3.2734,1.588 4.3264,6.2894 7.8522,7.2255 2.5104,3.2637 -0.6389,7.349 -2.0078,10.5006 -2.7461,4.8644 2.8883,7.8174 4.6716,11.632 3.6086,4.9811 7.031,11.5771 4.3138,17.8452 -1.6058,4.5347 -1.9956,9.5445 -3.1409,14.2721 -0.5096,3.3536 -1.2328,10.3996 2.3855,11.0564 0.7253,-3.6267 0.4384,-7.5298 3.3595,-10.2624 2.8735,-5.4672 8.4716,-8.8774 12.7226,-12.7436 1.9606,-2.3297 5.7601,-7.6173 9.5221,-10.203 1.6683,-2.8236 1.1693,-7.6219 4.2343,-10.4213 2.348,-2.4836 3.5146,-8.2489 -0.994,-8.9324 -6.0092,-2.3954 -10.9523,-6.9424 -14.9491,-12.0886 -4.3284,-2.3316 -7.0463,-2.9684 -11.6629,-4.4538 -0.281,-0.091 -0.6668,2.4248 -1.5084,2.4164 -1.1507,-0.011 0.2655,-3.2189 -2.2349,-3.1236 -0.4188,1.379 -2.8098,3.5597 -4.453,4.0295 -0.6343,-1.0347 -2.8863,-3.2068 -2.7234,-4.9624 -0.075,-3.5364 -4.592,-3.6234 -2.8626,-6.9872 -1.0331,-2.9637 -5.1833,4.3511 -6.8781,-0.6552 -1.002,-4.349 -1.1763,-11.7175 -5.1885,-12.545 -1.9336,-0.7657 -5.1682,-2.1428 -7.5739,-2.0447 z m 24.8308,12.2251 c 0.3973,0.1244 2.1717,-0.4166 4.1253,-0.3854 1.8411,0.03 4.9133,1.545 5.4703,1.0618 -0.868,-2.878 -6.9897,-2.3488 -6.8746,-2.3354 -0.9249,0.7782 -3.383,1.4105 -2.721,1.659 z m 20.154,5.4712 c -0.1529,0.27 -0.9304,0.3375 -0.9313,-0.2161 0.3055,-0.5351 0.9002,-0.076 0.9313,0.2161 z m -3.6979,-1.0674 c -3.4763,-0.1072 -1.191,-1.878 -3.0367,-1.8379 -1.2939,0.027 -0.927,1.3862 -3.1699,1.1772 2.062,0.9711 2.2009,0.732 3.6375,1.4994 2.0386,-0.1206 3.2905,-0.092 2.5691,-0.8387 z"
         style="font-size:12px;fill:#0055d4;fill-opacity:1;fill-rule:nonzero;stroke:#ff7d23;stroke-width:1.1452688;stroke-opacity:1;filter:url(#filter15293)"
         sodipodi:nodetypes="cccccccccccccccccccssccccccccscccccccsccc" />
      <path
         sodipodi:nodetypes="cccccccccccccccccccssccccccccscccccccsccc"
         style="font-size:12px;fill:#ccff00;fill-opacity:1;fill-rule:nonzero;stroke:#d4ff2a;stroke-width:1.00000012;stroke-opacity:1"
         d="m 1287.6921,1300.4607 c -0.7002,0.029 -1.3176,0.2032 -1.7878,0.5893 -0.2604,2.5195 0.6277,5.7529 2.5515,7.5221 -0.166,-0.2151 -0.3662,-0.605 -0.6422,-1.2478 -0.8537,-1.4519 -2.3897,-7.8911 0.5728,-4.7838 1.7367,3.6485 2.3023,8.1013 4.999,11.3353 2.0553,3.3748 5.9598,3.5928 9.2516,4.437 2.8582,1.3866 3.7776,5.4916 6.8562,6.309 2.1919,2.8497 -0.5579,6.4168 -1.7532,9.1687 -2.3977,4.2474 2.522,6.8258 4.0791,10.1566 3.1509,4.3492 6.1392,10.1086 3.7666,15.5816 -1.4021,3.9595 -1.7425,8.3339 -2.7425,12.4618 -0.4449,2.9282 -1.0764,9.0805 2.0829,9.654 0.6333,-3.1667 0.3828,-6.5747 2.9334,-8.9607 2.509,-4.7737 7.397,-7.7514 11.1088,-11.1272 1.712,-2.0342 5.0295,-6.6511 8.3143,-8.9088 1.4567,-2.4654 1.021,-6.6551 3.6972,-9.0994 2.0502,-2.1686 3.0688,-7.2026 -0.8679,-7.7994 -5.247,-2.0916 -9.5631,-6.0618 -13.0529,-10.5553 -3.7794,-2.0358 -6.1525,-2.5919 -10.1835,-3.8888 -0.2454,-0.08 -0.5823,2.1172 -1.3171,2.1099 -1.0048,-0.01 0.2318,-2.8106 -1.9514,-2.7274 -0.3657,1.204 -2.4534,3.1081 -3.8882,3.5184 -0.5538,-0.9035 -2.5202,-2.8001 -2.378,-4.333 -0.065,-3.0878 -4.0095,-3.1638 -2.4995,-6.1009 -0.902,-2.5878 -4.5258,3.7992 -6.0056,-0.5721 -0.8749,-3.7974 -1.0271,-10.2312 -4.5304,-10.9538 -1.6883,-0.6686 -4.5127,-1.871 -6.6132,-1.7853 z m 21.6812,10.6744 c 0.3469,0.1086 1.8962,-0.3637 3.602,-0.3365 1.6076,0.026 4.2901,1.349 4.7765,0.9271 -0.7579,-2.5129 -6.1031,-2.0509 -6.0026,-2.0392 -0.8076,0.6795 -2.9539,1.2316 -2.3759,1.4486 z m 17.5976,4.7772 c -0.1335,0.2358 -0.8124,0.2947 -0.8132,-0.1887 0.2668,-0.4672 0.7861,-0.066 0.8132,0.1887 z m -3.2288,-0.932 c -3.0354,-0.094 -1.04,-1.6398 -2.6516,-1.6048 -1.1297,0.024 -0.8094,1.2104 -2.7678,1.0279 1.8005,0.8479 1.9218,0.6392 3.1761,1.3092 1.78,-0.1053 2.8732,-0.08 2.2433,-0.7323 z"
         id="path20231"
         inkscape:connector-curvature="0" />
      <path
         style="opacity:0.87980772;fill:url(#linearGradient20239);fill-opacity:1;stroke:none"
         d="m 1328.3838,1292.6133 c 3.4651,1.83 8.1043,4.6851 10.1513,6.5327 2.3577,1.2433 6.2085,4.4506 9.5763,6.9779 0,0 -4.6582,-5.2539 -8.8493,-8.2416 -3.3557,-2.3163 -7.1416,-3.9403 -10.8783,-5.269 z m 17.213,9.2938 4.524,5.5374 4.0325,4.2008 -3.3375,-4.7991 z m -8.9793,-2.4754 c -5.647,-3.5425 -15.7638,-8.3129 -15.7638,-8.3129 0,0 4.9464,5.3399 6.8075,11.8727 1.8612,6.5329 -0.5606,11.507 -0.5606,11.507 0,0 7.3819,1.3536 16.3661,7.2436 9.1038,5.9683 14.2109,18.3074 14.2109,18.3074 0,0 0.5209,-6.9266 -2.2657,-16.8024 -2.7865,-9.8758 -6.6299,-15.0803 -6.6299,-15.0803 0,0 -6.5175,-5.1927 -12.1645,-8.7351 z m 14.3521,10.474 c 2.0326,3.6441 4.556,7.5121 5.3679,10.6479 1.755,2.9294 3.2096,7.8891 4.677,13.5353 0,0 -0.1909,-10.4311 -2.595,-14.5703 -2.4585,-3.997 -7.4499,-9.6129 -7.4499,-9.6129 z"
         id="path20233"
         inkscape:connector-curvature="0"
         sodipodi:nodetypes="cccccccccczczcsczczccccc" />
    </g>
  </g>
</svg>
