<?xml version="1.0" encoding="UTF-8" standalone="no"?>
<!-- Created with Inkscape (http://www.inkscape.org/) -->

<svg
   xmlns:dc="http://purl.org/dc/elements/1.1/"
   xmlns:cc="http://creativecommons.org/ns#"
   xmlns:rdf="http://www.w3.org/1999/02/22-rdf-syntax-ns#"
   xmlns:svg="http://www.w3.org/2000/svg"
   xmlns="http://www.w3.org/2000/svg"
   xmlns:sodipodi="http://sodipodi.sourceforge.net/DTD/sodipodi-0.dtd"
   xmlns:inkscape="http://www.inkscape.org/namespaces/inkscape"
   width="392.72809mm"
   height="306.77557mm"
   viewBox="0 0 1391.5562 1087.0001"
   id="svg2"
   version="1.1"
   inkscape:version="0.91 r13725"
   sodipodi:docname="LOGO-SYSARMY.svg">
  <defs
     id="defs4" />
  <sodipodi:namedview
     id="base"
     pagecolor="#ffffff"
     bordercolor="#666666"
     borderopacity="1.0"
     inkscape:pageopacity="0.0"
     inkscape:pageshadow="2"
     inkscape:zoom="0.35"
     inkscape:cx="650.57144"
     inkscape:cy="444.85721"
     inkscape:document-units="px"
     inkscape:current-layer="layer1"
     showgrid="false"
     fit-margin-top="0"
     fit-margin-left="0"
     fit-margin-right="0"
     fit-margin-bottom="0"
     inkscape:window-width="1440"
     inkscape:window-height="824"
     inkscape:window-x="0"
     inkscape:window-y="27"
     inkscape:window-maximized="1" />
  <metadata
     id="metadata7">
    <rdf:RDF>
      <cc:Work
         rdf:about="">
        <dc:format>image/svg+xml</dc:format>
        <dc:type
           rdf:resource="http://purl.org/dc/dcmitype/StillImage" />
        <dc:title></dc:title>
      </cc:Work>
    </rdf:RDF>
  </metadata>
  <g
     inkscape:label="Capa 1"
     inkscape:groupmode="layer"
     id="layer1"
     transform="translate(331.28573,4.0663673)">
    <path
       style="fill:#ffffff;fill-rule:evenodd;stroke:#000000;stroke-width:1px;stroke-linecap:butt;stroke-linejoin:miter;stroke-opacity:1"
       d="m -2.71436,37.219469 1011.42856,0 -271.61359,1013.675631 -1016.95783,0 z"
       id="path4149"
       inkscape:connector-curvature="0" />
    <path
       style="fill:#000000"
       d="m -331.28573,1081.8674 c 0,-0.5864 66.825,-244.88096 148.5,-542.87658 81.675,-297.99565 148.500011,-542.0908273 148.500011,-542.4337273 0,-0.34291 246.405319,-0.62346 547.567389,-0.62346 534.58723,0 547.55323,0.0444 546.97343,1.87157 -0.3268,1.02936 -66.73897,243.2418673 -147.58292,538.2500073 -80.8438,295.00813 -147.6694,538.74099 -148.5013,541.62849 l -1.5125,5.25 -546.97203,0 c -386.64588,0 -546.97208,-0.3125 -546.97208,-1.0663 z M 29.595181,995.68359 c 2.06149,-6.467 67.1191,-244.56589 67.1191,-245.64359 0,-0.80255 -34.16954,-1.10636 -124.43261,-1.10636 -117.635001,0 -124.462101,0.0956 -124.972201,1.75 -1.807,5.86001 -67.5952,246.57595 -67.5952,247.32745 0,0.5584 49.1062,0.9225 124.422501,0.9225 l 124.42241,0 1.036,-3.25 z M 211.67265,912.75294 c 15.87379,-57.7733 24.16211,-86.35466 25.44662,-87.74997 2.12136,-2.30438 7.46547,-2.79887 9.39501,-0.86933 0.66,0.66 1.19835,2.3475 1.19634,3.75 -0.002,1.4025 -6.52702,26.3119 -14.5,55.3541 -7.97299,29.0423 -14.49634,53.4548 -14.49634,54.25 0,1.235 5.3631,1.4459 36.76422,1.4459 l 36.76422,0 14.84174,-54.25 c 8.16296,-29.8375 15.43941,-55.69648 16.16989,-57.46441 2.19553,-5.31372 10.77492,-5.86306 12.05276,-0.77175 0.41809,1.66579 -6.98454,30.22396 -22.48477,86.74276 -12.70943,46.3426 -23.10806,84.59315 -23.10806,85.00125 0,1.1166 72.77379,0.9171 73.46501,-0.2013 0.32067,-0.5188 15.66206,-55.98125 34.09198,-123.24995 18.42992,-67.26862 33.74944,-123.0941 34.04337,-124.0566 0.50698,-1.66018 -5.87227,-1.74999 -124.28297,-1.74972 l -124.81739,2.8e-4 -34.10093,124.24974 c -18.75552,68.3373 -33.91305,124.59265 -33.68342,125.01195 0.22964,0.4192 16.90633,0.6442 37.05931,0.5 l 36.64177,-0.2623 23.54164,-85.68065 z m 487.48193,80.93065 c 5.1763,-18.1642 66.5597,-242.99925 66.5597,-243.79512 0,-0.62628 -13.2474,-0.88488 -36.738,-0.71715 l -36.738,0.26232 -7.7138,27.91603 c -4.2425,15.35382 -8.4262,28.62882 -9.2969,29.5 -1.3909,1.39154 -7.2295,1.61784 -48.06019,1.86278 -31.45271,0.18869 -47.11959,-0.0651 -48.46501,-0.78518 -1.31626,-0.70444 -1.9881,-2.09353 -1.9881,-4.11056 0,-1.67561 3.15,-14.47956 7,-28.45321 3.85,-13.97366 7,-25.63687 7,-25.91826 0,-0.28138 -16.63743,-0.5116 -36.97207,-0.5116 l -36.97206,0 -1.50305,5.25 c -4.10743,14.34678 -42.55282,155.2301 -42.55282,155.935 0,0.4483 38.46463,0.815 85.47695,0.815 l 85.47694,0 1.54963,2.365 c 1.88309,2.874 0.77765,6.6242 -2.66291,9.0341 -2.05254,1.4376 -11.02592,1.6009 -87.99216,1.6009 l -85.70653,0 -1.52018,5.25 c -3.6174,12.4929 -18.62174,67.92185 -18.62174,68.79235 0,0.605 45.83104,0.9576 124.47207,0.9576 l 124.47203,0 1.4962,-5.25 z M -46.944879,635.68364 c 5.77324,-21.1437 8.23772,-28.69021 9.79716,-30 1.91924,-1.61198 5.76941,-1.75 48.8178,-1.75 45.58259,0 46.77917,0.0497 48.55806,2.01531 1.77616,1.96264 1.63236,2.71402 -5.5024,28.75 -4.02943,14.70408 -7.52855,27.29719 -7.77583,27.98469 -0.35451,0.98559 7.38519,1.25 36.58999,1.25 34.410509,0 37.076619,-0.12422 37.561039,-1.75 0.28678,-0.9625 15.41844,-56.2 33.6259,-122.75 18.20746,-66.55 33.33346,-121.7875 33.61334,-122.75 0.48272,-1.66007 -5.90552,-1.7496 -124.308509,-1.7422 l -124.81739,0.008 -21.81484,79.7422 c -11.99817,43.85821 -27.335171,99.8797 -34.082271,124.4922 l -12.2675,44.75 37.145901,0 37.14596,0 7.71359,-28.25 z m 40.4091604,-134.8301 c -2.6033,-1.51628 -2.28153,-7.07193 0.56445,-9.74559 2.30851,-2.16872 2.43515,-2.17431 49.2999996,-2.17431 35.21098,0 47.28627,0.30072 48.18555,1.2 2.01797,2.01797 1.38922,6.70169 -1.25455,9.34545 l -2.45454,2.45455 -46.29546,-0.0304 c -29.58006,-0.0194 -46.9272996,-0.39843 -48.0454496,-1.04969 z M 280.60099,660.68364 c 0.57299,-1.7875 11.19108,-40.375 23.59574,-85.75 17.77656,-65.02482 22.99719,-82.87069 24.64653,-84.25 1.9274,-1.61185 5.78187,-1.75 48.82682,-1.75 45.14392,0 46.79457,0.0667 48.50773,1.95971 2.10461,2.32556 1.48625,6.09051 -1.48897,9.06573 -1.90403,1.90403 -3.49008,1.97456 -44.4036,1.97456 l -42.42904,0 -1.51453,5.25 c -2.00941,6.96547 -41.30478,150.4665 -42.17197,154.00594 l -0.67522,2.75594 80.8599,-0.25594 80.8599,-0.25594 10.0719,-36.75 10.07191,-36.75 -40.88765,0 c -26.27254,0 -41.57903,-0.37002 -42.8219,-1.03518 -2.33672,-1.25058 -2.62809,-6.63325 -0.51553,-9.52369 1.35638,-1.85583 3.31949,-1.9631 44.67162,-2.44113 l 43.25289,-0.5 21.81549,-79.5 c 11.99851,-43.725 21.82128,-80.0625 21.82838,-80.75 0.0102,-0.99337 -25.53342,-1.25 -124.41972,-1.25 -117.63585,0 -124.46197,0.0956 -124.97005,1.75 -1.00171,3.26176 -67.59734,246.46011 -67.59734,246.85646 0,0.21644 16.6151,0.39354 36.92245,0.39354 l 36.92245,0 1.04181,-3.25 z m 510.16589,-1 c 1.7756,-6.68019 65.9647,-241.04309 66.5546,-243 0.5005,-1.66014 -5.8815,-1.74995 -124.2898,-1.74894 l -124.8174,10e-4 -32.93567,120.24894 c -18.11462,66.13692 -33.5056,122.16144 -34.20217,124.49894 l -1.2665,4.25 124.91364,0 124.9136,0 1.1297,-4.25 z m -556.45149,-410.50356 22.10112,-80.74644 -85.20116,-0.25555 c -82.687289,-0.24802 -85.252609,-0.31242 -86.945319,-2.18284 -2.02602,-2.23873 -1.41439,-7.10395 1.16191,-9.24251 1.27822,-1.06104 18.529559,-1.41692 88.181739,-1.8191 l 86.59263,-0.5 10.03526,-36.5 10.03526,-36.500004 -124.44403,-0.25391 c -68.444229,-0.13964 -124.610869,-0.0871 -124.814779,0.11684 -0.20391,0.2039 -10.04024,35.643164 -21.8585296,78.753904 -11.81828,43.11074 -21.7311704,79.16324 -22.0286404,80.11666 -0.50981,1.63395 4.3767704,1.74879 85.10209,2 83.461639,0.25972 85.679099,0.31595 87.062149,2.20764 2.15097,2.94204 1.72104,5.41087 -1.50389,8.63579 l -2.92307,2.92308 -86.038379,0 -86.03838,0 -1.12603,4.25 c -1.60951,6.0748 -17.94536,65.90356 -18.56696,68 -0.49222,1.6601 5.89286,1.74982 124.29851,1.74644 l 124.817389,-0.004 22.10111,-80.74645 z m 312.79309,79.00356 c 0.29094,-0.9625 15.42014,-56.2 33.62045,-122.75 18.20031,-66.55 33.32292,-121.787504 33.6058,-122.750004 0.4833,-1.64444 -1.72152,-1.75 -36.55306,-1.75 -20.38707,0 -37.06739,0.22293 -37.06739,0.4954 0,2.90607 -15.35448,55.238814 -16.61616,56.632964 -1.61015,1.7792 -4.05805,1.87164 -49.56027,1.87164 l -47.86645,0 -1.03693,-2.27582 c -0.83076,-1.82333 0.2493,-6.9431 5.43223,-25.75 3.55803,-12.910804 6.92303,-25.161684 7.47776,-27.224184 l 1.00861,-3.75 -37.1694,0.01 -37.16939,0.01 -21.77936,79.740054 c -11.97864,43.85702 -21.76614,80.07754 -21.75,80.49004 0.0162,0.4125 37.71686,0.75663 83.77936,0.76474 65.27074,0.0115 84.30162,0.29233 86.25,1.27281 3.28175,1.65145 3.8404,6.45293 1.13901,9.78936 l -1.9619,2.423 -86.83855,0.27653 -86.83856,0.27653 -10.07908,36.97347 -10.07909,36.97347 124.7617,0 c 117.95248,0 124.79056,-0.0955 125.29067,-1.75 z m 356.1796,-79.01326 22.0738,-80.73674 -85.1739,-0.25555 c -82.6603,-0.24802 -85.2253,-0.31243 -86.9179,-2.18284 -2.0261,-2.23873 -1.4144,-7.10395 1.1619,-9.24251 1.2782,-1.06104 18.5277,-1.41692 88.1713,-1.8191 l 86.5823,-0.5 9.7521,-35.5 c 5.3636,-19.525004 9.7576,-36.062504 9.7643,-36.750004 0.01,-0.99337 -25.5343,-1.25 -124.4203,-1.25 -117.6379,0 -124.4617,0.0956 -124.9646,1.75 -0.2926,0.9625 -10.0154,36.400004 -21.6061,78.750004 -11.5907,42.35 -21.3096,77.78007 -21.5975,78.73349 -0.49339,1.6338 4.4019,1.74882 85.1195,2 84.3315,0.26243 85.6653,0.29714 87.1067,2.26651 1.902,2.59873 0.9955,6.37796 -2.2188,9.25 l -2.5181,2.25 -85.8769,0 c -80.9192,0 -85.90737,0.10103 -86.4059,1.75 -0.98818,3.26858 -19.6057,71.54164 -19.6057,71.89685 0,0.19423 56.1375,0.34718 124.75,0.33989 l 124.75,-0.0133 22.0738,-80.73674 z"
       id="path4147"
       inkscape:connector-curvature="0" />
  </g>
</svg>
