<?xml version="1.0" encoding="UTF-8" standalone="no"?>
<!-- Created with Inkscape (http://www.inkscape.org/) -->

<svg
   xmlns:dc="http://purl.org/dc/elements/1.1/"
   xmlns:cc="http://creativecommons.org/ns#"
   xmlns:rdf="http://www.w3.org/1999/02/22-rdf-syntax-ns#"
   xmlns:svg="http://www.w3.org/2000/svg"
   xmlns="http://www.w3.org/2000/svg"
   xmlns:sodipodi="http://sodipodi.sourceforge.net/DTD/sodipodi-0.dtd"
   xmlns:inkscape="http://www.inkscape.org/namespaces/inkscape"
   width="1920"
   height="1080"
   viewBox="0 0 507.99999 285.75001"
   version="1.1"
   id="svg1390"
   inkscape:version="0.92.3 (2405546, 2018-03-11)"
   sodipodi:docname="graphi7-curvas.svg"
   inkscape:export-filename="fondo-video.png"
   inkscape:export-xdpi="96"
   inkscape:export-ydpi="96">
  <defs
     id="defs1384" />
  <sodipodi:namedview
     id="base"
     pagecolor="#c0966c"
     bordercolor="#666666"
     borderopacity="1.0"
     inkscape:pageopacity="0"
     inkscape:pageshadow="2"
     inkscape:zoom="0.24748737"
     inkscape:cx="817.25516"
     inkscape:cy="572.27667"
     inkscape:document-units="mm"
     inkscape:current-layer="layer4"
     showgrid="false"
     units="px"
     inkscape:showpageshadow="false"
     borderlayer="true"
     inkscape:window-width="1600"
     inkscape:window-height="840"
     inkscape:window-x="0"
     inkscape:window-y="0"
     inkscape:window-maximized="1" />
  <metadata
     id="metadata1387">
    <rdf:RDF>
      <cc:Work
         rdf:about="">
        <dc:format>image/svg+xml</dc:format>
        <dc:type
           rdf:resource="http://purl.org/dc/dcmitype/StillImage" />
        <dc:title />
      </cc:Work>
    </rdf:RDF>
  </metadata>
  <g
     inkscape:groupmode="layer"
     id="layer4"
     inkscape:label="slide3"
     style="display:inline">
    <g
       aria-label="flisol.org.ar"
       transform="scale(0.92378829,1.0824991)"
       style="font-style:normal;font-variant:normal;font-weight:normal;font-stretch:normal;font-size:84.69132233px;line-height:0.25;font-family:'Fira Sans';-inkscape-font-specification:'Fira Sans';font-variant-ligatures:normal;font-variant-caps:normal;font-variant-numeric:normal;text-align:start;letter-spacing:0px;word-spacing:0px;writing-mode:lr-tb;text-anchor:start;display:inline;fill:#ffffff;fill-opacity:1;stroke:none;stroke-width:1.1602124"
       id="text2587">
      <path
         d="m 166.47349,232.42056 q -2.0308,0.98795 -4.28114,0.98795 -2.79921,0 -4.28114,-1.5917 -1.48193,-1.64659 -1.48193,-4.77512 v -30.46196 q -1.70148,-0.49398 -3.12853,-0.71352 -1.42705,-0.21955 -3.18341,-0.21955 -2.68944,0 -3.78716,0.98796 -1.04285,0.98795 -1.04285,3.18341 v 4.00671 h 7.02547 l -0.54887,3.89693 h -6.4766 v 25.02821 h -5.04955 v -25.02821 h -4.61046 v -3.89693 h 4.61046 v -3.95183 q 0,-3.78716 2.41501,-6.0375 2.46989,-2.25035 7.13523,-2.25035 1.86614,0 3.34807,0.27444 1.53682,0.27443 3.34807,0.82329 l 4.99467,-0.65863 v 34.90776 q 0,1.15261 0.3842,1.75636 0.43909,0.54887 1.42705,0.54887 1.04284,0 1.86614,-0.32932 z"
         style="font-style:normal;font-variant:normal;font-weight:normal;font-stretch:normal;font-size:54.88641739px;font-family:'Fira Sans';-inkscape-font-specification:'Fira Sans';fill:#ffffff;stroke-width:1.1602124"
         id="path3335"
         inkscape:connector-curvature="0" />
      <path
         d="m 177.82383,203.82474 v 28.92514 h -5.04955 v -28.92514 z m -2.57966,-13.88627 q 1.5917,0 2.57966,0.98796 0.98796,0.98795 0.98796,2.46989 0,1.48193 -0.98796,2.46989 -0.98796,0.93306 -2.57966,0.93306 -1.53682,0 -2.52478,-0.93306 -0.98795,-0.98796 -0.98795,-2.46989 0,-1.48194 0.98795,-2.46989 0.98796,-0.98796 2.52478,-0.98796 z"
         style="font-style:normal;font-variant:normal;font-weight:normal;font-stretch:normal;font-size:54.88641739px;font-family:'Fira Sans';-inkscape-font-specification:'Fira Sans';fill:#ffffff;stroke-width:1.1602124"
         id="path3337"
         inkscape:connector-curvature="0" />
      <path
         d="m 196.05984,203.1661 q 2.96387,0 5.32399,0.8233 2.36011,0.82329 4.50068,2.46988 l -2.14057,3.18342 q -1.97591,-1.26239 -3.78716,-1.86614 -1.75637,-0.60375 -3.73228,-0.60375 -2.46989,0 -3.89693,1.04284 -1.42705,0.98795 -1.42705,2.74432 0,1.75637 1.31727,2.74432 1.37216,0.98796 4.8849,1.92103 4.83,1.2075 7.19012,3.29318 2.415,2.08568 2.415,5.70819 0,4.28114 -3.34807,6.53148 -3.29319,2.25034 -8.06831,2.25034 -6.58637,0 -10.92239,-3.78716 l 2.68943,-3.07364 q 3.67739,2.79921 8.12319,2.79921 2.85409,0 4.50069,-1.15261 1.70148,-1.20751 1.70148,-3.2383 0,-1.48194 -0.60376,-2.36012 -0.60375,-0.93307 -2.08568,-1.59171 -1.48193,-0.71352 -4.33603,-1.48193 -4.61045,-1.2075 -6.69614,-3.2383 -2.0308,-2.03079 -2.0308,-5.15932 0,-2.25034 1.31728,-4.0616 1.37216,-1.86613 3.73227,-2.85409 2.41501,-1.04284 5.37887,-1.04284 z"
         style="font-style:normal;font-variant:normal;font-weight:normal;font-stretch:normal;font-size:54.88641739px;font-family:'Fira Sans';-inkscape-font-specification:'Fira Sans';fill:#ffffff;stroke-width:1.1602124"
         id="path3339"
         inkscape:connector-curvature="0" />
      <path
         d="m 224.6994,203.1661 q 6.0924,0 9.44047,4.06159 3.40296,4.0616 3.40296,11.03217 0,4.50069 -1.53682,7.95853 -1.53682,3.40296 -4.4458,5.32399 -2.90898,1.86613 -6.91569,1.86613 -6.0924,0 -9.49535,-4.06159 -3.40296,-4.06159 -3.40296,-11.03217 0,-4.50069 1.53682,-7.90364 1.53682,-3.45785 4.4458,-5.32399 2.90898,-1.92102 6.97057,-1.92102 z m 0,4.06159 q -7.51944,0 -7.51944,11.08706 0,11.03217 7.46456,11.03217 7.46455,0 7.46455,-11.08706 0,-11.03217 -7.40967,-11.03217 z"
         style="font-style:normal;font-variant:normal;font-weight:normal;font-stretch:normal;font-size:54.88641739px;font-family:'Fira Sans';-inkscape-font-specification:'Fira Sans';fill:#ffffff;stroke-width:1.1602124"
         id="path3341"
         inkscape:connector-curvature="0" />
      <path
         d="m 251.64778,233.40851 q -2.79921,0 -4.4458,-1.64659 -1.59171,-1.70148 -1.59171,-4.72023 v -34.85287 l 5.04955,-0.60376 v 35.34686 q 0,1.2075 0.38421,1.75636 0.43909,0.54887 1.42704,0.54887 1.04285,0 1.86614,-0.32932 l 1.31728,3.51273 q -1.81126,0.98795 -4.00671,0.98795 z"
         style="font-style:normal;font-variant:normal;font-weight:normal;font-stretch:normal;font-size:54.88641739px;font-family:'Fira Sans';-inkscape-font-specification:'Fira Sans';fill:#ffffff;stroke-width:1.1602124"
         id="path3343"
         inkscape:connector-curvature="0" />
      <path
         d="m 263.49638,225.7793 q 1.64659,0 2.74432,1.09773 1.09773,1.09773 1.09773,2.68944 0,1.5917 -1.09773,2.74432 -1.09773,1.09772 -2.74432,1.09772 -1.59171,0 -2.68943,-1.09772 -1.09773,-1.15262 -1.09773,-2.74432 0,-1.59171 1.09773,-2.68944 1.09772,-1.09773 2.68943,-1.09773 z"
         style="font-style:normal;font-variant:normal;font-weight:normal;font-stretch:normal;font-size:54.88641739px;font-family:'Fira Sans';-inkscape-font-specification:'Fira Sans';fill:#ffffff;stroke-width:1.1602124"
         id="path3345"
         inkscape:connector-curvature="0" />
      <path
         d="m 285.69622,203.1661 q 6.09239,0 9.44047,4.06159 3.40295,4.0616 3.40295,11.03217 0,4.50069 -1.53682,7.95853 -1.53682,3.40296 -4.4458,5.32399 -2.90898,1.86613 -6.91568,1.86613 -6.0924,0 -9.49535,-4.06159 -3.40296,-4.06159 -3.40296,-11.03217 0,-4.50069 1.53682,-7.90364 1.53682,-3.45785 4.4458,-5.32399 2.90898,-1.92102 6.97057,-1.92102 z m 0,4.06159 q -7.51944,0 -7.51944,11.08706 0,11.03217 7.46456,11.03217 7.46455,0 7.46455,-11.08706 0,-11.03217 -7.40967,-11.03217 z"
         style="font-style:normal;font-variant:normal;font-weight:normal;font-stretch:normal;font-size:54.88641739px;font-family:'Fira Sans';-inkscape-font-specification:'Fira Sans';fill:#ffffff;stroke-width:1.1602124"
         id="path3347"
         inkscape:connector-curvature="0" />
      <path
         d="m 319.45051,203.1661 q 1.53682,0 2.8541,0.32932 l -0.93307,4.93978 q -1.31728,-0.32932 -2.52478,-0.32932 -2.68943,0 -4.33603,1.97591 -1.64659,1.97591 -2.57966,6.14728 v 16.52081 h -5.04955 v -28.92514 h 4.33603 l 0.49398,5.87284 q 1.15261,-3.2383 3.12852,-4.88489 1.97591,-1.64659 4.61046,-1.64659 z"
         style="font-style:normal;font-variant:normal;font-weight:normal;font-stretch:normal;font-size:54.88641739px;font-family:'Fira Sans';-inkscape-font-specification:'Fira Sans';fill:#ffffff;stroke-width:1.1602124"
         id="path3349"
         inkscape:connector-curvature="0" />
      <path
         d="m 350.57626,205.14201 q -1.64659,0.54886 -3.6225,0.71352 -1.97591,0.16466 -4.83001,0.16466 5.10444,2.30523 5.10444,7.2999 0,4.33602 -2.96387,7.08034 -2.96386,2.74432 -8.0683,2.74432 -1.97591,0 -3.67739,-0.54886 -0.65864,0.43909 -1.04284,1.2075 -0.38421,0.71353 -0.38421,1.48194 0,2.36011 3.78717,2.36011 h 4.61045 q 2.90898,0 5.15933,1.04284 2.25034,1.04284 3.45784,2.8541 1.26239,1.81125 1.26239,4.11648 0,4.22625 -3.45784,6.4766 -3.45785,2.30522 -10.09911,2.30522 -4.66534,0 -7.40966,-0.98795 -2.68944,-0.93307 -3.84205,-2.85409 -1.15262,-1.92103 -1.15262,-4.93978 h 4.55558 q 0,1.75636 0.65863,2.74432 0.65864,1.04284 2.36012,1.53682 1.70148,0.54886 4.83,0.54886 4.55558,0 6.4766,-1.15261 1.97591,-1.09773 1.97591,-3.34807 0,-2.0308 -1.53682,-3.07364 -1.53682,-1.04284 -4.28114,-1.04284 h -4.55557 q -3.67739,0 -5.59841,-1.53682 -1.86614,-1.59171 -1.86614,-3.95183 0,-1.42704 0.82329,-2.74432 0.8233,-1.31727 2.36012,-2.36011 -2.52478,-1.31728 -3.73228,-3.2383 -1.15261,-1.97591 -1.15261,-4.77512 0,-2.90898 1.42705,-5.21421 1.48193,-2.30523 4.0067,-3.56762 2.57967,-1.31727 5.70819,-1.31727 3.40296,0.0549 5.70819,-0.21955 2.30523,-0.32932 3.78716,-0.82329 1.53682,-0.54887 3.73228,-1.53682 z m -14.70956,1.64659 q -2.85409,0 -4.4458,1.81125 -1.53682,1.75637 -1.53682,4.66535 0,2.96387 1.59171,4.77512 1.5917,1.75636 4.50068,1.75636 2.96387,0 4.50069,-1.70148 1.59171,-1.75636 1.59171,-4.88489 0,-6.42171 -6.20217,-6.42171 z"
         style="font-style:normal;font-variant:normal;font-weight:normal;font-stretch:normal;font-size:54.88641739px;font-family:'Fira Sans';-inkscape-font-specification:'Fira Sans';fill:#ffffff;stroke-width:1.1602124"
         id="path3351"
         inkscape:connector-curvature="0" />
      <path
         d="m 357.08201,225.7793 q 1.64659,0 2.74432,1.09773 1.09772,1.09773 1.09772,2.68944 0,1.5917 -1.09772,2.74432 -1.09773,1.09772 -2.74432,1.09772 -1.59171,0 -2.68944,-1.09772 -1.09773,-1.15262 -1.09773,-2.74432 0,-1.59171 1.09773,-2.68944 1.09773,-1.09773 2.68944,-1.09773 z"
         style="font-style:normal;font-variant:normal;font-weight:normal;font-stretch:normal;font-size:54.88641739px;font-family:'Fira Sans';-inkscape-font-specification:'Fira Sans';fill:#ffffff;stroke-width:1.1602124"
         id="path3353"
         inkscape:connector-curvature="0" />
      <path
         d="m 388.43502,225.99885 q 0,1.75636 0.60375,2.63455 0.60375,0.82329 1.81125,1.26238 l -1.15261,3.51273 q -2.25035,-0.27443 -3.62251,-1.26238 -1.37216,-0.98796 -2.0308,-3.07364 -2.90898,4.33602 -8.61716,4.33602 -4.28114,0 -6.75103,-2.415 -2.46989,-2.415 -2.46989,-6.31194 0,-4.61045 3.29318,-7.08034 3.34808,-2.46989 9.44047,-2.46989 h 4.4458 v -2.14057 q 0,-3.07364 -1.48194,-4.39092 -1.48193,-1.31727 -4.55557,-1.31727 -3.18341,0 -7.79387,1.53682 l -1.26239,-3.67739 q 5.37887,-1.97591 9.98933,-1.97591 5.10444,0 7.62921,2.52477 2.52478,2.46989 2.52478,7.08035 z m -11.85547,3.6225 q 4.33603,0 6.80592,-4.50068 v -6.64126 h -3.78717 q -8.01341,0 -8.01341,5.92773 0,2.57966 1.26239,3.89694 1.26238,1.31727 3.73227,1.31727 z"
         style="font-style:normal;font-variant:normal;font-weight:normal;font-stretch:normal;font-size:54.88641739px;font-family:'Fira Sans';-inkscape-font-specification:'Fira Sans';fill:#ffffff;stroke-width:1.1602124"
         id="path3355"
         inkscape:connector-curvature="0" />
      <path
         d="m 411.42813,203.1661 q 1.53682,0 2.85409,0.32932 l -0.93307,4.93978 q -1.31727,-0.32932 -2.52477,-0.32932 -2.68944,0 -4.33603,1.97591 -1.64659,1.97591 -2.57966,6.14728 v 16.52081 h -5.04955 v -28.92514 h 4.33602 l 0.49398,5.87284 q 1.15262,-3.2383 3.12853,-4.88489 1.97591,-1.64659 4.61046,-1.64659 z"
         style="font-style:normal;font-variant:normal;font-weight:normal;font-stretch:normal;font-size:54.88641739px;font-family:'Fira Sans';-inkscape-font-specification:'Fira Sans';fill:#ffffff;stroke-width:1.1602124"
         id="path3357"
         inkscape:connector-curvature="0" />
    </g>
    <g
       aria-label="www"
       transform="scale(0.92864004,1.0768435)"
       style="font-style:normal;font-variant:normal;font-weight:normal;font-stretch:normal;font-size:44.36128235px;line-height:0.25;font-family:'Fira Sans';-inkscape-font-specification:'Fira Sans';font-variant-ligatures:normal;font-variant-caps:normal;font-variant-numeric:normal;text-align:start;letter-spacing:0px;word-spacing:0px;writing-mode:lr-tb;text-anchor:start;display:inline;fill:#ffffff;fill-opacity:1;stroke:none;stroke-width:0.60771871"
       id="text2595">
      <path
         d="m 154.38212,165.70768 -3.44993,15.15098 h -3.59369 l -2.64495,-12.76477 -2.7312,12.76477 h -3.50744 l -3.53619,-15.15098 h 2.64496 l 2.7312,13.31101 2.98994,-13.31101 h 2.9612 l 2.8462,13.31101 2.75995,-13.31101 z"
         style="font-style:normal;font-variant:normal;font-weight:normal;font-stretch:normal;font-size:28.7494812px;font-family:'Fira Sans';-inkscape-font-specification:'Fira Sans';fill:#ffffff;stroke-width:0.60771871"
         id="path3328"
         inkscape:connector-curvature="0" />
      <path
         d="m 174.98966,165.70768 -3.44994,15.15098 h -3.59368 l -2.64495,-12.76477 -2.7312,12.76477 h -3.50744 l -3.53619,-15.15098 h 2.64495 l 2.73121,13.31101 2.98994,-13.31101 h 2.9612 l 2.8462,13.31101 2.75995,-13.31101 z"
         style="font-style:normal;font-variant:normal;font-weight:normal;font-stretch:normal;font-size:28.7494812px;font-family:'Fira Sans';-inkscape-font-specification:'Fira Sans';fill:#ffffff;stroke-width:0.60771871"
         id="path3330"
         inkscape:connector-curvature="0" />
      <path
         d="m 195.5972,165.70768 -3.44994,15.15098 h -3.59368 l -2.64496,-12.76477 -2.7312,12.76477 h -3.50743 l -3.53619,-15.15098 h 2.64495 l 2.7312,13.31101 2.98995,-13.31101 h 2.9612 l 2.8462,13.31101 2.75995,-13.31101 z"
         style="font-style:normal;font-variant:normal;font-weight:normal;font-stretch:normal;font-size:28.7494812px;font-family:'Fira Sans';-inkscape-font-specification:'Fira Sans';fill:#ffffff;stroke-width:0.60771871"
         id="path3332"
         inkscape:connector-curvature="0" />
    </g>
    <path
       style="color:#000000;display:inline;overflow:visible;visibility:visible;fill:#ffffff;fill-opacity:0.96496815;fill-rule:nonzero;stroke:none;stroke-width:0.0797113;marker:none;enable-background:accumulate"
       d="m 193.87904,188.44825 c -0.13324,0.005 -0.25861,0.0667 -0.35402,0.1924 l -1.33399,2.37599 c -0.13651,0.22374 -0.13651,0.43857 0.0864,0.63964 0.82358,0.62248 1.6762,1.02323 1.6762,1.02323 0.15022,0.0633 0.28022,0.0119 0.39477,-0.12702 l 0.69347,-1.09921 c 0.11324,-0.20671 0.0377,-0.34673 -0.12736,-0.4547 l -1.13635,-0.71233 -0.0732,0.11087 1.03336,0.89953 -0.66077,1.05573 -1.48912,-1.0057 1.39541,-2.25945 2.55753,1.82518 -1.52062,2.33383 a 4.0069526,4.0069478 78.260865 0 0 -3.09666,-0.66248 l -0.84002,-3.43955 c 0,0 -1.31832,-0.10006 -1.28649,0.47834 0.0319,0.57853 0.96435,0.17889 0.96435,0.17889 l 0.86319,2.85248 a 4.0069526,4.0069478 78.260865 0 0 -1.85623,1.13911 l -2.71229,-1.69369 c -0.2712,-0.19915 -0.78229,-0.11003 -0.94828,0.1889 l -1.80073,2.94917 c -0.15302,0.23914 -0.137,0.51407 0.0931,0.68839 l 2.376,1.33376 c 0.22374,0.1365 0.43857,0.13667 0.63964,-0.0862 0.62249,-0.82357 1.02326,-1.67639 1.02326,-1.67639 0.0633,-0.15024 0.0119,-0.28001 -0.12703,-0.39457 l -1.09921,-0.69349 c -0.20673,-0.11324 -0.34671,-0.0377 -0.45474,0.1272 l -0.71224,1.13614 0.11074,0.0732 0.89953,-1.03315 1.05552,0.66077 -1.0057,1.48913 -2.25926,-1.3954 1.82523,-2.55779 2.5356,1.65234 a 4.0069526,4.0069478 78.260865 0 0 -0.4258,2.7659 4.0069526,4.0069478 78.260865 0 0 0.0216,0.0869 l -3.8993,0.95251 c 0,0 -0.10006,1.31833 0.47837,1.28646 0.57848,-0.0319 0.17914,-0.96432 0.17914,-0.96432 l 3.31607,-1.0038 a 4.0069526,4.0069478 78.260865 0 0 0.9293,1.59024 l -1.94748,3.11889 c -0.19916,0.27119 -0.11003,0.78209 0.1889,0.94808 l 2.94913,1.80093 c 0.23914,0.15285 0.5139,0.13699 0.68824,-0.0927 l 1.33395,-2.376 c 0.1365,-0.22373 0.13668,-0.4386 -0.0862,-0.63966 -0.8236,-0.62247 -1.67638,-1.02319 -1.67638,-1.02319 -0.15025,-0.0633 -0.28001,-0.0119 -0.39459,0.1267 l -0.69373,1.09922 c -0.11324,0.20699 -0.0375,0.34649 0.12753,0.45453 l 1.13618,0.71249 0.0732,-0.11087 -1.03314,-0.89976 0.66075,-1.05551 1.48896,1.00572 -1.39521,2.25946 -2.55779,-1.8252 1.88392,-2.89115 a 4.0069526,4.0069478 78.260865 0 0 2.58393,0.60778 l 0.98967,4.05156 c 0,0 1.31833,0.0999 1.28648,-0.47836 -0.0319,-0.57852 -0.96432,-0.17915 -0.96432,-0.17915 l -1.04011,-3.43621 a 4.0069526,4.0069478 78.260865 0 0 0.11157,-0.0163 4.0069526,4.0069478 78.260865 0 0 1.60546,-0.73488 l 3.02808,1.89087 c 0.27121,0.19914 0.7823,0.11003 0.94829,-0.1889 l 1.80096,-2.94912 c 0.15303,-0.23915 0.137,-0.51411 -0.0931,-0.68843 l -2.37579,-1.33376 c -0.22374,-0.1365 -0.43879,-0.13667 -0.63987,0.0865 -0.62245,0.82356 -1.02323,1.6764 -1.02323,1.6764 -0.0633,0.15023 -0.0119,0.27997 0.12703,0.39454 l 1.09901,0.69351 c 0.20671,0.11312 0.34674,0.0378 0.45472,-0.12735 l 0.71246,-1.13619 -0.11099,-0.0732 -0.89953,1.03315 -1.05552,-0.66078 1.00573,-1.48912 2.25945,1.39538 -1.82523,2.5576 -2.70891,-1.76509 a 4.0069526,4.0069478 78.260865 0 0 0.86679,-2.81044 l 3.61037,-0.88178 c 0,0 0.10006,-1.31835 -0.47836,-1.28648 -0.57853,0.0316 -0.17916,0.96432 -0.17916,0.96432 l -2.98797,0.90439 a 4.0069526,4.0069478 78.260865 0 0 -0.0328,-0.20942 4.0069526,4.0069478 78.260865 0 0 -0.89763,-1.80498 l 1.62066,-2.59532 c 0.19914,-0.2712 0.10932,-0.78209 -0.18915,-0.94809 l -2.9492,-1.80096 c -0.0894,-0.0572 -0.18429,-0.0908 -0.27677,-0.0985 -0.019,-0.001 -0.0386,-0.001 -0.0574,-7.1e-4 z m -3.51154,2.31835 a 0.39923205,0.4204292 66.515202 0 0 -0.43656,0.31832 0.39923205,0.4204292 66.515202 0 0 0.30208,0.47776 0.39923205,0.4204292 66.515202 0 0 0.50687,-0.30993 0.39923205,0.4204292 66.515202 0 0 -0.30209,-0.47772 0.39923205,0.4204292 66.515202 0 0 -0.0703,-0.008 z m 0.31077,0.94364 a 0.39923205,0.4204292 66.515202 0 0 -0.43658,0.31855 0.39923205,0.4204292 66.515202 0 0 0.30206,0.47772 0.39923205,0.4204292 66.515202 0 0 0.50689,-0.3099 0.39923205,0.4204292 66.515202 0 0 -0.30211,-0.47772 0.39923205,0.4204292 66.515202 0 0 -0.0703,-0.008 z m -0.37811,2.19256 c 0.29164,0.0322 0.58338,0.0643 0.87502,0.0967 0.1092,0.24861 0.21835,0.49708 0.32743,0.74566 0.23186,-0.18375 0.61142,-0.18727 0.70111,0.13977 0.1092,0.15433 0.21833,0.30882 0.32761,0.46318 0.48394,-0.0819 0.96784,-0.16374 1.45177,-0.24563 0.24402,0.25294 0.48823,0.50607 0.73233,0.75914 0.24321,-0.0119 0.48633,-0.0243 0.7296,-0.0349 0.20917,0.76594 -0.24049,1.49906 -0.67258,2.09481 -0.28833,0.38389 -0.53141,0.79546 -0.72158,1.23202 -0.25427,0.12163 -0.0481,0.8185 -0.37723,0.57463 -0.11799,-0.30928 -0.0294,-0.67564 -0.0659,-1.01711 -0.0164,-0.50753 0.12163,-1.08721 -0.25402,-1.50477 -0.23831,-0.30775 -0.76644,-0.40059 -0.75936,-0.87228 0.0459,-0.38944 0.0444,-0.88288 -0.33879,-1.11213 -0.34351,-0.28478 -0.86201,-0.0978 -1.18221,-0.41671 -0.2659,-0.29044 -0.64674,-0.5107 -0.77326,-0.90226 z m 7.85419,0.29025 a 0.4204292,0.39923204 74.163341 0 0 -0.29788,0.15892 0.4204292,0.39923204 74.163341 0 0 0.0813,0.58835 0.4204292,0.39923204 74.163341 0 0 0.56092,-0.0689 0.4204292,0.39923204 74.163341 0 0 -0.0814,-0.58835 0.4204292,0.39923204 74.163341 0 0 -0.26319,-0.0898 z m -0.92718,0.35761 a 0.4204292,0.39923204 74.163341 0 0 -0.29766,0.1589 0.4204292,0.39923204 74.163341 0 0 0.0814,0.58834 0.4204292,0.39923204 74.163341 0 0 0.56091,-0.0692 0.4204292,0.39923204 74.163341 0 0 -0.0814,-0.58833 0.4204292,0.39923204 74.163341 0 0 -0.26347,-0.0899 z m -9.35093,3.72792 a 0.4204292,0.39923204 57.815045 0 0 -0.35952,0.25589 0.4204292,0.39923204 57.815045 0 0 0.24372,0.5417 0.4204292,0.39923204 57.815045 0 0 0.5189,-0.22429 0.4204292,0.39923204 57.815045 0 0 -0.24347,-0.54168 0.4204292,0.39923204 57.815045 0 0 -0.1594,-0.0316 z m -0.7889,0.6042 a 0.4204292,0.39923204 57.815045 0 0 -0.35953,0.2559 0.4204292,0.39923204 57.815045 0 0 0.24375,0.54146 0.4204292,0.39923204 57.815045 0 0 0.51888,-0.22428 0.4204292,0.39923204 57.815045 0 0 -0.24348,-0.54149 0.4204292,0.39923204 57.815045 0 0 -0.1594,-0.0316 z m 7.49721,2.07707 a 0.39923205,0.4204292 66.515202 0 0 -0.43658,0.31834 0.39923205,0.4204292 66.515202 0 0 0.30212,0.47772 0.39923205,0.4204292 66.515202 0 0 0.50684,-0.30968 0.39923205,0.4204292 66.515202 0 0 -0.30207,-0.47793 0.39923205,0.4204292 66.515202 0 0 -0.0703,-0.008 z m 0.31074,0.94365 a 0.39923205,0.4204292 66.515202 0 0 -0.43656,0.31854 0.39923205,0.4204292 66.515202 0 0 0.3021,0.47773 0.39923205,0.4204292 66.515202 0 0 0.50665,-0.30987 0.39923205,0.4204292 66.515202 0 0 -0.3019,-0.47776 0.39923205,0.4204292 66.515202 0 0 -0.0703,-0.008 z"
       id="path2603"
       inkscape:connector-curvature="0" />
    <g
       aria-label="BUSCA TU SEDE"
       transform="scale(0.92378829,1.0824991)"
       style="font-style:normal;font-variant:normal;font-weight:normal;font-stretch:normal;font-size:63.82118225px;line-height:0.25;font-family:Montserrat;-inkscape-font-specification:Montserrat;font-variant-ligatures:normal;font-variant-caps:normal;font-variant-numeric:normal;text-align:start;letter-spacing:0px;word-spacing:0px;writing-mode:lr-tb;text-anchor:start;display:inline;fill:#ffffff;fill-opacity:1;stroke:none;stroke-width:0.87430596"
       id="text2609">
      <path
         d="m 149.11657,109.61411 q 2.89527,0.57906 4.67379,2.10941 1.77852,1.53036 1.77852,4.67379 0,4.67379 -3.3916,6.5764 -3.3916,1.86124 -9.47166,1.86124 h -9.67847 V 96.089072 h 8.56172 q 6.20415,0 9.47167,1.737161 3.30887,1.6958 3.30887,5.666457 0,2.52302 -1.53035,4.05337 -1.489,1.489 -3.72249,2.06805 z m -8.43764,-8.18947 v 5.99734 h 1.98533 q 2.02669,0 2.97799,-0.7445 0.9513,-0.7445 0.9513,-2.39893 0,-1.53036 -1.03402,-2.19214 -0.99267,-0.66177 -3.26752,-0.66177 z m 2.06805,17.95066 q 2.4403,0 3.68113,-0.70313 1.24083,-0.7445 1.24083,-2.72983 0,-1.9026 -1.15811,-2.72982 -1.15811,-0.86858 -3.35024,-0.86858 h -2.48166 v 7.03136 z"
         style="font-style:normal;font-variant:normal;font-weight:800;font-stretch:normal;font-size:41.36098099px;font-family:'Fira Sans';-inkscape-font-specification:'Fira Sans Ultra-Bold';fill:#ffffff;stroke-width:0.87430596"
         id="path3305"
         inkscape:connector-curvature="0" />
      <path
         d="m 181.38395,115.19784 q 0,2.978 -1.32355,5.33557 -1.28219,2.35758 -3.88793,3.72249 -2.60574,1.32355 -6.36959,1.32355 -5.70782,0 -8.64445,-2.77118 -2.93663,-2.81255 -2.93663,-7.61043 V 96.089072 h 7.65178 v 18.860608 q 0,2.60574 0.90994,3.84657 0.95131,1.19947 3.01936,1.19947 2.06805,0 2.97799,-1.24083 0.90994,-1.24083 0.90994,-3.80521 V 96.089072 h 7.69314 z"
         style="font-style:normal;font-variant:normal;font-weight:800;font-stretch:normal;font-size:41.36098099px;font-family:'Fira Sans';-inkscape-font-specification:'Fira Sans Ultra-Bold';fill:#ffffff;stroke-width:0.87430596"
         id="path3307"
         inkscape:connector-curvature="0" />
      <path
         d="m 195.05892,95.344574 q 3.26752,0 5.74918,0.951302 2.52302,0.951303 4.50835,2.853908 l -3.43296,4.053376 q -2.97799,-2.35758 -6.24551,-2.35758 -1.6958,0 -2.60574,0.66178 -0.86858,0.62041 -0.86858,1.77852 0,0.82722 0.45497,1.36491 0.45497,0.5377 1.53035,1.03403 1.07539,0.49633 3.3916,1.24083 4.42563,1.40627 6.45232,3.55704 2.06805,2.10941 2.06805,5.87326 0,2.72983 -1.40628,4.83924 -1.40627,2.06805 -4.09474,3.22615 -2.6471,1.15811 -6.2455,1.15811 -6.86593,0 -11.20883,-4.17746 l 3.76385,-4.17746 q 3.43296,2.81255 7.15545,2.81255 1.94397,0 3.01935,-0.82722 1.07539,-0.86858 1.07539,-2.27485 0,-0.99267 -0.41361,-1.61308 -0.41361,-0.66178 -1.489,-1.15811 -1.03402,-0.53769 -3.06071,-1.15811 -4.8806,-1.53035 -6.86592,-3.68112 -1.98533,-2.15078 -1.98533,-5.41829 0,-2.56438 1.36491,-4.50835 1.40628,-1.943966 3.84657,-2.977991 2.48166,-1.075385 5.54237,-1.075385 z"
         style="font-style:normal;font-variant:normal;font-weight:800;font-stretch:normal;font-size:41.36098099px;font-family:'Fira Sans';-inkscape-font-specification:'Fira Sans Ultra-Bold';fill:#ffffff;stroke-width:0.87430596"
         id="path3309"
         inkscape:connector-curvature="0" />
      <path
         d="m 221.36774,95.344574 q 2.72982,0 4.92196,0.827219 2.19213,0.82722 4.09473,2.440298 l -3.5984,4.260179 q -1.28219,-0.9513 -2.48166,-1.44763 -1.19947,-0.49633 -2.56438,-0.49633 -2.72983,0 -4.26018,2.35757 -1.53036,2.35758 -1.53036,7.11409 0,4.75651 1.53036,7.07273 1.57171,2.31621 4.3429,2.31621 1.489,0 2.72982,-0.57905 1.28219,-0.62041 2.77119,-1.77852 l 3.3916,4.30154 q -1.6958,1.6958 -4.09474,2.77119 -2.35757,1.07538 -5.12876,1.07538 -4.09474,0 -7.15545,-1.73716 -3.01935,-1.77852 -4.67379,-5.17012 -1.65444,-3.43296 -1.65444,-8.2722 0,-4.71515 1.6958,-8.10675 1.6958,-3.391602 4.71515,-5.170124 3.01936,-1.778522 6.94865,-1.778522 z"
         style="font-style:normal;font-variant:normal;font-weight:800;font-stretch:normal;font-size:41.36098099px;font-family:'Fira Sans';-inkscape-font-specification:'Fira Sans Ultra-Bold';fill:#ffffff;stroke-width:0.87430596"
         id="path3311"
         inkscape:connector-curvature="0" />
      <path
         d="m 248.13347,124.83495 -1.28219,-5.87326 h -7.61042 l -1.2822,5.87326 h -7.9413 l 8.52036,-28.745878 h 9.18214 l 8.52036,28.745878 z m -7.69315,-11.33291 h 5.21149 l -2.60574,-11.95332 z"
         style="font-style:normal;font-variant:normal;font-weight:800;font-stretch:normal;font-size:41.36098099px;font-family:'Fira Sans';-inkscape-font-specification:'Fira Sans Ultra-Bold';fill:#ffffff;stroke-width:0.87430596"
         id="path3313"
         inkscape:connector-curvature="0" />
      <path
         d="m 287.60089,96.089072 -0.78586,5.831898 h -6.7832 v 22.91398 h -7.65179 v -22.91398 h -7.19681 v -5.831898 z"
         style="font-style:normal;font-variant:normal;font-weight:800;font-stretch:normal;font-size:41.36098099px;font-family:'Fira Sans';-inkscape-font-specification:'Fira Sans Ultra-Bold';fill:#ffffff;stroke-width:0.87430596"
         id="path3315"
         inkscape:connector-curvature="0" />
      <path
         d="m 312.49503,115.19784 q 0,2.978 -1.32355,5.33557 -1.28219,2.35758 -3.88793,3.72249 -2.60574,1.32355 -6.36959,1.32355 -5.70782,0 -8.64445,-2.77118 -2.93663,-2.81255 -2.93663,-7.61043 V 96.089072 h 7.65179 v 18.860608 q 0,2.60574 0.90994,3.84657 0.9513,1.19947 3.01935,1.19947 2.06805,0 2.97799,-1.24083 0.90994,-1.24083 0.90994,-3.80521 V 96.089072 h 7.69314 z"
         style="font-style:normal;font-variant:normal;font-weight:800;font-stretch:normal;font-size:41.36098099px;font-family:'Fira Sans';-inkscape-font-specification:'Fira Sans Ultra-Bold';fill:#ffffff;stroke-width:0.87430596"
         id="path3317"
         inkscape:connector-curvature="0" />
      <path
         d="m 335.86399,95.344574 q 3.26751,0 5.74917,0.951302 2.52302,0.951303 4.50835,2.853908 l -3.43296,4.053376 q -2.97799,-2.35758 -6.24551,-2.35758 -1.6958,0 -2.60574,0.66178 -0.86858,0.62041 -0.86858,1.77852 0,0.82722 0.45497,1.36491 0.45497,0.5377 1.53035,1.03403 1.07539,0.49633 3.3916,1.24083 4.42563,1.40627 6.45232,3.55704 2.06805,2.10941 2.06805,5.87326 0,2.72983 -1.40628,4.83924 -1.40627,2.06805 -4.09473,3.22615 -2.64711,1.15811 -6.24551,1.15811 -6.86592,0 -11.20883,-4.17746 l 3.76385,-4.17746 q 3.43296,2.81255 7.15545,2.81255 1.94397,0 3.01935,-0.82722 1.07539,-0.86858 1.07539,-2.27485 0,-0.99267 -0.41361,-1.61308 -0.41361,-0.66178 -1.489,-1.15811 -1.03402,-0.53769 -3.06071,-1.15811 -4.8806,-1.53035 -6.86592,-3.68112 -1.98533,-2.15078 -1.98533,-5.41829 0,-2.56438 1.36491,-4.50835 1.40628,-1.943966 3.84657,-2.977991 2.48166,-1.075385 5.54238,-1.075385 z"
         style="font-style:normal;font-variant:normal;font-weight:800;font-stretch:normal;font-size:41.36098099px;font-family:'Fira Sans';-inkscape-font-specification:'Fira Sans Ultra-Bold';fill:#ffffff;stroke-width:0.87430596"
         id="path3319"
         inkscape:connector-curvature="0" />
      <path
         d="m 368.17014,96.089072 -0.78586,5.418288 h -9.80255 v 6.12143 h 8.56172 v 5.25284 h -8.56172 v 6.53503 h 10.46433 v 5.41829 H 349.92995 V 96.089072 Z"
         style="font-style:normal;font-variant:normal;font-weight:800;font-stretch:normal;font-size:41.36098099px;font-family:'Fira Sans';-inkscape-font-specification:'Fira Sans Ultra-Bold';fill:#ffffff;stroke-width:0.87430596"
         id="path3321"
         inkscape:connector-curvature="0" />
      <path
         d="m 380.18292,96.089072 q 6.82456,0 10.96066,3.102073 4.1361,3.060715 4.1361,11.167465 0,14.47634 -14.51771,14.47634 h -9.18213 V 96.089072 Z m -0.9513,5.459648 v 17.82658 h 1.98533 q 3.14343,0 4.63243,-1.98532 1.53035,-1.98533 1.53035,-7.03137 0,-3.47432 -0.7445,-5.37693 -0.70313,-1.94396 -2.06805,-2.68846 -1.32355,-0.7445 -3.3916,-0.7445 z"
         style="font-style:normal;font-variant:normal;font-weight:800;font-stretch:normal;font-size:41.36098099px;font-family:'Fira Sans';-inkscape-font-specification:'Fira Sans Ultra-Bold';fill:#ffffff;stroke-width:0.87430596"
         id="path3323"
         inkscape:connector-curvature="0" />
      <path
         d="m 416.88239,96.089072 -0.78586,5.418288 h -9.80255 v 6.12143 h 8.56172 v 5.25284 h -8.56172 v 6.53503 h 10.46433 v 5.41829 H 398.6422 V 96.089072 Z"
         style="font-style:normal;font-variant:normal;font-weight:800;font-stretch:normal;font-size:41.36098099px;font-family:'Fira Sans';-inkscape-font-specification:'Fira Sans Ultra-Bold';fill:#ffffff;stroke-width:0.87430596"
         id="path3325"
         inkscape:connector-curvature="0" />
    </g>
    <g
       aria-label="SUMATE"
       transform="scale(0.92378829,1.0824991)"
       style="font-style:normal;font-variant:normal;font-weight:normal;font-stretch:normal;font-size:125.88142395px;line-height:0.25;font-family:'Fira Sans';-inkscape-font-specification:'Fira Sans';font-variant-ligatures:normal;font-variant-caps:normal;font-variant-numeric:normal;text-align:start;letter-spacing:0px;word-spacing:0px;writing-mode:lr-tb;text-anchor:start;display:inline;fill:#ffffff;fill-opacity:1;stroke:none;stroke-width:1.72448826"
       id="text2615">
      <path
         d="m 153.01452,27.818286 q 5.62907,0 9.62652,1.631615 3.99746,1.550034 7.75018,4.894844 l -4.2422,4.731683 q -3.18165,-2.529003 -6.28172,-3.671133 -3.01849,-1.223711 -6.52646,-1.223711 -4.40536,0 -7.26069,2.039518 -2.85532,2.039519 -2.85532,5.955394 0,2.447423 0.97897,4.160618 0.97897,1.631615 3.58955,3.018488 2.69216,1.386872 7.75017,2.936906 5.30275,1.631615 8.81072,3.507972 3.50797,1.876357 5.62907,5.221168 2.20268,3.263229 2.20268,8.321235 0,4.894845 -2.44742,8.647559 -2.36584,3.752714 -6.93436,5.873813 -4.48694,2.1211 -10.68708,2.1211 -11.66605,0 -19.08989,-7.260686 l 4.24219,-4.731683 q 3.42639,2.773745 6.93437,4.242198 3.50797,1.386873 7.83175,1.386873 5.22117,0 8.64756,-2.529003 3.42639,-2.610584 3.42639,-7.505428 0,-2.773746 -1.06055,-4.568522 -1.06055,-1.876357 -3.67114,-3.34481 -2.529,-1.468454 -7.42384,-2.936907 -8.64756,-2.610584 -12.64502,-6.281717 -3.99745,-3.671134 -3.99745,-9.952851 0,-4.242198 2.20268,-7.587009 2.28426,-3.34481 6.28171,-5.221167 4.07904,-1.876357 9.21863,-1.876357 z"
         style="font-style:normal;font-variant:normal;font-weight:normal;font-stretch:normal;font-size:81.58074188px;font-family:'Fira Sans';-inkscape-font-specification:'Fira Sans';fill:#ffffff;stroke-width:1.72448826"
         id="path3292"
         inkscape:connector-curvature="0" />
      <path
         d="m 222.10703,66.977042 q 0,5.629071 -2.36584,9.95285 -2.28426,4.242199 -6.7712,6.689621 -4.40536,2.365842 -10.6055,2.365842 -9.38178,0 -14.52137,-5.139587 -5.05801,-5.221168 -5.05801,-13.868726 V 28.797255 h 7.75018 v 37.608722 q 0,6.526459 2.9369,9.789689 2.93691,3.263229 8.8923,3.263229 6.03698,0 8.97388,-3.181649 2.93691,-3.263229 2.93691,-9.871269 V 28.797255 h 7.83175 z"
         style="font-style:normal;font-variant:normal;font-weight:normal;font-stretch:normal;font-size:81.58074188px;font-family:'Fira Sans';-inkscape-font-specification:'Fira Sans';fill:#ffffff;stroke-width:1.72448826"
         id="path3294"
         inkscape:connector-curvature="0" />
      <path
         d="m 287.87003,85.006386 h -7.50543 l -1.95793,-25.371611 q -1.22371,-14.929276 -1.38688,-22.924188 l -12.15553,41.932501 h -7.26068 L 244.7954,36.629006 q 0,10.197593 -1.06055,23.576834 l -1.87636,24.800546 h -7.34226 l 4.6501,-56.209131 h 10.44233 l 11.82921,40.871951 11.25814,-40.871951 h 10.52392 z"
         style="font-style:normal;font-variant:normal;font-weight:normal;font-stretch:normal;font-size:81.58074188px;font-family:'Fira Sans';-inkscape-font-specification:'Fira Sans';fill:#ffffff;stroke-width:1.72448826"
         id="path3296"
         inkscape:connector-curvature="0" />
      <path
         d="m 330.9727,85.006386 -4.2422,-14.113469 h -21.29257 l -4.2422,14.113469 h -7.83175 l 18.02934,-56.209131 h 9.78969 l 17.94777,56.209131 z M 307.31429,64.6112 h 17.53986 l -8.72914,-29.369067 z"
         style="font-style:normal;font-variant:normal;font-weight:normal;font-stretch:normal;font-size:81.58074188px;font-family:'Fira Sans';-inkscape-font-specification:'Fira Sans';fill:#ffffff;stroke-width:1.72448826"
         id="path3298"
         inkscape:connector-curvature="0" />
      <path
         d="m 376.77902,28.797255 -0.8158,6.60804 h -15.58193 v 49.601091 h -7.75017 V 35.405295 H 336.6413 v -6.60804 z"
         style="font-style:normal;font-variant:normal;font-weight:normal;font-stretch:normal;font-size:81.58074188px;font-family:'Fira Sans';-inkscape-font-specification:'Fira Sans';fill:#ffffff;stroke-width:1.72448826"
         id="path3300"
         inkscape:connector-curvature="0" />
      <path
         d="m 416.22967,28.797255 -0.89738,6.200136 h -21.78206 v 18.355667 h 18.92673 v 6.200136 h -18.92673 v 19.253055 h 23.33209 v 6.200137 H 385.80006 V 28.797255 Z"
         style="font-style:normal;font-variant:normal;font-weight:normal;font-stretch:normal;font-size:81.58074188px;font-family:'Fira Sans';-inkscape-font-specification:'Fira Sans';fill:#ffffff;stroke-width:1.72448826"
         id="path3302"
         inkscape:connector-curvature="0" />
    </g>
  </g>
</svg>
