<?xml version="1.0" encoding="UTF-8" standalone="no"?>
<!-- Created with Inkscape (http://www.inkscape.org/) -->

<svg
   xmlns:dc="http://purl.org/dc/elements/1.1/"
   xmlns:cc="http://creativecommons.org/ns#"
   xmlns:rdf="http://www.w3.org/1999/02/22-rdf-syntax-ns#"
   xmlns:svg="http://www.w3.org/2000/svg"
   xmlns="http://www.w3.org/2000/svg"
   xmlns:sodipodi="http://sodipodi.sourceforge.net/DTD/sodipodi-0.dtd"
   xmlns:inkscape="http://www.inkscape.org/namespaces/inkscape"
   width="1920"
   height="1080"
   viewBox="0 0 507.99999 285.75001"
   version="1.1"
   id="svg1390"
   inkscape:version="0.92.3 (2405546, 2018-03-11)"
   sodipodi:docname="graphi4-curvas.svg"
   inkscape:export-filename="fondo-video.png"
   inkscape:export-xdpi="96"
   inkscape:export-ydpi="96">
  <defs
     id="defs1384" />
  <sodipodi:namedview
     id="base"
     pagecolor="#c0966c"
     bordercolor="#666666"
     borderopacity="1.0"
     inkscape:pageopacity="0"
     inkscape:pageshadow="2"
     inkscape:zoom="0.24748737"
     inkscape:cx="817.25516"
     inkscape:cy="572.27667"
     inkscape:document-units="mm"
     inkscape:current-layer="layer3"
     showgrid="false"
     units="px"
     inkscape:showpageshadow="false"
     borderlayer="true"
     inkscape:window-width="1600"
     inkscape:window-height="840"
     inkscape:window-x="0"
     inkscape:window-y="0"
     inkscape:window-maximized="1" />
  <metadata
     id="metadata1387">
    <rdf:RDF>
      <cc:Work
         rdf:about="">
        <dc:format>image/svg+xml</dc:format>
        <dc:type
           rdf:resource="http://purl.org/dc/dcmitype/StillImage" />
        <dc:title />
      </cc:Work>
    </rdf:RDF>
  </metadata>
  <g
     inkscape:groupmode="layer"
     id="layer3"
     inkscape:label="slide2"
     style="display:inline">
    <g
       aria-label="CHARLAS"
       transform="matrix(0.91913854,-0.09256978,0.10847367,1.0770505,0,0)"
       inkscape:transform-center-x="-173.09162"
       inkscape:transform-center-y="-56.111349"
       style="font-style:normal;font-variant:normal;font-weight:normal;font-stretch:normal;font-size:73.83664703px;line-height:0.25;font-family:Montserrat;-inkscape-font-specification:Montserrat;font-variant-ligatures:normal;font-variant-caps:normal;font-variant-numeric:normal;text-align:start;letter-spacing:0px;word-spacing:0px;writing-mode:lr-tb;text-anchor:start;display:inline;fill:#ffffff;fill-opacity:1;stroke:none;stroke-width:1.01151073"
       id="text2553">
      <path
         d="m 194.60206,84.582958 q 3.15822,0 5.69436,0.957035 2.53614,0.957035 4.73732,2.823254 l -4.1631,4.928731 q -1.4834,-1.10059 -2.87111,-1.674811 -1.3877,-0.574221 -2.9668,-0.574221 -3.15822,0 -4.92874,2.72755 -1.77051,2.72755 -1.77051,8.230504 0,5.50295 1.77051,8.18265 1.81837,2.6797 5.02444,2.6797 1.72266,0 3.15821,-0.66993 1.48341,-0.71777 3.20607,-2.05762 l 3.92385,4.97658 q -1.96193,1.96192 -4.73733,3.20607 -2.72755,1.24415 -5.93362,1.24415 -4.73732,0 -8.27835,-2.00978 -3.49318,-2.05762 -5.40725,-5.98147 -1.91407,-3.9717 -1.91407,-9.57035 0,-5.455102 1.96192,-9.378946 1.96192,-3.923845 5.4551,-5.98147 3.49318,-2.057626 8.0391,-2.057626 z"
         style="font-style:normal;font-variant:normal;font-weight:800;font-stretch:normal;font-size:47.85176086px;font-family:'Fira Sans';-inkscape-font-specification:'Fira Sans Ultra-Bold';fill:#ffffff;stroke-width:1.01151073"
         id="path3406"
         inkscape:connector-curvature="0" />
      <path
         d="M 225.75954,118.70126 V 104.8721 h -8.80473 v 13.82916 h -8.85257 V 85.44429 h 8.85257 v 12.585013 h 8.80473 V 85.44429 h 8.85257 v 33.25697 z"
         style="font-style:normal;font-variant:normal;font-weight:800;font-stretch:normal;font-size:47.85176086px;font-family:'Fira Sans';-inkscape-font-specification:'Fira Sans Ultra-Bold';fill:#ffffff;stroke-width:1.01151073"
         id="path3408"
         inkscape:connector-curvature="0" />
      <path
         d="m 257.15777,118.70126 -1.48341,-6.79495 h -8.80472 l -1.48341,6.79495 h -9.18753 l 9.85746,-33.25697 h 10.62309 l 9.85746,33.25697 z m -8.90043,-13.11138 h 6.02932 L 251.272,91.760722 Z"
         style="font-style:normal;font-variant:normal;font-weight:800;font-stretch:normal;font-size:47.85176086px;font-family:'Fira Sans';-inkscape-font-specification:'Fira Sans Ultra-Bold';fill:#ffffff;stroke-width:1.01151073"
         id="path3410"
         inkscape:connector-curvature="0" />
      <path
         d="m 279.49034,106.45121 h -2.44044 v 12.25005 h -8.85258 V 85.44429 h 11.53228 q 7.03421,0 10.47953,2.536143 3.49318,2.536143 3.49318,7.799837 0,3.158216 -1.4834,5.26369 -1.43556,2.10548 -4.64162,3.78029 l 8.27835,13.87701 h -9.85746 z m -2.44044,-6.02932 h 2.96681 q 4.59377,0 4.59377,-4.64162 0,-2.153329 -1.292,-3.158216 -1.24415,-1.004887 -3.78029,-1.004887 h -2.48829 z"
         style="font-style:normal;font-variant:normal;font-weight:800;font-stretch:normal;font-size:47.85176086px;font-family:'Fira Sans';-inkscape-font-specification:'Fira Sans Ultra-Bold';fill:#ffffff;stroke-width:1.01151073"
         id="path3412"
         inkscape:connector-curvature="0" />
      <path
         d="m 306.67687,85.44429 v 26.36632 h 12.77642 l -0.95704,6.89065 H 297.82429 V 85.44429 Z"
         style="font-style:normal;font-variant:normal;font-weight:800;font-stretch:normal;font-size:47.85176086px;font-family:'Fira Sans';-inkscape-font-specification:'Fira Sans Ultra-Bold';fill:#ffffff;stroke-width:1.01151073"
         id="path3414"
         inkscape:connector-curvature="0" />
      <path
         d="m 340.05721,118.70126 -1.4834,-6.79495 h -8.80473 l -1.4834,6.79495 h -9.18754 l 9.85746,-33.25697 h 10.62309 l 9.85747,33.25697 z m -8.90043,-13.11138 h 6.02933 l -3.01466,-13.829158 z"
         style="font-style:normal;font-variant:normal;font-weight:800;font-stretch:normal;font-size:47.85176086px;font-family:'Fira Sans';-inkscape-font-specification:'Fira Sans Ultra-Bold';fill:#ffffff;stroke-width:1.01151073"
         id="path3416"
         inkscape:connector-curvature="0" />
      <path
         d="m 362.58117,84.582958 q 3.78029,0 6.6514,1.10059 2.91896,1.100591 5.21584,3.301772 l -3.9717,4.689472 q -3.44532,-2.72755 -7.22561,-2.72755 -1.96192,0 -3.01466,0.765628 -1.00489,0.717777 -1.00489,2.057626 0,0.957035 0.52637,1.579108 0.52637,0.622073 1.77052,1.196294 1.24414,0.574221 3.92384,1.435553 5.12014,1.62696 7.46487,4.115249 2.39259,2.44044 2.39259,6.79495 0,3.15822 -1.62696,5.59866 -1.62696,2.39259 -4.73732,3.73244 -3.06251,1.33985 -7.22562,1.33985 -7.94339,0 -12.96782,-4.83303 l 4.35451,-4.83303 q 3.97169,3.25392 8.27835,3.25392 2.24903,0 3.49318,-0.95704 1.24414,-1.00488 1.24414,-2.63184 0,-1.14845 -0.47851,-1.86622 -0.47852,-0.76563 -1.72267,-1.33985 -1.19629,-0.62207 -3.54103,-1.33985 -5.6465,-1.77052 -7.94339,-4.25881 -2.29688,-2.488288 -2.29688,-6.268578 0,-2.966809 1.5791,-5.215842 1.62696,-2.249032 4.45022,-3.445326 2.8711,-1.244146 6.41213,-1.244146 z"
         style="font-style:normal;font-variant:normal;font-weight:800;font-stretch:normal;font-size:47.85176086px;font-family:'Fira Sans';-inkscape-font-specification:'Fira Sans Ultra-Bold';fill:#ffffff;stroke-width:1.01151073"
         id="path3418"
         inkscape:connector-curvature="0" />
    </g>
    <path
       inkscape:connector-curvature="0"
       id="path2567"
       d="m 103.30293,69.218204 c -1.14435,0.04386 -2.22278,0.573591 -3.04183,1.654261 l -11.461873,20.41508 c -1.172862,1.92143 -1.172604,3.76835 0.743631,5.496033 7.076336,5.348312 14.402192,8.791802 14.402192,8.791802 1.29125,0.54409 2.40764,0.0963 3.39189,-1.09014 l 5.95853,-9.444825 c 0.97236,-1.77724 0.32487,-2.97911 -1.09374,-3.90706 l -9.764,-6.11997 -0.62946,0.95228 8.87894,7.72887 -5.67748,9.071175 -12.794966,-8.641285 11.989676,-19.41381 21.97498,15.6827 -13.06534,20.052265 A 34.428568,34.428527 78.260865 0 0 86.506504,104.75369 L 79.289173,75.200365 c 0,0 -11.327352,-0.86039 -11.053803,4.1102 0.274124,4.97059 8.285797,1.53817 8.285797,1.53817 l 7.416881,24.508985 a 34.428568,34.428527 78.260865 0 0 -15.949264,9.7876 L 44.684169,100.59269 c -2.3301,-1.710282 -6.721619,-0.944152 -8.147835,1.62339 l -15.47228,25.33972 c -1.313359,2.05412 -1.177999,4.41721 0.798078,5.91505 l 20.41506,11.45995 c 1.921478,1.17292 3.768336,1.17444 5.495964,-0.74182 5.348366,-7.07628 8.791889,-14.40395 8.791889,-14.40395 0.543712,-1.29131 0.09646,-2.40581 -1.090178,-3.39011 l -9.444793,-5.95853 c -1.777258,-0.97224 -2.979113,-0.32481 -3.907026,1.09374 l -6.120046,9.76226 0.952336,0.6294 7.728831,-8.87708 9.069331,5.67742 -8.641243,12.795 -19.412021,-11.98968 15.682713,-21.97679 21.786345,14.19716 a 34.428568,34.428527 78.260865 0 0 -3.65858,23.76526 34.428568,34.428527 78.260865 0 0 0.183285,0.74552 l -33.503993,8.18412 c 0,0 -0.860344,11.32755 4.110245,11.05377 4.970586,-0.27375 1.538174,-8.2858 1.538174,-8.2858 l 28.49225,-8.62494 a 34.428568,34.428527 78.260865 0 0 7.984668,13.66387 l -16.732958,26.79811 c -1.710314,2.33008 -0.944103,6.71977 1.623398,8.14606 l 25.339679,15.4741 c 2.054129,1.31324 4.415423,1.17794 5.913279,-0.79812 l 11.461795,-20.41505 c 1.172837,-1.92148 1.174413,-3.76838 -0.741825,-5.49603 -7.076276,-5.34834 -14.40393,-8.79179 -14.40393,-8.79179 -1.29131,-0.54407 -2.405853,-0.0963 -3.390111,1.0901 l -5.96043,9.44482 c -0.97219,1.7773 -0.323165,2.9773 1.095596,3.90522 l 9.762212,6.12182 0.629381,-0.95226 -8.877051,-7.7307 5.677463,-9.06933 12.793215,8.64122 -11.98786,19.41386 -21.976814,-15.68272 16.186999,-24.84092 a 34.428568,34.428527 78.260865 0 0 22.201677,5.22212 l 8.503462,34.81178 c 0,0 11.32728,0.86032 11.05367,-4.11024 -0.27404,-4.97056 -8.28574,-1.53995 -8.28574,-1.53995 l -8.936932,-29.52434 a 34.428568,34.428527 78.260865 0 0 0.959482,-0.1505 34.428568,34.428527 78.260865 0 0 13.79458,-6.31406 l 26.01803,16.24676 c 2.33004,1.71031 6.72165,0.94415 8.14789,-1.62339 l 15.47416,-25.33972 c 1.3132,-2.05412 1.17788,-4.41721 -0.79816,-5.91499 l -20.41505,-11.46001 c -1.92148,-1.17289 -3.77026,-1.17444 -5.49789,0.74188 -5.34825,7.07619 -8.79185,14.40389 -8.79185,14.40389 -0.54369,1.29131 -0.0949,2.40578 1.092,3.39011 l 9.44298,5.95856 c 1.77727,0.97224 2.97917,0.32481 3.90709,-1.09377 l 6.12173,-9.76223 -0.95398,-0.6294 -7.72892,8.87705 -9.06933,-5.67742 8.6413,-12.795 19.41377,11.98966 -15.68272,21.975 -23.27552,-15.16572 a 34.428568,34.428527 78.260865 0 0 7.44773,-24.14802 l 31.02077,-7.57651 c 0,0 0.86041,-11.32749 -4.11024,-11.05371 -4.97058,0.27375 -1.53997,8.28574 -1.53997,8.28574 l -25.67347,7.77061 a 34.428568,34.428527 78.260865 0 0 -0.2815,-1.79934 34.428568,34.428527 78.260865 0 0 -7.71255,-15.50859 l 13.92503,-22.299675 c 1.71032,-2.3301 0.94229,-6.71982 -1.62525,-8.14608 l -25.33969,-15.4741 c -0.77032,-0.492497 -1.58289,-0.780811 -2.37792,-0.845251 -0.16597,-0.01433 -0.33053,-0.0172 -0.49353,-0.01147 z M 73.131054,89.138095 a 3.4302848,3.6124148 66.515202 0 0 -3.751077,2.73531 3.4302848,3.6124148 66.515202 0 0 2.595642,4.10482 3.4302848,3.6124148 66.515202 0 0 4.35508,-2.66279 3.4302848,3.6124148 66.515202 0 0 -2.595582,-4.10476 3.4302848,3.6124148 66.515202 0 0 -0.604115,-0.0725 z m 2.670037,8.107993 a 3.4302848,3.6124148 66.515202 0 0 -3.751074,2.73715 3.4302848,3.6124148 66.515202 0 0 2.595639,4.104762 3.4302848,3.6124148 66.515202 0 0 4.35508,-2.66276 3.4302848,3.6124148 66.515202 0 0 -2.595642,-4.104762 3.4302848,3.6124148 66.515202 0 0 -0.604115,-0.0743 z m -3.248655,18.838842 c 2.505909,0.27633 5.012441,0.55353 7.518458,0.83075 0.937895,2.13561 1.8754,4.27093 2.813352,6.40657 1.992828,-1.57816 5.253276,-1.60981 6.02388,1.20078 0.93778,1.32639 1.877309,2.65322 2.815031,3.97961 4.158079,-0.70387 8.315923,-1.40757 12.474003,-2.11136 2.09746,2.17457 4.19483,4.34836 6.29228,6.52269 2.08995,-0.0986 4.17872,-0.19979 6.26878,-0.29926 1.79691,6.58109 -2.06558,12.88016 -5.77897,17.99898 -2.47739,3.29836 -4.56587,6.83489 -6.19981,10.58572 -2.1848,1.04482 -0.41398,7.03291 -3.24142,4.93731 -1.01472,-2.6572 -0.25312,-5.80515 -0.56617,-8.73919 -0.13415,-4.36069 1.0449,-9.34151 -2.182049,-12.92918 -2.047582,-2.64419 -6.585356,-3.44194 -6.5245,-7.49496 0.395378,-3.34623 0.381275,-7.58577 -2.91126,-9.55547 -2.951419,-2.44703 -7.406566,-0.83911 -10.157703,-3.58053 -2.285325,-2.49536 -5.556822,-4.38792 -6.644131,-7.75249 z m 67.484914,2.49404 a 3.6124148,3.4302845 74.163341 0 0 -2.55939,1.36587 3.6124148,3.4302845 74.163341 0 0 0.70023,5.05524 3.6124148,3.4302845 74.163341 0 0 4.81944,-0.59314 3.6124148,3.4302845 74.163341 0 0 -0.69837,-5.05527 3.6124148,3.4302845 74.163341 0 0 -2.26191,-0.7727 z m -7.96653,3.0727 a 3.6124148,3.4302845 74.163341 0 0 -2.55756,1.36584 3.6124148,3.4302845 74.163341 0 0 0.70021,5.05524 3.6124148,3.4302845 74.163341 0 0 4.81938,-0.59314 3.6124148,3.4302845 74.163341 0 0 -0.69825,-5.05527 3.6124148,3.4302845 74.163341 0 0 -2.26378,-0.7727 z m -80.345172,32.03108 a 3.6124148,3.4302845 57.815045 0 0 -3.08899,2.19839 3.6124148,3.4302845 57.815045 0 0 2.093171,4.65442 3.6124148,3.4302845 57.815045 0 0 4.458464,-1.92633 3.6124148,3.4302845 57.815045 0 0 -2.093166,-4.65442 3.6124148,3.4302845 57.815045 0 0 -1.369479,-0.27203 z m -6.778419,5.19126 a 3.6124148,3.4302845 57.815045 0 0 -3.089044,2.19841 3.6124148,3.4302845 57.815045 0 0 2.093166,4.65261 3.6124148,3.4302845 57.815045 0 0 4.458517,-1.92632 3.6124148,3.4302845 57.815045 0 0 -2.093159,-4.65261 3.6124148,3.4302845 57.815045 0 0 -1.36948,-0.27203 z m 64.417631,17.84663 a 3.4302848,3.6124148 66.515202 0 0 -3.75112,2.73534 3.4302848,3.6124148 66.515202 0 0 2.59569,4.10479 3.4302848,3.6124148 66.515202 0 0 4.35508,-2.66093 3.4302848,3.6124148 66.515202 0 0 -2.59559,-4.10659 3.4302848,3.6124148 66.515202 0 0 -0.60412,-0.0725 z m 2.67004,8.10799 a 3.4302848,3.6124148 66.515202 0 0 -3.75109,2.73714 3.4302848,3.6124148 66.515202 0 0 2.5956,4.1048 3.4302848,3.6124148 66.515202 0 0 4.35328,-2.66277 3.4302848,3.6124148 66.515202 0 0 -2.59384,-4.10482 3.4302848,3.6124148 66.515202 0 0 -0.60406,-0.0745 z"
       style="color:#000000;display:inline;overflow:visible;visibility:visible;fill:#ffffff;fill-opacity:0.96496815;fill-rule:nonzero;stroke:none;stroke-width:0.68489623;marker:none;enable-background:accumulate" />
    <g
       aria-label="INSTALACIONES"
       transform="scale(0.92378829,1.0824991)"
       style="font-style:normal;font-variant:normal;font-weight:normal;font-stretch:normal;font-size:73.8366394px;line-height:0.25;font-family:Montserrat;-inkscape-font-specification:Montserrat;font-variant-ligatures:normal;font-variant-caps:normal;font-variant-numeric:normal;text-align:start;letter-spacing:0px;word-spacing:0px;writing-mode:lr-tb;text-anchor:start;display:inline;fill:#ffffff;fill-opacity:1;stroke:none;stroke-width:1.01151073"
       id="text2573">
      <path
         d="m 205.02428,119.24159 v 33.25698 h -8.85258 v -33.25698 z"
         style="font-style:normal;font-variant:normal;font-weight:800;font-stretch:normal;font-size:47.85176086px;font-family:'Fira Sans';-inkscape-font-specification:'Fira Sans Ultra-Bold';fill:#ffffff;stroke-width:1.01151073"
         id="path3379"
         inkscape:connector-curvature="0" />
      <path
         d="m 236.46139,152.49857 h -11.14946 l -8.42191,-25.02648 0.14356,1.00489 q 0.47851,3.30177 0.71777,6.22073 0.28711,2.87111 0.28711,6.55569 v 11.24517 h -7.84769 v -33.25698 h 10.9102 l 8.70903,25.12218 q -0.57423,-3.58889 -0.90919,-6.45999 -0.28711,-2.87111 -0.28711,-6.60354 v -12.05865 h 7.84769 z"
         style="font-style:normal;font-variant:normal;font-weight:800;font-stretch:normal;font-size:47.85176086px;font-family:'Fira Sans';-inkscape-font-specification:'Fira Sans Ultra-Bold';fill:#ffffff;stroke-width:1.01151073"
         id="path3381"
         inkscape:connector-curvature="0" />
      <path
         d="m 253.07791,118.38026 q 3.78029,0 6.6514,1.10059 2.91895,1.10059 5.21584,3.30177 l -3.9717,4.68947 q -3.44532,-2.72755 -7.22561,-2.72755 -1.96193,0 -3.01466,0.76563 -1.00489,0.71778 -1.00489,2.05763 0,0.95703 0.52637,1.57911 0.52637,0.62207 1.77051,1.19629 1.24415,0.57422 3.92385,1.43555 5.12014,1.62696 7.46487,4.11525 2.39259,2.44044 2.39259,6.79495 0,3.15822 -1.62696,5.59866 -1.62696,2.39259 -4.73732,3.73244 -3.06252,1.33985 -7.22562,1.33985 -7.94339,0 -12.96783,-4.83303 l 4.35451,-4.83303 q 3.9717,3.25392 8.27836,3.25392 2.24903,0 3.49318,-0.95703 1.24414,-1.00489 1.24414,-2.63185 0,-1.14844 -0.47851,-1.86622 -0.47852,-0.76563 -1.72267,-1.33985 -1.19629,-0.62207 -3.54103,-1.33985 -5.64651,-1.77051 -7.94339,-4.2588 -2.29689,-2.4883 -2.29689,-6.26859 0,-2.9668 1.57911,-5.21584 1.62696,-2.24903 4.45022,-3.44532 2.8711,-1.24415 6.41213,-1.24415 z"
         style="font-style:normal;font-variant:normal;font-weight:800;font-stretch:normal;font-size:47.85176086px;font-family:'Fira Sans';-inkscape-font-specification:'Fira Sans Ultra-Bold';fill:#ffffff;stroke-width:1.01151073"
         id="path3383"
         inkscape:connector-curvature="0" />
      <path
         d="m 292.10327,119.24159 -0.90919,6.7471 h -7.84769 v 26.50988 h -8.85257 v -26.50988 h -8.32621 v -6.7471 z"
         style="font-style:normal;font-variant:normal;font-weight:800;font-stretch:normal;font-size:47.85176086px;font-family:'Fira Sans';-inkscape-font-specification:'Fira Sans Ultra-Bold';fill:#ffffff;stroke-width:1.01151073"
         id="path3385"
         inkscape:connector-curvature="0" />
      <path
         d="m 309.6215,152.49857 -1.48341,-6.79495 h -8.80472 l -1.48341,6.79495 h -9.18753 l 9.85746,-33.25698 h 10.62309 l 9.85746,33.25698 z m -8.90043,-13.11139 h 6.02932 l -3.01466,-13.82916 z"
         style="font-style:normal;font-variant:normal;font-weight:800;font-stretch:normal;font-size:47.85176086px;font-family:'Fira Sans';-inkscape-font-specification:'Fira Sans Ultra-Bold';fill:#ffffff;stroke-width:1.01151073"
         id="path3387"
         inkscape:connector-curvature="0" />
      <path
         d="m 329.51363,119.24159 v 26.36632 h 12.77642 l -0.95704,6.89066 h -20.67196 v -33.25698 z"
         style="font-style:normal;font-variant:normal;font-weight:800;font-stretch:normal;font-size:47.85176086px;font-family:'Fira Sans';-inkscape-font-specification:'Fira Sans Ultra-Bold';fill:#ffffff;stroke-width:1.01151073"
         id="path3389"
         inkscape:connector-curvature="0" />
      <path
         d="m 362.89397,152.49857 -1.4834,-6.79495 h -8.80473 l -1.4834,6.79495 h -9.18754 l 9.85746,-33.25698 h 10.6231 l 9.85746,33.25698 z m -8.90042,-13.11139 h 6.02932 l -3.01466,-13.82916 z"
         style="font-style:normal;font-variant:normal;font-weight:800;font-stretch:normal;font-size:47.85176086px;font-family:'Fira Sans';-inkscape-font-specification:'Fira Sans Ultra-Bold';fill:#ffffff;stroke-width:1.01151073"
         id="path3391"
         inkscape:connector-curvature="0" />
      <path
         d="m 387.63033,118.38026 q 3.15822,0 5.69436,0.95704 2.53615,0.95703 4.73733,2.82325 l -4.16311,4.92873 q -1.4834,-1.10059 -2.8711,-1.67481 -1.3877,-0.57422 -2.96681,-0.57422 -3.15822,0 -4.92873,2.72755 -1.77052,2.72755 -1.77052,8.2305 0,5.50295 1.77052,8.18265 1.81837,2.6797 5.02443,2.6797 1.72267,0 3.15822,-0.66992 1.4834,-0.71778 3.20607,-2.05763 l 3.92384,4.97658 q -1.96192,1.96193 -4.73732,3.20607 -2.72755,1.24415 -5.93362,1.24415 -4.73733,0 -8.27836,-2.00978 -3.49317,-2.05762 -5.40724,-5.98147 -1.91408,-3.97169 -1.91408,-9.57035 0,-5.4551 1.96193,-9.37894 1.96192,-3.92385 5.4551,-5.98147 3.49318,-2.05763 8.03909,-2.05763 z"
         style="font-style:normal;font-variant:normal;font-weight:800;font-stretch:normal;font-size:47.85176086px;font-family:'Fira Sans';-inkscape-font-specification:'Fira Sans Ultra-Bold';fill:#ffffff;stroke-width:1.01151073"
         id="path3393"
         inkscape:connector-curvature="0" />
      <path
         d="m 409.98309,119.24159 v 33.25698 h -8.85257 v -33.25698 z"
         style="font-style:normal;font-variant:normal;font-weight:800;font-stretch:normal;font-size:47.85176086px;font-family:'Fira Sans';-inkscape-font-specification:'Fira Sans Ultra-Bold';fill:#ffffff;stroke-width:1.01151073"
         id="path3395"
         inkscape:connector-curvature="0" />
      <path
         d="m 429.07444,118.38026 q 7.22562,0 11.24516,4.59377 4.01955,4.59377 4.01955,12.87212 0,5.40725 -1.81837,9.37895 -1.77051,3.92384 -5.21584,6.02932 -3.44532,2.10548 -8.2305,2.10548 -7.22562,0 -11.24516,-4.59377 -3.9717,-4.59377 -3.9717,-12.91998 0,-5.40725 1.77051,-9.33109 1.81837,-3.92384 5.21585,-6.02932 3.44532,-2.10548 8.2305,-2.10548 z m 0,6.36428 q -3.11036,0 -4.59377,2.584 -1.43555,2.58399 -1.43555,8.51761 0,5.93362 1.4834,8.56547 1.48341,2.58399 4.54592,2.58399 3.15822,0 4.59377,-2.58399 1.43555,-2.584 1.43555,-8.56547 0,-5.93362 -1.43555,-8.51761 -1.43555,-2.584 -4.59377,-2.584 z"
         style="font-style:normal;font-variant:normal;font-weight:800;font-stretch:normal;font-size:47.85176086px;font-family:'Fira Sans';-inkscape-font-specification:'Fira Sans Ultra-Bold';fill:#ffffff;stroke-width:1.01151073"
         id="path3397"
         inkscape:connector-curvature="0" />
      <path
         d="m 474.41174,152.49857 h -11.14946 l -8.42191,-25.02648 0.14356,1.00489 q 0.47851,3.30177 0.71777,6.22073 0.28711,2.87111 0.28711,6.55569 v 11.24517 h -7.84769 v -33.25698 h 10.91021 l 8.70902,25.12218 q -0.57423,-3.58889 -0.90919,-6.45999 -0.28711,-2.87111 -0.28711,-6.60354 v -12.05865 h 7.84769 z"
         style="font-style:normal;font-variant:normal;font-weight:800;font-stretch:normal;font-size:47.85176086px;font-family:'Fira Sans';-inkscape-font-specification:'Fira Sans Ultra-Bold';fill:#ffffff;stroke-width:1.01151073"
         id="path3399"
         inkscape:connector-curvature="0" />
      <path
         d="m 500.64646,119.24159 -0.90918,6.26858 h -11.34087 v 7.08206 h 9.90531 v 6.07718 h -9.90531 v 7.56058 h 12.1065 v 6.26858 h -20.95908 v -33.25698 z"
         style="font-style:normal;font-variant:normal;font-weight:800;font-stretch:normal;font-size:47.85176086px;font-family:'Fira Sans';-inkscape-font-specification:'Fira Sans Ultra-Bold';fill:#ffffff;stroke-width:1.01151073"
         id="path3401"
         inkscape:connector-curvature="0" />
      <path
         d="m 515.60837,118.38026 q 3.78028,0 6.65139,1.10059 2.91896,1.10059 5.21584,3.30177 l -3.97169,4.68947 q -3.44533,-2.72755 -7.22562,-2.72755 -1.96192,0 -3.01466,0.76563 -1.00489,0.71778 -1.00489,2.05763 0,0.95703 0.52637,1.57911 0.52637,0.62207 1.77052,1.19629 1.24414,0.57422 3.92384,1.43555 5.12014,1.62696 7.46488,4.11525 2.39258,2.44044 2.39258,6.79495 0,3.15822 -1.62696,5.59866 -1.62696,2.39259 -4.73732,3.73244 -3.06251,1.33985 -7.22562,1.33985 -7.94339,0 -12.96782,-4.83303 l 4.35451,-4.83303 q 3.97169,3.25392 8.27835,3.25392 2.24903,0 3.49318,-0.95703 1.24415,-1.00489 1.24415,-2.63185 0,-1.14844 -0.47852,-1.86622 -0.47852,-0.76563 -1.72267,-1.33985 -1.19629,-0.62207 -3.54103,-1.33985 -5.6465,-1.77051 -7.94339,-4.2588 -2.29688,-2.4883 -2.29688,-6.26859 0,-2.9668 1.57911,-5.21584 1.62696,-2.24903 4.45021,-3.44532 2.8711,-1.24415 6.41214,-1.24415 z"
         style="font-style:normal;font-variant:normal;font-weight:800;font-stretch:normal;font-size:47.85176086px;font-family:'Fira Sans';-inkscape-font-specification:'Fira Sans Ultra-Bold';fill:#ffffff;stroke-width:1.01151073"
         id="path3403"
         inkscape:connector-curvature="0" />
    </g>
    <g
       aria-label="TALLERES"
       transform="matrix(0.9198682,0.08501323,-0.09961886,1.0779056,0,0)"
       style="font-style:normal;font-variant:normal;font-weight:normal;font-stretch:normal;font-size:73.83664703px;line-height:0.25;font-family:Montserrat;-inkscape-font-specification:Montserrat;font-variant-ligatures:normal;font-variant-caps:normal;font-variant-numeric:normal;text-align:start;letter-spacing:0px;word-spacing:0px;writing-mode:lr-tb;text-anchor:start;display:inline;fill:#ffffff;fill-opacity:1;stroke:none;stroke-width:1.01151085"
       id="text2579">
      <path
         d="m 233.41718,154.11391 -0.90919,6.74709 h -7.84768 v 26.50988 h -8.85258 V 160.861 h -8.32621 v -6.74709 z"
         style="font-style:normal;font-variant:normal;font-weight:800;font-stretch:normal;font-size:47.85176086px;font-family:'Fira Sans';-inkscape-font-specification:'Fira Sans Ultra-Bold';fill:#ffffff;stroke-width:1.01151085"
         id="path3362"
         inkscape:connector-curvature="0" />
      <path
         d="m 250.93541,187.37088 -1.48341,-6.79495 h -8.80472 l -1.4834,6.79495 h -9.18754 l 9.85746,-33.25697 h 10.62309 l 9.85746,33.25697 z m -8.90043,-13.11138 h 6.02932 l -3.01466,-13.82916 z"
         style="font-style:normal;font-variant:normal;font-weight:800;font-stretch:normal;font-size:47.85176086px;font-family:'Fira Sans';-inkscape-font-specification:'Fira Sans Ultra-Bold';fill:#ffffff;stroke-width:1.01151085"
         id="path3364"
         inkscape:connector-curvature="0" />
      <path
         d="m 270.82754,154.11391 v 26.36632 h 12.77642 l -0.95704,6.89065 h -20.67196 v -33.25697 z"
         style="font-style:normal;font-variant:normal;font-weight:800;font-stretch:normal;font-size:47.85176086px;font-family:'Fira Sans';-inkscape-font-specification:'Fira Sans Ultra-Bold';fill:#ffffff;stroke-width:1.01151085"
         id="path3366"
         inkscape:connector-curvature="0" />
      <path
         d="m 295.59456,154.11391 v 26.36632 h 12.77642 l -0.95703,6.89065 h -20.67197 v -33.25697 z"
         style="font-style:normal;font-variant:normal;font-weight:800;font-stretch:normal;font-size:47.85176086px;font-family:'Fira Sans';-inkscape-font-specification:'Fira Sans Ultra-Bold';fill:#ffffff;stroke-width:1.01151085"
         id="path3368"
         inkscape:connector-curvature="0" />
      <path
         d="m 332.61164,154.11391 -0.90918,6.26858 h -11.34087 v 7.08206 h 9.90531 v 6.07717 h -9.90531 v 7.56058 h 12.10649 v 6.26858 h -20.95907 v -33.25697 z"
         style="font-style:normal;font-variant:normal;font-weight:800;font-stretch:normal;font-size:47.85176086px;font-family:'Fira Sans';-inkscape-font-specification:'Fira Sans Ultra-Bold';fill:#ffffff;stroke-width:1.01151085"
         id="path3370"
         inkscape:connector-curvature="0" />
      <path
         d="m 347.84943,175.12083 h -2.44044 v 12.25005 h -8.85258 v -33.25697 h 11.53228 q 7.03421,0 10.47953,2.53614 3.49318,2.53614 3.49318,7.79984 0,3.15821 -1.4834,5.26369 -1.43555,2.10548 -4.64162,3.78029 l 8.27835,13.87701 h -9.85746 z m -2.44044,-6.02932 h 2.96681 q 4.59377,0 4.59377,-4.64162 0,-2.15333 -1.292,-3.15822 -1.24414,-1.00489 -3.78029,-1.00489 h -2.48829 z"
         style="font-style:normal;font-variant:normal;font-weight:800;font-stretch:normal;font-size:47.85176086px;font-family:'Fira Sans';-inkscape-font-specification:'Fira Sans Ultra-Bold';fill:#ffffff;stroke-width:1.01151085"
         id="path3372"
         inkscape:connector-curvature="0" />
      <path
         d="m 387.286,154.11391 -0.90918,6.26858 h -11.34087 v 7.08206 h 9.90532 v 6.07717 h -9.90532 v 7.56058 h 12.1065 v 6.26858 h -20.95907 v -33.25697 z"
         style="font-style:normal;font-variant:normal;font-weight:800;font-stretch:normal;font-size:47.85176086px;font-family:'Fira Sans';-inkscape-font-specification:'Fira Sans Ultra-Bold';fill:#ffffff;stroke-width:1.01151085"
         id="path3374"
         inkscape:connector-curvature="0" />
      <path
         d="m 402.24791,153.25257 q 3.78029,0 6.65139,1.1006 2.91896,1.10059 5.21584,3.30177 l -3.97169,4.68947 q -3.44533,-2.72755 -7.22562,-2.72755 -1.96192,0 -3.01466,0.76563 -1.00489,0.71777 -1.00489,2.05762 0,0.95704 0.52637,1.57911 0.52637,0.62207 1.77052,1.19629 1.24414,0.57423 3.92384,1.43556 5.12014,1.62696 7.46488,4.11525 2.39259,2.44044 2.39259,6.79495 0,3.15822 -1.62696,5.59866 -1.62696,2.39258 -4.73733,3.73243 -3.06251,1.33985 -7.22561,1.33985 -7.9434,0 -12.96783,-4.83303 l 4.35451,-4.83302 q 3.97169,3.25392 8.27835,3.25392 2.24904,0 3.49318,-0.95704 1.24415,-1.00489 1.24415,-2.63185 0,-1.14844 -0.47852,-1.86621 -0.47852,-0.76563 -1.72266,-1.33985 -1.1963,-0.62208 -3.54103,-1.33985 -5.64651,-1.77052 -7.9434,-4.25881 -2.29688,-2.48829 -2.29688,-6.26858 0,-2.96681 1.57911,-5.21584 1.62696,-2.24904 4.45021,-3.44533 2.87111,-1.24415 6.41214,-1.24415 z"
         style="font-style:normal;font-variant:normal;font-weight:800;font-stretch:normal;font-size:47.85176086px;font-family:'Fira Sans';-inkscape-font-specification:'Fira Sans Ultra-Bold';fill:#ffffff;stroke-width:1.01151085"
         id="path3376"
         inkscape:connector-curvature="0" />
    </g>
  </g>
</svg>
