<?xml version="1.0" encoding="UTF-8" standalone="no"?>
<!-- Created with Inkscape (http://www.inkscape.org/) -->

<svg
   xmlns:dc="http://purl.org/dc/elements/1.1/"
   xmlns:cc="http://creativecommons.org/ns#"
   xmlns:rdf="http://www.w3.org/1999/02/22-rdf-syntax-ns#"
   xmlns:svg="http://www.w3.org/2000/svg"
   xmlns="http://www.w3.org/2000/svg"
   xmlns:sodipodi="http://sodipodi.sourceforge.net/DTD/sodipodi-0.dtd"
   xmlns:inkscape="http://www.inkscape.org/namespaces/inkscape"
   width="1920"
   height="1080"
   viewBox="0 0 507.99999 285.75001"
   version="1.1"
   id="svg1390"
   inkscape:version="0.92.3 (2405546, 2018-03-11)"
   sodipodi:docname="graphi3-curvas.svg"
   inkscape:export-filename="fondo-video.png"
   inkscape:export-xdpi="96"
   inkscape:export-ydpi="96">
  <defs
     id="defs1384" />
  <sodipodi:namedview
     id="base"
     pagecolor="#c0966c"
     bordercolor="#666666"
     borderopacity="1.0"
     inkscape:pageopacity="0"
     inkscape:pageshadow="2"
     inkscape:zoom="0.24748737"
     inkscape:cx="817.25516"
     inkscape:cy="572.27667"
     inkscape:document-units="mm"
     inkscape:current-layer="layer2"
     showgrid="false"
     units="px"
     inkscape:showpageshadow="false"
     borderlayer="true"
     inkscape:window-width="1600"
     inkscape:window-height="840"
     inkscape:window-x="0"
     inkscape:window-y="0"
     inkscape:window-maximized="1" />
  <metadata
     id="metadata1387">
    <rdf:RDF>
      <cc:Work
         rdf:about="">
        <dc:format>image/svg+xml</dc:format>
        <dc:type
           rdf:resource="http://purl.org/dc/dcmitype/StillImage" />
        <dc:title />
      </cc:Work>
    </rdf:RDF>
  </metadata>
  <g
     inkscape:groupmode="layer"
     id="layer2"
     inkscape:label="slide1"
     style="display:inline">
    <g
       style="display:inline"
       id="g2376"
       transform="matrix(2.8899185,0,0,2.8899185,-323.94744,-270.61413)">
      <g
         aria-label="Instalación"
         transform="scale(0.92378829,1.0824991)"
         style="font-style:normal;font-variant:normal;font-weight:normal;font-stretch:normal;font-size:16.41961861px;line-height:0.25;font-family:Montserrat;-inkscape-font-specification:Montserrat;font-variant-ligatures:normal;font-variant-caps:normal;font-variant-numeric:normal;text-align:start;letter-spacing:0px;word-spacing:0px;writing-mode:lr-tb;text-anchor:start;display:inline;fill:#ffffff;fill-opacity:1;stroke:none;stroke-width:0.22493738"
         id="text2322">
        <path
           d="m 147.66413,114.42598 v 7.39561 h -1.96861 v -7.39561 z"
           style="font-style:normal;font-variant:normal;font-weight:800;font-stretch:normal;font-size:10.64116192px;font-family:'Fira Sans';-inkscape-font-specification:'Fira Sans Ultra-Bold';fill:#ffffff;stroke-width:0.22493738"
           id="path3488"
           inkscape:connector-curvature="0" />
        <path
           d="m 152.30335,115.95831 q 0.7236,0 1.1386,0.44693 0.41501,0.44692 0.41501,1.25565 v 4.1607 h -1.89413 v -3.82018 q 0,-0.37244 -0.10641,-0.51078 -0.10641,-0.14897 -0.31924,-0.14897 -0.44693,0 -0.85129,0.64911 v 3.83082 h -1.89413 v -5.67174 h 1.64938 l 0.13834,0.63847 q 0.38308,-0.42565 0.79809,-0.62783 0.415,-0.20218 0.92578,-0.20218 z"
           style="font-style:normal;font-variant:normal;font-weight:800;font-stretch:normal;font-size:10.64116192px;font-family:'Fira Sans';-inkscape-font-specification:'Fira Sans Ultra-Bold';fill:#ffffff;stroke-width:0.22493738"
           id="path3490"
           inkscape:connector-curvature="0" />
        <path
           d="m 157.04099,115.95831 q 0.61719,0 1.17053,0.19154 0.56398,0.19154 0.9577,0.52141 l -0.68103,1.04284 q -0.68103,-0.42565 -1.37271,-0.42565 -0.29795,0 -0.44693,0.0958 -0.13833,0.0851 -0.13833,0.24475 0,0.13833 0.0745,0.22346 0.0745,0.0851 0.3086,0.19154 0.24474,0.0958 0.76616,0.25539 0.87258,0.25539 1.28758,0.6704 0.41501,0.40436 0.41501,1.1386 0,0.57462 -0.34052,1.01091 -0.32988,0.42565 -0.92578,0.65975 -0.58526,0.23411 -1.33015,0.23411 -0.7236,0 -1.36206,-0.22347 -0.62783,-0.2341 -1.06412,-0.63847 l 0.9045,-1.01091 q 0.32987,0.25539 0.70231,0.40437 0.38309,0.14897 0.76617,0.14897 0.34052,0 0.52141,-0.10641 0.19155,-0.11705 0.19155,-0.34052 0,-0.17025 -0.0851,-0.26602 -0.0745,-0.0958 -0.29796,-0.1809 -0.22346,-0.0958 -0.76616,-0.25539 -1.64938,-0.4895 -1.64938,-1.79836 0,-0.50013 0.28731,-0.9045 0.28731,-0.415 0.81937,-0.64911 0.5427,-0.2341 1.28758,-0.2341 z"
           style="font-style:normal;font-variant:normal;font-weight:800;font-stretch:normal;font-size:10.64116192px;font-family:'Fira Sans';-inkscape-font-specification:'Fira Sans Ultra-Bold';fill:#ffffff;stroke-width:0.22493738"
           id="path3492"
           inkscape:connector-curvature="0" />
        <path
           d="m 163.86497,121.54492 q -0.32988,0.2341 -0.76616,0.35115 -0.43629,0.11706 -0.8513,0.11706 -1.96861,0 -1.96861,-2.1708 v -2.39426 h -0.73424 v -1.29822 h 0.73424 v -1.20245 l 1.89413,-0.22347 v 1.42592 h 1.28758 l -0.19154,1.29822 h -1.09604 v 2.37298 q 0,0.38308 0.11705,0.5427 0.12769,0.15961 0.37244,0.15961 0.29795,0 0.57462,-0.15961 z"
           style="font-style:normal;font-variant:normal;font-weight:800;font-stretch:normal;font-size:10.64116192px;font-family:'Fira Sans';-inkscape-font-specification:'Fira Sans Ultra-Bold';fill:#ffffff;stroke-width:0.22493738"
           id="path3494"
           inkscape:connector-curvature="0" />
        <path
           d="m 168.83339,120.07644 q 0,0.30859 0.0745,0.45757 0.0851,0.14897 0.28731,0.22346 l -0.38308,1.22373 q -0.5427,-0.0426 -0.89386,-0.22346 -0.34051,-0.1809 -0.55334,-0.57462 -0.5427,0.83001 -1.71322,0.83001 -0.84066,0 -1.35143,-0.4895 -0.50014,-0.50013 -0.50014,-1.28758 0,-0.93642 0.69168,-1.43655 0.69168,-0.50014 2.00054,-0.50014 h 0.48949 v -0.19154 q 0,-0.45757 -0.19154,-0.61719 -0.19154,-0.17025 -0.69167,-0.17025 -0.26603,0 -0.6704,0.0851 -0.39372,0.0745 -0.80873,0.21283 l -0.415,-1.22374 q 0.51077,-0.21282 1.09604,-0.31923 0.58526,-0.11705 1.0854,-0.11705 1.27694,0 1.8622,0.51077 0.58526,0.50014 0.58526,1.54297 z m -2.60708,0.60654 q 0.23411,0 0.42565,-0.11705 0.20218,-0.12769 0.32987,-0.34052 v -0.91514 h -0.31923 q -0.51078,0 -0.75553,0.19154 -0.24474,0.1809 -0.24474,0.55334 0,0.28732 0.14897,0.45757 0.14898,0.17026 0.41501,0.17026 z"
           style="font-style:normal;font-variant:normal;font-weight:800;font-stretch:normal;font-size:10.64116192px;font-family:'Fira Sans';-inkscape-font-specification:'Fira Sans Ultra-Bold';fill:#ffffff;stroke-width:0.22493738"
           id="path3496"
           inkscape:connector-curvature="0" />
        <path
           d="m 171.50449,122.01313 q -0.79808,0 -1.23437,-0.44693 -0.43629,-0.44693 -0.43629,-1.28758 v -6.36342 l 1.89413,-0.19154 v 6.49111 q 0,0.30859 0.27667,0.30859 0.11705,0 0.24474,-0.0426 l 0.35116,1.34079 q -0.43628,0.19154 -1.09604,0.19154 z"
           style="font-style:normal;font-variant:normal;font-weight:800;font-stretch:normal;font-size:10.64116192px;font-family:'Fira Sans';-inkscape-font-specification:'Fira Sans Ultra-Bold';fill:#ffffff;stroke-width:0.22493738"
           id="path3498"
           inkscape:connector-curvature="0" />
        <path
           d="m 177.70796,120.07644 q 0,0.30859 0.0745,0.45757 0.0851,0.14897 0.28731,0.22346 l -0.38308,1.22373 q -0.5427,-0.0426 -0.89386,-0.22346 -0.34052,-0.1809 -0.55334,-0.57462 -0.5427,0.83001 -1.71323,0.83001 -0.84065,0 -1.35143,-0.4895 -0.50013,-0.50013 -0.50013,-1.28758 0,-0.93642 0.69167,-1.43655 0.69168,-0.50014 2.00054,-0.50014 h 0.4895 v -0.19154 q 0,-0.45757 -0.19155,-0.61719 -0.19154,-0.17025 -0.69167,-0.17025 -0.26603,0 -0.67039,0.0851 -0.39373,0.0745 -0.80873,0.21283 l -0.41501,-1.22374 q 0.51078,-0.21282 1.09604,-0.31923 0.58527,-0.11705 1.0854,-0.11705 1.27694,0 1.8622,0.51077 0.58527,0.50014 0.58527,1.54297 z m -2.60709,0.60654 q 0.23411,0 0.42565,-0.11705 0.20218,-0.12769 0.32988,-0.34052 v -0.91514 h -0.31924 q -0.51078,0 -0.75552,0.19154 -0.24475,0.1809 -0.24475,0.55334 0,0.28732 0.14898,0.45757 0.14897,0.17026 0.415,0.17026 z"
           style="font-style:normal;font-variant:normal;font-weight:800;font-stretch:normal;font-size:10.64116192px;font-family:'Fira Sans';-inkscape-font-specification:'Fira Sans Ultra-Bold';fill:#ffffff;stroke-width:0.22493738"
           id="path3500"
           inkscape:connector-curvature="0" />
        <path
           d="m 181.43004,115.95831 q 0.61718,0 1.10668,0.1809 0.48949,0.1809 0.89385,0.5427 l -0.79808,1.10668 q -0.4895,-0.39373 -1.0322,-0.39373 -0.52141,0 -0.78744,0.38309 -0.26603,0.37244 -0.26603,1.24501 0,0.85129 0.26603,1.19181 0.26603,0.32988 0.76616,0.32988 0.26603,0 0.4895,-0.0851 0.22346,-0.0851 0.5427,-0.28731 l 0.81936,1.15988 q -0.81936,0.68104 -1.94733,0.68104 -0.89386,0 -1.55361,-0.37244 -0.64911,-0.37244 -1.00027,-1.04284 -0.35116,-0.68103 -0.35116,-1.56425 0,-0.89386 0.35116,-1.58553 0.35116,-0.70232 0.98963,-1.09604 0.64911,-0.39372 1.51105,-0.39372 z"
           style="font-style:normal;font-variant:normal;font-weight:800;font-stretch:normal;font-size:10.64116192px;font-family:'Fira Sans';-inkscape-font-specification:'Fira Sans Ultra-Bold';fill:#ffffff;stroke-width:0.22493738"
           id="path3502"
           inkscape:connector-curvature="0" />
        <path
           d="m 185.8516,116.14985 v 5.67174 h -1.89412 v -5.67174 z m -0.94706,-3.05402 q 0.47885,0 0.77681,0.29796 0.30859,0.29795 0.30859,0.74488 0,0.44693 -0.30859,0.74488 -0.29796,0.29795 -0.77681,0.29795 -0.47885,0 -0.78745,-0.29795 -0.29795,-0.29795 -0.29795,-0.74488 0,-0.44693 0.29795,-0.74488 0.3086,-0.29796 0.78745,-0.29796 z"
           style="font-style:normal;font-variant:normal;font-weight:800;font-stretch:normal;font-size:10.64116192px;font-family:'Fira Sans';-inkscape-font-specification:'Fira Sans Ultra-Bold';fill:#ffffff;stroke-width:0.22493738"
           id="path3504"
           inkscape:connector-curvature="0" />
        <path
           d="m 189.50418,115.95831 q 1.33015,0 2.08567,0.79808 0.75552,0.79809 0.75552,2.23465 0,0.91514 -0.34051,1.59617 -0.34052,0.68104 -0.98963,1.05348 -0.63847,0.37244 -1.51105,0.37244 -1.33014,0 -2.08566,-0.79809 -0.75553,-0.79809 -0.75553,-2.23464 0,-0.91514 0.34052,-1.59618 0.34052,-0.68103 0.97899,-1.05347 0.64911,-0.37244 1.52168,-0.37244 z m 0,1.37271 q -0.45757,0 -0.68103,0.40436 -0.21282,0.39372 -0.21282,1.24502 0,0.88321 0.21282,1.27694 0.22346,0.38308 0.68103,0.38308 0.45757,0 0.6704,-0.39373 0.22346,-0.40436 0.22346,-1.25565 0,-0.87258 -0.22346,-1.2663 -0.21283,-0.39372 -0.6704,-0.39372 z m 0.74489,-4.51186 0.72359,1.40464 -2.59644,1.02155 -0.51077,-0.94706 z"
           style="font-style:normal;font-variant:normal;font-weight:800;font-stretch:normal;font-size:10.64116192px;font-family:'Fira Sans';-inkscape-font-specification:'Fira Sans Ultra-Bold';fill:#ffffff;stroke-width:0.22493738"
           id="path3506"
           inkscape:connector-curvature="0" />
        <path
           d="m 196.67616,115.95831 q 0.7236,0 1.1386,0.44693 0.41501,0.44692 0.41501,1.25565 v 4.1607 h -1.89413 v -3.82018 q 0,-0.37244 -0.10641,-0.51078 -0.10641,-0.14897 -0.31923,-0.14897 -0.44693,0 -0.8513,0.64911 v 3.83082 h -1.89412 v -5.67174 h 1.64938 l 0.13833,0.63847 q 0.38308,-0.42565 0.79809,-0.62783 0.415,-0.20218 0.92578,-0.20218 z"
           style="font-style:normal;font-variant:normal;font-weight:800;font-stretch:normal;font-size:10.64116192px;font-family:'Fira Sans';-inkscape-font-specification:'Fira Sans Ultra-Bold';fill:#ffffff;stroke-width:0.22493738"
           id="path3508"
           inkscape:connector-curvature="0" />
      </g>
      <g
         aria-label="de"
         transform="scale(0.92378829,1.0824991)"
         style="font-style:normal;font-variant:normal;font-weight:normal;font-stretch:normal;font-size:73.10884094px;line-height:0.25;font-family:Montserrat;-inkscape-font-specification:Montserrat;font-variant-ligatures:normal;font-variant-caps:normal;font-variant-numeric:normal;text-align:start;letter-spacing:0px;word-spacing:0px;writing-mode:lr-tb;text-anchor:start;display:inline;fill:#fcfeff;fill-opacity:1;stroke:none;stroke-width:0.54009825"
         id="text2328">
        <path
           d="m 206.5838,113.988 v 7.83189 h -0.53206 l -0.0745,-0.85129 q -0.57462,0.96835 -1.67066,0.96835 -0.96835,0 -1.53233,-0.76617 -0.55334,-0.7768 -0.55334,-2.10695 0,-0.86193 0.25539,-1.52168 0.26603,-0.65976 0.75552,-1.0322 0.50013,-0.37244 1.17053,-0.37244 0.94706,0 1.56425,0.75552 v -2.97952 z m -2.18144,7.43817 q 0.53206,0 0.89386,-0.25539 0.37244,-0.25539 0.67039,-0.7768 v -2.90504 q -0.59591,-0.84065 -1.45784,-0.84065 -0.75552,0 -1.20245,0.62783 -0.43629,0.62783 -0.42565,1.77707 0,1.14925 0.40437,1.76643 0.40436,0.60655 1.11732,0.60655 z"
           style="font-style:normal;font-variant:normal;font-weight:300;font-stretch:normal;font-size:10.64116192px;font-family:'Fira Sans';-inkscape-font-specification:'Fira Sans Light';fill:#fcfeff;fill-opacity:1;stroke-width:0.2912575"
           id="path3511"
           inkscape:connector-curvature="0" />
        <path
           d="m 212.79757,118.82973 q 0,0.2341 -0.0213,0.44693 h -3.71377 q 0.0532,1.08539 0.51078,1.61745 0.46821,0.52142 1.22373,0.52142 0.43629,0 0.76616,-0.1277 0.34052,-0.13833 0.73424,-0.42564 l 0.28732,0.39372 q -0.41501,0.34052 -0.8513,0.51078 -0.43628,0.17026 -0.96834,0.17026 -1.10668,0 -1.73451,-0.75553 -0.62783,-0.75552 -0.62783,-2.09631 0,-0.88321 0.26603,-1.54296 0.27667,-0.6704 0.7768,-1.0322 0.51078,-0.37244 1.18117,-0.37244 1.06412,0 1.61746,0.7236 0.55334,0.71296 0.55334,1.96862 z m -0.60655,-0.19154 q 0,-0.93643 -0.39372,-1.45784 -0.38308,-0.53206 -1.14925,-0.53206 -0.69167,0 -1.11732,0.53206 -0.42564,0.53205 -0.46821,1.61745 h 3.1285 z"
           style="font-style:normal;font-variant:normal;font-weight:300;font-stretch:normal;font-size:10.64116192px;font-family:'Fira Sans';-inkscape-font-specification:'Fira Sans Light';fill:#fcfeff;fill-opacity:1;stroke-width:0.2912575"
           id="path3513"
           inkscape:connector-curvature="0" />
      </g>
      <g
         aria-label="Software Libre"
         transform="scale(0.92378829,1.0824991)"
         style="font-style:normal;font-variant:normal;font-weight:normal;font-stretch:normal;font-size:16.41961861px;line-height:0.25;font-family:Montserrat;-inkscape-font-specification:Montserrat;font-variant-ligatures:normal;font-variant-caps:normal;font-variant-numeric:normal;text-align:start;letter-spacing:0px;word-spacing:0px;writing-mode:lr-tb;text-anchor:start;display:inline;fill:#ffffff;fill-opacity:1;stroke:none;stroke-width:0.22493738"
         id="text2334">
        <path
           d="m 219.32749,114.23444 q 0.84065,0 1.47912,0.24474 0.64911,0.24475 1.15989,0.73425 l -0.88322,1.04283 q -0.76616,-0.60655 -1.60681,-0.60655 -0.43629,0 -0.6704,0.17026 -0.22346,0.15962 -0.22346,0.45757 0,0.21282 0.11705,0.35116 0.11706,0.13833 0.39373,0.26603 0.27667,0.12769 0.87257,0.31923 1.13861,0.3618 1.66002,0.91514 0.53206,0.5427 0.53206,1.51105 0,0.70232 -0.3618,1.24501 -0.3618,0.53206 -1.05347,0.83001 -0.68104,0.29796 -1.60682,0.29796 -1.76643,0 -2.88375,-1.07476 l 0.96834,-1.07476 q 0.88322,0.7236 1.84092,0.7236 0.50014,0 0.77681,-0.21282 0.27667,-0.22347 0.27667,-0.58527 0,-0.25538 -0.10641,-0.415 -0.10642,-0.17026 -0.38309,-0.29795 -0.26603,-0.13834 -0.78744,-0.29796 -1.25566,-0.39372 -1.76643,-0.94706 -0.51078,-0.55334 -0.51078,-1.39399 0,-0.65975 0.35116,-1.15989 0.3618,-0.50013 0.98963,-0.76616 0.63847,-0.27667 1.42591,-0.27667 z"
           style="font-style:normal;font-variant:normal;font-weight:800;font-stretch:normal;font-size:10.64116192px;font-family:'Fira Sans';-inkscape-font-specification:'Fira Sans Ultra-Bold';fill:#ffffff;stroke-width:0.22493738"
           id="path3516"
           inkscape:connector-curvature="0" />
        <path
           d="m 225.47891,115.95831 q 1.33015,0 2.08567,0.79808 0.75552,0.79809 0.75552,2.23465 0,0.91514 -0.34051,1.59617 -0.34052,0.68104 -0.98963,1.05348 -0.63847,0.37244 -1.51105,0.37244 -1.33014,0 -2.08566,-0.79809 -0.75553,-0.79809 -0.75553,-2.23464 0,-0.91514 0.34052,-1.59618 0.34052,-0.68103 0.97899,-1.05347 0.64911,-0.37244 1.52168,-0.37244 z m 0,1.37271 q -0.45757,0 -0.68103,0.40436 -0.21282,0.39372 -0.21282,1.24502 0,0.88321 0.21282,1.27694 0.22346,0.38308 0.68103,0.38308 0.45757,0 0.6704,-0.39373 0.22346,-0.40436 0.22346,-1.25565 0,-0.87258 -0.22346,-1.2663 -0.21283,-0.39372 -0.6704,-0.39372 z"
           style="font-style:normal;font-variant:normal;font-weight:800;font-stretch:normal;font-size:10.64116192px;font-family:'Fira Sans';-inkscape-font-specification:'Fira Sans Ultra-Bold';fill:#ffffff;stroke-width:0.22493738"
           id="path3518"
           inkscape:connector-curvature="0" />
        <path
           d="m 231.92729,115.09637 q -0.34051,0 -0.48949,0.17026 -0.14898,0.15962 -0.14898,0.56398 v 0.31924 h 1.33015 l -0.21282,1.29822 h -1.11733 v 4.37352 h -1.89412 v -4.37352 h -0.80873 v -1.29822 h 0.80873 v -0.40437 q 0,-0.88321 0.58526,-1.44719 0.59591,-0.57463 1.70259,-0.57463 0.43628,0 0.86193,0.10641 0.42565,0.0958 0.74488,0.26603 l -0.51077,1.2131 q -0.41501,-0.21283 -0.8513,-0.21283 z"
           style="font-style:normal;font-variant:normal;font-weight:800;font-stretch:normal;font-size:10.64116192px;font-family:'Fira Sans';-inkscape-font-specification:'Fira Sans Ultra-Bold';fill:#ffffff;stroke-width:0.22493738"
           id="path3520"
           inkscape:connector-curvature="0" />
        <path
           d="m 236.77201,121.54492 q -0.32987,0.2341 -0.76616,0.35115 -0.43629,0.11706 -0.85129,0.11706 -1.96862,0 -1.96862,-2.1708 v -2.39426 h -0.73424 v -1.29822 h 0.73424 v -1.20245 l 1.89413,-0.22347 v 1.42592 h 1.28758 l -0.19154,1.29822 h -1.09604 v 2.37298 q 0,0.38308 0.11705,0.5427 0.1277,0.15961 0.37244,0.15961 0.29796,0 0.57463,-0.15961 z"
           style="font-style:normal;font-variant:normal;font-weight:800;font-stretch:normal;font-size:10.64116192px;font-family:'Fira Sans';-inkscape-font-specification:'Fira Sans Ultra-Bold';fill:#ffffff;stroke-width:0.22493738"
           id="path3522"
           inkscape:connector-curvature="0" />
        <path
           d="m 244.70583,116.14985 -1.14925,5.67174 h -2.21336 l -0.68103,-3.9798 -0.67039,3.9798 h -2.19208 l -1.17053,-5.67174 h 1.90477 l 0.46821,4.23518 0.81937,-4.23518 h 1.79835 l 0.68104,4.23518 0.58526,-4.23518 z"
           style="font-style:normal;font-variant:normal;font-weight:800;font-stretch:normal;font-size:10.64116192px;font-family:'Fira Sans';-inkscape-font-specification:'Fira Sans Ultra-Bold';fill:#ffffff;stroke-width:0.22493738"
           id="path3524"
           inkscape:connector-curvature="0" />
        <path
           d="m 249.80444,120.07644 q 0,0.30859 0.0745,0.45757 0.0851,0.14897 0.28731,0.22346 l -0.38308,1.22373 q -0.5427,-0.0426 -0.89386,-0.22346 -0.34051,-0.1809 -0.55334,-0.57462 -0.5427,0.83001 -1.71322,0.83001 -0.84065,0 -1.35143,-0.4895 -0.50014,-0.50013 -0.50014,-1.28758 0,-0.93642 0.69168,-1.43655 0.69168,-0.50014 2.00054,-0.50014 h 0.48949 v -0.19154 q 0,-0.45757 -0.19154,-0.61719 -0.19154,-0.17025 -0.69167,-0.17025 -0.26603,0 -0.6704,0.0851 -0.39372,0.0745 -0.80873,0.21283 l -0.415,-1.22374 q 0.51077,-0.21282 1.09604,-0.31923 0.58526,-0.11705 1.0854,-0.11705 1.27694,0 1.8622,0.51077 0.58526,0.50014 0.58526,1.54297 z m -2.60708,0.60654 q 0.23411,0 0.42565,-0.11705 0.20218,-0.12769 0.32987,-0.34052 v -0.91514 h -0.31923 q -0.51078,0 -0.75553,0.19154 -0.24474,0.1809 -0.24474,0.55334 0,0.28732 0.14897,0.45757 0.14898,0.17026 0.41501,0.17026 z"
           style="font-style:normal;font-variant:normal;font-weight:800;font-stretch:normal;font-size:10.64116192px;font-family:'Fira Sans';-inkscape-font-specification:'Fira Sans Ultra-Bold';fill:#ffffff;stroke-width:0.22493738"
           id="path3526"
           inkscape:connector-curvature="0" />
        <path
           d="m 254.2182,115.97959 q 0.27667,0 0.57462,0.0958 l -0.30859,1.83028 q -0.27667,-0.0851 -0.51078,-0.0851 -0.47885,0 -0.73424,0.32988 -0.24475,0.31923 -0.38308,0.97898 v 2.69222 H 250.962 v -5.67174 h 1.64938 l 0.17026,1.07475 q 0.17026,-0.56398 0.56398,-0.90449 0.40437,-0.34052 0.87258,-0.34052 z"
           style="font-style:normal;font-variant:normal;font-weight:800;font-stretch:normal;font-size:10.64116192px;font-family:'Fira Sans';-inkscape-font-specification:'Fira Sans Ultra-Bold';fill:#ffffff;stroke-width:0.22493738"
           id="path3528"
           inkscape:connector-curvature="0" />
        <path
           d="m 260.09212,118.89527 q 0,0.0638 -0.0319,0.63847 h -3.46902 q 0.0745,0.64911 0.3618,0.89385 0.29795,0.23411 0.84065,0.23411 0.31923,0 0.62783,-0.11705 0.31923,-0.1277 0.69167,-0.38308 l 0.76617,1.04283 q -0.44693,0.37244 -1.02156,0.5959 -0.57462,0.21283 -1.24501,0.21283 -1.4472,0 -2.20272,-0.80873 -0.74488,-0.81937 -0.74488,-2.19208 0,-0.86193 0.30859,-1.55361 0.31924,-0.69168 0.93642,-1.09604 0.61719,-0.40436 1.48977,-0.40436 1.24501,0 1.96861,0.7768 0.7236,0.76616 0.7236,2.16016 z m -1.8622,-0.53206 q -0.0106,-0.56398 -0.19155,-0.87258 -0.18089,-0.30859 -0.60654,-0.30859 -0.39372,0 -0.59591,0.27667 -0.20218,0.27667 -0.25538,0.96835 h 1.64938 z"
           style="font-style:normal;font-variant:normal;font-weight:800;font-stretch:normal;font-size:10.64116192px;font-family:'Fira Sans';-inkscape-font-specification:'Fira Sans Ultra-Bold';fill:#ffffff;stroke-width:0.22493738"
           id="path3530"
           inkscape:connector-curvature="0" />
        <path
           d="m 265.27653,114.42598 v 5.86328 h 2.84119 l -0.21282,1.53233 h -4.59699 v -7.39561 z"
           style="font-style:normal;font-variant:normal;font-weight:800;font-stretch:normal;font-size:10.64116192px;font-family:'Fira Sans';-inkscape-font-specification:'Fira Sans Ultra-Bold';fill:#ffffff;stroke-width:0.22493738"
           id="path3532"
           inkscape:connector-curvature="0" />
        <path
           d="m 270.68839,116.14985 v 5.67174 h -1.89413 v -5.67174 z m -0.94707,-3.05402 q 0.47886,0 0.77681,0.29796 0.30859,0.29795 0.30859,0.74488 0,0.44693 -0.30859,0.74488 -0.29795,0.29795 -0.77681,0.29795 -0.47885,0 -0.78744,-0.29795 -0.29795,-0.29795 -0.29795,-0.74488 0,-0.44693 0.29795,-0.74488 0.30859,-0.29796 0.78744,-0.29796 z"
           style="font-style:normal;font-variant:normal;font-weight:800;font-stretch:normal;font-size:10.64116192px;font-family:'Fira Sans';-inkscape-font-specification:'Fira Sans Ultra-Bold';fill:#ffffff;stroke-width:0.22493738"
           id="path3534"
           inkscape:connector-curvature="0" />
        <path
           d="m 275.19226,115.95831 q 1.01091,0 1.55361,0.79808 0.5427,0.79809 0.5427,2.23465 0,0.87257 -0.27667,1.56425 -0.26603,0.68103 -0.7768,1.07476 -0.51078,0.38308 -1.2131,0.38308 -0.46821,0 -0.85129,-0.19154 -0.37244,-0.1809 -0.62783,-0.52142 l -0.0745,0.52142 h -1.6813 v -7.90639 l 1.89413,-0.19154 v 2.97953 q 0.24474,-0.34052 0.64911,-0.5427 0.40436,-0.20218 0.86193,-0.20218 z m -0.73424,4.69275 q 0.41501,0 0.63847,-0.38308 0.23411,-0.38308 0.23411,-1.27694 0,-0.95771 -0.21283,-1.30887 -0.20218,-0.35115 -0.58526,-0.35115 -0.50014,0 -0.85129,0.5959 v 2.24529 q 0.28731,0.47885 0.7768,0.47885 z"
           style="font-style:normal;font-variant:normal;font-weight:800;font-stretch:normal;font-size:10.64116192px;font-family:'Fira Sans';-inkscape-font-specification:'Fira Sans Ultra-Bold';fill:#ffffff;stroke-width:0.22493738"
           id="path3536"
           inkscape:connector-curvature="0" />
        <path
           d="m 281.40304,115.97959 q 0.27667,0 0.57462,0.0958 l -0.30859,1.83028 q -0.27667,-0.0851 -0.51077,-0.0851 -0.47886,0 -0.73425,0.32988 -0.24474,0.31923 -0.38308,0.97898 v 2.69222 h -1.89412 v -5.67174 h 1.64938 l 0.17025,1.07475 q 0.17026,-0.56398 0.56399,-0.90449 0.40436,-0.34052 0.87257,-0.34052 z"
           style="font-style:normal;font-variant:normal;font-weight:800;font-stretch:normal;font-size:10.64116192px;font-family:'Fira Sans';-inkscape-font-specification:'Fira Sans Ultra-Bold';fill:#ffffff;stroke-width:0.22493738"
           id="path3538"
           inkscape:connector-curvature="0" />
        <path
           d="m 287.27696,118.89527 q 0,0.0638 -0.0319,0.63847 h -3.46902 q 0.0745,0.64911 0.3618,0.89385 0.29795,0.23411 0.84065,0.23411 0.31923,0 0.62783,-0.11705 0.31923,-0.1277 0.69167,-0.38308 l 0.76617,1.04283 q -0.44693,0.37244 -1.02155,0.5959 -0.57463,0.21283 -1.24502,0.21283 -1.4472,0 -2.20272,-0.80873 -0.74488,-0.81937 -0.74488,-2.19208 0,-0.86193 0.30859,-1.55361 0.31924,-0.69168 0.93642,-1.09604 0.61719,-0.40436 1.48977,-0.40436 1.24501,0 1.96861,0.7768 0.7236,0.76616 0.7236,2.16016 z m -1.8622,-0.53206 q -0.0106,-0.56398 -0.19154,-0.87258 -0.1809,-0.30859 -0.60655,-0.30859 -0.39372,0 -0.59591,0.27667 -0.20218,0.27667 -0.25538,0.96835 h 1.64938 z"
           style="font-style:normal;font-variant:normal;font-weight:800;font-stretch:normal;font-size:10.64116192px;font-family:'Fira Sans';-inkscape-font-specification:'Fira Sans Ultra-Bold';fill:#ffffff;stroke-width:0.22493738"
           id="path3540"
           inkscape:connector-curvature="0" />
      </g>
    </g>
    <g
       style="display:inline"
       id="g2365"
       transform="matrix(2.9663302,0,0,2.9663302,-335.19573,-279.25834)">
      <g
         aria-label="Festival"
         transform="scale(0.92378829,1.0824991)"
         style="font-style:normal;font-variant:normal;font-weight:normal;font-stretch:normal;font-size:17.81032181px;line-height:0.25;font-family:Montserrat;-inkscape-font-specification:Montserrat;font-variant-ligatures:normal;font-variant-caps:normal;font-variant-numeric:normal;text-align:start;letter-spacing:0px;word-spacing:0px;writing-mode:lr-tb;text-anchor:start;display:inline;fill:#ffffff;fill-opacity:1;stroke:none;stroke-width:0.24398905"
         id="text2308">
        <path
           d="m 146.04727,109.55296 v -8.02199 h 4.92863 l -0.21931,1.51206 h -2.57397 v 1.92758 h 2.26232 v 1.51206 h -2.26232 v 3.07029 z"
           style="font-style:normal;font-variant:normal;font-weight:800;font-stretch:normal;font-size:11.54244328px;font-family:'Fira Sans';-inkscape-font-specification:'Fira Sans Ultra-Bold';fill:#ffffff;stroke-width:0.24398905"
           id="path3435"
           inkscape:connector-curvature="0" />
        <path
           d="m 156.80681,106.37879 q 0,0.0693 -0.0346,0.69255 h -3.76284 q 0.0808,0.70409 0.39244,0.96956 0.32319,0.25394 0.91186,0.25394 0.34627,0 0.681,-0.12697 0.34627,-0.13851 0.75026,-0.41553 l 0.83105,1.13116 q -0.48478,0.40399 -1.10807,0.64638 -0.62329,0.23085 -1.35047,0.23085 -1.56977,0 -2.38928,-0.87723 -0.80797,-0.88877 -0.80797,-2.37774 0,-0.93494 0.33473,-1.6852 0.34627,-0.75026 1.01573,-1.18887 0.66947,-0.43861 1.61595,-0.43861 1.35046,0 2.13535,0.8426 0.78488,0.83105 0.78488,2.34311 z m -2.01992,-0.57712 q -0.0115,-0.61175 -0.20777,-0.94648 -0.19622,-0.33473 -0.65792,-0.33473 -0.42707,0 -0.64637,0.3001 -0.21931,0.30011 -0.27702,1.05036 h 1.78908 z"
           style="font-style:normal;font-variant:normal;font-weight:800;font-stretch:normal;font-size:11.54244328px;font-family:'Fira Sans';-inkscape-font-specification:'Fira Sans Ultra-Bold';fill:#ffffff;stroke-width:0.24398905"
           id="path3437"
           inkscape:connector-curvature="0" />
        <path
           d="m 159.95429,103.19308 q 0.66947,0 1.26967,0.20776 0.61175,0.20776 1.03882,0.56558 l -0.73871,1.13116 q -0.73872,-0.4617 -1.48898,-0.4617 -0.32319,0 -0.48478,0.10388 -0.15005,0.0923 -0.15005,0.26548 0,0.15005 0.0808,0.24239 0.0808,0.0923 0.33473,0.20777 0.26548,0.10388 0.83106,0.27701 0.94648,0.27702 1.39664,0.72718 0.45015,0.43861 0.45015,1.23504 0,0.62329 -0.36936,1.09653 -0.35781,0.4617 -1.00419,0.71563 -0.63483,0.25394 -1.4428,0.25394 -0.78489,0 -1.47744,-0.24239 -0.681,-0.25394 -1.15424,-0.69255 l 0.98111,-1.09653 q 0.35781,0.27702 0.7618,0.43861 0.41553,0.16159 0.83105,0.16159 0.36936,0 0.56558,-0.11542 0.20777,-0.12697 0.20777,-0.36936 0,-0.18468 -0.0923,-0.28856 -0.0808,-0.10388 -0.32319,-0.19622 -0.24239,-0.10388 -0.83106,-0.27702 -1.78908,-0.53095 -1.78908,-1.95067 0,-0.5425 0.31165,-0.98111 0.31165,-0.45016 0.88877,-0.70409 0.58866,-0.25393 1.39663,-0.25393 z"
           style="font-style:normal;font-variant:normal;font-weight:800;font-stretch:normal;font-size:11.54244328px;font-family:'Fira Sans';-inkscape-font-specification:'Fira Sans Ultra-Bold';fill:#ffffff;stroke-width:0.24398905"
           id="path3439"
           inkscape:connector-curvature="0" />
        <path
           d="m 167.35625,109.25286 q -0.35782,0.25393 -0.83106,0.3809 -0.47324,0.12697 -0.9234,0.12697 -2.13535,0 -2.13535,-2.35466 v -2.59705 h -0.79643 v -1.40818 h 0.79643 v -1.3043 l 2.05456,-0.24239 v 1.54669 h 1.39663 l -0.20776,1.40818 H 165.521 v 2.57396 q 0,0.41553 0.12696,0.58867 0.13851,0.17314 0.40399,0.17314 0.32319,0 0.62329,-0.17314 z"
           style="font-style:normal;font-variant:normal;font-weight:800;font-stretch:normal;font-size:11.54244328px;font-family:'Fira Sans';-inkscape-font-specification:'Fira Sans Ultra-Bold';fill:#ffffff;stroke-width:0.24398905"
           id="path3441"
           inkscape:connector-curvature="0" />
        <path
           d="m 169.85609,103.40084 v 6.15212 h -2.05456 v -6.15212 z m -1.02728,-3.31268 q 0.51941,0 0.8426,0.32319 0.33473,0.32319 0.33473,0.80797 0,0.48478 -0.33473,0.80797 -0.32319,0.32319 -0.8426,0.32319 -0.51941,0 -0.85414,-0.32319 -0.32319,-0.32319 -0.32319,-0.80797 0,-0.48478 0.32319,-0.80797 0.33473,-0.32319 0.85414,-0.32319 z"
           style="font-style:normal;font-variant:normal;font-weight:800;font-stretch:normal;font-size:11.54244328px;font-family:'Fira Sans';-inkscape-font-specification:'Fira Sans Ultra-Bold';fill:#ffffff;stroke-width:0.24398905"
           id="path3443"
           inkscape:connector-curvature="0" />
        <path
           d="m 176.56513,103.40084 -1.88142,6.15212 h -2.43545 l -1.91605,-6.15212 h 2.22769 l 0.9234,4.64006 0.99265,-4.64006 z"
           style="font-style:normal;font-variant:normal;font-weight:800;font-stretch:normal;font-size:11.54244328px;font-family:'Fira Sans';-inkscape-font-specification:'Fira Sans Ultra-Bold';fill:#ffffff;stroke-width:0.24398905"
           id="path3445"
           inkscape:connector-curvature="0" />
        <path
           d="m 181.87574,107.66 q 0,0.33473 0.0808,0.49633 0.0923,0.16159 0.31165,0.24239 l -0.41553,1.32738 q -0.58866,-0.0462 -0.96956,-0.24239 -0.36936,-0.19622 -0.60021,-0.62329 -0.58866,0.90031 -1.85833,0.90031 -0.91186,0 -1.46589,-0.53096 -0.5425,-0.54249 -0.5425,-1.39663 0,-1.01574 0.75026,-1.55823 0.75026,-0.5425 2.16998,-0.5425 h 0.53095 v -0.20776 q 0,-0.49632 -0.20776,-0.66946 -0.20777,-0.18468 -0.75026,-0.18468 -0.28856,0 -0.72717,0.0923 -0.42707,0.0808 -0.87723,0.23085 l -0.45015,-1.32738 q 0.55403,-0.23085 1.18887,-0.34628 0.63483,-0.12696 1.17733,-0.12696 1.38509,0 2.01992,0.55403 0.63484,0.5425 0.63484,1.67366 z m -2.8279,0.65792 q 0.25393,0 0.4617,-0.12697 0.2193,-0.1385 0.35781,-0.36935 v -0.99265 h -0.34627 q -0.55404,0 -0.81951,0.20776 -0.26548,0.19622 -0.26548,0.60021 0,0.31164 0.16159,0.49632 0.1616,0.18468 0.45016,0.18468 z"
           style="font-style:normal;font-variant:normal;font-weight:800;font-stretch:normal;font-size:11.54244328px;font-family:'Fira Sans';-inkscape-font-specification:'Fira Sans Ultra-Bold';fill:#ffffff;stroke-width:0.24398905"
           id="path3447"
           inkscape:connector-curvature="0" />
        <path
           d="m 184.77307,109.76073 q -0.86568,0 -1.33892,-0.48479 -0.47324,-0.48478 -0.47324,-1.39663 v -6.90238 l 2.05455,-0.20777 v 7.04089 q 0,0.33474 0.3001,0.33474 0.12697,0 0.26548,-0.0462 l 0.3809,1.45434 q -0.47324,0.20777 -1.18887,0.20777 z"
           style="font-style:normal;font-variant:normal;font-weight:800;font-stretch:normal;font-size:11.54244328px;font-family:'Fira Sans';-inkscape-font-specification:'Fira Sans Ultra-Bold';fill:#ffffff;stroke-width:0.24398905"
           id="path3449"
           inkscape:connector-curvature="0" />
      </g>
      <g
         aria-label="Latinoamericano"
         transform="scale(0.92378829,1.0824991)"
         style="font-style:normal;font-variant:normal;font-weight:normal;font-stretch:normal;font-size:79.30098724px;line-height:0.25;font-family:Montserrat;-inkscape-font-specification:Montserrat;font-variant-ligatures:normal;font-variant-caps:normal;font-variant-numeric:normal;text-align:start;letter-spacing:0px;word-spacing:0px;writing-mode:lr-tb;text-anchor:start;display:inline;fill:#fcfeff;fill-opacity:1;stroke:none;stroke-width:0.58584327"
         id="text2316">
        <path
           d="m 190.06366,101.64454 v 7.28328 h 3.30114 l -0.0923,0.62329 h -3.90134 v -7.90657 z"
           style="font-style:normal;font-variant:normal;font-weight:300;font-stretch:normal;font-size:11.54244328px;font-family:'Fira Sans';-inkscape-font-specification:'Fira Sans Light';fill:#fcfeff;fill-opacity:1;stroke-width:0.31592631"
           id="path3452"
           inkscape:connector-curvature="0" />
        <path
           d="m 198.45267,108.21219 q 0,0.47324 0.11543,0.681 0.12697,0.20776 0.39244,0.31165 l -0.15005,0.47324 q -0.41553,-0.0808 -0.64638,-0.31165 -0.2193,-0.23085 -0.28856,-0.70409 -0.62329,1.01574 -1.88142,1.01574 -0.86568,0 -1.37355,-0.48479 -0.49632,-0.49632 -0.49632,-1.31583 0,-0.93494 0.65792,-1.44281 0.66946,-0.50787 1.84679,-0.50787 h 1.15424 v -0.58866 q 0,-0.72718 -0.32319,-1.05036 -0.32318,-0.33474 -1.07344,-0.33474 -0.69255,0 -1.63903,0.34628 l -0.17314,-0.50787 q 1.01574,-0.40399 1.90451,-0.40399 1.97375,0 1.97375,1.91605 z m -2.34311,0.92339 q 1.08499,0 1.67365,-1.0619 v -1.66212 h -1.05036 q -0.9234,0 -1.40818,0.35782 -0.48478,0.35782 -0.48478,1.07345 0,0.62329 0.33473,0.95802 0.33473,0.33473 0.93494,0.33473 z"
           style="font-style:normal;font-variant:normal;font-weight:300;font-stretch:normal;font-size:11.54244328px;font-family:'Fira Sans';-inkscape-font-specification:'Fira Sans Light';fill:#fcfeff;fill-opacity:1;stroke-width:0.31592631"
           id="path3454"
           inkscape:connector-curvature="0" />
        <path
           d="m 203.62549,109.29718 q -0.57712,0.3809 -1.26967,0.3809 -0.69254,0 -1.08499,-0.40399 -0.39244,-0.41553 -0.39244,-1.18887 v -4.02831 h -1.01573 v -0.5425 h 1.01573 v -1.4428 l 0.66946,-0.0808 v 1.5236 h 1.55823 l -0.0808,0.5425 h -1.47744 v 3.99368 q 0,0.53095 0.21931,0.79643 0.21931,0.25393 0.66946,0.25393 0.4617,0 0.9234,-0.26547 z"
           style="font-style:normal;font-variant:normal;font-weight:300;font-stretch:normal;font-size:11.54244328px;font-family:'Fira Sans';-inkscape-font-specification:'Fira Sans Light';fill:#fcfeff;fill-opacity:1;stroke-width:0.31592631"
           id="path3456"
           inkscape:connector-curvature="0" />
        <path
           d="m 205.49302,103.51441 v 6.0367 h -0.66946 v -6.0367 z m -0.34627,-2.65476 q 0.23085,0 0.36936,0.13851 0.13851,0.13851 0.13851,0.34627 0,0.20777 -0.13851,0.34628 -0.13851,0.1385 -0.36936,0.1385 -0.21931,0 -0.35782,-0.1385 -0.1385,-0.13851 -0.1385,-0.34628 0,-0.20776 0.1385,-0.34627 0.13851,-0.13851 0.35782,-0.13851 z"
           style="font-style:normal;font-variant:normal;font-weight:300;font-stretch:normal;font-size:11.54244328px;font-family:'Fira Sans';-inkscape-font-specification:'Fira Sans Light';fill:#fcfeff;fill-opacity:1;stroke-width:0.31592631"
           id="path3458"
           inkscape:connector-curvature="0" />
        <path
           d="m 210.60092,103.38744 q 0.81951,0 1.24658,0.48479 0.43861,0.48478 0.43861,1.36201 v 4.31687 h -0.66946 v -4.22453 q 0,-0.72718 -0.28856,-1.06191 -0.28856,-0.33473 -0.85414,-0.33473 -0.57712,0 -1.02728,0.32319 -0.43861,0.31164 -0.8426,0.92339 v 4.37459 h -0.66946 v -6.0367 h 0.57712 l 0.0693,1.02728 q 0.36936,-0.5425 0.87722,-0.8426 0.50787,-0.31165 1.14271,-0.31165 z"
           style="font-style:normal;font-variant:normal;font-weight:300;font-stretch:normal;font-size:11.54244328px;font-family:'Fira Sans';-inkscape-font-specification:'Fira Sans Light';fill:#fcfeff;fill-opacity:1;stroke-width:0.31592631"
           id="path3460"
           inkscape:connector-curvature="0" />
        <path
           d="m 216.75286,103.38744 q 1.20041,0 1.86987,0.83106 0.68101,0.81951 0.68101,2.29695 0,1.46589 -0.69255,2.32003 -0.681,0.8426 -1.86987,0.8426 -1.20042,0 -1.88142,-0.83106 -0.66946,-0.8426 -0.66946,-2.30849 0,-0.95802 0.31164,-1.67365 0.31165,-0.71563 0.88877,-1.09653 0.57712,-0.38091 1.36201,-0.38091 z m 0,0.56558 q -0.87723,0 -1.36201,0.65792 -0.48478,0.65792 -0.48478,1.92759 0,1.25813 0.47324,1.91605 0.48478,0.65792 1.36201,0.65792 0.87722,0 1.362,-0.65792 0.49633,-0.65792 0.49633,-1.93913 0,-1.25813 -0.48478,-1.90451 -0.47324,-0.65792 -1.36201,-0.65792 z"
           style="font-style:normal;font-variant:normal;font-weight:300;font-stretch:normal;font-size:11.54244328px;font-family:'Fira Sans';-inkscape-font-specification:'Fira Sans Light';fill:#fcfeff;fill-opacity:1;stroke-width:0.31592631"
           id="path3462"
           inkscape:connector-curvature="0" />
        <path
           d="m 224.89659,108.21219 q 0,0.47324 0.11543,0.681 0.12696,0.20776 0.39244,0.31165 l -0.15005,0.47324 q -0.41553,-0.0808 -0.64638,-0.31165 -0.21931,-0.23085 -0.28856,-0.70409 -0.62329,1.01574 -1.88142,1.01574 -0.86568,0 -1.37355,-0.48479 -0.49632,-0.49632 -0.49632,-1.31583 0,-0.93494 0.65791,-1.44281 0.66947,-0.50787 1.8468,-0.50787 h 1.15424 v -0.58866 q 0,-0.72718 -0.32319,-1.05036 -0.32319,-0.33474 -1.07345,-0.33474 -0.69254,0 -1.63902,0.34628 l -0.17314,-0.50787 q 1.01574,-0.40399 1.9045,-0.40399 1.97376,0 1.97376,1.91605 z m -2.34311,0.92339 q 1.08499,0 1.67365,-1.0619 v -1.66212 h -1.05036 q -0.9234,0 -1.40818,0.35782 -0.48478,0.35782 -0.48478,1.07345 0,0.62329 0.33473,0.95802 0.33473,0.33473 0.93494,0.33473 z"
           style="font-style:normal;font-variant:normal;font-weight:300;font-stretch:normal;font-size:11.54244328px;font-family:'Fira Sans';-inkscape-font-specification:'Fira Sans Light';fill:#fcfeff;fill-opacity:1;stroke-width:0.31592631"
           id="path3464"
           inkscape:connector-curvature="0" />
        <path
           d="m 233.20895,103.38744 q 0.72718,0 1.14271,0.49633 0.42707,0.49632 0.42707,1.35047 v 4.31687 h -0.66947 v -4.22453 q 0,-0.71564 -0.27701,-1.05037 -0.26548,-0.34627 -0.75026,-0.34627 -0.50787,0 -0.91186,0.32319 -0.40398,0.32319 -0.78488,0.92339 v 4.37459 h -0.66946 v -4.22453 q 0,-0.71564 -0.27702,-1.05037 -0.26548,-0.34627 -0.75026,-0.34627 -0.51941,0 -0.9234,0.32319 -0.40398,0.32319 -0.77334,0.92339 v 4.37459 h -0.66946 v -6.0367 h 0.57712 l 0.0577,1.02728 q 0.34627,-0.5425 0.81952,-0.8426 0.47324,-0.31165 1.03882,-0.31165 0.57712,0 0.96956,0.32319 0.39244,0.31165 0.53095,0.87723 0.35782,-0.56558 0.83106,-0.87723 0.48478,-0.32319 1.0619,-0.32319 z"
           style="font-style:normal;font-variant:normal;font-weight:300;font-stretch:normal;font-size:11.54244328px;font-family:'Fira Sans';-inkscape-font-specification:'Fira Sans Light';fill:#fcfeff;fill-opacity:1;stroke-width:0.31592631"
           id="path3466"
           inkscape:connector-curvature="0" />
        <path
           d="m 241.45621,106.30768 q 0,0.25394 -0.0231,0.48479 h -4.02832 q 0.0577,1.17732 0.55404,1.75445 0.50787,0.56558 1.32738,0.56558 0.47324,0 0.83106,-0.13851 0.36936,-0.15005 0.79643,-0.4617 l 0.31164,0.42707 q -0.45015,0.36936 -0.92339,0.55404 -0.47324,0.18468 -1.05037,0.18468 -1.20041,0 -1.88141,-0.81952 -0.68101,-0.81951 -0.68101,-2.27386 0,-0.95802 0.28856,-1.67365 0.30011,-0.72718 0.8426,-1.11962 0.55404,-0.40399 1.28121,-0.40399 1.15425,0 1.75445,0.78489 0.60021,0.77334 0.60021,2.13535 z m -0.65792,-0.20776 q 0,-1.01574 -0.42707,-1.58132 -0.41553,-0.57712 -1.24658,-0.57712 -0.75026,0 -1.21196,0.57712 -0.4617,0.57713 -0.50787,1.75446 h 3.39348 z"
           style="font-style:normal;font-variant:normal;font-weight:300;font-stretch:normal;font-size:11.54244328px;font-family:'Fira Sans';-inkscape-font-specification:'Fira Sans Light';fill:#fcfeff;fill-opacity:1;stroke-width:0.31592631"
           id="path3468"
           inkscape:connector-curvature="0" />
        <path
           d="m 245.69409,103.38744 q 0.35782,0 0.60021,0.0693 l -0.12697,0.63483 q -0.25393,-0.0693 -0.53095,-0.0693 -0.61175,0 -0.99265,0.45015 -0.36936,0.43862 -0.62329,1.3851 v 3.69358 h -0.66947 v -6.0367 h 0.57713 l 0.0577,1.35047 q 0.24239,-0.75026 0.65792,-1.10808 0.42707,-0.36936 1.05036,-0.36936 z"
           style="font-style:normal;font-variant:normal;font-weight:300;font-stretch:normal;font-size:11.54244328px;font-family:'Fira Sans';-inkscape-font-specification:'Fira Sans Light';fill:#fcfeff;fill-opacity:1;stroke-width:0.31592631"
           id="path3470"
           inkscape:connector-curvature="0" />
        <path
           d="m 248.32631,103.51441 v 6.0367 h -0.66946 v -6.0367 z m -0.34627,-2.65476 q 0.23085,0 0.36936,0.13851 0.1385,0.13851 0.1385,0.34627 0,0.20777 -0.1385,0.34628 -0.13851,0.1385 -0.36936,0.1385 -0.21931,0 -0.35782,-0.1385 -0.13851,-0.13851 -0.13851,-0.34628 0,-0.20776 0.13851,-0.34627 0.13851,-0.13851 0.35782,-0.13851 z"
           style="font-style:normal;font-variant:normal;font-weight:300;font-stretch:normal;font-size:11.54244328px;font-family:'Fira Sans';-inkscape-font-specification:'Fira Sans Light';fill:#fcfeff;fill-opacity:1;stroke-width:0.31592631"
           id="path3472"
           inkscape:connector-curvature="0" />
        <path
           d="m 252.834,103.38744 q 0.51941,0 0.92339,0.15006 0.40399,0.13851 0.78489,0.46169 l -0.33473,0.43862 q -0.30011,-0.24239 -0.6233,-0.35782 -0.31164,-0.11542 -0.71563,-0.11542 -0.85414,0 -1.36201,0.66946 -0.50786,0.65792 -0.50786,1.92759 0,1.25812 0.49632,1.89296 0.50787,0.63483 1.36201,0.63483 0.40399,0 0.72717,-0.12697 0.33474,-0.12696 0.66947,-0.3809 l 0.32318,0.45016 q -0.7618,0.64638 -1.73136,0.64638 -0.77335,0 -1.35047,-0.36936 -0.57712,-0.36936 -0.90031,-1.06191 -0.31164,-0.70409 -0.31164,-1.67365 0,-0.95802 0.31164,-1.67366 0.32319,-0.72717 0.90031,-1.11961 0.57712,-0.39245 1.33893,-0.39245 z"
           style="font-style:normal;font-variant:normal;font-weight:300;font-stretch:normal;font-size:11.54244328px;font-family:'Fira Sans';-inkscape-font-specification:'Fira Sans Light';fill:#fcfeff;fill-opacity:1;stroke-width:0.31592631"
           id="path3474"
           inkscape:connector-curvature="0" />
        <path
           d="m 259.81699,108.21219 q 0,0.47324 0.11543,0.681 0.12697,0.20776 0.39244,0.31165 l -0.15005,0.47324 q -0.41553,-0.0808 -0.64638,-0.31165 -0.2193,-0.23085 -0.28856,-0.70409 -0.62329,1.01574 -1.88142,1.01574 -0.86568,0 -1.37355,-0.48479 -0.49632,-0.49632 -0.49632,-1.31583 0,-0.93494 0.65792,-1.44281 0.66946,-0.50787 1.84679,-0.50787 h 1.15424 v -0.58866 q 0,-0.72718 -0.32319,-1.05036 -0.32318,-0.33474 -1.07344,-0.33474 -0.69255,0 -1.63903,0.34628 l -0.17314,-0.50787 q 1.01574,-0.40399 1.90451,-0.40399 1.97375,0 1.97375,1.91605 z m -2.34311,0.92339 q 1.08499,0 1.67365,-1.0619 v -1.66212 h -1.05036 q -0.9234,0 -1.40818,0.35782 -0.48478,0.35782 -0.48478,1.07345 0,0.62329 0.33473,0.95802 0.33473,0.33473 0.93494,0.33473 z"
           style="font-style:normal;font-variant:normal;font-weight:300;font-stretch:normal;font-size:11.54244328px;font-family:'Fira Sans';-inkscape-font-specification:'Fira Sans Light';fill:#fcfeff;fill-opacity:1;stroke-width:0.31592631"
           id="path3476"
           inkscape:connector-curvature="0" />
        <path
           d="m 264.90901,103.38744 q 0.81952,0 1.24659,0.48479 0.43861,0.48478 0.43861,1.36201 v 4.31687 h -0.66946 v -4.22453 q 0,-0.72718 -0.28856,-1.06191 -0.28856,-0.33473 -0.85414,-0.33473 -0.57712,0 -1.02728,0.32319 -0.43861,0.31164 -0.8426,0.92339 v 4.37459 h -0.66946 v -6.0367 h 0.57712 l 0.0693,1.02728 q 0.36935,-0.5425 0.87722,-0.8426 0.50787,-0.31165 1.1427,-0.31165 z"
           style="font-style:normal;font-variant:normal;font-weight:300;font-stretch:normal;font-size:11.54244328px;font-family:'Fira Sans';-inkscape-font-specification:'Fira Sans Light';fill:#fcfeff;fill-opacity:1;stroke-width:0.31592631"
           id="path3478"
           inkscape:connector-curvature="0" />
        <path
           d="m 271.06096,103.38744 q 1.20041,0 1.86987,0.83106 0.68101,0.81951 0.68101,2.29695 0,1.46589 -0.69255,2.32003 -0.681,0.8426 -1.86987,0.8426 -1.20042,0 -1.88142,-0.83106 -0.66946,-0.8426 -0.66946,-2.30849 0,-0.95802 0.31164,-1.67365 0.31165,-0.71563 0.88877,-1.09653 0.57712,-0.38091 1.36201,-0.38091 z m 0,0.56558 q -0.87723,0 -1.36201,0.65792 -0.48478,0.65792 -0.48478,1.92759 0,1.25813 0.47324,1.91605 0.48478,0.65792 1.36201,0.65792 0.87722,0 1.362,-0.65792 0.49633,-0.65792 0.49633,-1.93913 0,-1.25813 -0.48478,-1.90451 -0.47324,-0.65792 -1.36201,-0.65792 z"
           style="font-style:normal;font-variant:normal;font-weight:300;font-stretch:normal;font-size:11.54244328px;font-family:'Fira Sans';-inkscape-font-specification:'Fira Sans Light';fill:#fcfeff;fill-opacity:1;stroke-width:0.31592631"
           id="path3480"
           inkscape:connector-curvature="0" />
      </g>
      <g
         aria-label="de"
         transform="scale(0.92378829,1.0824991)"
         style="font-style:normal;font-variant:normal;font-weight:normal;font-stretch:normal;font-size:53.58427811px;line-height:0.25;font-family:Montserrat;-inkscape-font-specification:Montserrat;font-variant-ligatures:normal;font-variant-caps:normal;font-variant-numeric:normal;text-align:start;letter-spacing:0px;word-spacing:0px;writing-mode:lr-tb;text-anchor:start;display:inline;fill:#fcfeff;fill-opacity:1;stroke:none;stroke-width:0.39585876"
         id="text2340">
        <path
           d="m 279.42731,103.852 v 5.74029 h -0.38997 l -0.0546,-0.62394 q -0.42116,0.70974 -1.22449,0.70974 -0.70974,0 -1.12311,-0.56156 -0.40556,-0.56935 -0.40556,-1.54426 0,-0.63174 0.18718,-1.1153 0.19499,-0.48356 0.55375,-0.75654 0.36657,-0.27297 0.85793,-0.27297 0.69414,0 1.1465,0.55375 v -2.18381 z m -1.59886,5.45172 q 0.38997,0 0.65514,-0.18719 0.27298,-0.18718 0.49136,-0.56935 v -2.12921 q -0.43676,-0.61615 -1.06851,-0.61615 -0.55375,0 -0.88132,0.46016 -0.31977,0.46016 -0.31197,1.30249 0,0.84233 0.29637,1.29469 0.29638,0.44456 0.81893,0.44456 z"
           style="font-style:normal;font-variant:normal;font-weight:300;font-stretch:normal;font-size:7.79931688px;font-family:'Fira Sans';-inkscape-font-specification:'Fira Sans Light';fill:#fcfeff;fill-opacity:1;stroke-width:0.21347381"
           id="path3483"
           inkscape:connector-curvature="0" />
        <path
           d="m 283.98162,107.40068 q 0,0.17159 -0.0156,0.32758 h -2.72196 q 0.039,0.79553 0.37437,1.18549 0.34317,0.38217 0.89692,0.38217 0.31977,0 0.56155,-0.0936 0.24958,-0.10139 0.53816,-0.31198 l 0.21058,0.28858 q -0.30418,0.24958 -0.62395,0.37437 -0.31977,0.12479 -0.70974,0.12479 -0.81113,0 -1.27128,-0.55376 -0.46016,-0.55375 -0.46016,-1.53646 0,-0.64734 0.19498,-1.1309 0.20278,-0.49136 0.56935,-0.75654 0.37437,-0.27297 0.86572,-0.27297 0.77993,0 1.1855,0.53035 0.40556,0.52256 0.40556,1.44287 z m -0.44456,-0.14038 q 0,-0.68634 -0.28857,-1.06851 -0.28078,-0.38997 -0.84233,-0.38997 -0.50695,0 -0.81893,0.38997 -0.31197,0.38997 -0.34317,1.1855 h 2.293 z"
           style="font-style:normal;font-variant:normal;font-weight:300;font-stretch:normal;font-size:7.79931688px;font-family:'Fira Sans';-inkscape-font-specification:'Fira Sans Light';fill:#fcfeff;fill-opacity:1;stroke-width:0.21347381"
           id="path3485"
           inkscape:connector-curvature="0" />
      </g>
    </g>
    <g
       style="display:inline"
       id="g2396"
       transform="matrix(12.88192,0,0,12.88192,-1803.357,-1911.974)">
      <g
         aria-label="15"
         transform="scale(0.92378828,1.0824991)"
         style="font-style:normal;font-variant:normal;font-weight:normal;font-stretch:normal;font-size:16.41961861px;line-height:0.25;font-family:Montserrat;-inkscape-font-specification:Montserrat;font-variant-ligatures:normal;font-variant-caps:normal;font-variant-numeric:normal;text-align:start;letter-spacing:0px;word-spacing:0px;writing-mode:lr-tb;text-anchor:start;display:inline;fill:#ffffff;fill-opacity:1;stroke:none;stroke-width:0.22493738"
         id="text2346">
        <path
           d="m 161.17493,147.04471 v 7.2147 h -1.84092 v -5.39506 l -1.51104,0.92578 -0.81937,-1.24502 2.49003,-1.5004 z"
           style="font-style:normal;font-variant:normal;font-weight:800;font-stretch:normal;font-size:10.64116192px;font-family:'Fira Sans';-inkscape-font-specification:'Fira Sans Ultra-Bold';fill:#ffffff;stroke-width:0.22493738"
           id="path3421"
           inkscape:connector-curvature="0" />
        <path
           d="m 166.90686,148.38549 h -2.55388 v 1.33015 q 0.51078,-0.23411 1.03219,-0.23411 0.59591,0 1.06412,0.28731 0.47885,0.27667 0.74488,0.81937 0.27667,0.53206 0.27667,1.2663 0,0.76617 -0.3618,1.36207 -0.3618,0.58526 -1.03219,0.91514 -0.65975,0.31924 -1.54297,0.31924 -1.54297,0 -2.47939,-1.13861 l 1.05347,-0.96834 q 0.55335,0.70231 1.34079,0.70231 0.52142,0 0.79809,-0.29795 0.28731,-0.30859 0.28731,-0.87258 0,-1.11732 -0.92578,-1.11732 -0.20218,0 -0.39372,0.0639 -0.19155,0.0532 -0.42565,0.19154 h -1.25566 v -3.96915 h 4.5757 z"
           style="font-style:normal;font-variant:normal;font-weight:800;font-stretch:normal;font-size:10.64116192px;font-family:'Fira Sans';-inkscape-font-specification:'Fira Sans Ultra-Bold';fill:#ffffff;stroke-width:0.22493738"
           id="path3423"
           inkscape:connector-curvature="0" />
      </g>
      <g
         aria-label="AÑOS"
         transform="scale(0.92378829,1.0824991)"
         style="font-style:normal;font-variant:normal;font-weight:normal;font-stretch:normal;font-size:56.70191574px;line-height:0.25;font-family:Montserrat;-inkscape-font-specification:Montserrat;font-variant-ligatures:normal;font-variant-caps:normal;font-variant-numeric:normal;text-align:start;letter-spacing:0px;word-spacing:0px;writing-mode:lr-tb;text-anchor:start;display:inline;fill:#fcfeff;fill-opacity:1;stroke:none;stroke-width:0.4188906"
         id="text2354">
        <path
           d="m 172.83996,154.36018 -0.49519,-1.54333 h -2.37689 l -0.49519,1.54333 h -0.50344 l 1.88996,-5.65337 h 0.61898 l 1.88171,5.65337 z m -2.73178,-1.96423 h 2.10454 l -1.04814,-3.28474 z"
           style="font-style:normal;font-variant:normal;font-weight:300;font-stretch:normal;font-size:8.25309563px;font-family:'Fira Sans';-inkscape-font-specification:'Fira Sans Light';fill:#fcfeff;fill-opacity:1;stroke-width:0.22589414"
           id="path3426"
           inkscape:connector-curvature="0" />
        <path
           d="m 178.13393,154.36018 h -0.652 l -2.66575,-5.10866 q 0.066,1.03163 0.066,1.94773 v 3.16093 h -0.47043 v -5.65337 h 0.63549 l 2.68226,5.10867 q -0.066,-0.95736 -0.066,-1.67538 v -3.43329 h 0.47043 z m -1.31224,-6.53645 q -0.14856,0 -0.27236,-0.0495 -0.12379,-0.0578 -0.30536,-0.16506 -0.13205,-0.0825 -0.22283,-0.12379 -0.0825,-0.0413 -0.16507,-0.0413 -0.1403,0 -0.24759,0.0825 -0.099,0.0743 -0.21458,0.24759 l -0.29711,-0.14855 q 0.30536,-0.56121 0.75928,-0.56121 0.14031,0 0.25585,0.0495 0.1238,0.0495 0.27235,0.14855 0.14856,0.0908 0.23934,0.13205 0.0908,0.0413 0.19808,0.0413 0.13205,0 0.23108,-0.0825 0.10729,-0.0825 0.23109,-0.27236 l 0.29711,0.14856 q -0.28886,0.59422 -0.75928,0.59422 z"
           style="font-style:normal;font-variant:normal;font-weight:300;font-stretch:normal;font-size:8.25309563px;font-family:'Fira Sans';-inkscape-font-specification:'Fira Sans Light';fill:#fcfeff;fill-opacity:1;stroke-width:0.22589414"
           id="path3428"
           inkscape:connector-curvature="0" />
        <path
           d="m 181.90418,148.61603 q 0.69326,0 1.2132,0.33838 0.51995,0.33012 0.8088,0.99037 0.28886,0.66025 0.28886,1.59285 0,0.91609 -0.28886,1.57634 -0.2806,0.65199 -0.80055,0.99862 -0.51994,0.33838 -1.22145,0.33838 -0.68501,0 -1.20496,-0.33838 -0.51994,-0.33838 -0.8088,-0.99037 -0.28886,-0.652 -0.28886,-1.57634 0,-0.9161 0.28886,-1.57634 0.28886,-0.66025 0.8088,-1.00688 0.5282,-0.34663 1.20496,-0.34663 z m 0,0.42091 q -0.82531,0 -1.30399,0.63549 -0.47868,0.62723 -0.47868,1.87345 0,1.22971 0.47868,1.85694 0.48693,0.62724 1.30399,0.62724 0.85006,0 1.32049,-0.61898 0.47043,-0.62724 0.47043,-1.87345 0,-1.25448 -0.47868,-1.87346 -0.47043,-0.62723 -1.31224,-0.62723 z"
           style="font-style:normal;font-variant:normal;font-weight:300;font-stretch:normal;font-size:8.25309563px;font-family:'Fira Sans';-inkscape-font-specification:'Fira Sans Light';fill:#fcfeff;fill-opacity:1;stroke-width:0.22589414"
           id="path3430"
           inkscape:connector-curvature="0" />
        <path
           d="m 186.96668,148.61603 q 0.51994,0 0.89133,0.15681 0.37964,0.14855 0.73453,0.47042 l -0.28886,0.31362 q -0.32187,-0.27235 -0.62724,-0.39615 -0.30536,-0.12379 -0.69326,-0.12379 -0.5282,0 -0.85007,0.2641 -0.32187,0.25584 -0.32187,0.69326 0,0.29711 0.11555,0.49518 0.12379,0.18982 0.4044,0.34663 0.2806,0.14856 0.80055,0.30537 0.56121,0.17331 0.90784,0.37139 0.34663,0.19807 0.53645,0.51169 0.18982,0.31362 0.18982,0.79229 0,0.47868 -0.23109,0.85007 -0.23108,0.37139 -0.66024,0.57772 -0.42091,0.20633 -0.98212,0.20633 -1.0564,0 -1.80743,-0.70977 l 0.28061,-0.31362 q 0.34663,0.29712 0.70151,0.45392 0.35488,0.14856 0.81706,0.14856 0.61072,0 0.99037,-0.32187 0.38789,-0.32187 0.38789,-0.87483 0,-0.34663 -0.13205,-0.56946 -0.12379,-0.22284 -0.41265,-0.37964 -0.28061,-0.16507 -0.80055,-0.33013 -0.86658,-0.2641 -1.23797,-0.61073 -0.37139,-0.34663 -0.37139,-0.94085 0,-0.39615 0.20633,-0.70977 0.21458,-0.32187 0.58597,-0.49518 0.37964,-0.18157 0.86658,-0.18157 z"
           style="font-style:normal;font-variant:normal;font-weight:300;font-stretch:normal;font-size:8.25309563px;font-family:'Fira Sans';-inkscape-font-specification:'Fira Sans Light';fill:#fcfeff;fill-opacity:1;stroke-width:0.22589414"
           id="path3432"
           inkscape:connector-curvature="0" />
      </g>
    </g>
  </g>
</svg>
