<?xml version="1.0" encoding="UTF-8" standalone="no"?>
<!-- Created with Inkscape (http://www.inkscape.org/) -->

<svg
   xmlns:dc="http://purl.org/dc/elements/1.1/"
   xmlns:cc="http://creativecommons.org/ns#"
   xmlns:rdf="http://www.w3.org/1999/02/22-rdf-syntax-ns#"
   xmlns:svg="http://www.w3.org/2000/svg"
   xmlns="http://www.w3.org/2000/svg"
   xmlns:sodipodi="http://sodipodi.sourceforge.net/DTD/sodipodi-0.dtd"
   xmlns:inkscape="http://www.inkscape.org/namespaces/inkscape"
   width="1920"
   height="1080"
   viewBox="0 0 507.99999 285.75001"
   version="1.1"
   id="svg1390"
   inkscape:version="0.92.3 (2405546, 2018-03-11)"
   sodipodi:docname="graphi1-curvas.svg"
   inkscape:export-filename="fondo-video.png"
   inkscape:export-xdpi="96"
   inkscape:export-ydpi="96">
  <defs
     id="defs1384" />
  <sodipodi:namedview
     id="base"
     pagecolor="#c0966c"
     bordercolor="#666666"
     borderopacity="1.0"
     inkscape:pageopacity="0"
     inkscape:pageshadow="2"
     inkscape:zoom="0.24748737"
     inkscape:cx="817.25516"
     inkscape:cy="572.27667"
     inkscape:document-units="mm"
     inkscape:current-layer="layer8"
     showgrid="false"
     units="px"
     inkscape:showpageshadow="false"
     borderlayer="true"
     inkscape:window-width="1600"
     inkscape:window-height="840"
     inkscape:window-x="0"
     inkscape:window-y="0"
     inkscape:window-maximized="1" />
  <metadata
     id="metadata1387">
    <rdf:RDF>
      <cc:Work
         rdf:about="">
        <dc:format>image/svg+xml</dc:format>
        <dc:type
           rdf:resource="http://purl.org/dc/dcmitype/StillImage" />
        <dc:title />
      </cc:Work>
    </rdf:RDF>
  </metadata>
  <g
     inkscape:groupmode="layer"
     id="layer8"
     inkscape:label="iincio"
     style="display:inline">
    <g
       aria-label="15 años compartiendo Software Libre"
       transform="matrix(2.5489261,0,0,2.9868426,4934.6537,-2157.4227)"
       style="font-style:normal;font-variant:normal;font-weight:normal;font-stretch:normal;font-size:53.33333206px;line-height:0.25;font-family:Montserrat;-inkscape-font-specification:Montserrat;font-variant-ligatures:normal;font-variant-caps:normal;font-variant-numeric:normal;text-align:start;letter-spacing:0px;word-spacing:0px;writing-mode:lr-tb;text-anchor:start;display:inline;fill:#ffffff;fill-opacity:1;stroke:none;stroke-width:0.80327457"
       id="flowRoot2771">
      <path
         d="m -1892.3874,799.75031 v 5.10646 h -1.0532 V 800.811 l -1.1213,0.68945 -0.4697,-0.72733 1.6971,-1.02281 z"
         style="font-style:normal;font-variant:normal;font-weight:600;font-stretch:normal;font-size:7.57634783px;font-family:'Fira Sans';-inkscape-font-specification:'Fira Sans Semi-Bold';fill:#ffffff;stroke-width:0.80327457"
         id="path3609" />
      <path
         d="m -1888.3411,800.53068 h -1.8865 v 1.17433 q 0.3712,-0.17426 0.7728,-0.17426 0.4243,0 0.75,0.19699 0.3334,0.19698 0.5228,0.5758 0.1894,0.37124 0.1894,0.87886 0,0.53034 -0.2424,0.93946 -0.2425,0.40155 -0.6895,0.62884 -0.4394,0.22729 -1.0228,0.22729 -0.9849,0 -1.6516,-0.74248 l 0.6061,-0.56823 q 0.4243,0.48489 1.0152,0.48489 0.4167,0 0.644,-0.25002 0.2349,-0.25002 0.2349,-0.71975 0,-0.90159 -0.7728,-0.90159 -0.1667,0 -0.3182,0.0455 -0.144,0.0379 -0.3182,0.13637 h -0.7501 v -2.71233 h 3.0457 z"
         style="font-style:normal;font-variant:normal;font-weight:600;font-stretch:normal;font-size:7.57634783px;font-family:'Fira Sans';-inkscape-font-specification:'Fira Sans Semi-Bold';fill:#ffffff;stroke-width:0.80327457"
         id="path3611" />
      <path
         d="m -1882.2763,803.74305 q 0,0.23486 0.068,0.34851 0.068,0.10607 0.2273,0.1591 l -0.2273,0.71218 q -0.356,-0.0303 -0.5833,-0.16668 -0.2197,-0.13637 -0.341,-0.42428 -0.3939,0.60611 -1.2046,0.60611 -0.5985,0 -0.9546,-0.34093 -0.3485,-0.34852 -0.3485,-0.90159 0,-0.65914 0.4773,-1.00765 0.4773,-0.34852 1.3713,-0.34852 h 0.4621 v -0.19698 q 0,-0.37124 -0.1666,-0.51519 -0.1667,-0.14395 -0.5531,-0.14395 -0.4243,0 -1.0607,0.21214 l -0.2424,-0.71976 q 0.75,-0.29548 1.4849,-0.29548 0.8183,0 1.2047,0.35609 0.3864,0.34851 0.3864,1.04554 z m -1.7653,0.46215 q 0.4546,0 0.7121,-0.447 v -0.76521 h -0.356 q -0.8713,0 -0.8713,0.65156 0,0.26518 0.1288,0.4167 0.1364,0.14395 0.3864,0.14395 z"
         style="font-style:normal;font-variant:normal;font-weight:600;font-stretch:normal;font-size:7.57634783px;font-family:'Fira Sans';-inkscape-font-specification:'Fira Sans Semi-Bold';fill:#ffffff;stroke-width:0.80327457"
         id="path3613" />
      <path
         d="m -1878.9588,800.72008 q 0.5303,0 0.8258,0.32579 0.2955,0.3182 0.2955,0.88643 v 2.92447 h -1.0759 v -2.74264 q 0,-0.32578 -0.1136,-0.45458 -0.1061,-0.13637 -0.3258,-0.13637 -0.2273,0 -0.4167,0.14395 -0.1818,0.13637 -0.3561,0.4167 v 2.77294 h -1.0758 v -4.01546 h 0.9318 l 0.083,0.50761 q 0.25,-0.31063 0.5455,-0.46973 0.303,-0.15911 0.6819,-0.15911 z m -0.098,-0.71217 q -0.1591,0 -0.2804,-0.053 -0.1136,-0.053 -0.2727,-0.15152 -0.099,-0.0758 -0.1743,-0.10607 -0.068,-0.0379 -0.1439,-0.0379 -0.1212,0 -0.2122,0.0833 -0.091,0.0833 -0.1894,0.25759 l -0.553,-0.27275 q 0.1515,-0.37124 0.3939,-0.6061 0.2425,-0.23487 0.5455,-0.23487 0.1743,0 0.2955,0.0606 0.1212,0.053 0.2728,0.15153 0.098,0.0682 0.1666,0.10606 0.068,0.0303 0.144,0.0303 0.1212,0 0.2045,-0.0758 0.091,-0.0833 0.197,-0.2576 l 0.5531,0.27275 q -0.1515,0.38639 -0.394,0.61368 -0.2424,0.21972 -0.553,0.21972 z"
         style="font-style:normal;font-variant:normal;font-weight:600;font-stretch:normal;font-size:7.57634783px;font-family:'Fira Sans';-inkscape-font-specification:'Fira Sans Semi-Bold';fill:#ffffff;stroke-width:0.80327457"
         id="path3615" />
      <path
         d="m -1875.1318,800.72008 q 0.9015,0 1.4092,0.56823 0.5076,0.56065 0.5076,1.56073 0,0.63641 -0.2349,1.1213 -0.2273,0.47731 -0.6667,0.74248 -0.4319,0.26517 -1.0228,0.26517 -0.9016,0 -1.4168,-0.56065 -0.5076,-0.56822 -0.5076,-1.5683 0,-0.63642 0.2273,-1.11372 0.2348,-0.48489 0.6667,-0.75006 0.4394,-0.26518 1.038,-0.26518 z m 0,0.8031 q -0.4092,0 -0.6137,0.32578 -0.197,0.31821 -0.197,1.00008 0,0.68187 0.197,1.00765 0.2045,0.31821 0.6061,0.31821 0.4015,0 0.5985,-0.31821 0.2046,-0.32578 0.2046,-1.00765 0,-0.68187 -0.197,-1.00008 -0.197,-0.32578 -0.5985,-0.32578 z"
         style="font-style:normal;font-variant:normal;font-weight:600;font-stretch:normal;font-size:7.57634783px;font-family:'Fira Sans';-inkscape-font-specification:'Fira Sans Semi-Bold';fill:#ffffff;stroke-width:0.80327457"
         id="path3617" />
      <path
         d="m -1871.0635,800.72008 q 0.8486,0 1.4547,0.48489 l -0.4091,0.61368 q -0.5076,-0.3182 -1.0001,-0.3182 -0.2652,0 -0.4091,0.0985 -0.144,0.0985 -0.144,0.26517 0,0.12122 0.061,0.20456 0.068,0.0833 0.2425,0.15911 0.1818,0.0758 0.5379,0.18183 0.6364,0.17426 0.947,0.46973 0.3107,0.2879 0.3107,0.79552 0,0.40155 -0.2349,0.69702 -0.2273,0.29548 -0.6213,0.45458 -0.3939,0.15153 -0.8788,0.15153 -0.5076,0 -0.9243,-0.15153 -0.4167,-0.1591 -0.7122,-0.43185 l 0.5303,-0.59095 q 0.5077,0.39397 1.0759,0.39397 0.303,0 0.4773,-0.11365 0.1818,-0.12122 0.1818,-0.32578 0,-0.1591 -0.068,-0.25002 -0.068,-0.0909 -0.25,-0.16668 -0.1818,-0.0833 -0.5682,-0.18941 -0.6061,-0.16668 -0.9016,-0.46973 -0.2879,-0.31063 -0.2879,-0.76521 0,-0.34094 0.197,-0.61369 0.197,-0.27275 0.5531,-0.42427 0.3636,-0.15911 0.8409,-0.15911 z"
         style="font-style:normal;font-variant:normal;font-weight:600;font-stretch:normal;font-size:7.57634783px;font-family:'Fira Sans';-inkscape-font-specification:'Fira Sans Semi-Bold';fill:#ffffff;stroke-width:0.80327457"
         id="path3619" />
      <path
         d="m -1865.2474,800.72008 q 0.4015,0 0.7197,0.12123 0.3258,0.11364 0.6137,0.36366 l -0.4697,0.63641 q -0.197,-0.15152 -0.3864,-0.21971 -0.1819,-0.0682 -0.4016,-0.0682 -0.8561,0 -0.8561,1.31829 0,0.66672 0.2197,0.95462 0.2197,0.2879 0.6289,0.2879 0.2121,0 0.3863,-0.0606 0.1743,-0.0682 0.4092,-0.21972 l 0.4697,0.6743 q -0.5758,0.46973 -1.3183,0.46973 -0.5909,0 -1.0304,-0.25759 -0.4318,-0.2576 -0.6667,-0.72733 -0.2348,-0.47731 -0.2348,-1.11373 0,-0.63641 0.2348,-1.1213 0.2349,-0.49246 0.6667,-0.76521 0.4395,-0.27275 1.0153,-0.27275 z"
         style="font-style:normal;font-variant:normal;font-weight:600;font-stretch:normal;font-size:7.57634783px;font-family:'Fira Sans';-inkscape-font-specification:'Fira Sans Semi-Bold';fill:#ffffff;stroke-width:0.80327457"
         id="path3621" />
      <path
         d="m -1861.7549,800.72008 q 0.9016,0 1.4092,0.56823 0.5077,0.56065 0.5077,1.56073 0,0.63641 -0.2349,1.1213 -0.2273,0.47731 -0.6667,0.74248 -0.4319,0.26517 -1.0228,0.26517 -0.9016,0 -1.4168,-0.56065 -0.5076,-0.56822 -0.5076,-1.5683 0,-0.63642 0.2273,-1.11372 0.2348,-0.48489 0.6667,-0.75006 0.4394,-0.26518 1.0379,-0.26518 z m 0,0.8031 q -0.4091,0 -0.6136,0.32578 -0.197,0.31821 -0.197,1.00008 0,0.68187 0.197,1.00765 0.2045,0.31821 0.6061,0.31821 0.4015,0 0.5985,-0.31821 0.2046,-0.32578 0.2046,-1.00765 0,-0.68187 -0.197,-1.00008 -0.197,-0.32578 -0.5986,-0.32578 z"
         style="font-style:normal;font-variant:normal;font-weight:600;font-stretch:normal;font-size:7.57634783px;font-family:'Fira Sans';-inkscape-font-specification:'Fira Sans Semi-Bold';fill:#ffffff;stroke-width:0.80327457"
         id="path3623" />
      <path
         d="m -1854.6787,800.72008 q 0.4773,0 0.7652,0.32579 0.2955,0.32578 0.2955,0.88643 v 2.92447 h -1.0758 v -2.74264 q 0,-0.59095 -0.394,-0.59095 -0.2121,0 -0.3712,0.13637 -0.1591,0.13638 -0.3258,0.42428 v 2.77294 h -1.0759 v -2.74264 q 0,-0.59095 -0.3939,-0.59095 -0.2122,0 -0.3713,0.14395 -0.1591,0.13637 -0.3182,0.4167 v 2.77294 h -1.0758 v -4.01546 h 0.9319 l 0.083,0.50003 q 0.2273,-0.30305 0.5076,-0.46215 0.2879,-0.15911 0.6592,-0.15911 0.3409,0 0.5909,0.17426 0.2501,0.16668 0.3637,0.47731 0.25,-0.32578 0.5379,-0.48489 0.2955,-0.16668 0.6667,-0.16668 z"
         style="font-style:normal;font-variant:normal;font-weight:600;font-stretch:normal;font-size:7.57634783px;font-family:'Fira Sans';-inkscape-font-specification:'Fira Sans Semi-Bold';fill:#ffffff;stroke-width:0.80327457"
         id="path3625" />
      <path
         d="m -1850.4309,800.72008 q 0.7576,0 1.1213,0.56065 0.3712,0.55308 0.3712,1.56073 0,0.61369 -0.1894,1.09857 -0.1894,0.48489 -0.5531,0.76521 -0.3561,0.27275 -0.8485,0.27275 -0.6137,0 -0.9925,-0.43185 v 1.85621 l -1.0759,0.12122 v -5.68226 h 0.9471 l 0.053,0.46973 q 0.2273,-0.29548 0.5304,-0.43943 0.3106,-0.15153 0.6364,-0.15153 z m -0.4167,3.45482 q 0.7879,0 0.7879,-1.32586 0,-0.72733 -0.1743,-1.03039 -0.1742,-0.30305 -0.5303,-0.30305 -0.2273,0 -0.4243,0.14395 -0.1894,0.13638 -0.3333,0.37124 v 1.75014 q 0.2576,0.39397 0.6743,0.39397 z"
         style="font-style:normal;font-variant:normal;font-weight:600;font-stretch:normal;font-size:7.57634783px;font-family:'Fira Sans';-inkscape-font-specification:'Fira Sans Semi-Bold';fill:#ffffff;stroke-width:0.80327457"
         id="path3627" />
      <path
         d="m -1845.0901,803.74305 q 0,0.23486 0.068,0.34851 0.068,0.10607 0.2273,0.1591 l -0.2273,0.71218 q -0.3561,-0.0303 -0.5834,-0.16668 -0.2197,-0.13637 -0.3409,-0.42428 -0.394,0.60611 -1.2047,0.60611 -0.5985,0 -0.9546,-0.34093 -0.3485,-0.34852 -0.3485,-0.90159 0,-0.65914 0.4773,-1.00765 0.4773,-0.34852 1.3713,-0.34852 h 0.4622 v -0.19698 q 0,-0.37124 -0.1667,-0.51519 -0.1667,-0.14395 -0.5531,-0.14395 -0.4242,0 -1.0606,0.21214 l -0.2425,-0.71976 q 0.7501,-0.29548 1.485,-0.29548 0.8182,0 1.2046,0.35609 0.3864,0.34851 0.3864,1.04554 z m -1.7653,0.46215 q 0.4546,0 0.7122,-0.447 v -0.76521 h -0.3561 q -0.8713,0 -0.8713,0.65156 0,0.26518 0.1288,0.4167 0.1364,0.14395 0.3864,0.14395 z"
         style="font-style:normal;font-variant:normal;font-weight:600;font-stretch:normal;font-size:7.57634783px;font-family:'Fira Sans';-inkscape-font-specification:'Fira Sans Semi-Bold';fill:#ffffff;stroke-width:0.80327457"
         id="path3629" />
      <path
         d="m -1841.9393,800.72766 q 0.1819,0 0.4016,0.0606 l -0.1819,1.03796 q -0.2121,-0.053 -0.356,-0.053 -0.3561,0 -0.5531,0.25002 -0.197,0.25002 -0.3107,0.75763 v 2.07592 h -1.0758 v -4.01546 h 0.9319 l 0.099,0.78036 q 0.1439,-0.42428 0.4167,-0.65914 0.2803,-0.23487 0.6288,-0.23487 z"
         style="font-style:normal;font-variant:normal;font-weight:600;font-stretch:normal;font-size:7.57634783px;font-family:'Fira Sans';-inkscape-font-specification:'Fira Sans Semi-Bold';fill:#ffffff;stroke-width:0.80327457"
         id="path3631" />
      <path
         d="m -1838.6096,804.66736 q -0.2197,0.15153 -0.5,0.22729 -0.2728,0.0833 -0.5455,0.0833 -0.6213,-0.008 -0.9395,-0.35609 -0.3182,-0.34851 -0.3182,-1.0228 v -2.00016 h -0.5985 v -0.75763 h 0.5985 v -0.87886 l 1.0758,-0.1288 v 1.00766 h 0.9244 l -0.1061,0.75763 h -0.8183 v 1.97743 q 0,0.2879 0.099,0.4167 0.098,0.12879 0.3031,0.12879 0.2046,0 0.4546,-0.13637 z"
         style="font-style:normal;font-variant:normal;font-weight:600;font-stretch:normal;font-size:7.57634783px;font-family:'Fira Sans';-inkscape-font-specification:'Fira Sans Semi-Bold';fill:#ffffff;stroke-width:0.80327457"
         id="path3633" />
      <path
         d="m -1837.0499,800.84131 v 4.01546 h -1.0759 v -4.01546 z m -0.5455,-2.06835 q 0.2879,0 0.4697,0.18184 0.1894,0.17425 0.1894,0.447 0,0.27275 -0.1894,0.45458 -0.1818,0.17426 -0.4697,0.17426 -0.2879,0 -0.4698,-0.17426 -0.1818,-0.18183 -0.1818,-0.45458 0,-0.27275 0.1818,-0.447 0.1819,-0.18184 0.4698,-0.18184 z"
         style="font-style:normal;font-variant:normal;font-weight:600;font-stretch:normal;font-size:7.57634783px;font-family:'Fira Sans';-inkscape-font-specification:'Fira Sans Semi-Bold';fill:#ffffff;stroke-width:0.80327457"
         id="path3635" />
      <path
         d="m -1832.6007,802.75812 q 0,0.0758 -0.023,0.4167 h -2.5078 q 0.053,0.5455 0.2955,0.77279 0.2424,0.22729 0.6591,0.22729 0.2576,0 0.4849,-0.0833 0.2273,-0.0833 0.4925,-0.26517 l 0.447,0.6061 q -0.6743,0.5455 -1.5229,0.5455 -0.947,0 -1.4546,-0.56822 -0.5077,-0.56823 -0.5077,-1.538 0,-0.61369 0.2122,-1.09857 0.2197,-0.49247 0.6288,-0.77279 0.4167,-0.28033 0.9849,-0.28033 0.8562,0 1.3335,0.53793 0.4773,0.53792 0.4773,1.50011 z m -1.0683,-0.30305 q 0,-1.00008 -0.7197,-1.00008 -0.3334,0 -0.5228,0.25002 -0.1818,0.24244 -0.2197,0.79552 h 1.4622 z"
         style="font-style:normal;font-variant:normal;font-weight:600;font-stretch:normal;font-size:7.57634783px;font-family:'Fira Sans';-inkscape-font-specification:'Fira Sans Semi-Bold';fill:#ffffff;stroke-width:0.80327457"
         id="path3637" />
      <path
         d="m -1829.5794,800.72008 q 0.5303,0 0.8258,0.32579 0.2955,0.3182 0.2955,0.88643 v 2.92447 h -1.0759 v -2.74264 q 0,-0.32578 -0.1136,-0.45458 -0.1061,-0.13637 -0.3258,-0.13637 -0.2273,0 -0.4167,0.14395 -0.1818,0.13637 -0.3561,0.4167 v 2.77294 h -1.0758 v -4.01546 h 0.9319 l 0.083,0.50761 q 0.25,-0.31063 0.5455,-0.46973 0.3031,-0.15911 0.6819,-0.15911 z"
         style="font-style:normal;font-variant:normal;font-weight:600;font-stretch:normal;font-size:7.57634783px;font-family:'Fira Sans';-inkscape-font-specification:'Fira Sans Semi-Bold';fill:#ffffff;stroke-width:0.80327457"
         id="path3639" />
      <path
         d="m -1823.9644,799.2427 v 5.61407 h -0.947 l -0.061,-0.49246 q -0.4243,0.61368 -1.1516,0.61368 -0.7425,0 -1.1365,-0.56822 -0.3864,-0.57581 -0.3864,-1.56073 0,-0.62126 0.197,-1.09857 0.2046,-0.48489 0.5758,-0.75764 0.3712,-0.27275 0.8561,-0.27275 0.5607,0 0.9774,0.40155 v -2.00015 z m -1.841,4.9322 q 0.2348,0 0.4167,-0.11365 0.1818,-0.12122 0.3485,-0.37124 v -1.79559 q -0.1591,-0.18941 -0.3258,-0.28033 -0.1591,-0.0985 -0.3713,-0.0985 -0.3712,0 -0.5833,0.32578 -0.2046,0.32579 -0.2046,1.00766 0,0.71975 0.1818,1.02281 0.1894,0.30305 0.538,0.30305 z"
         style="font-style:normal;font-variant:normal;font-weight:600;font-stretch:normal;font-size:7.57634783px;font-family:'Fira Sans';-inkscape-font-specification:'Fira Sans Semi-Bold';fill:#ffffff;stroke-width:0.80327457"
         id="path3641" />
      <path
         d="m -1821.2096,800.72008 q 0.9016,0 1.4092,0.56823 0.5077,0.56065 0.5077,1.56073 0,0.63641 -0.2349,1.1213 -0.2273,0.47731 -0.6667,0.74248 -0.4319,0.26517 -1.0228,0.26517 -0.9016,0 -1.4168,-0.56065 -0.5076,-0.56822 -0.5076,-1.5683 0,-0.63642 0.2273,-1.11372 0.2348,-0.48489 0.6667,-0.75006 0.4394,-0.26518 1.0379,-0.26518 z m 0,0.8031 q -0.4091,0 -0.6136,0.32578 -0.197,0.31821 -0.197,1.00008 0,0.68187 0.197,1.00765 0.2045,0.31821 0.6061,0.31821 0.4015,0 0.5985,-0.31821 0.2046,-0.32578 0.2046,-1.00765 0,-0.68187 -0.197,-1.00008 -0.197,-0.32578 -0.5986,-0.32578 z"
         style="font-style:normal;font-variant:normal;font-weight:600;font-stretch:normal;font-size:7.57634783px;font-family:'Fira Sans';-inkscape-font-specification:'Fira Sans Semi-Bold';fill:#ffffff;stroke-width:0.80327457"
         id="path3643" />
      <path
         d="m -1815.0036,799.49272 q 0.5682,0 0.9849,0.16668 0.4243,0.1591 0.7804,0.49246 l -0.5303,0.61368 q -0.2804,-0.22729 -0.5607,-0.33336 -0.2803,-0.10607 -0.5985,-0.10607 -0.3485,0 -0.5607,0.15153 -0.2045,0.14395 -0.2045,0.4167 0,0.18941 0.083,0.31063 0.091,0.12122 0.3106,0.22729 0.2198,0.10607 0.6592,0.24244 0.7803,0.25002 1.1667,0.62126 0.3864,0.36367 0.3864,1.04554 0,0.48489 -0.2424,0.85613 -0.2425,0.36366 -0.7046,0.5758 -0.4622,0.20456 -1.0834,0.20456 -0.6213,0 -1.1062,-0.19698 -0.4849,-0.19699 -0.8334,-0.53792 l 0.5683,-0.62884 q 0.303,0.2576 0.6288,0.39397 0.3258,0.1288 0.7122,0.1288 0.4091,0 0.6515,-0.18941 0.2501,-0.18941 0.2501,-0.53035 0,-0.21213 -0.091,-0.34851 -0.083,-0.14395 -0.2954,-0.25759 -0.2122,-0.11365 -0.6137,-0.23487 -0.8562,-0.26517 -1.2274,-0.63641 -0.3637,-0.37124 -0.3637,-0.96978 0,-0.43942 0.2349,-0.77278 0.2349,-0.34094 0.6516,-0.52277 0.4167,-0.18183 0.947,-0.18183 z"
         style="font-style:normal;font-variant:normal;font-weight:600;font-stretch:normal;font-size:7.57634783px;font-family:'Fira Sans';-inkscape-font-specification:'Fira Sans Semi-Bold';fill:#ffffff;stroke-width:0.80327457"
         id="path3645" />
      <path
         d="m -1810.6589,800.72008 q 0.9016,0 1.4092,0.56823 0.5076,0.56065 0.5076,1.56073 0,0.63641 -0.2348,1.1213 -0.2273,0.47731 -0.6668,0.74248 -0.4318,0.26517 -1.0228,0.26517 -0.9016,0 -1.4168,-0.56065 -0.5076,-0.56822 -0.5076,-1.5683 0,-0.63642 0.2273,-1.11372 0.2349,-0.48489 0.6667,-0.75006 0.4395,-0.26518 1.038,-0.26518 z m 0,0.8031 q -0.4091,0 -0.6137,0.32578 -0.197,0.31821 -0.197,1.00008 0,0.68187 0.197,1.00765 0.2046,0.31821 0.6061,0.31821 0.4016,0 0.5986,-0.31821 0.2045,-0.32578 0.2045,-1.00765 0,-0.68187 -0.197,-1.00008 -0.197,-0.32578 -0.5985,-0.32578 z"
         style="font-style:normal;font-variant:normal;font-weight:600;font-stretch:normal;font-size:7.57634783px;font-family:'Fira Sans';-inkscape-font-specification:'Fira Sans Semi-Bold';fill:#ffffff;stroke-width:0.80327457"
         id="path3647" />
      <path
         d="m -1806.2041,799.92457 q -0.2728,0 -0.394,0.1288 -0.1136,0.12879 -0.1136,0.41669 v 0.37125 h 0.9546 l -0.1212,0.75763 h -0.8334 v 3.25783 h -1.0759 v -3.25783 h -0.6364 v -0.75763 h 0.6364 v -0.40155 q 0,-0.58338 0.3788,-0.94704 0.3864,-0.37124 1.091,-0.37124 0.5607,0 1.0607,0.24244 l -0.2955,0.71217 q -0.3257,-0.15152 -0.6515,-0.15152 z"
         style="font-style:normal;font-variant:normal;font-weight:600;font-stretch:normal;font-size:7.57634783px;font-family:'Fira Sans';-inkscape-font-specification:'Fira Sans Semi-Bold';fill:#ffffff;stroke-width:0.80327457"
         id="path3649" />
      <path
         d="m -1802.8587,804.66736 q -0.2197,0.15153 -0.5,0.22729 -0.2728,0.0833 -0.5455,0.0833 -0.6213,-0.008 -0.9395,-0.35609 -0.3182,-0.34851 -0.3182,-1.0228 v -2.00016 h -0.5985 v -0.75763 h 0.5985 v -0.87886 l 1.0758,-0.1288 v 1.00766 h 0.9244 l -0.1061,0.75763 h -0.8183 v 1.97743 q 0,0.2879 0.099,0.4167 0.098,0.12879 0.3031,0.12879 0.2045,0 0.4546,-0.13637 z"
         style="font-style:normal;font-variant:normal;font-weight:600;font-stretch:normal;font-size:7.57634783px;font-family:'Fira Sans';-inkscape-font-specification:'Fira Sans Semi-Bold';fill:#ffffff;stroke-width:0.80327457"
         id="path3651" />
      <path
         d="m -1797.3518,800.84131 -0.8561,4.01546 h -1.3107 l -0.5758,-3.05327 -0.5758,3.05327 h -1.2956 l -0.8788,-4.01546 h 1.0834 l 0.4925,3.21994 0.6667,-3.21994 h 1.0758 l 0.5986,3.21994 0.5455,-3.21994 z"
         style="font-style:normal;font-variant:normal;font-weight:600;font-stretch:normal;font-size:7.57634783px;font-family:'Fira Sans';-inkscape-font-specification:'Fira Sans Semi-Bold';fill:#ffffff;stroke-width:0.80327457"
         id="path3653" />
      <path
         d="m -1793.8018,803.74305 q 0,0.23486 0.068,0.34851 0.068,0.10607 0.2273,0.1591 l -0.2273,0.71218 q -0.3561,-0.0303 -0.5834,-0.16668 -0.2197,-0.13637 -0.3409,-0.42428 -0.394,0.60611 -1.2046,0.60611 -0.5986,0 -0.9546,-0.34093 -0.3486,-0.34852 -0.3486,-0.90159 0,-0.65914 0.4773,-1.00765 0.4774,-0.34852 1.3714,-0.34852 h 0.4621 v -0.19698 q 0,-0.37124 -0.1667,-0.51519 -0.1666,-0.14395 -0.553,-0.14395 -0.4243,0 -1.0607,0.21214 l -0.2425,-0.71976 q 0.7501,-0.29548 1.485,-0.29548 0.8182,0 1.2046,0.35609 0.3864,0.34851 0.3864,1.04554 z m -1.7653,0.46215 q 0.4546,0 0.7122,-0.447 v -0.76521 h -0.3561 q -0.8712,0 -0.8712,0.65156 0,0.26518 0.1288,0.4167 0.1363,0.14395 0.3863,0.14395 z"
         style="font-style:normal;font-variant:normal;font-weight:600;font-stretch:normal;font-size:7.57634783px;font-family:'Fira Sans';-inkscape-font-specification:'Fira Sans Semi-Bold';fill:#ffffff;stroke-width:0.80327457"
         id="path3655" />
      <path
         d="m -1790.6509,800.72766 q 0.1818,0 0.4015,0.0606 l -0.1818,1.03796 q -0.2122,-0.053 -0.3561,-0.053 -0.3561,0 -0.5531,0.25002 -0.197,0.25002 -0.3106,0.75763 v 2.07592 h -1.0759 v -4.01546 h 0.9319 l 0.099,0.78036 q 0.144,-0.42428 0.4167,-0.65914 0.2803,-0.23487 0.6289,-0.23487 z"
         style="font-style:normal;font-variant:normal;font-weight:600;font-stretch:normal;font-size:7.57634783px;font-family:'Fira Sans';-inkscape-font-specification:'Fira Sans Semi-Bold';fill:#ffffff;stroke-width:0.80327457"
         id="path3657" />
      <path
         d="m -1786.5507,802.75812 q 0,0.0758 -0.023,0.4167 h -2.5077 q 0.053,0.5455 0.2955,0.77279 0.2424,0.22729 0.6591,0.22729 0.2576,0 0.4849,-0.0833 0.2273,-0.0833 0.4924,-0.26517 l 0.447,0.6061 q -0.6742,0.5455 -1.5228,0.5455 -0.947,0 -1.4547,-0.56822 -0.5076,-0.56823 -0.5076,-1.538 0,-0.61369 0.2122,-1.09857 0.2197,-0.49247 0.6288,-0.77279 0.4167,-0.28033 0.9849,-0.28033 0.8562,0 1.3335,0.53793 0.4773,0.53792 0.4773,1.50011 z m -1.0683,-0.30305 q 0,-1.00008 -0.7197,-1.00008 -0.3334,0 -0.5228,0.25002 -0.1818,0.24244 -0.2197,0.79552 h 1.4622 z"
         style="font-style:normal;font-variant:normal;font-weight:600;font-stretch:normal;font-size:7.57634783px;font-family:'Fira Sans';-inkscape-font-specification:'Fira Sans Semi-Bold';fill:#ffffff;stroke-width:0.80327457"
         id="path3659" />
      <path
         d="m -1782.7859,799.61394 v 4.34882 h 2.0759 l -0.1212,0.89401 h -3.0684 v -5.24283 z"
         style="font-style:normal;font-variant:normal;font-weight:600;font-stretch:normal;font-size:7.57634783px;font-family:'Fira Sans';-inkscape-font-specification:'Fira Sans Semi-Bold';fill:#ffffff;stroke-width:0.80327457"
         id="path3661" />
      <path
         d="m -1778.9843,800.84131 v 4.01546 h -1.0759 v -4.01546 z m -0.5455,-2.06835 q 0.2879,0 0.4697,0.18184 0.1894,0.17425 0.1894,0.447 0,0.27275 -0.1894,0.45458 -0.1818,0.17426 -0.4697,0.17426 -0.2879,0 -0.4698,-0.17426 -0.1818,-0.18183 -0.1818,-0.45458 0,-0.27275 0.1818,-0.447 0.1819,-0.18184 0.4698,-0.18184 z"
         style="font-style:normal;font-variant:normal;font-weight:600;font-stretch:normal;font-size:7.57634783px;font-family:'Fira Sans';-inkscape-font-specification:'Fira Sans Semi-Bold';fill:#ffffff;stroke-width:0.80327457"
         id="path3663" />
      <path
         d="m -1775.7549,800.72008 q 0.7046,0 1.091,0.56065 0.394,0.56065 0.394,1.56831 0,0.62126 -0.197,1.10614 -0.1894,0.47731 -0.5531,0.75006 -0.3561,0.27275 -0.841,0.27275 -0.6591,0 -1.0531,-0.51519 l -0.061,0.39397 h -0.9546 v -5.61407 l 1.0758,-0.12122 v 2.15168 q 0.1894,-0.2576 0.4773,-0.40155 0.2879,-0.15153 0.6213,-0.15153 z m -0.4091,3.4624 q 0.7728,0 0.7728,-1.33344 0,-0.73491 -0.1894,-1.03039 -0.1819,-0.30305 -0.5304,-0.30305 -0.4318,0 -0.7425,0.51519 v 1.71983 q 0.2652,0.43186 0.6895,0.43186 z"
         style="font-style:normal;font-variant:normal;font-weight:600;font-stretch:normal;font-size:7.57634783px;font-family:'Fira Sans';-inkscape-font-specification:'Fira Sans Semi-Bold';fill:#ffffff;stroke-width:0.80327457"
         id="path3665" />
      <path
         d="m -1771.3401,800.72766 q 0.1818,0 0.4015,0.0606 l -0.1818,1.03796 q -0.2122,-0.053 -0.3561,-0.053 -0.3561,0 -0.5531,0.25002 -0.197,0.25002 -0.3106,0.75763 v 2.07592 h -1.0759 v -4.01546 h 0.9319 l 0.099,0.78036 q 0.144,-0.42428 0.4167,-0.65914 0.2803,-0.23487 0.6289,-0.23487 z"
         style="font-style:normal;font-variant:normal;font-weight:600;font-stretch:normal;font-size:7.57634783px;font-family:'Fira Sans';-inkscape-font-specification:'Fira Sans Semi-Bold';fill:#ffffff;stroke-width:0.80327457"
         id="path3667" />
      <path
         d="m -1767.2399,802.75812 q 0,0.0758 -0.023,0.4167 h -2.5078 q 0.053,0.5455 0.2955,0.77279 0.2424,0.22729 0.6591,0.22729 0.2576,0 0.4849,-0.0833 0.2273,-0.0833 0.4924,-0.26517 l 0.4471,0.6061 q -0.6743,0.5455 -1.5229,0.5455 -0.947,0 -1.4547,-0.56822 -0.5076,-0.56823 -0.5076,-1.538 0,-0.61369 0.2122,-1.09857 0.2197,-0.49247 0.6288,-0.77279 0.4167,-0.28033 0.9849,-0.28033 0.8562,0 1.3335,0.53793 0.4773,0.53792 0.4773,1.50011 z m -1.0683,-0.30305 q 0,-1.00008 -0.7197,-1.00008 -0.3334,0 -0.5228,0.25002 -0.1818,0.24244 -0.2197,0.79552 h 1.4622 z"
         style="font-style:normal;font-variant:normal;font-weight:600;font-stretch:normal;font-size:7.57634783px;font-family:'Fira Sans';-inkscape-font-specification:'Fira Sans Semi-Bold';fill:#ffffff;stroke-width:0.80327457"
         id="path3669" />
    </g>
    <g
       style="display:inline;stroke-width:0.73062962"
       transform="matrix(3.2574691,0,0,3.2574691,-133.10767,-554.03767)"
       id="g2759">
      <g
         aria-label="FLISOL"
         transform="matrix(0.35828825,0,0,0.41984374,751.24657,-99.369865)"
         style="font-style:normal;font-variant:normal;font-weight:normal;font-stretch:normal;font-size:53.33333206px;line-height:0.25;font-family:Montserrat;-inkscape-font-specification:Montserrat;font-variant-ligatures:normal;font-variant-caps:normal;font-variant-numeric:normal;text-align:start;letter-spacing:0px;word-spacing:0px;writing-mode:lr-tb;text-anchor:start;display:inline;fill:#ffffff;fill-opacity:1;stroke:none;stroke-width:0.73062962"
         id="flowRoot2747">
        <path
           d="m -1893.3015,804.85677 v -24.02202 h 14.7588 l -0.6567,4.52789 h -7.7078 v 5.7722 h 6.7746 v 4.52789 h -6.7746 v 9.19404 z"
           style="font-style:normal;font-variant:normal;font-weight:800;font-stretch:normal;font-size:34.5640564px;font-family:'Fira Sans';-inkscape-font-specification:'Fira Sans Ultra-Bold';fill:#ffffff;stroke-width:0.73062962"
           id="path3577" />
        <path
           d="m -1870.0977,780.83475 v 19.0448 h 9.2286 l -0.6913,4.97722 h -14.9316 v -24.02202 z"
           style="font-style:normal;font-variant:normal;font-weight:800;font-stretch:normal;font-size:34.5640564px;font-family:'Fira Sans';-inkscape-font-specification:'Fira Sans Ultra-Bold';fill:#ffffff;stroke-width:0.73062962"
           id="path3579" />
        <path
           d="m -1852.2081,780.83475 v 24.02202 h -6.3943 v -24.02202 z"
           style="font-style:normal;font-variant:normal;font-weight:800;font-stretch:normal;font-size:34.5640564px;font-family:'Fira Sans';-inkscape-font-specification:'Fira Sans Ultra-Bold';fill:#ffffff;stroke-width:0.73062962"
           id="path3581" />
        <path
           d="m -1840.1809,780.2126 q 2.7306,0 4.8044,0.79497 2.1084,0.79497 3.7675,2.38492 l -2.8688,3.38728 q -2.4886,-1.97015 -5.2192,-1.97015 -1.4171,0 -2.1775,0.55302 -0.7259,0.51846 -0.7259,1.48626 0,0.69128 0.3802,1.14061 0.3802,0.44933 1.2789,0.8641 0.8987,0.41477 2.8343,1.03692 3.6983,1.17518 5.392,2.97251 1.7282,1.76277 1.7282,4.9081 0,2.28123 -1.1752,4.04399 -1.1752,1.72821 -3.4219,2.696 -2.2121,0.96779 -5.2191,0.96779 -5.7377,0 -9.3669,-3.49097 l 3.1453,-3.49097 q 2.8689,2.35036 5.9796,2.35036 1.6245,0 2.5232,-0.69128 0.8987,-0.72585 0.8987,-1.90102 0,-0.82954 -0.3457,-1.348 -0.3456,-0.55303 -1.2443,-0.9678 -0.8641,-0.44933 -2.5577,-0.96779 -4.0786,-1.27887 -5.7377,-3.0762 -1.659,-1.79733 -1.659,-4.52789 0,-2.14297 1.1406,-3.76748 1.1752,-1.62451 3.2144,-2.48862 2.0739,-0.89866 4.6316,-0.89866 z"
           style="font-style:normal;font-variant:normal;font-weight:800;font-stretch:normal;font-size:34.5640564px;font-family:'Fira Sans';-inkscape-font-specification:'Fira Sans Ultra-Bold';fill:#ffffff;stroke-width:0.73062962"
           id="path3583" />
        <path
           d="m -1818.3683,780.2126 q 5.2192,0 8.1226,3.31815 2.9034,3.31815 2.9034,9.29773 0,3.90574 -1.3135,6.77455 -1.2788,2.83426 -3.7674,4.35507 -2.4886,1.52082 -5.9451,1.52082 -5.2191,0 -8.1225,-3.31815 -2.8688,-3.31815 -2.8688,-9.33229 0,-3.90574 1.2788,-6.73999 1.3135,-2.83425 3.7675,-4.35507 2.4886,-1.52082 5.945,-1.52082 z m 0,4.59702 q -2.2466,0 -3.3181,1.86646 -1.0369,1.86646 -1.0369,6.1524 0,4.28594 1.0715,6.18696 1.0714,1.86646 3.2835,1.86646 2.2813,0 3.3182,-1.86646 1.0369,-1.86645 1.0369,-6.18696 0,-4.28594 -1.0369,-6.1524 -1.0369,-1.86646 -3.3182,-1.86646 z"
           style="font-style:normal;font-variant:normal;font-weight:800;font-stretch:normal;font-size:34.5640564px;font-family:'Fira Sans';-inkscape-font-specification:'Fira Sans Ultra-Bold';fill:#ffffff;stroke-width:0.73062962"
           id="path3585" />
        <path
           d="m -1798.2017,780.83475 v 19.0448 h 9.2286 l -0.6913,4.97722 h -14.9317 v -24.02202 z"
           style="font-style:normal;font-variant:normal;font-weight:800;font-stretch:normal;font-size:34.5640564px;font-family:'Fira Sans';-inkscape-font-specification:'Fira Sans Ultra-Bold';fill:#ffffff;stroke-width:0.73062962"
           id="path3587" />
      </g>
      <g
         aria-label="ARGENTINA "
         transform="matrix(1.5952892,0,0,1.8693668,3134.979,-1266.0306)"
         style="font-style:normal;font-variant:normal;font-weight:normal;font-stretch:normal;font-size:53.33333206px;line-height:0.25;font-family:Montserrat;-inkscape-font-specification:Montserrat;font-variant-ligatures:normal;font-variant-caps:normal;font-variant-numeric:normal;text-align:start;letter-spacing:0px;word-spacing:0px;writing-mode:lr-tb;text-anchor:start;display:inline;fill:#fcfeff;fill-opacity:1;stroke:none;stroke-width:0.39400485"
         id="flowRoot2757">
        <path
           d="m -1891.403,804.85677 -0.4658,-1.45164 h -2.2357 l -0.4657,1.45164 h -0.4736 l 1.7777,-5.31751 h 0.5822 l 1.7699,5.31751 z m -2.5695,-1.84754 h 1.9795 l -0.9859,-3.08959 z"
           style="font-style:normal;font-variant:normal;font-weight:300;font-stretch:normal;font-size:7.7627902px;font-family:'Fira Sans';-inkscape-font-specification:'Fira Sans Light';fill:#fcfeff;fill-opacity:1;stroke-width:0.21247406"
           id="path3590" />
        <path
           d="m -1888.3953,802.47359 h -1.0635 v 2.38318 h -0.4658 v -5.31751 h 1.2887 q 1.8941,0 1.8941,1.44388 0,0.57444 -0.3028,0.91601 -0.3027,0.34156 -0.8849,0.48905 l 1.4594,2.46857 h -0.5512 z m -0.1785,-0.38037 q 1.3352,0 1.3352,-1.11008 0,-0.5434 -0.3338,-0.79957 -0.3338,-0.26393 -1.0791,-0.26393 h -0.8073 v 2.17358 z"
           style="font-style:normal;font-variant:normal;font-weight:300;font-stretch:normal;font-size:7.7627902px;font-family:'Fira Sans';-inkscape-font-specification:'Fira Sans Light';fill:#fcfeff;fill-opacity:1;stroke-width:0.21247406"
           id="path3592" />
        <path
           d="m -1883.5355,799.45387 q 0.4502,0 0.784,0.13197 0.3338,0.1242 0.6754,0.3959 l -0.2795,0.29498 q -0.2872,-0.22512 -0.5589,-0.32603 -0.2717,-0.10092 -0.621,-0.10092 -0.4581,0 -0.854,0.24065 -0.3881,0.24064 -0.6365,0.76851 -0.2407,0.52011 -0.2407,1.31968 0,1.1877 0.4503,1.77768 0.4502,0.58997 1.2576,0.58997 0.621,0 1.1178,-0.27946 v -1.88636 h -1.0402 l -0.054,-0.38814 h 1.5525 v 2.51514 q -0.7607,0.43472 -1.5758,0.43472 -1.017,0 -1.6069,-0.70641 -0.59,-0.70642 -0.59,-2.05714 0,-0.8772 0.3027,-1.49046 0.3106,-0.62102 0.8151,-0.92377 0.5124,-0.31051 1.1024,-0.31051 z"
           style="font-style:normal;font-variant:normal;font-weight:300;font-stretch:normal;font-size:7.7627902px;font-family:'Fira Sans';-inkscape-font-specification:'Fira Sans Light';fill:#fcfeff;fill-opacity:1;stroke-width:0.21247406"
           id="path3594" />
        <path
           d="m -1877.9138,799.53926 -0.054,0.38814 h -2.1813 v 1.97951 h 1.8863 v 0.38814 h -1.8863 v 2.17358 h 2.29 v 0.38814 h -2.7558 v -5.31751 z"
           style="font-style:normal;font-variant:normal;font-weight:300;font-stretch:normal;font-size:7.7627902px;font-family:'Fira Sans';-inkscape-font-specification:'Fira Sans Light';fill:#fcfeff;fill-opacity:1;stroke-width:0.21247406"
           id="path3596" />
        <path
           d="m -1873.1419,804.85677 h -0.6133 l -2.5073,-4.80517 q 0.062,0.97035 0.062,1.83202 v 2.97315 h -0.4425 v -5.31751 h 0.5977 l 2.5229,4.80517 q -0.062,-0.90049 -0.062,-1.57585 v -3.22932 h 0.4425 z"
           style="font-style:normal;font-variant:normal;font-weight:300;font-stretch:normal;font-size:7.7627902px;font-family:'Fira Sans';-inkscape-font-specification:'Fira Sans Light';fill:#fcfeff;fill-opacity:1;stroke-width:0.21247406"
           id="path3598" />
        <path
           d="m -1868.5088,799.53926 -0.054,0.41143 h -1.5603 v 4.90608 h -0.458 v -4.90608 h -1.5759 v -0.41143 z"
           style="font-style:normal;font-variant:normal;font-weight:300;font-stretch:normal;font-size:7.7627902px;font-family:'Fira Sans';-inkscape-font-specification:'Fira Sans Light';fill:#fcfeff;fill-opacity:1;stroke-width:0.21247406"
           id="path3600" />
        <path
           d="m -1867.1105,799.53926 v 5.31751 h -0.4657 v -5.31751 z"
           style="font-style:normal;font-variant:normal;font-weight:300;font-stretch:normal;font-size:7.7627902px;font-family:'Fira Sans';-inkscape-font-specification:'Fira Sans Light';fill:#fcfeff;fill-opacity:1;stroke-width:0.21247406"
           id="path3602" />
        <path
           d="m -1861.8919,804.85677 h -0.6133 l -2.5074,-4.80517 q 0.062,0.97035 0.062,1.83202 v 2.97315 h -0.4424 v -5.31751 h 0.5977 l 2.5229,4.80517 q -0.062,-0.90049 -0.062,-1.57585 v -3.22932 h 0.4425 z"
           style="font-style:normal;font-variant:normal;font-weight:300;font-stretch:normal;font-size:7.7627902px;font-family:'Fira Sans';-inkscape-font-specification:'Fira Sans Light';fill:#fcfeff;fill-opacity:1;stroke-width:0.21247406"
           id="path3604" />
        <path
           d="m -1857.2589,804.85677 -0.4657,-1.45164 h -2.2357 l -0.4658,1.45164 h -0.4735 l 1.7777,-5.31751 h 0.5822 l 1.7699,5.31751 z m -2.5695,-1.84754 h 1.9796 l -0.9859,-3.08959 z"
           style="font-style:normal;font-variant:normal;font-weight:300;font-stretch:normal;font-size:7.7627902px;font-family:'Fira Sans';-inkscape-font-specification:'Fira Sans Light';fill:#fcfeff;fill-opacity:1;stroke-width:0.21247406"
           id="path3606" />
      </g>
    </g>
    <g
       aria-label="Sábado"
       transform="scale(0.92378829,1.0824991)"
       style="font-style:normal;font-variant:normal;font-weight:normal;font-stretch:normal;font-size:305.77929688px;line-height:0.25;font-family:Montserrat;-inkscape-font-specification:Montserrat;font-variant-ligatures:normal;font-variant-caps:normal;font-variant-numeric:normal;text-align:start;letter-spacing:0px;word-spacing:0px;writing-mode:lr-tb;text-anchor:start;display:inline;fill:#fcfeff;fill-opacity:1;stroke:none;stroke-width:2.25897264"
       id="text2092">
      <path
         d="m 123.1152,36.920178 q 2.80393,0 4.80674,0.845631 2.04732,0.801124 3.96111,2.536892 l -1.55774,1.691262 q -1.73577,-1.468727 -3.38252,-2.136331 -1.64676,-0.667603 -3.73858,-0.667603 -2.84844,0 -4.58421,1.42422 -1.73577,1.379714 -1.73577,3.738579 0,1.602248 0.6231,2.670414 0.6676,1.023658 2.18084,1.869289 1.51323,0.801124 4.31716,1.646755 3.02647,0.934644 4.89576,2.00281 1.86929,1.068165 2.89295,2.759427 1.02366,1.691262 1.02366,4.272661 0,2.5814 -1.24619,4.58421 -1.2462,2.00281 -3.56056,3.115482 -2.26985,1.112672 -5.29632,1.112672 -5.69688,0 -9.747,-3.827592 l 1.51323,-1.691262 q 1.86929,1.602248 3.78309,2.447879 1.91379,0.801124 4.40618,0.801124 3.29351,0 5.34082,-1.735769 2.09183,-1.735768 2.09183,-4.71773 0,-1.869289 -0.71211,-3.070975 -0.66761,-1.201686 -2.22535,-2.047317 -1.51323,-0.890138 -4.31716,-1.780276 -4.67323,-1.42422 -6.67604,-3.29351 -2.00281,-1.869289 -2.00281,-5.073785 0,-2.136331 1.11267,-3.827592 1.15718,-1.735769 3.15999,-2.670414 2.04732,-0.979151 4.67323,-0.979151 z"
         style="font-style:normal;font-variant:normal;font-weight:300;font-stretch:normal;font-size:44.50688934px;font-family:'Fira Sans';-inkscape-font-specification:'Fira Sans Light';fill:#fcfeff;fill-opacity:1;stroke-width:1.21819079"
         id="path3564" />
      <path
         d="m 154.40632,62.734173 q 0,1.824783 0.44507,2.625907 0.48958,0.801124 1.51323,1.201686 l -0.57858,1.824782 q -1.60225,-0.311548 -2.49239,-1.201686 -0.84563,-0.890137 -1.11267,-2.71492 -2.40338,3.916606 -7.25463,3.916606 -3.33801,0 -5.29632,-1.869289 -1.91379,-1.913796 -1.91379,-5.073785 0,-3.605058 2.53689,-5.563361 2.5814,-1.958304 7.1211,-1.958304 h 4.45069 v -2.269851 q 0,-2.803934 -1.24619,-4.050127 -1.24619,-1.2907 -4.13914,-1.2907 -2.67042,0 -6.31998,1.335207 l -0.6676,-1.958303 q 3.9166,-1.557741 7.34363,-1.557741 7.61068,0 7.61068,7.388143 z m -9.0349,3.560552 q 4.18365,0 6.4535,-4.094634 v -6.408992 h -4.05013 q -3.56055,0 -5.42984,1.379713 -1.86928,1.379714 -1.86928,4.139141 0,2.403372 1.29069,3.694072 1.2907,1.2907 3.60506,1.2907 z m 4.67323,-33.20214 1.15718,2.314358 -8.67885,3.783086 -0.84563,-1.513234 z"
         style="font-style:normal;font-variant:normal;font-weight:300;font-stretch:normal;font-size:44.50688934px;font-family:'Fira Sans';-inkscape-font-specification:'Fira Sans Light';fill:#fcfeff;fill-opacity:1;stroke-width:1.21819079"
         id="path3566" />
      <path
         d="m 173.3287,44.130294 q 4.05013,0 6.27548,3.115482 2.22534,3.115482 2.22534,8.901378 0,5.652375 -2.35887,8.945885 -2.31435,3.293509 -6.498,3.293509 -2.09183,0 -3.82759,-0.934644 -1.69127,-0.934645 -2.84844,-2.492386 l -0.26705,2.937455 h -2.26985 V 35.139902 l 2.5814,-0.311548 v 13.040518 q 2.75943,-3.738578 6.98758,-3.738578 z m -0.84563,22.119924 q 3.15999,0 4.85125,-2.536893 1.73577,-2.5814 1.73577,-7.566171 0,-9.88053 -6.27547,-9.88053 -2.09182,0 -3.60506,1.068166 -1.51323,1.023658 -2.84844,2.937454 v 12.239395 q 1.11267,1.735769 2.67042,2.759427 1.55774,0.979152 3.47153,0.979152 z"
         style="font-style:normal;font-variant:normal;font-weight:300;font-stretch:normal;font-size:44.50688934px;font-family:'Fira Sans';-inkscape-font-specification:'Fira Sans Light';fill:#fcfeff;fill-opacity:1;stroke-width:1.21819079"
         id="path3568" />
      <path
         d="m 203.6073,62.734173 q 0,1.824783 0.44507,2.625907 0.48957,0.801124 1.51323,1.201686 l -0.57859,1.824782 q -1.60225,-0.311548 -2.49239,-1.201686 -0.84563,-0.890137 -1.11267,-2.71492 -2.40337,3.916606 -7.25462,3.916606 -3.33802,0 -5.29632,-1.869289 -1.9138,-1.913796 -1.9138,-5.073785 0,-3.605058 2.5369,-5.563361 2.5814,-1.958304 7.1211,-1.958304 h 4.45069 v -2.269851 q 0,-2.803934 -1.2462,-4.050127 -1.24619,-1.2907 -4.13914,-1.2907 -2.67041,0 -6.31997,1.335207 l -0.66761,-1.958303 q 3.91661,-1.557741 7.34364,-1.557741 7.61068,0 7.61068,7.388143 z m -9.0349,3.560552 q 4.18365,0 6.4535,-4.094634 v -6.408992 h -4.05013 q -3.56055,0 -5.42984,1.379713 -1.86929,1.379714 -1.86929,4.139141 0,2.403372 1.2907,3.694072 1.2907,1.2907 3.60506,1.2907 z"
         style="font-style:normal;font-variant:normal;font-weight:300;font-stretch:normal;font-size:44.50688934px;font-family:'Fira Sans';-inkscape-font-specification:'Fira Sans Light';fill:#fcfeff;fill-opacity:1;stroke-width:1.21819079"
         id="path3570" />
      <path
         d="m 229.56177,35.139902 v 32.757071 h -2.22535 l -0.31155,-3.560551 q -2.40337,4.050126 -6.98758,4.050126 -4.05013,0 -6.40899,-3.204496 -2.31436,-3.249003 -2.31436,-8.812364 0,-3.605058 1.06817,-6.364485 1.11267,-2.759427 3.15999,-4.317168 2.09182,-1.557741 4.89575,-1.557741 3.96112,0 6.54252,3.159989 V 34.828354 Z m -9.12392,31.110316 q 2.22535,0 3.73858,-1.068166 1.55774,-1.068165 2.80394,-3.249003 v -12.15038 q -2.49239,-3.516045 -6.09745,-3.516045 -3.15999,0 -5.02928,2.625907 -1.82478,2.625906 -1.78027,7.43265 0,4.806744 1.69126,7.388144 1.69126,2.536893 4.67322,2.536893 z"
         style="font-style:normal;font-variant:normal;font-weight:300;font-stretch:normal;font-size:44.50688934px;font-family:'Fira Sans';-inkscape-font-specification:'Fira Sans Light';fill:#fcfeff;fill-opacity:1;stroke-width:1.21819079"
         id="path3572" />
      <path
         d="m 247.05019,44.130294 q 4.62872,0 7.21012,3.204496 2.6259,3.159989 2.6259,8.856871 0,5.652375 -2.67041,8.945885 -2.62591,3.249002 -7.21012,3.249002 -4.62871,0 -7.25462,-3.204496 -2.5814,-3.249003 -2.5814,-8.901377 0,-3.694072 1.20169,-6.453499 1.20168,-2.759428 3.42703,-4.228155 2.22534,-1.468727 5.25181,-1.468727 z m 0,2.180837 q -3.38252,0 -5.25181,2.536893 -1.86929,2.536893 -1.86929,7.432651 0,4.85125 1.82478,7.388143 1.86929,2.536893 5.25181,2.536893 3.38253,0 5.25182,-2.536893 1.91379,-2.536893 1.91379,-7.477157 0,-4.851251 -1.86929,-7.343637 -1.82478,-2.536893 -5.25181,-2.536893 z"
         style="font-style:normal;font-variant:normal;font-weight:300;font-stretch:normal;font-size:44.50688934px;font-family:'Fira Sans';-inkscape-font-specification:'Fira Sans Light';fill:#fcfeff;fill-opacity:1;stroke-width:1.21819079"
         id="path3574" />
    </g>
    <g
       style="display:inline"
       id="g2259"
       transform="matrix(5.2972839,0,0,5.2972839,-761.13743,-78.243607)">
      <g
         aria-label="27"
         transform="scale(0.92378829,1.0824991)"
         style="font-style:normal;font-variant:normal;font-weight:normal;font-stretch:normal;font-size:26.27385712px;line-height:0.25;font-family:Montserrat;-inkscape-font-specification:Montserrat;font-variant-ligatures:normal;font-variant-caps:normal;font-variant-numeric:normal;text-align:start;letter-spacing:0px;word-spacing:0px;writing-mode:lr-tb;text-anchor:start;display:inline;fill:#ffffff;fill-opacity:1;stroke:none;stroke-width:0.35993361"
         id="text2078">
        <path
           d="m 180.95048,29.216844 q 1.31111,0 2.2306,0.459741 0.93651,0.442714 1.41328,1.20895 0.47677,0.749208 0.47677,1.668691 0,0.902455 -0.34055,1.685718 -0.34055,0.783263 -1.27706,1.838966 -0.91949,1.055702 -2.7244,2.639256 h 4.59742 l -0.32352,2.298706 h -7.71344 v -2.111404 q 2.02626,-1.958158 2.9798,-2.979806 0.95354,-1.038675 1.32814,-1.702745 0.37461,-0.681099 0.37461,-1.34517 0,-0.630016 -0.35758,-0.987592 -0.35758,-0.374604 -0.98759,-0.374604 -0.59596,0 -1.07273,0.289467 -0.45974,0.272439 -0.93651,0.885427 l -1.75383,-1.413279 q 0.73218,-0.970565 1.75383,-1.515443 1.03867,-0.544879 2.33276,-0.544879 z"
           style="font-style:normal;font-variant:normal;font-weight:800;font-stretch:normal;font-size:17.02745819px;font-family:'Fira Sans';-inkscape-font-specification:'Fira Sans Ultra-Bold';fill:#ffffff;stroke-width:0.35993361"
           id="path3543" />
        <path
           d="m 193.44305,29.472256 v 2.026267 l -4.22281,9.824844 -2.74142,-0.919483 3.79712,-8.666976 h -4.5293 v -2.264652 z"
           style="font-style:normal;font-variant:normal;font-weight:800;font-stretch:normal;font-size:17.02745819px;font-family:'Fira Sans';-inkscape-font-specification:'Fira Sans Ultra-Bold';fill:#ffffff;stroke-width:0.35993361"
           id="path3545" />
      </g>
      <g
         aria-label="abril"
         transform="scale(0.92378829,1.0824991)"
         style="font-style:normal;font-variant:normal;font-weight:normal;font-stretch:normal;font-size:26.27385712px;line-height:0.25;font-family:Montserrat;-inkscape-font-specification:Montserrat;font-variant-ligatures:normal;font-variant-caps:normal;font-variant-numeric:normal;text-align:start;letter-spacing:0px;word-spacing:0px;writing-mode:lr-tb;text-anchor:start;display:inline;fill:#ffffff;fill-opacity:1;stroke:none;stroke-width:0.35993361"
         id="text2084">
        <path
           d="m 215.38312,38.224369 q 0,0.493797 0.11919,0.732181 0.13622,0.238384 0.45975,0.357577 l -0.61299,1.958157 q -0.8684,-0.06811 -1.43031,-0.357576 -0.54488,-0.289467 -0.88543,-0.919483 -0.8684,1.328142 -2.74142,1.328142 -1.34517,0 -2.16249,-0.783263 -0.80029,-0.800291 -0.80029,-2.060323 0,-1.498416 1.10679,-2.298707 1.10678,-0.80029 3.20116,-0.80029 h 0.78326 v -0.306495 q 0,-0.73218 -0.30649,-0.987592 -0.30649,-0.272439 -1.10678,-0.272439 -0.42569,0 -1.07273,0.136219 -0.63002,0.119192 -1.29409,0.340549 l -0.66407,-1.958157 q 0.81732,-0.340549 1.75383,-0.510824 0.93651,-0.187302 1.7368,-0.187302 2.04329,0 2.9798,0.817318 0.93651,0.80029 0.93651,2.468981 z m -4.17173,0.970565 q 0.37461,0 0.6811,-0.187302 0.32352,-0.204329 0.52785,-0.544878 v -1.464362 h -0.51082 q -0.81732,0 -1.20895,0.306495 -0.39163,0.289466 -0.39163,0.885427 0,0.459742 0.23838,0.732181 0.23839,0.272439 0.66407,0.272439 z"
           style="font-style:normal;font-variant:normal;font-weight:800;font-stretch:normal;font-size:17.02745819px;font-family:'Fira Sans';-inkscape-font-specification:'Fira Sans Ultra-Bold';fill:#ffffff;stroke-width:0.35993361"
           id="path3548" />
        <path
           d="m 222.68418,31.634743 q 1.61761,0 2.48601,1.277059 0.8684,1.27706 0.8684,3.575767 0,1.396251 -0.44272,2.503036 -0.42568,1.089757 -1.243,1.719773 -0.81732,0.612989 -1.94113,0.612989 -0.74921,0 -1.3622,-0.306495 -0.59596,-0.289466 -1.00462,-0.834345 l -0.11919,0.834345 h -2.69034 V 28.365471 l 3.03089,-0.306494 v 4.767688 q 0.39163,-0.544879 1.03867,-0.8684 0.64705,-0.323522 1.37923,-0.323522 z m -1.1749,7.509109 q 0.66407,0 1.02165,-0.612988 0.3746,-0.612989 0.3746,-2.043295 0,-1.532472 -0.34055,-2.094378 -0.32352,-0.561906 -0.93651,-0.561906 -0.80029,0 -1.36219,0.953538 v 3.592793 q 0.45974,0.766236 1.243,0.766236 z"
           style="font-style:normal;font-variant:normal;font-weight:800;font-stretch:normal;font-size:17.02745819px;font-family:'Fira Sans';-inkscape-font-specification:'Fira Sans Ultra-Bold';fill:#ffffff;stroke-width:0.35993361"
           id="path3550" />
        <path
           d="m 232.62236,31.668798 q 0.44271,0 0.91948,0.153247 l -0.49379,2.928723 q -0.44272,-0.13622 -0.81732,-0.13622 -0.76624,0 -1.1749,0.527851 -0.39163,0.510824 -0.61299,1.566526 v 4.307947 h -3.03088 v -9.075635 h 2.63925 l 0.27244,1.719773 q 0.27244,-0.902455 0.90246,-1.447333 0.64704,-0.544879 1.39625,-0.544879 z"
           style="font-style:normal;font-variant:normal;font-weight:800;font-stretch:normal;font-size:17.02745819px;font-family:'Fira Sans';-inkscape-font-specification:'Fira Sans Ultra-Bold';fill:#ffffff;stroke-width:0.35993361"
           id="path3552" />
        <path
           d="m 237.32699,31.941237 v 9.075635 h -3.03089 v -9.075635 z m -1.51544,-4.88688 q 0.76623,0 1.243,0.476769 0.4938,0.476768 0.4938,1.191922 0,0.715153 -0.4938,1.191922 -0.47677,0.476768 -1.243,0.476768 -0.76624,0 -1.26003,-0.476768 -0.47677,-0.476769 -0.47677,-1.191922 0,-0.715154 0.47677,-1.191922 0.49379,-0.476769 1.26003,-0.476769 z"
           style="font-style:normal;font-variant:normal;font-weight:800;font-stretch:normal;font-size:17.02745819px;font-family:'Fira Sans';-inkscape-font-specification:'Fira Sans Ultra-Bold';fill:#ffffff;stroke-width:0.35993361"
           id="path3554" />
        <path
           d="m 241.67325,41.323367 q -1.27706,0 -1.97518,-0.715154 -0.69813,-0.715153 -0.69813,-2.060322 v -10.18242 l 3.03089,-0.306494 v 10.386749 q 0,0.493797 0.44271,0.493797 0.1873,0 0.39163,-0.06811 l 0.56191,2.145459 q -0.69813,0.306495 -1.75383,0.306495 z"
           style="font-style:normal;font-variant:normal;font-weight:800;font-stretch:normal;font-size:17.02745819px;font-family:'Fira Sans';-inkscape-font-specification:'Fira Sans Ultra-Bold';fill:#ffffff;stroke-width:0.35993361"
           id="path3556" />
      </g>
      <g
         aria-label="de"
         transform="scale(0.92378829,1.0824991)"
         style="font-style:normal;font-variant:normal;font-weight:normal;font-stretch:normal;font-size:71.20615387px;line-height:0.25;font-family:Montserrat;-inkscape-font-specification:Montserrat;font-variant-ligatures:normal;font-variant-caps:normal;font-variant-numeric:normal;text-align:start;letter-spacing:0px;word-spacing:0px;writing-mode:lr-tb;text-anchor:start;display:inline;fill:#fcfeff;fill-opacity:1;stroke:none;stroke-width:0.52604198"
         id="text2114">
        <path
           d="m 198.68044,33.43496 v 7.65916 h -0.8395 l -0.0933,-0.756588 q -0.26947,0.414569 -0.67367,0.652946 -0.40421,0.228013 -0.90169,0.228013 -0.97424,0 -1.52354,-0.766953 -0.53894,-0.766952 -0.53894,-2.06248 0,-0.839502 0.25911,-1.492448 0.2591,-0.652946 0.74622,-1.015694 0.48712,-0.373112 1.14007,-0.373112 0.8395,0 1.47171,0.673675 v -2.860526 z m -2.30085,7.026942 q 0.43529,0 0.74622,-0.19692 0.31093,-0.207284 0.60112,-0.611489 v -2.673969 q -0.26946,-0.352384 -0.58039,-0.528576 -0.30056,-0.186556 -0.68404,-0.186556 -0.63222,0 -0.9846,0.528576 -0.34202,0.528575 -0.34202,1.575362 0,1.05715 0.32129,1.575361 0.32129,0.518211 0.92242,0.518211 z"
           style="font-style:normal;font-variant:normal;font-weight:normal;font-stretch:normal;font-size:10.36422253px;font-family:'Fira Sans';-inkscape-font-specification:'Fira Sans';fill:#fcfeff;fill-opacity:1;stroke-width:0.28367743"
           id="path3559" />
        <path
           d="m 204.77104,38.202502 q 0,0.238377 -0.0207,0.487118 h -3.48238 q 0.0622,0.901688 0.45602,1.326621 0.39384,0.424933 1.0157,0.424933 0.39384,0 0.72549,-0.114006 0.33166,-0.114007 0.6944,-0.362748 l 0.41457,0.570032 q -0.87059,0.684039 -1.90701,0.684039 -1.14007,0 -1.78265,-0.746224 -0.63222,-0.746224 -0.63222,-2.052116 0,-0.849867 0.26947,-1.502813 0.27984,-0.66331 0.78768,-1.036422 0.51821,-0.373112 1.21262,-0.373112 1.08824,0 1.66864,0.715131 0.58039,0.715132 0.58039,1.979567 z m -0.94314,-0.279834 q 0,-0.808409 -0.32129,-1.233343 -0.32129,-0.424933 -0.96387,-0.424933 -1.17116,0 -1.2748,1.720461 h 2.55996 z"
           style="font-style:normal;font-variant:normal;font-weight:normal;font-stretch:normal;font-size:10.36422253px;font-family:'Fira Sans';-inkscape-font-specification:'Fira Sans';fill:#fcfeff;fill-opacity:1;stroke-width:0.28367743"
           id="path3561" />
      </g>
    </g>
  </g>
</svg>
