<?xml version="1.0" encoding="UTF-8" standalone="no"?>
<!-- Created with Inkscape (http://www.inkscape.org/) -->

<svg
   xmlns:dc="http://purl.org/dc/elements/1.1/"
   xmlns:cc="http://creativecommons.org/ns#"
   xmlns:rdf="http://www.w3.org/1999/02/22-rdf-syntax-ns#"
   xmlns:svg="http://www.w3.org/2000/svg"
   xmlns="http://www.w3.org/2000/svg"
   xmlns:sodipodi="http://sodipodi.sourceforge.net/DTD/sodipodi-0.dtd"
   xmlns:inkscape="http://www.inkscape.org/namespaces/inkscape"
   width="1920"
   height="1080"
   viewBox="0 0 507.99999 285.75001"
   version="1.1"
   id="svg1390"
   inkscape:version="0.92.3 (2405546, 2018-03-11)"
   sodipodi:docname="graphi2-curvas.svg"
   inkscape:export-filename="fondo-video.png"
   inkscape:export-xdpi="96"
   inkscape:export-ydpi="96">
  <defs
     id="defs1384" />
  <sodipodi:namedview
     id="base"
     pagecolor="#c0966c"
     bordercolor="#666666"
     borderopacity="1.0"
     inkscape:pageopacity="0"
     inkscape:pageshadow="2"
     inkscape:zoom="0.24748737"
     inkscape:cx="817.25516"
     inkscape:cy="572.27667"
     inkscape:document-units="mm"
     inkscape:current-layer="layer9"
     showgrid="false"
     units="px"
     inkscape:showpageshadow="false"
     borderlayer="true"
     inkscape:window-width="1600"
     inkscape:window-height="840"
     inkscape:window-x="0"
     inkscape:window-y="0"
     inkscape:window-maximized="1" />
  <metadata
     id="metadata1387">
    <rdf:RDF>
      <cc:Work
         rdf:about="">
        <dc:format>image/svg+xml</dc:format>
        <dc:type
           rdf:resource="http://purl.org/dc/dcmitype/StillImage" />
        <dc:title />
      </cc:Work>
    </rdf:RDF>
  </metadata>
  <g
     inkscape:groupmode="layer"
     id="layer9"
     inkscape:label="logo1"
     style="display:inline">
    <path
       style="color:#000000;display:inline;overflow:visible;visibility:visible;fill:#ffffff;fill-opacity:0.96496815;fill-rule:nonzero;stroke:none;stroke-width:1.22338915;marker:none;enable-background:accumulate"
       d="m 273.5454,13.992586 c -2.0441,0.07836 -3.97041,1.024569 -5.43348,2.954916 L 247.63825,53.41374 c -2.095,3.432126 -2.09453,6.731172 1.32837,9.817218 12.63996,9.553374 25.72572,15.704212 25.72572,15.704212 2.30649,0.971934 4.30064,0.172569 6.05873,-1.947189 l 10.64338,-16.870716 c 1.73687,-3.174575 0.58028,-5.321408 -1.9537,-6.978944 l -17.44086,-10.931752 -1.12434,1.701009 15.8599,13.80561 -10.14133,16.203236 -22.85487,-15.435347 21.41644,-34.677723 39.25258,28.013062 -23.33782,35.818165 A 61.497696,61.497619 78.260865 0 0 243.54291,77.467493 l -12.8919,-52.789342 c 0,0 -20.23336,-1.53685 -19.74474,7.34182 0.48953,8.878674 14.80043,2.747546 14.80043,2.747546 l 13.24833,43.778925 A 61.497696,61.497619 78.260865 0 0 210.46582,96.029437 L 168.83821,70.034943 c -4.16213,-3.054967 -12.00646,-1.686468 -14.55401,2.899767 l -27.63721,45.26285 c -2.34599,3.66914 -2.10418,7.8902 1.42552,10.56564 l 36.46624,20.47027 c 3.43222,2.09511 6.73114,2.09778 9.81711,-1.32508 9.55342,-12.63993 15.70442,-25.72888 15.70442,-25.72888 0.97117,-2.30659 0.17215,-4.29736 -1.94734,-6.05557 l -16.87066,-10.64339 c -3.17459,-1.73665 -5.32141,-0.58022 -6.97889,1.9537 l -10.93186,17.43773 1.70111,1.12427 13.80557,-15.85658 16.19996,10.14122 -15.43532,22.85493 -34.67453,-21.41642 28.01313,-39.255844 38.9156,25.359534 a 61.497696,61.497619 78.260865 0 0 -6.53511,42.45045 61.497696,61.497619 78.260865 0 0 0.32717,1.33163 l -59.84615,14.61888 c 0,0 -1.53682,20.23367 7.34186,19.74463 8.87867,-0.48897 2.74756,-14.80037 2.74756,-14.80037 l 50.89401,-15.40621 a 61.497696,61.497619 78.260865 0 0 14.26255,24.40694 l -29.88907,47.86781 c -3.05509,4.16213 -1.68643,12.00311 2.89974,14.55084 l 45.26273,27.64046 c 3.66921,2.3458 7.88704,2.10409 10.56259,-1.42561 L 260.3584,232.3363 c 2.095,-3.43222 2.0978,-6.73122 -1.32505,-9.81721 -12.63992,-9.55336 -25.72886,-15.70428 -25.72886,-15.70428 -2.30662,-0.97182 -4.29737,-0.17194 -6.05549,1.94726 l -10.64688,16.8707 c -1.73654,3.17466 -0.57717,5.31815 1.95705,6.97568 l 17.43768,10.93503 1.1242,-1.701 -15.85651,-13.80888 10.14124,-16.20002 22.85177,15.43536 -21.41318,34.67783 -39.25591,-28.01311 28.91388,-44.37188 a 61.497696,61.497619 78.260865 0 0 39.65756,9.32797 l 15.18921,62.18221 c 0,0 20.23326,1.53674 19.74452,-7.3419 -0.48949,-8.87866 -14.80032,-2.75074 -14.80032,-2.75074 l -15.96352,-52.73751 a 61.497696,61.497619 78.260865 0 0 1.71389,-0.26885 61.497696,61.497619 78.260865 0 0 24.6404,-11.27849 l 46.47448,29.02076 c 4.16202,3.05496 12.00655,1.68642 14.55409,-2.89982 l 27.64059,-45.26284 c 2.34566,-3.66915 2.10394,-7.89019 -1.42574,-10.56562 l -36.46616,-20.47031 c -3.43217,-2.09508 -6.7346,-2.09778 -9.82056,1.32516 -9.55327,12.63979 -15.70431,25.72883 -15.70431,25.72883 -0.97122,2.30659 -0.16948,4.29728 1.9505,6.05554 l 16.86747,10.64344 c 3.1746,1.73664 5.3215,0.58018 6.97898,-1.95375 l 10.93488,-17.43769 -1.70397,-1.12425 -13.80577,15.85652 -16.20003,-10.14122 15.43545,-22.85493 34.67769,21.4164 -28.01307,39.25263 -41.57568,-27.0896 a 61.497696,61.497619 78.260865 0 0 13.30335,-43.13419 l 55.41066,-13.53347 c 0,0 1.53685,-20.23362 -7.3419,-19.74458 -8.87871,0.489 -2.75081,14.80033 -2.75081,14.80033 l -45.85896,13.88018 a 61.497696,61.497619 78.260865 0 0 -0.50279,-3.21408 61.497696,61.497619 78.260865 0 0 -13.77648,-27.702048 l 24.8735,-39.83257 c 3.05499,-4.162124 1.6831,-12.003222 -2.90315,-14.550871 L 278.67357,15.522015 c -1.37596,-0.879714 -2.82741,-1.394764 -4.24746,-1.509868 -0.29648,-0.02561 -0.59049,-0.03071 -0.88157,-0.02046 z m -53.89423,35.581708 a 6.1273131,6.4526405 66.515202 0 0 -6.70036,4.88593 6.1273131,6.4526405 66.515202 0 0 4.63647,7.332192 6.1273131,6.4526405 66.515202 0 0 7.77918,-4.756385 6.1273131,6.4526405 66.515202 0 0 -4.63626,-7.332089 6.1273131,6.4526405 66.515202 0 0 -1.07914,-0.12954 z m 4.76929,14.482821 a 6.1273131,6.4526405 66.515202 0 0 -6.7003,4.889153 6.1273131,6.4526405 66.515202 0 0 4.63646,7.332142 6.1273131,6.4526405 66.515202 0 0 7.7792,-4.756331 6.1273131,6.4526405 66.515202 0 0 -4.63648,-7.332144 6.1273131,6.4526405 66.515202 0 0 -1.07906,-0.133136 z m -5.80286,33.650642 c 4.47611,0.493606 8.9534,0.98872 13.42975,1.483972 1.67535,3.814691 3.34992,7.628891 5.02532,11.443661 3.55972,-2.81902 9.38364,-2.8755 10.7601,2.14488 1.67518,2.36928 3.35334,4.73925 5.02834,7.10855 7.42732,-1.25733 14.85423,-2.51424 22.28157,-3.77139 3.74659,3.8843 7.49295,7.76723 11.23954,11.65105 3.73313,-0.17617 7.46418,-0.35688 11.19758,-0.53455 3.20965,11.75545 -3.68967,23.00709 -10.32265,32.15051 -4.42524,5.89169 -8.1558,12.20874 -11.07437,18.90864 -3.90259,1.86623 -0.73952,12.56244 -5.79,8.81925 -1.81246,-4.74637 -0.45211,-10.36937 -1.01124,-15.61034 -0.23965,-7.78917 1.86638,-16.68619 -3.89772,-23.09463 -3.65746,-4.72314 -11.76302,-6.14813 -11.65431,-13.38773 0.70623,-5.97717 0.68103,-13.55001 -5.20024,-17.06836 -5.27192,-4.37099 -13.22985,-1.49887 -18.14404,-6.39576 -4.08218,-4.45725 -9.92584,-7.83782 -11.86805,-13.847753 z m 120.54433,4.455023 a 6.4526405,6.1273125 74.163341 0 0 -4.57175,2.43976 6.4526405,6.1273125 74.163341 0 0 1.2508,9.02987 6.4526405,6.1273125 74.163341 0 0 8.60864,-1.05949 6.4526405,6.1273125 74.163341 0 0 -1.24737,-9.02993 6.4526405,6.1273125 74.163341 0 0 -4.04032,-1.38021 z m -14.2302,5.48856 a 6.4526405,6.1273125 74.163341 0 0 -4.56843,2.43968 6.4526405,6.1273125 74.163341 0 0 1.25074,9.02993 6.4526405,6.1273125 74.163341 0 0 8.60857,-1.0595 6.4526405,6.1273125 74.163341 0 0 -1.24723,-9.02993 6.4526405,6.1273125 74.163341 0 0 -4.04365,-1.38023 z m -143.51578,57.21513 a 6.4526405,6.1273125 57.815045 0 0 -5.5177,3.92688 6.4526405,6.1273125 57.815045 0 0 3.73895,8.31392 6.4526405,6.1273125 57.815045 0 0 7.96387,-3.44095 6.4526405,6.1273125 57.815045 0 0 -3.7389,-8.31384 6.4526405,6.1273125 57.815045 0 0 -2.44622,-0.48592 z m -12.10785,9.27292 a 6.4526405,6.1273125 57.815045 0 0 -5.51783,3.92689 6.4526405,6.1273125 57.815045 0 0 3.73895,8.31064 6.4526405,6.1273125 57.815045 0 0 7.96396,-3.44095 6.4526405,6.1273125 57.815045 0 0 -3.73889,-8.31055 6.4526405,6.1273125 57.815045 0 0 -2.44619,-0.48592 z m 115.06534,31.87839 a 6.1273131,6.4526405 66.515202 0 0 -6.70044,4.8859 6.1273131,6.4526405 66.515202 0 0 4.63653,7.33214 6.1273131,6.4526405 66.515202 0 0 7.77924,-4.75309 6.1273131,6.4526405 66.515202 0 0 -4.63636,-7.33534 6.1273131,6.4526405 66.515202 0 0 -1.0791,-0.12958 z m 4.7693,14.48281 a 6.1273131,6.4526405 66.515202 0 0 -6.70034,4.88914 6.1273131,6.4526405 66.515202 0 0 4.63641,7.33214 6.1273131,6.4526405 66.515202 0 0 7.776,-4.75632 6.1273131,6.4526405 66.515202 0 0 -4.63327,-7.33214 6.1273131,6.4526405 66.515202 0 0 -1.079,-0.1331 z"
       id="path2795"
       inkscape:connector-curvature="0" />
  </g>
</svg>
