<?xml version="1.0" encoding="UTF-8" standalone="no"?>
<!-- Created with Inkscape (http://www.inkscape.org/) -->

<svg
   xmlns:dc="http://purl.org/dc/elements/1.1/"
   xmlns:cc="http://creativecommons.org/ns#"
   xmlns:rdf="http://www.w3.org/1999/02/22-rdf-syntax-ns#"
   xmlns:svg="http://www.w3.org/2000/svg"
   xmlns="http://www.w3.org/2000/svg"
   xmlns:xlink="http://www.w3.org/1999/xlink"
   xmlns:sodipodi="http://sodipodi.sourceforge.net/DTD/sodipodi-0.dtd"
   xmlns:inkscape="http://www.inkscape.org/namespaces/inkscape"
   width="1920"
   height="1080"
   viewBox="0 0 507.99999 285.75001"
   version="1.1"
   id="svg8"
   inkscape:version="0.92.3 (2405546, 2018-03-11)"
   sodipodi:docname="placa.svg">
  <defs
     id="defs2">
    <linearGradient
       inkscape:collect="always"
       xlink:href="#linearGradient3317"
       id="linearGradient4673"
       gradientUnits="userSpaceOnUse"
       gradientTransform="matrix(0.70959056,0,0,0.70959056,65.331278,205.91585)"
       x1="199.01804"
       y1="47.293537"
       x2="190.75688"
       y2="62.386272" />
    <linearGradient
       id="linearGradient3317"
       inkscape:collect="always">
      <stop
         id="stop3313"
         offset="0"
         style="stop-color:#fe8e29;stop-opacity:1;" />
      <stop
         id="stop3315"
         offset="1"
         style="stop-color:#0066ff;stop-opacity:1" />
    </linearGradient>
    <linearGradient
       inkscape:collect="always"
       xlink:href="#linearGradient3317"
       id="linearGradient4316"
       gradientUnits="userSpaceOnUse"
       x1="361.02408"
       y1="514.41864"
       x2="320.49225"
       y2="554.41284"
       gradientTransform="matrix(13.624139,0,0,7.663578,-4438.1325,-3862.34)" />
    <linearGradient
       inkscape:collect="always"
       xlink:href="#linearGradient3317"
       id="linearGradient2675"
       x1="2652.2122"
       y1="433.27878"
       x2="2661.9861"
       y2="631.57422"
       gradientUnits="userSpaceOnUse"
       gradientTransform="matrix(0.26458333,0,0,0.26458333,-111.12501,11.249983)" />
  </defs>
  <sodipodi:namedview
     id="base"
     pagecolor="#ffffff"
     bordercolor="#666666"
     borderopacity="1.0"
     inkscape:pageopacity="0.0"
     inkscape:pageshadow="2"
     inkscape:zoom="0.35"
     inkscape:cx="1307.6692"
     inkscape:cy="666.45204"
     inkscape:document-units="mm"
     inkscape:current-layer="layer5"
     showgrid="false"
     units="px"
     inkscape:showpageshadow="false"
     borderlayer="true"
     inkscape:window-width="1600"
     inkscape:window-height="840"
     inkscape:window-x="0"
     inkscape:window-y="0"
     inkscape:window-maximized="1"
     inkscape:measure-start="0,0"
     inkscape:measure-end="0,0" />
  <metadata
     id="metadata5">
    <rdf:RDF>
      <cc:Work
         rdf:about="">
        <dc:format>image/svg+xml</dc:format>
        <dc:type
           rdf:resource="http://purl.org/dc/dcmitype/StillImage" />
        <dc:title></dc:title>
      </cc:Work>
    </rdf:RDF>
  </metadata>
  <g
     inkscape:label="fondo"
     inkscape:groupmode="layer"
     id="layer1"
     transform="translate(0,-11.249983)">
    <path
       style="color:#000000;display:inline;overflow:visible;visibility:visible;fill:#ffffff;fill-opacity:1;fill-rule:nonzero;stroke:url(#linearGradient2675);stroke-width:2.05528331;stroke-linecap:round;stroke-linejoin:round;stroke-miterlimit:4;stroke-dasharray:none;marker:none;enable-background:accumulate"
       d="m 591.03776,118.7969 c -0.53006,0.007 -1.03103,0.24467 -1.40922,0.74363 l -5.1444,9.16378 c -0.52649,0.86252 -0.52686,1.69203 0.33332,2.46755 3.17646,2.40081 6.46523,3.94653 6.46523,3.94653 0.57965,0.24423 1.08056,0.0432 1.52238,-0.48938 l 2.67478,-4.23953 c 0.43643,-0.7978 0.14536,-1.33682 -0.49143,-1.75338 l -4.38217,-2.74764 -0.28268,0.42737 3.98529,3.46955 -2.54868,4.07159 -5.74331,-3.87883 5.3821,-8.71472 9.86452,7.03988 -5.86529,9.001 a 15.454637,15.454622 78.260865 0 0 -11.94345,-2.55488 l -3.24011,-13.26586 c 0,0 -5.08482,-0.3864 -4.96197,1.84485 0.12284,2.23125 3.71914,0.69091 3.71914,0.69091 l 3.33005,11.0014 a 15.454637,15.454622 78.260865 0 0 -7.15979,4.39353 l -10.46136,-6.53293 c -1.04597,-0.76772 -3.01691,-0.42287 -3.65715,0.72967 l -6.94584,11.3745 c -0.58949,0.92206 -0.5284,1.98227 0.35864,2.65461 l 9.16379,5.14491 c 0.86252,0.52649 1.69204,0.52688 2.46756,-0.33331 2.4008,-3.17646 3.94653,-6.46576 3.94653,-6.46576 0.24421,-0.57966 0.0427,-1.08003 -0.48991,-1.52187 l -4.23902,-2.67529 c -0.7978,-0.43644 -1.33733,-0.14534 -1.75389,0.49145 l -2.74765,4.38268 0.42788,0.28215 3.46957,-3.98477 4.07106,2.54868 -3.87882,5.74332 -8.71471,-5.3821 7.03987,-9.86452 9.77977,6.37222 a 15.454637,15.454622 78.260865 0 0 -1.64177,10.66809 15.454637,15.454622 78.260865 0 0 0.0822,0.33486 l -15.03992,3.67368 c 0,0 -0.3864,5.08481 1.84486,4.96197 2.23123,-0.12285 0.69091,-3.71967 0.69091,-3.71967 l 12.7894,-3.87108 a 15.454637,15.454622 78.260865 0 0 3.58428,6.13296 l -7.51117,12.02924 c -0.76774,1.04596 -0.42339,3.0169 0.72914,3.65714 l 11.37451,6.94583 c 0.92208,0.58951 1.98226,0.52892 2.65462,-0.35812 l 5.1449,-9.16378 c 0.5265,-0.86252 0.52687,-1.69203 -0.33332,-2.46755 -3.17643,-2.40081 -6.46522,-3.94653 -6.46522,-3.94653 -0.57968,-0.24423 -1.08056,-0.0427 -1.52239,0.48989 l -2.67478,4.23902 c -0.43643,0.7978 -0.14534,1.33735 0.49144,1.7539 l 4.38216,2.74763 0.28268,-0.42788 -3.98529,-3.46955 2.54868,-4.07159 5.74331,3.87935 -5.3821,8.7142 -9.86451,-7.03988 7.26572,-11.15074 a 15.454637,15.454622 78.260865 0 0 9.9663,2.34456 l 3.81682,15.62643 c 0,0 5.08482,0.38589 4.96197,-1.84536 -0.12284,-2.23124 -3.71967,-0.69092 -3.71967,-0.69092 l -4.01164,-13.25397 a 15.454637,15.454622 78.260865 0 0 0.43151,-0.0672 15.454637,15.454622 78.260865 0 0 6.19186,-2.83393 l 11.6794,7.29309 c 1.04595,0.76772 3.01741,0.42339 3.65765,-0.72915 l 6.94531,-11.37502 c 0.58952,-0.92207 0.52893,-1.98227 -0.35811,-2.65462 l -9.16379,-5.1449 c -0.86252,-0.5265 -1.69204,-0.52688 -2.46753,0.33331 -2.40083,3.17645 -3.94653,6.46576 -3.94653,6.46576 -0.24423,0.57965 -0.0427,1.08003 0.48988,1.52187 l 4.23902,2.67528 c 0.7978,0.43645 1.33734,0.14536 1.7539,-0.49144 l 2.74764,-4.38216 -0.42788,-0.28267 -3.46956,3.98477 -4.07107,-2.54816 3.87882,-5.74332 8.71471,5.38158 -7.03987,9.86503 -10.44898,-6.80837 a 15.454637,15.454622 78.260865 0 0 3.34452,-10.83965 l 13.9242,-3.40082 c 0,0 0.38587,-5.08481 -1.84536,-4.96197 -2.23123,0.12285 -0.69041,3.71915 -0.69041,3.71915 l -11.52435,3.48867 a 15.454637,15.454622 78.260865 0 0 -0.1261,-0.80822 15.454637,15.454622 78.260865 0 0 -3.46284,-6.96081 l 6.25079,-10.01076 c 0.76771,-1.04596 0.42338,-3.0169 -0.72914,-3.65714 l -11.37452,-6.94583 c -0.40338,-0.25791 -0.83365,-0.39124 -1.2459,-0.38551 z m -13.5873,8.94261 a 1.5398204,1.6215767 66.515221 0 0 -1.6836,1.22835 1.5398204,1.6215767 66.515221 0 0 1.16528,1.84278 1.5398204,1.6215767 66.515221 0 0 1.95442,-1.19527 1.5398204,1.6215767 66.515221 0 0 -1.1653,-1.84279 1.5398204,1.6215767 66.515221 0 0 -0.2708,-0.0331 z m 1.19837,3.64009 a 1.5398204,1.6215767 66.515221 0 0 -1.68309,1.22835 1.5398204,1.6215767 66.515221 0 0 1.16478,1.84278 1.5398204,1.6215767 66.515221 0 0 1.95442,-1.19527 1.5398204,1.6215767 66.515221 0 0 -1.1648,-1.84279 1.5398204,1.6215767 66.515221 0 0 -0.27131,-0.0331 z m 28.83496,9.57564 a 1.6215767,1.5398202 74.163317 0 0 -1.14827,0.6134 1.6215767,1.5398202 74.163317 0 0 0.31369,2.26963 1.6215767,1.5398202 74.163317 0 0 2.16368,-0.26665 1.6215767,1.5398202 74.163317 0 0 -0.31369,-2.26911 1.6215767,1.5398202 74.163317 0 0 -1.01541,-0.34727 z m -3.5755,1.37976 a 1.6215767,1.5398202 74.163317 0 0 -1.14827,0.6134 1.6215767,1.5398202 74.163317 0 0 0.31369,2.26911 1.6215767,1.5398202 74.163317 0 0 2.16368,-0.26665 1.6215767,1.5398202 74.163317 0 0 -0.31366,-2.26911 1.6215767,1.5398202 74.163317 0 0 -1.01544,-0.34675 z m -36.06655,14.37845 a 1.6215767,1.5398203 57.815031 0 0 -1.387,0.98651 1.6215767,1.5398203 57.815031 0 0 0.94002,2.08927 1.6215767,1.5398203 57.815031 0 0 2.00141,-0.86454 1.6215767,1.5398203 57.815031 0 0 -0.93999,-2.08928 1.6215767,1.5398203 57.815031 0 0 -0.61444,-0.12196 z m -3.04271,2.33009 a 1.6215767,1.5398203 57.815031 0 0 -1.38699,0.98651 1.6215767,1.5398203 57.815031 0 0 0.94001,2.08927 1.6215767,1.5398203 57.815031 0 0 2.00141,-0.86454 1.6215767,1.5398203 57.815031 0 0 -0.93998,-2.08928 1.6215767,1.5398203 57.815031 0 0 -0.61445,-0.12196 z m 28.91658,8.0114 a 1.5398204,1.6215767 66.515221 0 0 -1.6836,1.22783 1.5398204,1.6215767 66.515221 0 0 1.16478,1.84278 1.5398204,1.6215767 66.515221 0 0 1.9544,-1.19527 1.5398204,1.6215767 66.515221 0 0 -1.16478,-1.84227 1.5398204,1.6215767 66.515221 0 0 -0.2708,-0.0331 z m 1.19838,3.64009 a 1.5398204,1.6215767 66.515221 0 0 -1.6836,1.22783 1.5398204,1.6215767 66.515221 0 0 1.16531,1.84278 1.5398204,1.6215767 66.515221 0 0 1.95439,-1.19527 1.5398204,1.6215767 66.515221 0 0 -1.1653,-1.84278 1.5398204,1.6215767 66.515221 0 0 -0.2708,-0.0326 z"
       id="path2545"
       inkscape:connector-curvature="0" />
    <rect
       y="11.249985"
       x="0"
       height="285.75"
       width="508"
       id="rect4298"
       style="display:inline;opacity:1;fill:url(#linearGradient4316);fill-opacity:1;stroke:none;stroke-width:0.14473794;stroke-miterlimit:4;stroke-dasharray:none;stroke-dashoffset:0;stroke-opacity:1;paint-order:fill markers stroke" />
    <g
       id="g3923"
       transform="matrix(1.7844245,0,0,1.7844245,223.51479,-282.06829)"
       style="stroke-width:0.56040472">
      <g
         style="display:inline;fill:#ffffff;fill-opacity:1;stroke-width:0.56040472"
         transform="matrix(0.15999423,-0.0332472,0.03324723,0.15999439,218.2263,150.48372)"
         id="g14780-80-6-1-8-9">
        <path
           inkscape:connector-curvature="0"
           id="path14782-3-8-0-6-3"
           d="m -190.88509,549.55846 52.06891,51.75565 30.52019,-28.21031 -25.50547,-24.15111 -17.03141,16.57766 11.89183,11.39756 14.43039,-10.95934 1.2388,1.24669 -12.28329,12.79749 c -1.84296,1.8475 -3.85708,2.44832 -6.23129,0.42626 l -12.36732,-11.93974 c -1.48001,-1.85516 -1.80691,-3.67653 -0.58243,-5.45242 0,0 7.48483,-9.96501 17.76225,-18.95535 3.20411,-2.34714 5.98904,-1.76686 8.51775,0.60274 l 27.17969,23.66823 c 2.50926,2.87645 1.97316,6.47897 -0.64957,9.16365 l -31.25806,33.34621 c -2.95385,3.42313 -9.81213,3.20417 -12.78844,-0.10338 l -54.50543,-52.12566 z"
           style="color:#000000;display:inline;overflow:visible;visibility:visible;fill:#ffffff;fill-opacity:1;fill-rule:nonzero;stroke:none;stroke-width:1.45215642;marker:none;enable-background:accumulate"
           sodipodi:nodetypes="cccccccccccccccccccc" />
        <path
           sodipodi:nodetypes="cccccccccccccccccccc"
           style="color:#000000;display:inline;overflow:visible;visibility:visible;fill:#ffffff;fill-opacity:1;fill-rule:nonzero;stroke:none;stroke-width:1.45215642;marker:none;enable-background:accumulate"
           d="m -219.23273,519.18943 -52.06891,-51.75566 -30.52019,28.21032 25.50547,24.15111 17.03141,-16.57766 -11.89183,-11.39757 -14.43039,10.95934 -1.2388,-1.24669 12.28329,-12.79748 c 1.84296,-1.8475 3.85708,-2.44833 6.23129,-0.42627 l 12.36732,11.93975 c 1.48001,1.85515 1.80691,3.67652 0.58243,5.45241 0,0 -7.48483,9.96501 -17.76225,18.95535 -3.20411,2.34714 -5.98904,1.76686 -8.51775,-0.60274 l -27.17969,-23.66823 c -2.50926,-2.87645 -1.97316,-6.47896 0.64957,-9.16364 l 31.25806,-33.34622 c 2.95385,-3.42313 9.81213,-3.20417 12.78844,0.10339 l 54.50543,52.12565 z"
           id="path14784-1-8-6-8-3"
           inkscape:connector-curvature="0" />
        <path
           sodipodi:nodetypes="cccccccccccccccccccc"
           style="color:#000000;display:inline;overflow:visible;visibility:visible;fill:#ffffff;fill-opacity:1;fill-rule:nonzero;stroke:none;stroke-width:1.45215642;marker:none;enable-background:accumulate"
           d="m -189.8744,520.20012 51.75566,-52.06891 -28.21032,-30.52019 -24.15111,25.50547 16.57766,17.03141 11.39757,-11.89183 -10.95934,-14.43039 1.24669,-1.2388 12.79748,12.28329 c 1.8475,1.84296 2.44833,3.85708 0.42627,6.23129 l -11.93975,12.36732 c -1.85515,1.48001 -3.67652,1.80691 -5.45241,0.58243 0,0 -9.96501,-7.48483 -18.95535,-17.76225 -2.34714,-3.20411 -1.76686,-5.98904 0.60274,-8.51775 l 23.66823,-27.17969 c 2.87645,-2.50926 6.47896,-1.97316 9.16364,0.64957 l 33.34622,31.25806 c 3.42313,2.95385 3.20417,9.81213 -0.10339,12.78844 l -52.12565,54.50543 z"
           id="path14786-4-4-3-8-8"
           inkscape:connector-curvature="0" />
        <path
           inkscape:connector-curvature="0"
           id="path14788-8-3-2-4-0"
           d="m -220.24343,548.54776 -51.75566,52.06891 28.21032,30.52019 24.15111,-25.50547 -16.57766,-17.03141 -11.39757,11.89183 10.95934,14.43039 -1.24669,1.2388 -12.79748,-12.28329 c -1.8475,-1.84296 -2.44833,-3.85708 -0.42627,-6.23129 l 11.93975,-12.36732 c 1.85515,-1.48001 3.67652,-1.80691 5.45241,-0.58243 0,0 9.96501,7.48483 18.95535,17.76225 2.34714,3.20411 1.76686,5.98904 -0.60274,8.51775 l -23.66823,27.17969 c -2.87645,2.50926 -6.47896,1.97316 -9.16364,-0.64957 l -33.34622,-31.25806 c -3.42313,-2.95385 -3.20417,-9.81213 0.10339,-12.78844 l 52.12565,-54.50543 z"
           style="color:#000000;display:inline;overflow:visible;visibility:visible;fill:#ffffff;fill-opacity:1;fill-rule:nonzero;stroke:none;stroke-width:1.45215642;marker:none;enable-background:accumulate"
           sodipodi:nodetypes="cccccccccccccccccccc" />
        <g
           style="fill:#ffffff;fill-opacity:1;stroke-width:0.56040472"
           transform="matrix(1.0923337,0.25861982,-0.25861982,1.0923337,160.90403,65.72318)"
           id="g14790-9-1-0-3-5">
          <path
             sodipodi:nodetypes="ccsccc"
             inkscape:connector-curvature="0"
             id="path14792-0-49-6-1-6"
             d="m -212.37363,517.74995 15.31813,45.99113 c 0,0 10.85389,-5.00739 11.41711,1.79622 0.56321,6.80362 -14.99811,6.05293 -14.99811,6.05293 l -14.63562,-53.47392 z"
             style="color:#000000;display:inline;overflow:visible;visibility:visible;fill:#ffffff;fill-opacity:1;fill-rule:nonzero;stroke:none;stroke-width:1.45215642;marker:none;enable-background:accumulate" />
          <path
             style="color:#000000;display:inline;overflow:visible;visibility:visible;fill:#ffffff;fill-opacity:1;fill-rule:nonzero;stroke:none;stroke-width:1.45215642;marker:none;enable-background:accumulate"
             d="m -229.74419,444.99793 -15.31813,-45.99112 c 0,0 -10.85389,5.00739 -11.41711,-1.79622 -0.56321,-6.80363 14.99811,-6.05293 14.99811,-6.05293 l 14.63562,53.47391 z"
             id="path14798-5-2-1-4-6"
             inkscape:connector-curvature="0"
             sodipodi:nodetypes="ccsccc" />
          <path
             style="color:#000000;display:inline;overflow:visible;visibility:visible;fill:#ffffff;fill-opacity:1;fill-rule:nonzero;stroke:none;stroke-width:1.45215642;marker:none;enable-background:accumulate"
             d="m -184.6829,472.68866 45.99112,-15.31813 c 0,0 -5.00739,-10.85389 1.79622,-11.41711 6.80363,-0.56321 6.05293,14.99811 6.05293,14.99811 l -53.47391,14.63562 z"
             id="path14804-1-06-5-9-4"
             inkscape:connector-curvature="0"
             sodipodi:nodetypes="ccsccc" />
          <path
             sodipodi:nodetypes="ccsccc"
             inkscape:connector-curvature="0"
             id="path14810-3-8-5-2-0"
             d="m -257.43493,490.05922 -45.99112,15.31813 c 0,0 5.00739,10.85389 -1.79622,11.41711 -6.80363,0.56321 -6.05293,-14.99811 -6.05293,-14.99811 l 53.47391,-14.63562 z"
             style="color:#000000;display:inline;overflow:visible;visibility:visible;fill:#ffffff;fill-opacity:1;fill-rule:nonzero;stroke:none;stroke-width:1.45215642;marker:none;enable-background:accumulate" />
          <g
             id="g4806-01-9-4-0-0"
             style="fill:#ffffff;fill-opacity:1;stroke-width:0.56040472">
            <ellipse
               style="color:#000000;display:inline;overflow:visible;visibility:visible;fill:#ffffff;fill-opacity:1;fill-rule:nonzero;stroke:none;stroke-width:1.45215642;marker:none;enable-background:accumulate"
               id="ellipse14802-9-2-7-6-4"
               transform="matrix(-0.2246676,0.97443546,-0.98436155,-0.17615998,0,0)"
               cx="453.28552"
               cy="150.15218"
               rx="4.7945943"
               ry="4.8666015" />
            <ellipse
               style="color:#000000;display:inline;overflow:visible;visibility:visible;fill:#ffffff;fill-opacity:1;fill-rule:nonzero;stroke:none;stroke-width:1.45215642;marker:none;enable-background:accumulate"
               id="ellipse14802-7-92-66-6-8-6"
               transform="matrix(-0.2246676,0.97443546,-0.98436155,-0.17615998,0,0)"
               cx="463.44199"
               cy="143.8042"
               rx="4.7945943"
               ry="4.8666015" />
          </g>
          <g
             transform="matrix(-0.67537407,-0.73747441,-0.73747626,0.67537407,-18.518546,-11.303099)"
             style="display:inline;fill:#ffffff;fill-opacity:1;stroke-width:0.56040472"
             id="g4806-8-0-4-5-9-2">
            <ellipse
               style="color:#000000;display:inline;overflow:visible;visibility:visible;fill:#ffffff;fill-opacity:1;fill-rule:nonzero;stroke:none;stroke-width:1.45215642;marker:none;enable-background:accumulate"
               id="ellipse14802-77-0-9-6-2-6"
               transform="matrix(-0.2246676,0.97443546,-0.98436155,-0.17615998,0,0)"
               cx="453.28552"
               cy="150.15218"
               rx="4.7945943"
               ry="4.8666015" />
            <ellipse
               style="color:#000000;display:inline;overflow:visible;visibility:visible;fill:#ffffff;fill-opacity:1;fill-rule:nonzero;stroke:none;stroke-width:1.45215642;marker:none;enable-background:accumulate"
               id="ellipse14802-7-3-7-5-9-6-7"
               transform="matrix(-0.2246676,0.97443546,-0.98436155,-0.17615998,0,0)"
               cx="463.44199"
               cy="143.8042"
               rx="4.7945943"
               ry="4.8666015" />
          </g>
          <g
             transform="translate(52.984806,118.69311)"
             style="display:inline;fill:#ffffff;fill-opacity:1;stroke-width:0.56040472"
             id="g4806-5-3-0-3-6-5">
            <ellipse
               style="color:#000000;display:inline;overflow:visible;visibility:visible;fill:#ffffff;fill-opacity:1;fill-rule:nonzero;stroke:none;stroke-width:1.45215642;marker:none;enable-background:accumulate"
               id="ellipse14802-3-9-4-7-4-6"
               transform="matrix(-0.2246676,0.97443546,-0.98436155,-0.17615998,0,0)"
               cx="453.28552"
               cy="150.15218"
               rx="4.7945943"
               ry="4.8666015" />
            <ellipse
               style="color:#000000;display:inline;overflow:visible;visibility:visible;fill:#ffffff;fill-opacity:1;fill-rule:nonzero;stroke:none;stroke-width:1.45215642;marker:none;enable-background:accumulate"
               id="ellipse14802-7-9-7-8-4-9-9"
               transform="matrix(-0.2246676,0.97443546,-0.98436155,-0.17615998,0,0)"
               cx="463.44199"
               cy="143.8042"
               rx="4.7945943"
               ry="4.8666015" />
          </g>
          <g
             transform="matrix(-0.85564885,-0.51755599,-0.51755762,0.85564885,-274.59951,20.15603)"
             style="display:inline;fill:#ffffff;fill-opacity:1;stroke-width:0.56040472"
             id="g4806-0-6-7-5-5-8">
            <ellipse
               style="color:#000000;display:inline;overflow:visible;visibility:visible;fill:#ffffff;fill-opacity:1;fill-rule:nonzero;stroke:none;stroke-width:1.45215642;marker:none;enable-background:accumulate"
               id="ellipse14802-8-4-1-25-0-7"
               transform="matrix(-0.2246676,0.97443546,-0.98436155,-0.17615998,0,0)"
               cx="453.28552"
               cy="150.15218"
               rx="4.7945943"
               ry="4.8666015" />
            <ellipse
               style="color:#000000;display:inline;overflow:visible;visibility:visible;fill:#ffffff;fill-opacity:1;fill-rule:nonzero;stroke:none;stroke-width:1.45215642;marker:none;enable-background:accumulate"
               id="ellipse14802-7-1-9-7-4-4-2"
               transform="matrix(-0.2246676,0.97443546,-0.98436155,-0.17615998,0,0)"
               cx="463.44199"
               cy="143.8042"
               rx="4.7945943"
               ry="4.8666015" />
          </g>
        </g>
      </g>
      <ellipse
         ry="8.6608524"
         rx="8.6608438"
         cy="278.39774"
         cx="149.89404"
         id="circle14816-3-27-7-8-8"
         style="color:#000000;display:inline;overflow:visible;visibility:visible;fill:#ffffff;fill-opacity:1;fill-rule:nonzero;stroke:none;stroke-width:0.37678382;stroke-opacity:1;marker:none;enable-background:accumulate"
         transform="rotate(-11.739135)" />
      <path
         inkscape:connector-curvature="0"
         id="path4756-3-2-4-7-2"
         d="m 198.20187,236.43714 c 0.6304,0.0695 1.26083,0.13936 1.89123,0.2091 0.23594,0.53724 0.47185,1.07453 0.70779,1.61177 0.50131,-0.397 1.32159,-0.40496 1.51542,0.30206 0.23591,0.33367 0.47182,0.66723 0.70773,1.0009 1.046,-0.17706 2.09197,-0.3541 3.13797,-0.53114 0.52764,0.54703 1.05526,1.09404 1.5829,1.64101 0.52575,-0.0248 1.0515,-0.0504 1.57725,-0.0754 0.45204,1.65555 -0.51976,3.2402 -1.45392,4.52789 -0.6232,0.82974 -1.14856,1.71941 -1.55959,2.66297 -0.5496,0.26283 -0.10394,1.76922 -0.8152,1.24206 -0.25527,-0.66845 -0.0639,-1.46042 -0.14252,-2.19851 -0.0336,-1.09697 0.26275,-2.35004 -0.54903,-3.25256 -0.51509,-0.66517 -1.65631,-0.86591 -1.64099,-1.88547 0.0995,-0.84178 0.0958,-1.9083 -0.73242,-2.4038 -0.74247,-0.61558 -1.86329,-0.21096 -2.55535,-0.9006 -0.57492,-0.62772 -1.39774,-1.10385 -1.67127,-1.95024 z"
         style="display:inline;fill:url(#linearGradient4673);fill-opacity:1;fill-rule:evenodd;stroke:none;stroke-width:0.16067092px;stroke-linecap:butt;stroke-linejoin:miter;stroke-opacity:1"
         inkscape:export-xdpi="90"
         inkscape:export-ydpi="90" />
    </g>
  </g>
  <g
     inkscape:groupmode="layer"
     id="layer3"
     inkscape:label="titulo">
    <path
       style="color:#000000;display:inline;overflow:visible;visibility:visible;fill:#ffffff;fill-opacity:0.94736843;fill-rule:nonzero;stroke:none;stroke-width:0.42344412;marker:none;enable-background:accumulate"
       d="m 257.31,123.87074 c -0.34618,0.0132 -0.67239,0.1735 -0.92016,0.50041 l -3.46721,6.17556 c -0.3548,0.58123 -0.35471,1.13993 0.22496,1.66254 2.14056,1.61787 4.35664,2.65952 4.35664,2.65952 0.39062,0.16459 0.72832,0.0292 1.02606,-0.32976 l 1.80246,-2.85705 c 0.29411,-0.53762 0.0983,-0.90119 -0.33086,-1.18189 l -2.95362,-1.8513 -0.1904,0.28807 2.68586,2.33798 -1.71741,2.74403 -3.8705,-2.61398 3.62687,-5.87268 6.64744,4.74401 -3.95225,6.06582 a 10.41464,10.41463 78.260865 0 0 -8.0488,-1.7218 l -2.18326,-8.93988 c 0,0 -3.42652,-0.26027 -3.34374,1.24333 0.0828,1.50361 2.50643,0.4653 2.50643,0.4653 l 2.24362,7.41396 a 10.41464,10.41463 78.260865 0 0 -4.82467,2.96075 l -7.04963,-4.40217 c -0.70486,-0.51736 -2.0333,-0.2856 -2.46474,0.49108 l -4.68037,7.66527 c -0.39725,0.62136 -0.35633,1.3362 0.24143,1.78929 l 6.17556,3.46664 c 0.58124,0.3548 1.13993,0.35526 1.66255,-0.22441 1.61786,-2.14056 2.65952,-4.35718 2.65952,-4.35718 0.16458,-0.39062 0.0291,-0.72776 -0.32977,-1.02551 l -2.85705,-1.80247 c -0.53762,-0.2941 -0.90118,-0.0983 -1.18189,0.33087 l -1.8513,2.95308 0.28807,0.19039 2.33799,-2.68531 2.74347,1.71741 -2.61398,3.8705 -5.87213,-3.62688 4.74401,-6.64798 6.59037,4.29463 a 10.41464,10.41463 78.260865 0 0 -1.10671,7.189 10.41464,10.41463 78.260865 0 0 0.0554,0.22551 l -10.13493,2.47572 c 0,0 -0.26026,3.42656 1.24334,3.34374 1.5036,-0.0828 0.46529,-2.50643 0.46529,-2.50643 l 8.6189,-2.60905 a 10.41464,10.41463 78.260865 0 0 2.41535,4.13332 l -5.06171,8.10641 c -0.51736,0.70486 -0.28559,2.03274 0.49108,2.46419 l 7.66527,4.68091 c 0.62136,0.39726 1.33566,0.35633 1.78874,-0.24142 l 3.4672,-6.17556 c 0.3548,-0.58125 0.35526,-1.13994 -0.22441,-1.66255 -2.14056,-1.61787 -4.35719,-2.65952 -4.35719,-2.65952 -0.39062,-0.16457 -0.72776,-0.0292 -1.02551,0.32977 l -1.80301,2.85705 c -0.29411,0.53763 -0.0977,0.90063 0.33141,1.18134 l 2.95308,1.85185 0.1904,-0.28807 -2.68531,-2.33854 1.71741,-2.74348 3.86994,2.61399 -3.62632,5.87268 -6.64798,-4.74401 4.89655,-7.51438 a 10.41464,10.41463 78.260865 0 0 6.71602,1.5797 l 2.57228,10.53054 c 0,0 3.42652,0.26026 3.34375,-1.24334 -0.0828,-1.5036 -2.50644,-0.46584 -2.50644,-0.46584 l -2.70342,-8.9311 a 10.41464,10.41463 78.260865 0 0 0.29026,-0.0455 10.41464,10.41463 78.260865 0 0 4.17283,-1.91001 l 7.87047,4.91465 c 0.70485,0.51736 2.03329,0.2856 2.46474,-0.49108 l 4.68091,-7.66526 c 0.39726,-0.62137 0.35634,-1.33621 -0.24142,-1.7893 l -6.17556,-3.46664 c -0.58124,-0.35481 -1.14049,-0.35526 -1.6631,0.22441 -1.61786,2.14055 -2.65952,4.35719 -2.65952,4.35719 -0.16458,0.39061 -0.0286,0.72774 0.33031,1.0255 l 2.85651,1.80246 c 0.53762,0.29411 0.90118,0.0983 1.18189,-0.33086 l 1.85184,-2.95307 -0.28861,-0.1904 -2.33799,2.68531 -2.74347,-1.71741 2.61398,-3.87049 5.87268,3.62686 -4.74402,6.64744 -7.04085,-4.58763 a 10.41464,10.41463 78.260865 0 0 2.25294,-7.30478 l 9.38378,-2.29189 c 0,0 0.26026,-3.42657 -1.24334,-3.34375 -1.5036,0.0828 -0.46585,2.50644 -0.46585,2.50644 l -7.76622,2.35061 a 10.41464,10.41463 78.260865 0 0 -0.085,-0.54431 10.41464,10.41463 78.260865 0 0 -2.33305,-4.69134 l 4.21232,-6.74564 c 0.51736,-0.70487 0.28505,-2.03276 -0.49163,-2.46419 l -7.66526,-4.68092 c -0.23301,-0.14897 -0.47882,-0.2362 -0.71934,-0.25569 -0.0501,-0.004 -0.0998,-0.005 -0.14924,-0.003 z m -9.12699,6.02576 a 1.0376609,1.0927553 66.515202 0 0 -1.13471,0.82743 1.0376609,1.0927553 66.515202 0 0 0.78519,1.2417 1.0376609,1.0927553 66.515202 0 0 1.31741,-0.80548 1.0376609,1.0927553 66.515202 0 0 -0.78518,-1.2417 1.0376609,1.0927553 66.515202 0 0 -0.18271,-0.0219 z m 0.80767,2.45267 a 1.0376609,1.0927553 66.515202 0 0 -1.1347,0.82798 1.0376609,1.0927553 66.515202 0 0 0.78519,1.24169 1.0376609,1.0927553 66.515202 0 0 1.31741,-0.80548 1.0376609,1.0927553 66.515202 0 0 -0.78518,-1.24169 1.0376609,1.0927553 66.515202 0 0 -0.18272,-0.0225 z m -0.98271,5.69874 c 0.75806,0.0836 1.51629,0.16744 2.27434,0.25131 0.28372,0.64602 0.56731,1.29195 0.85103,1.93798 0.60282,-0.47739 1.58913,-0.48696 1.82221,0.36324 0.28368,0.40124 0.56789,0.80259 0.85158,1.20383 1.25781,-0.21292 2.51556,-0.42579 3.77337,-0.63868 0.63449,0.65781 1.26894,1.31537 1.90342,1.97311 0.63221,-0.0298 1.26408,-0.0605 1.89629,-0.0905 0.54358,1.99079 -0.62482,3.89626 -1.74814,5.4447 -0.7494,0.99777 -1.38118,2.06756 -1.87544,3.20218 -0.66089,0.31606 -0.12523,2.12745 -0.98051,1.49355 -0.30697,-0.80381 -0.0767,-1.75606 -0.1712,-2.64361 -0.0404,-1.31911 0.31608,-2.82581 -0.66008,-3.9111 -0.6194,-0.79986 -1.99208,-1.04118 -1.97366,-2.2672 0.11965,-1.01224 0.11528,-2.29469 -0.88065,-2.89053 -0.89282,-0.74023 -2.24049,-0.25383 -3.07269,-1.08312 -0.69134,-0.75483 -1.68095,-1.32734 -2.00987,-2.34512 z m 20.41419,0.75445 a 1.0927553,1.0376609 74.163341 0 0 -0.77421,0.41317 1.0927553,1.0376609 74.163341 0 0 0.2118,1.52922 1.0927553,1.0376609 74.163341 0 0 1.45788,-0.17942 1.0927553,1.0376609 74.163341 0 0 -0.21125,-1.52922 1.0927553,1.0376609 74.163341 0 0 -0.68422,-0.23375 z m -2.40987,0.92949 a 1.0927553,1.0376609 74.163341 0 0 -0.77366,0.41317 1.0927553,1.0376609 74.163341 0 0 0.2118,1.52921 1.0927553,1.0376609 74.163341 0 0 1.45788,-0.17942 1.0927553,1.0376609 74.163341 0 0 -0.21125,-1.52921 1.0927553,1.0376609 74.163341 0 0 -0.68477,-0.23375 z m -24.30443,9.6894 a 1.0927553,1.0376609 57.815045 0 0 -0.93443,0.66502 1.0927553,1.0376609 57.815045 0 0 0.6332,1.40795 1.0927553,1.0376609 57.815045 0 0 1.34869,-0.58271 1.0927553,1.0376609 57.815045 0 0 -0.6332,-1.40796 1.0927553,1.0376609 57.815045 0 0 -0.41426,-0.0823 z m -2.05047,1.57037 a 1.0927553,1.0376609 57.815045 0 0 -0.93443,0.66501 1.0927553,1.0376609 57.815045 0 0 0.63319,1.40741 1.0927553,1.0376609 57.815045 0 0 1.3487,-0.58272 1.0927553,1.0376609 57.815045 0 0 -0.6332,-1.4074 1.0927553,1.0376609 57.815045 0 0 -0.41426,-0.0823 z m 19.48634,5.3986 a 1.0376609,1.0927553 66.515202 0 0 -1.1347,0.82743 1.0376609,1.0927553 66.515202 0 0 0.78518,1.2417 1.0376609,1.0927553 66.515202 0 0 1.31742,-0.80494 1.0376609,1.0927553 66.515202 0 0 -0.78518,-1.24224 1.0376609,1.0927553 66.515202 0 0 -0.18272,-0.0219 z m 0.80768,2.45266 a 1.0376609,1.0927553 66.515202 0 0 -1.1347,0.82799 1.0376609,1.0927553 66.515202 0 0 0.78518,1.24169 1.0376609,1.0927553 66.515202 0 0 1.31687,-0.80548 1.0376609,1.0927553 66.515202 0 0 -0.78464,-1.2417 1.0376609,1.0927553 66.515202 0 0 -0.18271,-0.0225 z"
       id="path3927"
       inkscape:connector-curvature="0" />
    <g
       id="g2543"
       transform="translate(-5.7383686,13.091684)">
      <flowRoot
         transform="matrix(2.5274576,0,0,2.9616857,4887.8564,-2288.3527)"
         style="font-style:normal;font-variant:normal;font-weight:normal;font-stretch:normal;font-size:53.33333206px;line-height:0.25;font-family:Montserrat;-inkscape-font-specification:Montserrat;font-variant-ligatures:normal;font-variant-caps:normal;font-variant-numeric:normal;text-align:start;letter-spacing:0px;word-spacing:0px;writing-mode:lr-tb;text-anchor:start;display:inline;fill:#ffffff;fill-opacity:1;stroke:none;stroke-width:0.3403767"
         id="flowRoot3278-1-2-7"
         xml:space="preserve"><flowRegion
           style="fill:#ffffff;stroke-width:0.3403767"
           id="flowRegion3280-7-2-6"><rect
             style="fill:#ffffff;stroke-width:0.3403767"
             y="784.33594"
             x="-1895.1682"
             height="334.83539"
             width="572.56848"
             id="rect3282-2-6-1" /></flowRegion><flowPara
           id="flowPara4062"
           style="font-style:normal;font-variant:normal;font-weight:600;font-stretch:normal;font-size:7.57634783px;font-family:'Fira Sans';-inkscape-font-specification:'Fira Sans Semi-Bold';fill:#ffffff;stroke-width:0.3403767">15 años compartiendo Software Libre</flowPara></flowRoot>      <g
         style="stroke-width:0.30959439"
         transform="matrix(3.2300328,0,0,3.2300328,-137.22149,-699.93835)"
         id="g3897">
        <flowRoot
           xml:space="preserve"
           id="flowRoot3278-1-9"
           style="font-style:normal;font-variant:normal;font-weight:normal;font-stretch:normal;font-size:53.33333206px;line-height:0.25;font-family:Montserrat;-inkscape-font-specification:Montserrat;font-variant-ligatures:normal;font-variant-caps:normal;font-variant-numeric:normal;text-align:start;letter-spacing:0px;word-spacing:0px;writing-mode:lr-tb;text-anchor:start;display:inline;fill:#ffffff;fill-opacity:1;stroke:none;stroke-width:0.30959439"
           transform="matrix(0.35828825,0,0,0.41984374,751.24657,-99.369865)"><flowRegion
             id="flowRegion3280-7-9"
             style="fill:#ffffff;stroke-width:0.30959439"><rect
               id="rect3282-2-60"
               width="572.56848"
               height="334.83539"
               x="-1895.1682"
               y="784.33594"
               style="fill:#ffffff;stroke-width:0.30959439" /></flowRegion><flowPara
             id="flowPara3284-7-2"
             style="font-style:normal;font-variant:normal;font-weight:800;font-stretch:normal;font-size:34.5640564px;font-family:'Fira Sans';-inkscape-font-specification:'Fira Sans Ultra-Bold';fill:#ffffff;stroke-width:0.30959439">FLISOL</flowPara></flowRoot>        <flowRoot
           xml:space="preserve"
           id="flowRoot3278-1-2-7-9"
           style="font-style:normal;font-variant:normal;font-weight:normal;font-stretch:normal;font-size:53.33333206px;line-height:0.25;font-family:Montserrat;-inkscape-font-specification:Montserrat;font-variant-ligatures:normal;font-variant-caps:normal;font-variant-numeric:normal;text-align:start;letter-spacing:0px;word-spacing:0px;writing-mode:lr-tb;text-anchor:start;display:inline;fill:#ffffff;fill-opacity:1;stroke:none;stroke-width:0.16695422"
           transform="matrix(1.5952892,0,0,1.8693668,3134.979,-1266.0306)"><flowRegion
             id="flowRegion3280-7-2-6-6"
             style="fill:#ffffff;fill-opacity:1;stroke-width:0.090033"><rect
               id="rect3282-2-6-1-1"
               width="572.56848"
               height="334.83539"
               x="-1895.1682"
               y="784.33594"
               style="fill:#ffffff;fill-opacity:1;stroke-width:0.16695422" /></flowRegion><flowPara
             style="font-style:normal;font-variant:normal;font-weight:300;font-stretch:normal;font-size:7.7627902px;font-family:'Fira Sans';-inkscape-font-specification:'Fira Sans Light';fill:#ffffff;fill-opacity:1;stroke-width:0.090033"
             id="flowPara4034-0">ARGENTINA</flowPara><flowPara
             style="font-style:normal;font-variant:normal;font-weight:500;font-stretch:normal;font-size:7.57634783px;font-family:'Fira Sans';-inkscape-font-specification:'Fira Sans Medium';fill:#ffffff;fill-opacity:1;stroke-width:0.090033"
             id="flowPara4062-4" /></flowRoot>      </g>
    </g>
  </g>
  <g
     inkscape:groupmode="layer"
     id="layer4"
     inkscape:label="recuerdo"
     style="display:none">
    <text
       xml:space="preserve"
       style="font-style:normal;font-variant:normal;font-weight:normal;font-stretch:normal;font-size:32.39080811px;line-height:0.25;font-family:Montserrat;-inkscape-font-specification:Montserrat;font-variant-ligatures:normal;font-variant-caps:normal;font-variant-numeric:normal;text-align:start;letter-spacing:0px;word-spacing:0px;writing-mode:lr-tb;text-anchor:start;display:inline;fill:#ffffff;fill-opacity:1;stroke:none;stroke-width:0.26458329"
       x="124.32295"
       y="232.78885"
       id="text4158-2"
       inkscape:export-xdpi="90"
       inkscape:export-ydpi="90"><tspan
         sodipodi:role="line"
         id="tspan4156-2"
         x="124.32295"
         y="232.78885"
         style="font-style:normal;font-variant:normal;font-weight:300;font-stretch:normal;font-size:19.43448448px;font-family:'Fira Sans';-inkscape-font-specification:'Fira Sans Light';fill:#ffffff;stroke-width:0.26458329">#flisol15aniversario #flisol2019</tspan><tspan
         sodipodi:role="line"
         x="124.32295"
         y="242.25557"
         style="fill:#ffffff;stroke-width:0.26458329"
         id="tspan4160-2" /></text>
    <text
       inkscape:export-ydpi="90"
       inkscape:export-xdpi="90"
       id="text3884"
       y="205.942"
       x="90.712502"
       style="font-style:normal;font-variant:normal;font-weight:normal;font-stretch:normal;font-size:33.21066284px;line-height:0.25;font-family:Montserrat;-inkscape-font-specification:Montserrat;font-variant-ligatures:normal;font-variant-caps:normal;font-variant-numeric:normal;text-align:start;letter-spacing:0px;word-spacing:0px;writing-mode:lr-tb;text-anchor:start;display:inline;fill:#ffffff;fill-opacity:1;stroke:none;stroke-width:0.26458329"
       xml:space="preserve"><tspan
         style="font-style:normal;font-variant:normal;font-weight:500;font-stretch:normal;font-family:'Fira Sans';-inkscape-font-specification:'Fira Sans Medium';fill:#ffffff;stroke-width:0.26458329"
         y="205.942"
         x="90.712502"
         id="tspan3880"
         sodipodi:role="line"><tspan
           style="font-style:normal;font-variant:normal;font-weight:800;font-stretch:normal;font-family:'Fira Sans';-inkscape-font-specification:'Fira Sans Ultra-Bold';stroke-width:0.26458329"
           id="tspan3925">Recuerdos del FLISOL</tspan></tspan><tspan
         id="tspan3882"
         style="fill:#ffffff;stroke-width:0.26458329"
         y="214.24466"
         x="90.712502"
         sodipodi:role="line" /></text>
  </g>
  <g
     inkscape:groupmode="layer"
     id="layer5"
     inkscape:label="porque flisol">
    <text
       xml:space="preserve"
       style="font-style:normal;font-variant:normal;font-weight:normal;font-stretch:normal;font-size:32.39080811px;line-height:0.25;font-family:Montserrat;-inkscape-font-specification:Montserrat;font-variant-ligatures:normal;font-variant-caps:normal;font-variant-numeric:normal;text-align:start;letter-spacing:0px;word-spacing:0px;writing-mode:lr-tb;text-anchor:start;display:inline;fill:#ffffff;fill-opacity:1;stroke:none;stroke-width:0.26458329"
       x="124.32295"
       y="232.78885"
       id="text4158-2-3"
       inkscape:export-xdpi="90"
       inkscape:export-ydpi="90"><tspan
         sodipodi:role="line"
         id="tspan4156-2-6"
         x="124.32295"
         y="232.78885"
         style="font-style:normal;font-variant:normal;font-weight:300;font-stretch:normal;font-size:19.43448448px;font-family:'Fira Sans';-inkscape-font-specification:'Fira Sans Light';fill:#ffffff;stroke-width:0.26458329">#flisol15aniversario #flisol2019</tspan><tspan
         sodipodi:role="line"
         x="124.32295"
         y="242.25557"
         style="fill:#ffffff;stroke-width:0.26458329"
         id="tspan4160-2-7" /></text>
    <text
       inkscape:export-ydpi="90"
       inkscape:export-xdpi="90"
       id="text3884-5"
       y="205.942"
       x="61.292015"
       style="font-style:normal;font-variant:normal;font-weight:normal;font-stretch:normal;font-size:33.21066284px;line-height:0.25;font-family:Montserrat;-inkscape-font-specification:Montserrat;font-variant-ligatures:normal;font-variant-caps:normal;font-variant-numeric:normal;text-align:start;letter-spacing:0px;word-spacing:0px;writing-mode:lr-tb;text-anchor:start;display:inline;fill:#ffffff;fill-opacity:1;stroke:none;stroke-width:0.26458329"
       xml:space="preserve"><tspan
         style="font-style:normal;font-variant:normal;font-weight:500;font-stretch:normal;font-family:'Fira Sans';-inkscape-font-specification:'Fira Sans Medium';fill:#ffffff;stroke-width:0.26458329"
         y="205.942"
         x="61.292015"
         id="tspan3880-3"
         sodipodi:role="line"><tspan
           style="font-style:normal;font-variant:normal;font-weight:800;font-stretch:normal;font-family:'Fira Sans';-inkscape-font-specification:'Fira Sans Ultra-Bold';stroke-width:0.26458329"
           id="tspan3925-5">¿Que te gusta del FLISOL?</tspan></tspan><tspan
         id="tspan3882-6"
         style="fill:#ffffff;stroke-width:0.26458329"
         y="214.24466"
         x="61.292015"
         sodipodi:role="line" /></text>
  </g>
</svg>
