<?xml version="1.0" encoding="UTF-8" standalone="no"?>
<!-- Created with Inkscape (http://www.inkscape.org/) -->

<svg
   xmlns:dc="http://purl.org/dc/elements/1.1/"
   xmlns:cc="http://creativecommons.org/ns#"
   xmlns:rdf="http://www.w3.org/1999/02/22-rdf-syntax-ns#"
   xmlns:svg="http://www.w3.org/2000/svg"
   xmlns="http://www.w3.org/2000/svg"
   xmlns:sodipodi="http://sodipodi.sourceforge.net/DTD/sodipodi-0.dtd"
   xmlns:inkscape="http://www.inkscape.org/namespaces/inkscape"
   width="227.97565"
   height="57.567905"
   id="svg3033"
   version="1.1"
   inkscape:version="0.48.5 r10040"
   sodipodi:docname="Nouveau document 1">
  <defs
     id="defs3035" />
  <sodipodi:namedview
     id="base"
     pagecolor="#ffffff"
     bordercolor="#666666"
     borderopacity="1.0"
     inkscape:pageopacity="0.0"
     inkscape:pageshadow="2"
     inkscape:zoom="1.4142136"
     inkscape:cx="87.665122"
     inkscape:cy="63.268081"
     inkscape:document-units="px"
     inkscape:current-layer="layer1"
     showgrid="false"
     fit-margin-top="0"
     fit-margin-left="0"
     fit-margin-right="0"
     fit-margin-bottom="0"
     inkscape:window-width="767"
     inkscape:window-height="617"
     inkscape:window-x="340"
     inkscape:window-y="137"
     inkscape:window-maximized="0" />
  <metadata
     id="metadata3038">
    <rdf:RDF>
      <cc:Work
         rdf:about="">
        <dc:format>image/svg+xml</dc:format>
        <dc:type
           rdf:resource="http://purl.org/dc/dcmitype/StillImage" />
        <dc:title></dc:title>
      </cc:Work>
    </rdf:RDF>
  </metadata>
  <g
     inkscape:label="Calque 1"
     inkscape:groupmode="layer"
     id="layer1"
     transform="translate(-428.86932,-620.72108)">
    <g
       id="g3387"
       transform="matrix(0.99379665,0,0,0.99379665,283.35578,-305.01465)">
      <path
         inkscape:transform-center-y="6.9861335"
         inkscape:transform-center-x="-3.3792892"
         id="path3026-3-0"
         style="fill:#ffffff;fill-opacity:1;fill-rule:nonzero;stroke:none"
         d="m 178.09349,963.54558 c 0.48091,-3.8479 2.57179,-7.1975 5.53156,-9.5339 2.90677,-2.2954 6.69333,-3.64698 10.71893,-3.54444 4.01962,0.10255 7.60638,1.64194 10.18106,4.07694 2.62569,2.479 4.23846,5.923 4.18378,9.7778 -0.0646,3.9687 -1.88115,7.6069 -4.81328,10.265 -2.98738,2.7037 -7.08067,4.3458 -11.53024,4.2324 -4.4516,-0.1132 -8.30952,-1.9584 -10.9096,-4.8043 -2.54936,-2.7977 -3.85051,-6.5155 -3.36221,-10.4695"
         inkscape:connector-curvature="0" />
      <path
         id="path3026-3"
         style="fill:#0d528a;fill-opacity:1;fill-rule:nonzero;stroke:none"
         d="m 184.07651,964.06178 c 0.1325,-2.3625 1.29125,-4.445 3.03625,-5.9212 1.71375,-1.4501 4.0175,-2.3363 6.53375,-2.3363 2.5125,0 4.8175,0.8862 6.53,2.3363 1.74625,1.4762 2.9025,3.5587 3.03625,5.9187 0.1325,2.43 -0.8425,4.685 -2.55625,6.3575 -1.74625,1.7012 -4.22875,2.77 -7.01,2.77 -2.7825,0 -5.27,-1.0688 -7.01625,-2.77 -1.7125,-1.6725 -2.68625,-3.9275 -2.55375,-6.355"
         inkscape:connector-curvature="0" />
      <path
         id="path3028-11"
         style="fill:#f5792a;fill-opacity:1;fill-rule:nonzero;stroke:none"
         d="m 168.83901,968.83808 c 0.0163,0.9262 0.31125,2.7224 0.75375,4.1262 0.93,2.9713 2.5075,5.72 4.70375,8.1437 2.2525,2.4888 5.02625,4.49 8.23,5.9088 3.36625,1.4925 7.015,2.2513 10.805,2.245 3.785,-0.01 7.4325,-0.78 10.8,-2.2825 3.20375,-1.4325 5.975,-3.4425 8.225,-5.9338 2.1925,-2.4312 3.76875,-5.1849 4.7,-8.1562 0.47,-1.5025 0.765,-3.025 0.88375,-4.555 0.1175,-1.5062 0.0675,-3.0138 -0.14625,-4.5212 -0.4175,-2.9388 -1.43375,-5.6938 -2.9975,-8.2063 -1.4325,-2.3088 -3.2775,-4.33125 -5.47125,-6.0325 l 0.006,-0.002 -22.14,-17 c -0.0188,-0.015 -0.035,-0.0312 -0.0563,-0.0438 -1.45375,-1.11625 -3.89625,-1.11125 -5.4925,0.006 -1.61625,1.12875 -1.8,2.9975 -0.36375,4.1775 l -0.005,0.005 9.2325,7.50875 -28.14375,0.0312 c -0.0137,0 -0.0263,0 -0.0375,0 -2.32625,10e-4 -4.5625,1.5275 -5.00375,3.4575 -0.45625,1.965 1.12375,3.595 3.5425,3.6025 l -0.002,0.009 14.26375,-0.0275 -25.455,19.53875 c -0.0312,0.025 -0.0675,0.049 -0.0975,0.074 -2.40125,1.8375 -3.17625,4.8963 -1.66375,6.8301 1.53375,1.9687 4.79875,1.9725 7.225,0.011 l 13.8925,-11.3688 c 0,0 -0.20375,1.5338 -0.1875,2.4551 z m 35.7,5.1412 c -2.86375,2.9163 -6.87,4.57 -11.2075,4.5788 -4.3425,0.01 -8.34875,-1.6325 -11.2125,-4.5438 -1.39875,-1.4188 -2.42625,-3.05 -3.06,-4.79 -0.62,-1.7075 -0.8625,-3.5212 -0.7025,-5.3513 0.1525,-1.7899 0.68375,-3.495 1.535,-5.0399 0.835,-1.5163 1.98375,-2.8888 3.405,-4.0488 2.78125,-2.2675 6.32375,-3.49375 10.03,-3.49875 3.70875,-0.006 7.24875,1.21125 10.0325,3.47005 1.4175,1.1549 2.5675,2.5212 3.4025,4.0374 0.85375,1.5425 1.3825,3.2413 1.54,5.0363 0.15625,1.8275 -0.085,3.6387 -0.705,5.3488 -0.635,1.7437 -1.65875,3.375 -3.0575,4.8012"
         inkscape:connector-curvature="0" />
      <path
         id="path3030-5"
         style="fill:#0d528a;fill-opacity:1;fill-rule:nonzero;stroke:none"
         d="m 335.74901,964.02428 c 0.21375,-2.385 2.05625,-3.8975 4.8725,-3.8975 2.82,0 4.66375,1.5125 4.8775,3.8975 l -9.75,0 z m 9.46,5.8887 c -0.72125,1.7675 -2.42,2.8138 -4.73,2.8138 -2.89,0 -4.83625,-1.805 -4.91625,-4.6575 l 16.62125,0 c 0,-0.295 0,-0.5425 0,-0.8387 0,-7.1425 -4.19125,-11.1551 -11.705,-11.1551 -7.295,0 -11.705,4.0513 -11.705,10.4051 0,6.3924 4.48,10.4362 11.705,10.4362 4.3375,0 7.69875,-1.485 9.77125,-4.0987 l -5.04125,-2.9051"
         inkscape:connector-curvature="0" />
      <path
         id="path3032-0"
         style="fill:#0d528a;fill-opacity:1;fill-rule:nonzero;stroke:none"
         d="m 262.00026,964.03548 c 0.21875,-2.3862 2.0625,-3.8987 4.88125,-3.8987 2.815,0 4.65875,1.5125 4.87375,3.8987 l -9.755,0 z m 9.46625,5.8888 c -0.72125,1.7725 -2.42125,2.8175 -4.73375,2.8175 -2.8875,0 -4.83875,-1.81 -4.915,-4.6613 l 16.6175,0 c 0,-0.2925 0,-0.54 0,-0.8349 0,-7.1463 -4.19,-11.1613 -11.7025,-11.1613 -7.3,0 -11.7025,4.0525 -11.7025,10.4063 0,6.3937 4.47875,10.4375 11.7025,10.4375 4.335,0 7.69875,-1.48 9.775,-4.0963 l -5.04125,-2.9075"
         inkscape:connector-curvature="0" />
      <path
         id="path3034-8"
         style="fill:#0d528a;fill-opacity:1;fill-rule:nonzero;stroke:none"
         d="m 247.54901,951.75678 5.99375,0 0,24.5213 -5.99375,0 0,-24.5213 z"
         inkscape:connector-curvature="0" />
      <path
         id="path3036-4"
         style="fill:#0d528a;fill-opacity:1;fill-rule:nonzero;stroke:none"
         d="m 279.92651,958.27058 6.02875,0 0,1.4599 c 2.13375,-2.2762 4.69625,-3.4274 7.585,-3.4274 3.32875,0 5.85,1.1512 7.15125,3.1099 1.085,1.6188 1.1575,3.5738 1.1575,6.1401 l 0,10.725 -6.03625,0 0,-9.4226 c 0,-3.91 -0.78625,-5.7162 -4.21875,-5.7162 -3.47,0 -5.63875,2.0675 -5.63875,5.5362 l 0,9.6026 -6.02875,0 0,-18.0075"
         inkscape:connector-curvature="0" />
      <path
         id="path3038-9"
         style="fill:#0d528a;fill-opacity:1;fill-rule:nonzero;stroke:none"
         d="m 321.25901,966.78428 c 0,3.3563 -2.2425,5.5562 -5.71125,5.5562 -3.47375,0 -5.71625,-2.125 -5.71625,-5.5187 0,-3.4425 2.21375,-5.5675 5.71625,-5.5675 3.46875,0 5.71125,2.1637 5.71125,5.53 z m 0,-7.6975 c -1.52375,-1.6325 -3.7275,-2.5287 -6.79375,-2.5287 -6.6125,0 -11.1275,4.0775 -11.1275,10.1887 0,5.9912 4.48375,10.1813 11.01875,10.1813 2.99625,0 5.1975,-0.7563 6.9025,-2.4563 l 0,1.8063 6.03125,0 0,-26.07755 -6.03125,1.55625 0,7.33"
         inkscape:connector-curvature="0" />
      <path
         id="path3040-3"
         style="fill:#0d528a;fill-opacity:1;fill-rule:nonzero;stroke:none"
         d="m 233.84776,961.25428 c 3.505,0 5.70875,2.125 5.70875,5.5675 0,3.3937 -2.23875,5.5187 -5.70875,5.5187 -3.4675,0 -5.70625,-2.1999 -5.70625,-5.5562 0,-3.3663 2.23875,-5.53 5.70625,-5.53 z m -5.70625,-9.4975 -6.03375,-1.55625 0,26.07755 6.03375,0 0,-1.8063 c 1.6975,1.7 3.90125,2.4563 6.89875,2.4563 6.53875,0 11.0175,-4.1901 11.0175,-10.1813 0,-6.1112 -4.51625,-10.1887 -11.125,-10.1887 -3.0725,0 -5.27625,0.8962 -6.79125,2.5287 l 0,-7.33"
         inkscape:connector-curvature="0" />
      <path
         id="path3042-05"
         style="fill:#0d528a;fill-opacity:1;fill-rule:nonzero;stroke:none"
         d="m 353.67276,976.27808 0,-18.0075 6.03125,0 0,1.1137 c 1.805,-2.1762 3.71625,-3.2587 5.89125,-3.2587 0.43125,0 0.9725,0.07 1.69375,0.1424 l 0,5.1326 c -0.58125,-0.075 -1.2275,-0.075 -1.91625,-0.075 -3.50625,0 -5.66875,2.3113 -5.66875,6.245 l 0,8.7076 -6.03125,0"
         inkscape:connector-curvature="0" />
      <path
         id="path3044-2"
         style="fill:#0d528a;fill-opacity:1;fill-rule:nonzero;stroke:none"
         d="m 375.10901,956.14558 -0.4625,0 0.0162,-1.6513 0.0238,-0.5462 -0.12375,0.4499 -0.54875,1.7476 -0.4225,0 -0.5375,-1.7476 -0.135,-0.4412 0.0325,0.5375 0.0162,1.6513 -0.4525,0 0,-2.6751 0.635,0 0.66875,2.1113 0.6525,-2.1113 0.6375,0 0,2.6751 z m -3.665,0 -0.46625,0 0,-2.2788 -0.85875,0 0,-0.3963 2.16875,0 0,0.3963 -0.84375,0 0,2.2788"
         inkscape:connector-curvature="0" />
    </g>
  </g>
</svg>
