<?xml version="1.0" encoding="UTF-8" standalone="no"?>
<!-- Created with Inkscape (http://www.inkscape.org/) -->

<svg
   xmlns:dc="http://purl.org/dc/elements/1.1/"
   xmlns:cc="http://creativecommons.org/ns#"
   xmlns:rdf="http://www.w3.org/1999/02/22-rdf-syntax-ns#"
   xmlns:svg="http://www.w3.org/2000/svg"
   xmlns="http://www.w3.org/2000/svg"
   xmlns:xlink="http://www.w3.org/1999/xlink"
   xmlns:sodipodi="http://sodipodi.sourceforge.net/DTD/sodipodi-0.dtd"
   xmlns:inkscape="http://www.inkscape.org/namespaces/inkscape"
   width="210mm"
   height="297mm"
   viewBox="0 0 210 297"
   version="1.1"
   id="svg9061"
   inkscape:version="0.92.3 (2405546, 2018-03-11)"
   sodipodi:docname="libre office.svg">
  <defs
     id="defs9055">
    <linearGradient
       id="k"
       gradientTransform="matrix(2.1165978,0,0,2.1160792,-211.88501,-2013.5447)"
       gradientUnits="userSpaceOnUse"
       x1="122.75008"
       x2="111.74973"
       xlink:href="#writer"
       y1="991.62115"
       y2="977.11713" />
    <linearGradient
       id="writer">
      <stop
         offset="0"
         stop-color="#0369a3"
         id="stop8777" />
      <stop
         offset="1"
         stop-color="#1c99e0"
         id="stop8779" />
    </linearGradient>
    <linearGradient
       gradientTransform="matrix(0.26458333,0,0,0.26458333,19.3522,52.525)"
       id="grey"
       gradientUnits="userSpaceOnUse"
       x1="108.00134"
       x2="20.001341"
       y1="122"
       y2="6">
      <stop
         offset="0"
         stop-color="#e6e6e6"
         id="stop8805" />
      <stop
         offset="1"
         stop-color="#fff"
         id="stop8807" />
    </linearGradient>
    <linearGradient
       gradientTransform="matrix(0.26458333,0,0,0.26458333,19.3522,52.525)"
       id="i-9"
       gradientUnits="userSpaceOnUse"
       x1="108.00134"
       x2="20.001341"
       xlink:href="#writer"
       y1="130"
       y2="14" />
    <linearGradient
       id="blue"
       gradientTransform="matrix(1.1905985,0,0,0.97013447,-230.1439,634.51742)"
       gradientUnits="userSpaceOnUse"
       x2="0"
       y1="-581.63782"
       y2="-578.63782">
      <stop
         offset="0"
         stop-color="#63bbee"
         id="stop8799" />
      <stop
         offset="1"
         stop-color="#aadcf7"
         id="stop8801" />
    </linearGradient>
    <linearGradient
       id="g"
       gradientTransform="matrix(-1.111205,0,0,1.0348119,427.05937,-1144.2287)"
       gradientUnits="userSpaceOnUse"
       x2="0"
       xlink:href="#darkgrey"
       y1="1173"
       y2="1178" />
    <linearGradient
       id="darkgrey">
      <stop
         offset="0"
         stop-color="#666"
         id="stop8772" />
      <stop
         offset="1"
         stop-color="#333"
         id="stop8774" />
    </linearGradient>
    <linearGradient
       id="f"
       gradientTransform="matrix(1.111205,0,0,1.0348119,-349.19634,-1143.9059)"
       gradientUnits="userSpaceOnUse"
       x2="0"
       xlink:href="#darkgrey"
       y1="1173"
       y2="1178" />
    <linearGradient
       id="green"
       gradientTransform="matrix(0.31749206,0,0,0.32337904,-55.046413,279.68392)"
       gradientUnits="userSpaceOnUse"
       x2="0"
       y1="-629.66907"
       y2="-635.54944">
      <stop
         offset="0"
         stop-color="#18a303"
         id="stop8792" />
      <stop
         offset="1"
         stop-color="#106802"
         id="stop8794" />
    </linearGradient>
    <linearGradient
       id="darkb"
       gradientTransform="matrix(1.111205,0,0,1.0348119,-349.19634,-1142.6121)"
       gradientUnits="userSpaceOnUse"
       x2="0"
       y1="1173"
       y2="1178">
      <stop
         offset="0"
         stop-color="#0369a3"
         id="stop8787" />
      <stop
         offset="1"
         stop-color="#023f62"
         id="stop8789" />
    </linearGradient>
    <linearGradient
       id="sol"
       gradientTransform="matrix(0,0.20930764,-0.33866666,0,416.12149,-22.091097)"
       gradientUnits="userSpaceOnUse"
       x1="445.69522"
       x2="441.38797"
       y1="1103.5776"
       y2="1099.8198">
      <stop
         offset="0"
         stop-color="#e9b913"
         id="stop8782" />
      <stop
         offset="1"
         stop-color="#ff0"
         id="stop8784" />
    </linearGradient>
    <filter
       inkscape:collect="always"
       style="color-interpolation-filters:sRGB"
       id="filter30663"
       x="-0.039356101"
       width="1.0787122"
       y="-0.031977005"
       height="1.063954">
      <feGaussianBlur
         inkscape:collect="always"
         stdDeviation="0.3301611"
         id="feGaussianBlur30665" />
    </filter>
    <linearGradient
       id="k-8"
       gradientTransform="matrix(2.1165978,0,0,2.1160792,-209.68391,-1980.0407)"
       gradientUnits="userSpaceOnUse"
       x1="122.75008"
       x2="111.74973"
       xlink:href="#calc1"
       y1="991.62115"
       y2="977.11713" />
    <linearGradient
       id="calc1">
      <stop
         offset="0"
         stop-color="#18a303"
         id="stop20629" />
      <stop
         offset="1"
         stop-color="#43c330"
         id="stop20631" />
    </linearGradient>
    <linearGradient
       gradientTransform="matrix(0.26458333,0,0,0.26458333,21.553298,86.02899)"
       id="calc9"
       gradientUnits="userSpaceOnUse"
       x1="108.00134"
       x2="20.001341"
       y1="122"
       y2="6">
      <stop
         offset="0"
         stop-color="#e6e6e6"
         id="stop20670" />
      <stop
         offset="1"
         stop-color="#fff"
         id="stop20672" />
    </linearGradient>
    <linearGradient
       id="b-3"
       gradientUnits="userSpaceOnUse"
       x1="546"
       x2="458"
       xlink:href="#calc1"
       y1="121.99995"
       y2="5.9999499" />
    <linearGradient
       id="calc2"
       gradientUnits="userSpaceOnUse"
       x1="508.06174"
       x2="508.06174"
       y1="109.9985"
       y2="83.998497">
      <stop
         offset="0"
         stop-color="#727272"
         id="stop20635" />
      <stop
         offset="1"
         stop-color="#9a9a9a"
         id="stop20637" />
    </linearGradient>
    <linearGradient
       id="calc3"
       gradientTransform="matrix(0.948718,0,0,1.3,-288.38576,1491.7273)"
       gradientUnits="userSpaceOnUse"
       x1="829.36053"
       x2="829.36053"
       y1="-1064.7994"
       y2="-1082.3413">
      <stop
         offset="0"
         stop-color="#e4e4e4"
         id="stop20640" />
      <stop
         offset="1"
         stop-color="#f9f9f9"
         id="stop20642" />
    </linearGradient>
    <linearGradient
       id="calc4"
       gradientTransform="matrix(0.714286,0,0,-1.55555,125.07024,-1571.1037)"
       gradientUnits="userSpaceOnUse"
       x1="525.63947"
       x2="525.63947"
       y1="-1078.6444"
       y2="-1068.7872">
      <stop
         offset="0"
         stop-color="#63bbee"
         id="stop20645" />
      <stop
         offset="1"
         stop-color="#aadcf7"
         id="stop20647" />
    </linearGradient>
    <linearGradient
       id="calc5"
       gradientUnits="userSpaceOnUse"
       x1="512.65552"
       x2="512.65552"
       y1="95.0298"
       y2="85.998596">
      <stop
         offset="0"
         stop-color="#a33e03"
         id="stop20650" />
      <stop
         offset="1"
         stop-color="#c15414"
         id="stop20652" />
    </linearGradient>
    <linearGradient
       id="calc6"
       gradientTransform="matrix(0.714286,0,0,-2.11111,133.07024,-2170.0637)"
       gradientUnits="userSpaceOnUse"
       x1="525.63947"
       x2="525.63947"
       y1="-1078.6444"
       y2="-1068.7872">
      <stop
         offset="0"
         stop-color="#f09e6f"
         id="stop20655" />
      <stop
         offset="1"
         stop-color="#f9cfb5"
         id="stop20657" />
    </linearGradient>
    <linearGradient
       id="calc7"
       gradientTransform="matrix(0.714286,0,0,-0.888884,141.07024,-852.34365)"
       gradientUnits="userSpaceOnUse"
       x1="525.63947"
       x2="525.63947"
       y1="-1078.6444"
       y2="-1068.7872">
      <stop
         offset="0"
         stop-color="#f5ce53"
         id="stop20660" />
      <stop
         offset="1"
         stop-color="#fde9a9"
         id="stop20662" />
    </linearGradient>
    <linearGradient
       id="calc8"
       gradientTransform="matrix(0.714286,0,0,-1.33333,149.07024,-1331.5137)"
       gradientUnits="userSpaceOnUse"
       x1="525.63947"
       x2="525.63947"
       y1="-1078.6444"
       y2="-1068.7872">
      <stop
         offset="0"
         stop-color="#8ee780"
         id="stop20665" />
      <stop
         offset="1"
         stop-color="#ccf4c6"
         id="stop20667" />
    </linearGradient>
    <filter
       inkscape:collect="always"
       style="color-interpolation-filters:sRGB"
       id="filter30659"
       x="-0.039356101"
       width="1.0787122"
       y="-0.031977005"
       height="1.063954">
      <feGaussianBlur
         inkscape:collect="always"
         stdDeviation="0.3301611"
         id="feGaussianBlur30661" />
    </filter>
    <linearGradient
       inkscape:collect="always"
       xlink:href="#linearGradient4274-3-3"
       id="linearGradient30519"
       gradientUnits="userSpaceOnUse"
       x1="158.4942"
       y1="2022.2076"
       x2="158.4942"
       y2="1982.2323" />
    <linearGradient
       id="linearGradient4274-3-3">
      <stop
         style="stop-color:#333333;stop-opacity:1"
         offset="0"
         id="stop4276-8-6" />
      <stop
         style="stop-color:#808080;stop-opacity:1"
         offset="1"
         id="stop4278-0-0" />
    </linearGradient>
    <filter
       style="color-interpolation-filters:sRGB"
       id="filter4026-4-0-8"
       inkscape:label="Inner Shadow Rest"
       inkscape:menu="Shadows and Glows"
       inkscape:menu-tooltip="Adds a colorizable drop shadow inside">
      <feGaussianBlur
         id="feGaussianBlur4028-7-2-9"
         stdDeviation="1"
         result="result8" />
      <feOffset
         id="feOffset4030-6-8-6"
         dx="1"
         dy="1"
         result="result11" />
      <feComposite
         id="feComposite4032-8-3-7"
         in2="result11"
         result="result6"
         in="SourceGraphic"
         operator="in" />
      <feFlood
         id="feFlood4034-9-5-7"
         result="result10"
         in="result6"
         flood-opacity="1"
         flood-color="rgb(51,51,51)" />
      <feBlend
         id="feBlend4036-0-9-3"
         in2="result10"
         mode="normal"
         in="result6"
         result="result12" />
      <feComposite
         id="feComposite4038-6-0-7"
         in2="SourceGraphic"
         result="result2"
         operator="in" />
    </filter>
    <linearGradient
       inkscape:collect="always"
       xlink:href="#linearGradient4280-7-7"
       id="linearGradient30531"
       gradientUnits="userSpaceOnUse"
       x1="160.76947"
       y1="2011.2181"
       x2="160.76947"
       y2="1972.8456" />
    <linearGradient
       id="linearGradient4280-7-7"
       inkscape:collect="always">
      <stop
         id="stop4282-3-5"
         offset="0"
         style="stop-color:#18a303;stop-opacity:1" />
      <stop
         id="stop4284-2-1"
         offset="1"
         style="stop-color:#92e285;stop-opacity:1" />
    </linearGradient>
    <filter
       style="color-interpolation-filters:sRGB"
       inkscape:menu-tooltip="Adds a colorizable drop shadow inside"
       inkscape:menu="Shadows and Glows"
       inkscape:label="Inner Shadow Libre"
       id="filter4195-6-9-1">
      <feGaussianBlur
         result="result8"
         stdDeviation="1"
         id="feGaussianBlur4197-5-0-2" />
      <feOffset
         result="result11"
         dy="1"
         dx="1"
         id="feOffset4199-2-0-2" />
      <feComposite
         operator="in"
         in="SourceGraphic"
         result="result6"
         in2="result11"
         id="feComposite4201-6-3-1" />
      <feFlood
         flood-color="rgb(16,104,2)"
         flood-opacity="1"
         in="result6"
         result="result10"
         id="feFlood4203-5-0-5" />
      <feBlend
         result="result12"
         in="result6"
         mode="normal"
         in2="result10"
         id="feBlend4205-8-6-0" />
      <feComposite
         operator="in"
         result="result2"
         in2="SourceGraphic"
         id="feComposite4207-7-8-9" />
    </filter>
    <linearGradient
       id="draw1"
       gradientTransform="matrix(2.1165978,0,0,2.1160792,-157.29908,-1973.6262)"
       gradientUnits="userSpaceOnUse"
       x1="122.75008"
       x2="111.74973"
       y1="991.62115"
       y2="977.11713">
      <stop
         offset="0"
         stop-color="#c99c00"
         id="stop25604" />
      <stop
         offset="1"
         stop-color="#e9b913"
         id="stop25606" />
    </linearGradient>
    <linearGradient
       gradientTransform="matrix(0.26458333,0,0,0.26458333,73.938125,92.443458)"
       id="draw2"
       gradientUnits="userSpaceOnUse"
       x1="108.00134"
       x2="20.001341"
       y1="122"
       y2="6">
      <stop
         offset="0"
         stop-color="#e6e6e6"
         id="stop25599" />
      <stop
         offset="1"
         stop-color="#fff"
         id="stop25601" />
    </linearGradient>
    <filter
       inkscape:collect="always"
       style="color-interpolation-filters:sRGB"
       id="filter30655"
       x="-0.039356109"
       width="1.0787122"
       y="-0.031977005"
       height="1.063954">
      <feGaussianBlur
         inkscape:collect="always"
         stdDeviation="0.3301611"
         id="feGaussianBlur30657" />
    </filter>
    <linearGradient
       id="g-47"
       gradientTransform="matrix(2.1165978,0,0,2.1160792,-177.61157,-1970.9535)"
       gradientUnits="userSpaceOnUse"
       x1="122.75008"
       x2="111.74973"
       xlink:href="#impr4"
       y1="991.62115"
       y2="977.11713" />
    <linearGradient
       id="impr4">
      <stop
         offset="0"
         stop-color="#a33e03"
         id="stop20" />
      <stop
         offset="1"
         stop-color="#d36118"
         id="stop22" />
    </linearGradient>
    <linearGradient
       gradientTransform="matrix(0.26458333,0,0,0.26458333,53.625641,95.116153)"
       id="impr5"
       gradientUnits="userSpaceOnUse"
       x1="108.00134"
       x2="20.001341"
       y1="122"
       y2="6">
      <stop
         offset="0"
         stop-color="#e6e6e6"
         id="stop25-5" />
      <stop
         offset="1"
         stop-color="#fff"
         id="stop27-4" />
    </linearGradient>
    <linearGradient
       gradientTransform="matrix(0.26458333,0,0,0.26458333,53.625641,95.116153)"
       id="d-0"
       gradientUnits="userSpaceOnUse"
       x1="107.00134"
       x2="19.580811"
       xlink:href="#impr4"
       y1="120.91576"
       y2="8" />
    <linearGradient
       id="impr3"
       gradientTransform="matrix(0.03717211,0,0,0.2645791,71.373784,435.0045)"
       gradientUnits="userSpaceOnUse"
       x1="-17"
       x2="144"
       y1="-1194.6378"
       y2="-1194.6378">
      <stop
         offset="0"
         stop-color="#fff"
         stop-opacity="0"
         id="stop12" />
      <stop
         offset=".49305555"
         stop-color="#fff"
         id="stop14" />
      <stop
         offset="1"
         stop-color="#fff"
         stop-opacity="0"
         id="stop16" />
    </linearGradient>
    <linearGradient
       gradientTransform="matrix(0.26458333,0,0,0.26458333,53.625641,95.116153)"
       id="impr2"
       gradientUnits="userSpaceOnUse"
       x1="108.00537"
       x2="19.322689"
       y1="120.77719"
       y2="6.7152839">
      <stop
         offset="0"
         stop-color="#6e6e6e"
         id="stop7" />
      <stop
         offset="1"
         stop-color="#b0b0b0"
         id="stop9" />
    </linearGradient>
    <linearGradient
       gradientTransform="matrix(0.26458333,0,0,0.26458333,53.625641,95.116153)"
       id="impress1"
       gradientUnits="userSpaceOnUse"
       x1="108.00134"
       x2="20.001341"
       y1="122"
       y2="6">
      <stop
         offset="0"
         stop-color="#18a303"
         id="stop2" />
      <stop
         offset="1"
         stop-color="#106802"
         id="stop4" />
    </linearGradient>
    <filter
       inkscape:collect="always"
       style="color-interpolation-filters:sRGB"
       id="filter30651"
       x="-0.039356124"
       width="1.0787122"
       y="-0.031977005"
       height="1.063954">
      <feGaussianBlur
         inkscape:collect="always"
         stdDeviation="0.3301611"
         id="feGaussianBlur30653" />
    </filter>
    <linearGradient
       id="g-2"
       gradientTransform="matrix(2.1165978,0,0,2.1160792,-176.00795,-2012.113)"
       gradientUnits="userSpaceOnUse"
       x1="122.75008"
       x2="111.74973"
       xlink:href="#base1"
       y1="991.62115"
       y2="977.11713" />
    <linearGradient
       id="base1">
      <stop
         offset="0"
         stop-color="#8e03a3"
         id="stop3" />
      <stop
         offset="1"
         stop-color="#c254d2"
         id="stop5" />
    </linearGradient>
    <linearGradient
       gradientTransform="matrix(0.26458333,0,0,0.26458333,55.229258,53.956649)"
       id="base4"
       gradientUnits="userSpaceOnUse"
       x1="108.00134"
       x2="20.001341"
       y1="122"
       y2="6">
      <stop
         offset="0"
         stop-color="#e6e6e6"
         id="stop25" />
      <stop
         offset="1"
         stop-color="#fff"
         id="stop27" />
    </linearGradient>
    <linearGradient
       id="e"
       gradientTransform="matrix(0.26458333,0,0,0.26458598,-250.89352,363.16072)"
       gradientUnits="userSpaceOnUse"
       x1="1273.0009"
       x2="1169.0009"
       xlink:href="#base1"
       y1="-1040.6349"
       y2="-1168.6337" />
    <linearGradient
       gradientTransform="matrix(0.26458333,0,0,0.26458333,55.229258,53.956649)"
       id="base2"
       gradientUnits="userSpaceOnUse"
       x1="38.000729"
       x2="88.000732"
       y1="79.980797"
       y2="79.980797">
      <stop
         offset="0"
         stop-color="#9207a7"
         id="stop13" />
      <stop
         offset=".27254906"
         stop-color="#cd6cc4"
         id="stop15" />
      <stop
         offset=".50966245"
         stop-color="#ad3cbe"
         id="stop17" />
      <stop
         offset=".83376038"
         stop-color="#bc2ad2"
         id="stop19" />
      <stop
         offset="1"
         stop-color="#950ba8"
         id="stop21" />
    </linearGradient>
    <linearGradient
       inkscape:collect="always"
       xlink:href="#base3"
       id="linearGradient6232"
       gradientUnits="userSpaceOnUse"
       gradientTransform="matrix(-0.52916666,0,0,0.52916666,282.77107,-492.012)"
       x1="386.63177"
       y1="1068.9539"
       x2="410.49988"
       y2="1068.9539" />
    <linearGradient
       id="base3"
       gradientTransform="matrix(-2,0,0,2,860.00054,-2063.5036)"
       gradientUnits="userSpaceOnUse"
       x1="386.63177"
       x2="410.49988"
       y1="1068.9539"
       y2="1068.9539">
      <stop
         offset="0"
         stop-color="#e196fb"
         id="stop31" />
      <stop
         offset=".13010512"
         stop-color="#f4c7fa"
         id="stop33" />
      <stop
         offset=".31360075"
         stop-color="#e091f3"
         id="stop35" />
      <stop
         offset=".44078669"
         stop-color="#d764e9"
         id="stop37" />
      <stop
         offset=".68364757"
         stop-color="#e7adf0"
         id="stop39" />
      <stop
         offset=".75620717"
         stop-color="#e6a9f8"
         id="stop41" />
      <stop
         offset=".88021636"
         stop-color="#e595f2"
         id="stop43" />
      <stop
         offset="1"
         stop-color="#f2cbf8"
         id="stop45" />
    </linearGradient>
    <radialGradient
       id="pink"
       cx="518.85358"
       cy="730.48431"
       gradientTransform="matrix(0.26597729,0,3.96875e-8,0.07486922,-66.105712,16.860539)"
       gradientUnits="userSpaceOnUse"
       r="22.889727">
      <stop
         offset="0"
         stop-color="#dc85e9"
         id="stop8" />
      <stop
         offset="1"
         stop-color="#f2cbf8"
         id="stop10" />
    </radialGradient>
    <linearGradient
       gradientTransform="matrix(0.26458333,0,0,0.26458333,55.229258,53.956649)"
       id="a"
       gradientUnits="userSpaceOnUse"
       x1="117.00146"
       x2="12.00143"
       xlink:href="#base1"
       y1="127.8783"
       y2="0.0766" />
    <filter
       inkscape:collect="always"
       style="color-interpolation-filters:sRGB"
       id="filter30647"
       x="-0.039356101"
       width="1.0787122"
       y="-0.031977296"
       height="1.0639546">
      <feGaussianBlur
         inkscape:collect="always"
         stdDeviation="0.3412521"
         id="feGaussianBlur30649" />
    </filter>
    <linearGradient
       inkscape:collect="always"
       xlink:href="#base3"
       id="linearGradient14110"
       gradientUnits="userSpaceOnUse"
       gradientTransform="matrix(-0.52916666,0,0,0.52916666,282.77107,-492.012)"
       x1="386.63177"
       y1="1068.9539"
       x2="410.49988"
       y2="1068.9539" />
    <linearGradient
       inkscape:collect="always"
       xlink:href="#base3"
       id="linearGradient14112"
       gradientUnits="userSpaceOnUse"
       gradientTransform="matrix(-0.52916666,0,0,0.52916666,282.77107,-492.012)"
       x1="386.63177"
       y1="1068.9539"
       x2="410.49988"
       y2="1068.9539" />
    <linearGradient
       inkscape:collect="always"
       xlink:href="#linearGradient4274-3-3"
       id="linearGradient14114"
       gradientUnits="userSpaceOnUse"
       x1="158.4942"
       y1="2022.2076"
       x2="158.4942"
       y2="1982.2323" />
    <linearGradient
       inkscape:collect="always"
       xlink:href="#linearGradient4274-3-3"
       id="linearGradient14116"
       gradientUnits="userSpaceOnUse"
       x1="158.4942"
       y1="2022.2076"
       x2="158.4942"
       y2="1982.2323" />
    <linearGradient
       inkscape:collect="always"
       xlink:href="#linearGradient4274-3-3"
       id="linearGradient14118"
       gradientUnits="userSpaceOnUse"
       x1="158.4942"
       y1="2022.2076"
       x2="158.4942"
       y2="1982.2323" />
    <linearGradient
       inkscape:collect="always"
       xlink:href="#linearGradient4274-3-3"
       id="linearGradient14120"
       gradientUnits="userSpaceOnUse"
       x1="158.4942"
       y1="2022.2076"
       x2="158.4942"
       y2="1982.2323" />
    <linearGradient
       inkscape:collect="always"
       xlink:href="#linearGradient4274-3-3"
       id="linearGradient14122"
       gradientUnits="userSpaceOnUse"
       x1="158.4942"
       y1="2022.2076"
       x2="158.4942"
       y2="1982.2323" />
    <linearGradient
       inkscape:collect="always"
       xlink:href="#linearGradient4274-3-3"
       id="linearGradient14124"
       gradientUnits="userSpaceOnUse"
       x1="158.4942"
       y1="2022.2076"
       x2="158.4942"
       y2="1982.2323" />
    <linearGradient
       inkscape:collect="always"
       xlink:href="#linearGradient4280-7-7"
       id="linearGradient14126"
       gradientUnits="userSpaceOnUse"
       x1="160.76947"
       y1="2011.2181"
       x2="160.76947"
       y2="1972.8456" />
    <linearGradient
       inkscape:collect="always"
       xlink:href="#linearGradient4280-7-7"
       id="linearGradient14128"
       gradientUnits="userSpaceOnUse"
       x1="160.76947"
       y1="2011.2181"
       x2="160.76947"
       y2="1972.8456" />
    <linearGradient
       inkscape:collect="always"
       xlink:href="#linearGradient4280-7-7"
       id="linearGradient14130"
       gradientUnits="userSpaceOnUse"
       x1="160.76947"
       y1="2011.2181"
       x2="160.76947"
       y2="1972.8456" />
    <linearGradient
       inkscape:collect="always"
       xlink:href="#linearGradient4280-7-7"
       id="linearGradient14132"
       gradientUnits="userSpaceOnUse"
       x1="160.76947"
       y1="2011.2181"
       x2="160.76947"
       y2="1972.8456" />
    <linearGradient
       inkscape:collect="always"
       xlink:href="#linearGradient4280-7-7"
       id="linearGradient14134"
       gradientUnits="userSpaceOnUse"
       x1="160.76947"
       y1="2011.2181"
       x2="160.76947"
       y2="1972.8456" />
  </defs>
  <sodipodi:namedview
     id="base"
     pagecolor="#ffffff"
     bordercolor="#666666"
     borderopacity="1.0"
     inkscape:pageopacity="0.0"
     inkscape:pageshadow="2"
     inkscape:zoom="0.35"
     inkscape:cx="-147.14286"
     inkscape:cy="560"
     inkscape:document-units="mm"
     inkscape:current-layer="layer1"
     showgrid="false"
     inkscape:window-width="1600"
     inkscape:window-height="840"
     inkscape:window-x="0"
     inkscape:window-y="0"
     inkscape:window-maximized="1" />
  <metadata
     id="metadata9058">
    <rdf:RDF>
      <cc:Work
         rdf:about="">
        <dc:format>image/svg+xml</dc:format>
        <dc:type
           rdf:resource="http://purl.org/dc/dcmitype/StillImage" />
        <dc:title></dc:title>
      </cc:Work>
    </rdf:RDF>
  </metadata>
  <g
     inkscape:label="Capa 1"
     inkscape:groupmode="layer"
     id="layer1">
    <path
       transform="matrix(0.70386498,0,0,0.70386498,96.046514,-112.85796)"
       inkscape:connector-curvature="0"
       style="fill:#241c1c;fill-opacity:0.17956657;stroke-width:0.20009464;filter:url(#filter30647)"
       d="m 47.990974,222.69949 c -0.05007,0 -0.100191,0.003 -0.150074,0.007 -0.733767,0.14002 -0.913582,0.45346 -0.900428,1.20017 v 23.20473 c 8e-5,0.8379 0.36247,1.2001 1.200568,1.20018 h 18.408324 c 0.838089,-8e-5 1.20009,-0.36228 1.200169,-1.20018 v -14.37047 c 0.0096,-0.42258 -0.156081,-0.84645 -0.450214,-1.15016 L 58.8633,223.1567 c -0.303775,-0.29398 -0.727858,-0.46 -1.150542,-0.45021 H 48.14104 c -0.04989,-0.004 -0.09997,-0.007 -0.150066,-0.007 z m 14.008581,0.003 c -0.04202,0 -0.08395,0.004 -0.125447,0.01 -0.532748,0.17065 -0.712023,0.98138 -0.301316,1.36276 l 4.82142,4.84643 c 0.445393,0.42454 1.332251,0.0613 1.35571,-0.55534 v -4.84644 c -4.4e-5,-0.42293 -0.382771,-0.80734 -0.8035,-0.80741 H 62.12539 c -0.04158,-0.006 -0.08386,-0.01 -0.125835,-0.01 z"
       id="path30645" />
    <g
       id="g14358"
       transform="matrix(0.53230722,0,0,0.53230722,97.581682,15.335684)">
      <path
         id="path48"
         d="m 59.794193,53.956649 c -0.06624,0 -0.132483,0.003 -0.198438,0.009 -0.970248,0.18515 -1.208024,0.59961 -1.190625,1.58698 v 30.6834 c 1.06e-4,1.10794 0.47929,1.58688 1.5875,1.58698 h 24.341152 c 1.108207,-1e-4 1.586875,-0.47904 1.586981,-1.58698 v -19.00194 c 0.0127,-0.55877 -0.206385,-1.11925 -0.595312,-1.52084 L 74.170579,54.561259 c -0.401688,-0.38872 -0.962446,-0.60825 -1.521354,-0.59531 H 59.99263 c -0.06593,-0.006 -0.132191,-0.009 -0.198437,-0.009 z m 18.52342,0.004 c -0.05555,0 -0.110987,0.004 -0.16588,0.0129 -0.704445,0.22564 -0.941502,1.29767 -0.398426,1.80196 l 6.37532,6.4084 c 0.588944,0.56136 1.761622,0.081 1.792652,-0.73433 v -6.40839 c -6.3e-5,-0.55925 -0.506142,-1.06756 -1.062463,-1.06764 H 78.48401 c -0.05492,-0.008 -0.110845,-0.0129 -0.166397,-0.0129 z"
         style="fill:url(#g-2);stroke-width:0.26458332"
         inkscape:connector-curvature="0" />
      <path
         style="fill:url(#base4);stroke-width:0.26458332"
         id="path50"
         d="m 59.992117,55.544149 v 30.69166 h 24.34167 v -19.05 L 72.692122,55.544149 Z"
         inkscape:connector-curvature="0" />
      <path
         id="path52"
         d="m 63.431489,67.714609 v 0.79375 h 3.704166 v -0.79375 z m 4.233333,0 v 0.79375 h 3.96875 v -0.79375 z m 4.497916,0 v 0.79375 h 3.96875 v -0.79375 z m 4.497917,0 v 0.79375 h 3.704167 v -0.79375 z m -13.229166,1.32292 v 1.05833 h 3.704166 v -1.05833 z m 4.233333,0 v 1.05833 h 3.96875 v -1.05833 z m 4.497916,0 v 1.05833 h 3.96875 v -1.05833 z m 4.497917,0 v 1.05833 h 3.704167 v -1.05833 z m -13.229166,1.5875 v 1.05833 h 3.704166 v -1.05833 z m 4.233333,0 v 1.05833 h 3.96875 v -1.05833 z m 4.497916,0 v 1.05833 h 3.96875 v -1.05833 z m 4.497917,0 v 1.05833 h 3.704167 v -1.05833 z m -13.229166,1.5875 v 1.05833 h 3.704166 v -1.05833 z m 4.233333,0 v 1.05833 h 3.96875 v -1.05833 z m 4.497916,0 v 1.05833 h 3.96875 v -1.05833 z m 4.497917,0 v 1.05833 h 3.704167 v -1.05833 z m -13.229166,1.5875 v 1.05833 h 3.704166 v -1.05833 z m 4.233333,0 v 1.05833 h 3.96875 v -1.05833 z m 4.497916,0 v 1.05833 h 3.96875 v -1.05833 z m 4.497917,0 v 1.05833 h 3.704167 v -1.05833 z m -13.229166,1.5875 v 1.05833 h 3.704166 v -1.05833 z m 4.233333,0 v 1.05833 h 3.96875 v -1.05833 z m 4.497916,0 v 1.05833 h 3.96875 v -1.05833 z m 4.497917,0 v 1.05833 h 3.704167 v -1.05833 z m -13.229166,1.5875 v 1.05833 h 3.704166 v -1.05833 z m 4.233333,0 v 1.05833 h 3.96875 v -1.05833 z m 4.497916,0 v 1.05833 h 3.96875 v -1.05833 z m 4.497917,0 v 1.05833 h 3.704167 v -1.05833 z m -13.229166,1.5875 v 1.05833 h 3.704166 v -1.05833 z m 4.233333,0 v 1.05833 h 3.96875 v -1.05833 z m 4.497916,0 v 1.05833 h 3.96875 v -1.05833 z m 4.497917,0 v 1.05833 h 3.704167 v -1.05833 z m -13.229166,1.5875 v 1.05833 h 3.704166 v -1.05833 z m 4.233333,0 v 1.05833 h 3.96875 v -1.05833 z m 4.497916,0 v 1.05833 h 3.96875 v -1.05833 z m 4.497917,0 v 1.05833 h 3.704167 v -1.05833 z m -13.229166,1.5875 v 0.79375 h 3.704166 v -0.79375 z m 4.233333,0 v 0.79375 h 3.96875 v -0.79375 z m 4.497916,0 v 0.79375 h 3.96875 v -0.79375 z m 4.497917,0 v 0.79375 h 3.704167 v -0.79375 z"
         style="opacity:0.6;fill:url(#e);stroke-width:0.26458332"
         inkscape:connector-curvature="0" />
      <path
         style="fill:url(#base2);stroke-width:0.26458332"
         id="path54"
         d="m 71.898155,69.558409 c -1.771042,0 -3.376613,0.19325 -4.555807,0.51263 -0.589545,0.1597 -1.065504,0.34216 -1.422136,0.57052 -0.356579,0.22834 -0.628385,0.52629 -0.628385,0.90951 h -0.0082 v 7.01146 0.13229 c 0,0.36944 0.261911,0.6636 0.62013,0.89297 0.35814,0.22936 0.847699,0.41873 1.438646,0.57877 1.181946,0.3201 2.78294,0.51263 4.555807,0.51263 1.772867,0 3.373887,-0.19253 4.555807,-0.51263 0.590947,-0.16004 1.080479,-0.34941 1.438646,-0.57877 0.358219,-0.22937 0.62013,-0.52353 0.62013,-0.89297 v -7.14375 h -0.0082 c 0,-0.38322 -0.271806,-0.68117 -0.628385,-0.90951 -0.356606,-0.22836 -0.832538,-0.41082 -1.422136,-0.57052 -1.179195,-0.31938 -2.784766,-0.51263 -4.555807,-0.51263 z m 0,0.54571 c 1.735984,0 3.312715,0.19301 4.431771,0.49609 0.559541,0.15155 1.003776,0.32946 1.289843,0.51263 0.286041,0.1832 0.372058,0.34655 0.372058,0.43823 0,0.0917 -0.08602,0.25503 -0.372058,0.4382 -0.286067,0.1832 -0.730302,0.3611 -1.289843,0.51263 -1.119056,0.30311 -2.695787,0.4961 -4.431771,0.4961 -1.735958,0 -3.312716,-0.19299 -4.431771,-0.4961 -0.55954,-0.15153 -1.003802,-0.32943 -1.289843,-0.51263 -0.286068,-0.18317 -0.372084,-0.34652 -0.372057,-0.4382 0,-0.0917 0.08599,-0.25503 0.372057,-0.43823 0.286041,-0.18317 0.730303,-0.36108 1.289843,-0.51263 1.119055,-0.30308 2.695813,-0.49609 4.431771,-0.49609 z m -6.085416,2.27377 c 0.03643,0.0265 0.06882,0.0579 0.107473,0.0827 0.356632,0.22834 0.832565,0.41082 1.422136,0.5705 1.179194,0.31935 2.784765,0.51263 4.555807,0.51263 1.771041,0 3.376612,-0.19328 4.555807,-0.51263 0.589571,-0.15968 1.06553,-0.34216 1.422136,-0.5705 0.03865,-0.0249 0.07104,-0.0563 0.107474,-0.0827 v 1.42214 0.13229 c 0,0.10546 -0.09588,0.26434 -0.380339,0.44648 -0.284454,0.18214 -0.723397,0.36145 -1.281562,0.51263 -1.116357,0.30234 -2.689384,0.4961 -4.423516,0.4961 -1.734132,0 -3.307133,-0.19376 -4.423516,-0.4961 -0.558165,-0.15118 -0.997108,-0.33049 -1.281562,-0.51263 -0.284453,-0.18214 -0.380338,-0.34102 -0.380338,-0.44648 v -0.13229 z m 0,2.38125 c 0.03101,0.022 0.05821,0.0452 0.09096,0.0661 0.35814,0.22937 0.847698,0.41873 1.438645,0.57878 1.181946,0.32009 2.78294,0.51263 4.555807,0.51263 1.772867,0 3.373887,-0.19254 4.555807,-0.51263 0.590947,-0.16005 1.080479,-0.34941 1.438646,-0.57878 0.03275,-0.0209 0.05995,-0.0441 0.09096,-0.0661 v 1.42214 0.13229 c 0,0.10546 -0.09588,0.26434 -0.380339,0.44648 -0.284454,0.18214 -0.723397,0.36145 -1.281562,0.51263 -1.116357,0.30234 -2.689384,0.4961 -4.423516,0.4961 -1.734132,0 -3.307133,-0.19376 -4.423515,-0.4961 -0.558162,-0.15118 -0.997105,-0.33049 -1.281559,-0.51263 -0.284453,-0.18214 -0.380338,-0.34102 -0.380338,-0.44648 v -0.13229 z m 0,2.38125 c 0.03101,0.022 0.05821,0.0452 0.09096,0.0662 0.35814,0.22937 0.847698,0.41873 1.438645,0.57878 1.181946,0.32009 2.78294,0.51263 4.555807,0.51263 1.772867,0 3.373887,-0.19254 4.555807,-0.51263 0.590947,-0.16005 1.080479,-0.34941 1.438646,-0.57878 0.03275,-0.0209 0.05995,-0.0441 0.09096,-0.0662 v 1.42214 0.13229 c 0,0.10546 -0.09588,0.26434 -0.380339,0.44648 -0.284454,0.18214 -0.723397,0.36145 -1.281562,0.51263 -1.116357,0.30234 -2.689384,0.4961 -4.423516,0.4961 -1.734132,0 -3.307133,-0.19376 -4.423515,-0.4961 -0.558162,-0.15118 -0.997105,-0.33049 -1.281559,-0.51263 -0.284453,-0.18214 -0.380338,-0.34102 -0.380338,-0.44648 v -0.13229 z"
         inkscape:connector-curvature="0" />
      <path
         id="path56"
         d="m 71.898155,69.558409 c -1.771042,0 -3.376613,0.19325 -4.555807,0.51263 -0.589545,0.1597 -1.065504,0.34216 -1.422136,0.57052 -0.356579,0.22834 -0.63664,0.52629 -0.63664,0.90951 -0.0164,2.3187 5.3e-5,4.67815 5.3e-5,7.01146 v 0.13229 c 0,0.36944 0.261911,0.6636 0.62013,0.89297 0.35814,0.22936 0.847699,0.41873 1.438646,0.57877 1.181946,0.3201 2.78294,0.51263 4.555807,0.51263 1.772867,0 3.373887,-0.19253 4.555807,-0.51263 0.590947,-0.16004 1.080479,-0.34941 1.438646,-0.57877 0.358219,-0.22937 0.62013,-0.52353 0.62013,-0.89297 v -7.14375 c 0,-0.35796 -0.348536,-0.72104 -0.636587,-0.90951 -0.356606,-0.22836 -0.832538,-0.41082 -1.422136,-0.57052 -1.179195,-0.31938 -2.784766,-0.51263 -4.555807,-0.51263 z m 0,0.54571 c 1.735984,0 3.312715,0.19301 4.431771,0.49609 0.559541,0.15155 1.003776,0.32946 1.289843,0.51263 0.286041,0.1832 0.372058,0.34655 0.372058,0.43823 0,0.0917 -0.08602,0.25503 -0.372058,0.4382 -0.286067,0.1832 -0.730302,0.3611 -1.289843,0.51263 -1.119056,0.30311 -2.695787,0.4961 -4.431771,0.4961 -1.735958,0 -3.312716,-0.19299 -4.431771,-0.4961 -0.55954,-0.15153 -1.003802,-0.32943 -1.289843,-0.51263 -0.286068,-0.18317 -0.372084,-0.34652 -0.372057,-0.4382 0,-0.0917 0.08599,-0.25503 0.372057,-0.43823 0.286041,-0.18317 0.730303,-0.36108 1.289843,-0.51263 1.119055,-0.30308 2.695813,-0.49609 4.431771,-0.49609 z m -6.085416,2.27377 c 0.03643,0.0265 0.06882,0.0579 0.107473,0.0827 0.356632,0.22834 0.832565,0.41082 1.422136,0.5705 1.179194,0.31935 2.784765,0.51263 4.555807,0.51263 1.771041,0 3.376612,-0.19328 4.555807,-0.51263 0.589571,-0.15968 1.06553,-0.34216 1.422136,-0.5705 0.03865,-0.0249 0.07104,-0.0563 0.107474,-0.0827 v 1.42214 0.13229 c 0,0.10546 -0.09588,0.26434 -0.380339,0.44648 -0.284454,0.18214 -0.723397,0.36145 -1.281562,0.51263 -1.116357,0.30234 -2.689384,0.4961 -4.423516,0.4961 -1.734132,0 -3.307133,-0.19376 -4.423516,-0.4961 -0.558165,-0.15118 -0.997108,-0.33049 -1.281562,-0.51263 -0.284453,-0.18214 -0.380338,-0.34102 -0.380338,-0.44648 v -0.13229 z m 0,2.38125 c 0.03101,0.022 0.05821,0.0452 0.09096,0.0661 0.35814,0.22937 0.847698,0.41873 1.438645,0.57878 1.181946,0.32009 2.78294,0.51263 4.555807,0.51263 1.772867,0 3.373887,-0.19254 4.555807,-0.51263 0.590947,-0.16005 1.080479,-0.34941 1.438646,-0.57878 0.03275,-0.0209 0.05995,-0.0441 0.09096,-0.0661 v 1.42214 0.13229 c 0,0.10546 -0.09588,0.26434 -0.380339,0.44648 -0.284454,0.18214 -0.723397,0.36145 -1.281562,0.51263 -1.116357,0.30234 -2.689384,0.4961 -4.423516,0.4961 -1.734132,0 -3.307133,-0.19376 -4.423515,-0.4961 -0.558162,-0.15118 -0.997105,-0.33049 -1.281559,-0.51263 -0.284453,-0.18214 -0.380338,-0.34102 -0.380338,-0.44648 v -0.13229 z m 0,2.38125 c 0.03101,0.022 0.05821,0.0452 0.09096,0.0662 0.35814,0.22937 0.847698,0.41873 1.438645,0.57878 1.181946,0.32009 2.78294,0.51263 4.555807,0.51263 1.772867,0 3.373887,-0.19254 4.555807,-0.51263 0.590947,-0.16005 1.080479,-0.34941 1.438646,-0.57878 0.03275,-0.0209 0.05995,-0.0441 0.09096,-0.0662 v 1.42214 0.13229 c 0,0.10546 -0.09588,0.26434 -0.380339,0.44648 -0.284454,0.18214 -0.723397,0.36145 -1.281562,0.51263 -1.116357,0.30234 -2.689384,0.4961 -4.423516,0.4961 -1.734132,0 -3.307133,-0.19376 -4.423515,-0.4961 -0.558162,-0.15118 -0.997105,-0.33049 -1.281559,-0.51263 -0.284453,-0.18214 -0.380338,-0.34102 -0.380338,-0.44648 v -0.13229 z"
         style="opacity:0.5;fill:none;stroke:#ffffff;stroke-width:0.52916664"
         inkscape:connector-curvature="0" />
      <path
         style="fill:url(#linearGradient14110);stroke-width:0.26458332"
         id="path58"
         d="m 65.548155,76.445859 v 2.11667 0.13229 c 0,0.9498 2.843001,1.71979 6.35,1.71979 3.506999,0 6.35,-0.76999 6.35,-1.71979 v -0.13229 -2.11667 z"
         inkscape:connector-curvature="0" />
      <path
         style="fill:url(#linearGradient14112);stroke-width:0.26458332"
         id="path60"
         d="m 65.548155,74.064609 v 2.11667 0.13229 c 0,0.9498 2.843001,1.71979 6.35,1.71979 3.506999,0 6.35,-0.76999 6.35,-1.71979 v -0.13229 -2.11667 z"
         inkscape:connector-curvature="0" />
      <path
         style="fill:url(#linearGradient6232);stroke-width:0.26458332"
         id="path62"
         d="m 78.248155,71.815649 v 1.98438 0.13229 c 0,0.9498 -2.843001,1.71979 -6.35,1.71979 -3.506999,0 -6.35,-0.76999 -6.35,-1.71979 v -0.13229 -1.98438 z"
         inkscape:connector-curvature="0" />
      <path
         d="m 65.94503,72.609399 v 1.07572 0.11216 c 0,0.8052 2.605696,1.45796 5.820013,1.45796 3.214317,0 6.086237,-0.65276 6.086237,-1.45796 v -0.11216 -1.06842 c -0.520383,0.44644 -2.722986,1.10501 -6.067981,1.10501 -3.344968,0 -5.351462,-0.66585 -5.838269,-1.11231 z"
         id="i-0"
         style="opacity:0.35;fill:none;stroke:#ffffff;stroke-width:0.26458332"
         inkscape:connector-curvature="0" />
      <ellipse
         style="fill:url(#pink);stroke-width:0.26458332"
         id="ellipse65"
         ry="1.5875075"
         rx="6.2176862"
         cy="71.551331"
         cx="71.897537" />
      <path
         id="path67"
         d="m 71.898155,70.103549 c -1.735958,0 -3.312716,0.19301 -4.431771,0.49609 -0.55954,0.15155 -1.003802,0.32946 -1.289843,0.51263 -0.286068,0.1832 -0.372057,0.34654 -0.372057,0.43822 -2.7e-5,0.0917 0.08599,0.25504 0.372057,0.43821 0.286041,0.1832 0.730303,0.36111 1.289843,0.51263 1.119055,0.30311 2.695813,0.4961 4.431771,0.4961 1.735984,0 3.312715,-0.19299 4.431771,-0.4961 0.559541,-0.15152 1.003776,-0.32943 1.289843,-0.51263 0.286041,-0.18317 0.372058,-0.34654 0.372058,-0.43821 0,-0.0917 -0.08602,-0.25502 -0.372058,-0.43822 -0.286067,-0.18317 -0.730302,-0.36108 -1.289843,-0.51263 -1.119056,-0.30308 -2.695787,-0.49609 -4.431771,-0.49609 z m 0,0.25631 c 1.620599,0 3.089434,0.15572 4.134114,0.40514 0.522314,0.12468 0.940144,0.27103 1.207162,0.42168 0.26707,0.15082 0.347266,0.28835 0.347266,0.36381 0,0.0755 -0.0802,0.21301 -0.347266,0.3638 -0.267018,0.15068 -0.684848,0.29703 -1.207162,0.42168 -1.04468,0.24942 -2.513515,0.40514 -4.134114,0.40514 -1.620573,0 -3.089434,-0.15572 -4.134114,-0.40514 -0.522341,-0.12465 -0.940171,-0.271 -1.207162,-0.42168 -0.267097,-0.15079 -0.347292,-0.28834 -0.347265,-0.3638 0,-0.0755 0.08017,-0.21299 0.347265,-0.36381 0.266991,-0.15065 0.684821,-0.297 1.207162,-0.42168 1.04468,-0.24942 2.513541,-0.40514 4.134114,-0.40514 z"
         style="opacity:0.25;fill:#ffffff;stroke-width:0.26458332"
         inkscape:connector-curvature="0" />
      <use
         id="use69"
         xlink:href="#i-0"
         width="5033"
         transform="translate(1.3323649e-6,2.3812489)"
         height="1085"
         x="0"
         y="0" />
      <use
         id="use71"
         xlink:href="#i-0"
         width="5033"
         transform="translate(1.3323649e-6,4.7624989)"
         height="1085"
         x="0"
         y="0" />
      <path
         id="path73"
         d="m 71.898155,69.558409 c -1.771042,0 -3.376613,0.19325 -4.555807,0.51263 -0.589545,0.1597 -1.065504,0.34216 -1.422136,0.57052 -0.356579,0.22834 -0.63664,0.52629 -0.63664,0.90951 -0.0164,2.3187 5.3e-5,4.67815 5.3e-5,7.01146 v 0.13229 c 0,0.36944 0.261911,0.6636 0.62013,0.89297 0.35814,0.22936 0.847699,0.41873 1.438646,0.57877 1.181946,0.3201 2.78294,0.51263 4.555807,0.51263 1.772867,0 3.373887,-0.19253 4.555807,-0.51263 0.590947,-0.16004 1.080479,-0.34941 1.438646,-0.57877 0.358219,-0.22937 0.62013,-0.52353 0.62013,-0.89297 v -7.14375 c 0,-0.35796 -0.348536,-0.72104 -0.636587,-0.90951 -0.356606,-0.22836 -0.832538,-0.41082 -1.422136,-0.57052 -1.179195,-0.31938 -2.784766,-0.51263 -4.555807,-0.51263 z m 0,0.54571 c 1.735984,0 3.312715,0.19301 4.431771,0.49609 0.559541,0.15155 1.003776,0.32946 1.289843,0.51263 0.286041,0.1832 0.372058,0.34655 0.372058,0.43823 0,0.0917 -0.08602,0.25503 -0.372058,0.4382 -0.286067,0.1832 -0.730302,0.3611 -1.289843,0.51263 -1.119056,0.30311 -2.695787,0.4961 -4.431771,0.4961 -1.735958,0 -3.312716,-0.19299 -4.431771,-0.4961 -0.55954,-0.15153 -1.003802,-0.32943 -1.289843,-0.51263 -0.286068,-0.18317 -0.372084,-0.34652 -0.372057,-0.4382 0,-0.0917 0.08599,-0.25503 0.372057,-0.43823 0.286041,-0.18317 0.730303,-0.36108 1.289843,-0.51263 1.119055,-0.30308 2.695813,-0.49609 4.431771,-0.49609 z m -6.085416,2.27377 c 0.03643,0.0265 0.06882,0.0579 0.107473,0.0827 0.356632,0.22834 0.832565,0.41082 1.422136,0.5705 1.179194,0.31935 2.784765,0.51263 4.555807,0.51263 1.771041,0 3.376612,-0.19328 4.555807,-0.51263 0.589571,-0.15968 1.06553,-0.34216 1.422136,-0.5705 0.03865,-0.0249 0.07104,-0.0563 0.107474,-0.0827 v 1.42214 0.13229 c 0,0.10546 -0.09588,0.26434 -0.380339,0.44648 -0.284454,0.18214 -0.723397,0.36145 -1.281562,0.51263 -1.116357,0.30234 -2.689384,0.4961 -4.423516,0.4961 -1.734132,0 -3.307133,-0.19376 -4.423516,-0.4961 -0.558165,-0.15118 -0.997108,-0.33049 -1.281562,-0.51263 -0.284453,-0.18214 -0.380338,-0.34102 -0.380338,-0.44648 v -0.13229 z m 0,2.38125 c 0.03101,0.022 0.05821,0.0452 0.09096,0.0661 0.35814,0.22937 0.847698,0.41873 1.438645,0.57878 1.181946,0.32009 2.78294,0.51263 4.555807,0.51263 1.772867,0 3.373887,-0.19254 4.555807,-0.51263 0.590947,-0.16005 1.080479,-0.34941 1.438646,-0.57878 0.03275,-0.0209 0.05995,-0.0441 0.09096,-0.0661 v 1.42214 0.13229 c 0,0.10546 -0.09588,0.26434 -0.380339,0.44648 -0.284454,0.18214 -0.723397,0.36145 -1.281562,0.51263 -1.116357,0.30234 -2.689384,0.4961 -4.423516,0.4961 -1.734132,0 -3.307133,-0.19376 -4.423515,-0.4961 -0.558162,-0.15118 -0.997105,-0.33049 -1.281559,-0.51263 -0.284453,-0.18214 -0.380338,-0.34102 -0.380338,-0.44648 v -0.13229 z m 0,2.38125 c 0.03101,0.022 0.05821,0.0452 0.09096,0.0662 0.35814,0.22937 0.847698,0.41873 1.438645,0.57878 1.181946,0.32009 2.78294,0.51263 4.555807,0.51263 1.772867,0 3.373887,-0.19254 4.555807,-0.51263 0.590947,-0.16005 1.080479,-0.34941 1.438646,-0.57878 0.03275,-0.0209 0.05995,-0.0441 0.09096,-0.0662 v 1.42214 0.13229 c 0,0.10546 -0.09588,0.26434 -0.380339,0.44648 -0.284454,0.18214 -0.723397,0.36145 -1.281562,0.51263 -1.116357,0.30234 -2.689384,0.4961 -4.423516,0.4961 -1.734132,0 -3.307133,-0.19376 -4.423515,-0.4961 -0.558162,-0.15118 -0.997105,-0.33049 -1.281559,-0.51263 -0.284453,-0.18214 -0.380338,-0.34102 -0.380338,-0.44648 v -0.13229 z"
         style="fill:url(#a);stroke-width:0.26458332"
         inkscape:connector-curvature="0" />
    </g>
    <path
       id="path30643"
       d="m 114.81736,223.55001 c -0.0484,0 -0.0969,0.003 -0.1452,0.007 -0.70992,0.13547 -0.88389,0.43873 -0.87116,1.16117 v 22.45055 c 8e-5,0.81067 0.35069,1.1611 1.16155,1.16117 h 17.81003 c 0.81085,-7e-5 1.16109,-0.3505 1.16117,-1.16117 v -13.90341 c 0.009,-0.40885 -0.15101,-0.81894 -0.43558,-1.11278 l -8.16185,-8.15995 c -0.2939,-0.28442 -0.7042,-0.44505 -1.11314,-0.43558 h -9.26063 c -0.0483,-0.004 -0.0967,-0.007 -0.14519,-0.007 z m 13.55329,0.003 c -0.0407,0 -0.0812,0.004 -0.12137,0.01 -0.51543,0.1651 -0.68888,0.94948 -0.29152,1.31847 l 4.66471,4.68891 c 0.43092,0.41075 1.28896,0.0593 1.31165,-0.53729 v -4.68892 c -4e-5,-0.40919 -0.37033,-0.7811 -0.77738,-0.78117 h -4.66435 c -0.0402,-0.006 -0.0811,-0.01 -0.12174,-0.01 z"
       style="fill:#241c1c;fill-opacity:0.17956657;stroke-width:0.19359139;filter:url(#filter30651)"
       inkscape:connector-curvature="0"
       transform="matrix(0.72750968,0,0,0.72750968,29.453226,-118.74239)" />
    <g
       id="g25517"
       transform="matrix(0.53230722,0,0,0.53230722,81.551919,-6.5739826)">
      <path
         id="path31"
         d="m 58.190575,95.116153 c -0.06624,0 -0.132482,0.003 -0.198437,0.0093 -0.970248,0.185156 -1.208024,0.599611 -1.190625,1.586983 v 30.683404 c 1.06e-4,1.10794 0.47929,1.58687 1.5875,1.58698 h 24.341152 c 1.108207,-1.1e-4 1.586875,-0.47904 1.586981,-1.58698 V 108.3939 c 0.0127,-0.55878 -0.206385,-1.11926 -0.595312,-1.52084 L 72.566962,95.720768 C 72.165274,95.332042 71.604516,95.112517 71.045608,95.125455 H 58.389013 c -0.06593,-0.0063 -0.132191,-0.0093 -0.198438,-0.0093 z m 18.523421,0.0036 c -0.05555,0 -0.110987,0.0045 -0.16588,0.01292 -0.704445,0.225637 -0.941502,1.297661 -0.398426,1.801957 l 6.37532,6.40839 c 0.588944,0.56137 1.761622,0.081 1.792652,-0.73432 v -6.408392 c -6.3e-5,-0.55925 -0.506142,-1.067556 -1.062463,-1.067635 h -6.374806 c -0.05492,-0.0085 -0.110845,-0.01292 -0.166397,-0.01292 z"
         style="fill:url(#g-47);stroke-width:0.26458332"
         inkscape:connector-curvature="0" />
      <path
         style="fill:url(#impr5);stroke-width:0.26458332"
         id="path33"
         d="m 58.3885,96.703653 v 30.691667 h 24.34167 v -19.05 L 71.088505,96.703653 Z"
         inkscape:connector-curvature="0" />
      <path
         id="path35"
         d="m 69.501,121.30939 v 0.55035 l -3.175,2.09548 h 1.555461 l 2.34301,-1.85208 h 0.136424 l 2.315105,1.85208 h 1.5875 l -3.175,-2.11667 v -0.52916 z"
         style="fill:#646464;stroke-width:0.26458332"
         inkscape:connector-curvature="0" />
      <path
         id="path37"
         d="m 62.092666,109.66824 v 11.64166 h 16.404167 v -11.64166 z m 0.79375,0.52916 h 14.816667 c 0.146579,0 0.264583,0.11801 0.264583,0.26459 v 10.05416 c 0,0.14658 -0.118004,0.26459 -0.264583,0.26459 H 62.886416 c -0.146579,0 -0.264583,-0.11801 -0.264583,-0.26459 v -10.05416 c 0,-0.14658 0.118004,-0.26459 0.264583,-0.26459 z m 0.529167,0.79324 v 1.05833 h 13.758333 v -1.05833 z m 2.645833,1.85208 v 1.05833 h 8.466667 v -1.05833 z m -0.79375,2.11667 v 1.05833 h 3.96875 v -1.05833 z m -1.322916,0.001 c -0.292251,0 -0.529167,0.23691 -0.529167,0.52916 0,0.29225 0.236916,0.52917 0.529167,0.52917 0.29225,0 0.529166,-0.23692 0.529166,-0.52917 0,-0.29225 -0.236916,-0.52916 -0.529166,-0.52916 z m 1.322916,1.85105 v 1.05833 h 3.96875 v -1.05833 z m -1.322916,10e-4 c -0.292251,0 -0.529167,0.23691 -0.529167,0.52916 0,0.29225 0.236916,0.52917 0.529167,0.52917 0.29225,0 0.529166,-0.23692 0.529166,-0.52917 0,-0.29225 -0.236916,-0.52916 -0.529166,-0.52916 z m 1.322916,1.85105 v 1.05833 h 3.96875 v -1.05833 z m -1.322916,0.001 c -0.292251,0 -0.529167,0.23691 -0.529167,0.52916 0,0.29225 0.236916,0.52917 0.529167,0.52917 0.29225,0 0.529166,-0.23692 0.529166,-0.52917 0,-0.29225 -0.236916,-0.52916 -0.529166,-0.52916 z"
         style="fill:url(#d-0);stroke-width:0.26458332"
         inkscape:connector-curvature="0" />
      <path
         style="fill:url(#impr3);stroke-width:0.26458332"
         id="path39"
         d="m 70.741776,118.92828 h 5.984717 v 0.26459 h -5.984717 z"
         inkscape:connector-curvature="0" />
      <path
         style="fill:url(#impr2);stroke-width:0.26458332"
         id="path41"
         d="m 70.29475,114.95939 v 4.7625 h 6.879166 v -4.7625 z m 0.529166,0.52916 h 5.820834 v 3.70417 h -5.820834 z m 0.264584,0.52917 v 0.26458 h 5.291666 v -0.26458 z m 0,0.79375 v 0.26458 h 5.291666 v -0.26458 z m 0,0.79375 v 0.26458 h 5.291666 v -0.26458 z m 0,0.79375 v 0.26458 h 5.291666 v -0.26458 z"
         inkscape:connector-curvature="0" />
      <path
         style="fill:url(#impress1);stroke-width:0.26458332"
         id="path43"
         d="m 75.975539,115.74952 a 0.39691469,0.39691469 0 0 0 -0.272852,0.11989 l -1.703771,1.70377 -0.777729,-0.77773 a 0.39691469,0.39691469 0 0 0 -0.561208,0 l -1.455208,1.45521 a 0.39691469,0.39691469 0 1 0 0.561207,0.5612 l 1.174605,-1.1746 0.777729,0.77773 a 0.39691469,0.39691469 0 0 0 0.561208,0 l 1.984375,-1.98438 a 0.39691469,0.39691469 0 0 0 -0.288356,-0.68109 z"
         inkscape:connector-curvature="0" />
    </g>
    <path
       inkscape:connector-curvature="0"
       style="fill:#241c1c;fill-opacity:0.17956657;stroke-width:0.19359139;filter:url(#filter30655)"
       d="m 93.029662,223.55001 c -0.04844,0 -0.09693,0.003 -0.145196,0.007 -0.709919,0.13547 -0.88389,0.43873 -0.871163,1.16117 v 22.45055 c 7.7e-5,0.81067 0.350689,1.1611 1.161548,1.16117 h 17.810039 c 0.81085,-7e-5 1.16108,-0.3505 1.16116,-1.16117 v -13.90341 c 0.009,-0.40885 -0.15101,-0.81894 -0.43558,-1.11278 l -8.16184,-8.15995 c -0.2939,-0.28442 -0.7042,-0.44505 -1.11315,-0.43558 h -9.260629 c -0.04827,-0.004 -0.09672,-0.007 -0.145189,-0.007 z m 13.553288,0.003 c -0.0406,0 -0.0812,0.004 -0.12137,0.01 -0.51543,0.1651 -0.68888,0.94948 -0.29152,1.31847 l 4.66472,4.68891 c 0.43092,0.41075 1.28895,0.0593 1.31165,-0.53729 v -4.68892 c -5e-5,-0.40919 -0.37033,-0.7811 -0.77739,-0.78117 h -4.66434 c -0.0402,-0.006 -0.0811,-0.01 -0.12175,-0.01 z"
       id="path30641"
       transform="matrix(0.72750968,0,0,0.72750968,28.462272,-118.74239)" />
    <g
       id="g30204"
       transform="matrix(0.53230722,0,0,0.53230722,53.856068,-5.1512856)">
      <path
         style="fill:url(#draw1);stroke-width:0.26458332"
         id="path25609"
         d="m 78.503059,92.443458 c -0.06624,0 -0.132482,0.003 -0.198437,0.0093 -0.970248,0.185155 -1.208024,0.599611 -1.190625,1.586983 v 30.683399 c 1.06e-4,1.10794 0.47929,1.58688 1.5875,1.58699 h 24.341153 c 1.10821,-1.1e-4 1.58687,-0.47905 1.58698,-1.58699 V 105.7212 c 0.0127,-0.55877 -0.20638,-1.11925 -0.59531,-1.52084 L 92.879446,93.048072 C 92.477758,92.659347 91.917,92.439822 91.358092,92.45276 H 78.701497 c -0.06593,-0.0063 -0.132191,-0.0093 -0.198438,-0.0093 z m 18.523421,0.0036 c -0.05555,0 -0.110987,0.0045 -0.16588,0.01292 -0.704445,0.225636 -0.941502,1.297661 -0.398426,1.801957 l 6.375316,6.408395 c 0.58895,0.56136 1.76163,0.081 1.79266,-0.734323 V 93.52763 c -7e-5,-0.55925 -0.50615,-1.067556 -1.06247,-1.067635 h -6.374803 c -0.05492,-0.0085 -0.110845,-0.01292 -0.166397,-0.01292 z"
         inkscape:connector-curvature="0" />
      <path
         style="fill:url(#draw2);stroke-width:0.26458332"
         id="path25611"
         d="m 78.700984,94.030958 v 30.691672 h 24.341666 v -19.05 L 91.400989,94.030958 Z"
         inkscape:connector-curvature="0" />
      <circle
         id="circle25613"
         r="4.4979033"
         cy="112.02106"
         cx="87.431061"
         style="opacity:0.6;fill:#f09e6f;stroke-width:0.26458332" />
      <circle
         id="circle25615"
         r="5.0271044"
         cy="112.02214"
         cx="87.433456"
         style="fill:#f9cfb5;stroke:#d36118;stroke-width:0.52916825" />
      <path
         id="path25617"
         d="m 90.342449,118.90142 c -0.146129,-3e-5 -0.264557,-0.11845 -0.264583,-0.26458 v -8.46667 c 2.6e-5,-0.14613 0.118454,-0.26456 0.264583,-0.26458 h 8.466667 c 0.146129,2e-5 0.264557,0.11845 0.264583,0.26458 v 8.46667 c -2.6e-5,0.14613 -0.118454,0.26455 -0.264583,0.26458 z m 0.264583,-0.52917 h 7.9375 v -7.9375 h -7.9375 z"
         style="fill:#1c99e0;stroke-width:0.26458332"
         inkscape:connector-curvature="0" />
      <path
         id="path25619"
         d="m 90.607032,118.37225 h 7.9375 v -7.9375 h -7.9375 z"
         style="fill:#aadcf7;stroke-width:0.26458332"
         inkscape:connector-curvature="0" />
      <path
         id="path25621"
         d="m 88.649195,112.04318 c -0.05866,0.0209 -0.109114,0.0612 -0.140097,0.11219 l -2.60088,4.24426 -2.661312,4.158 c -0.108267,0.15574 -0.04262,0.47355 0.283343,0.46022 h 5.218932 5.128657 c 0.314299,0 0.378725,-0.34031 0.211005,-0.63235 l -2.498698,-3.98587 -2.600881,-4.24426 c -0.06382,-0.10735 -0.218281,-0.1583 -0.340069,-0.11219 z m 0.09999,0.76661 2.380827,3.83291 2.3808,3.85162 h -4.761631 -4.7616 l 2.380774,-3.85162 z"
         style="fill:#e9b913;stroke-width:0.26458332"
         inkscape:connector-curvature="0" />
      <path
         id="path25623"
         d="m 93.515311,120.49002 h -4.76251 -4.762511 l 2.381285,-3.83646 2.381226,-3.83646 2.381226,3.83646 z"
         style="fill:#fde9a9;stroke-width:0.26458332"
         inkscape:connector-curvature="0" />
      <g
         id="g25631"
         style="fill:#ccf4c6;stroke:#43c330;stroke-linecap:square"
         transform="matrix(0.26458333,0,0,0.26458333,73.938125,92.443458)">
        <path
           id="path25625"
           d="m 73.501355,104.5 h 5 v 5 h -5 z"
           inkscape:connector-curvature="0" />
        <path
           id="path25627"
           d="m 33.501355,104.5 h 5 v 5 h -5 z"
           inkscape:connector-curvature="0" />
        <path
           id="path25629"
           d="m 53.501355,72.5 h 5 v 5 h -5 z"
           inkscape:connector-curvature="0" />
      </g>
    </g>
    <g
       style="display:inline"
       id="g30505"
       transform="matrix(0.334787,0,0,0.334787,15.952826,-513.76975)">
      <g
         id="g30491"
         style="font-style:normal;font-variant:normal;font-weight:normal;font-stretch:normal;font-size:67.56232452px;font-family:Vegur;-inkscape-font-specification:Vegur;display:inline;fill:url(#linearGradient30519);fill-opacity:1;stroke:none;filter:url(#filter4026-4-0-8)"
         transform="matrix(0.99794294,0,0,1.0020613,4.9545742e-6,-244)">
        <path
           id="path30479"
           style="font-weight:normal;-inkscape-font-specification:'Andale Mono';fill:url(#linearGradient14114)"
           d="m 273.62172,1975.0367 c -12.1612,0 -22.16044,8.8506 -22.16044,23.5792 0,14.7286 9.99924,23.5793 22.16044,23.5793 12.16121,0 22.16045,-8.8507 22.16045,-23.5793 0,-14.7286 -9.99924,-23.5792 -22.16045,-23.5792 m 0,4.5942 c 9.05335,0 15.94471,6.7562 15.94471,18.985 0,12.2288 -6.89136,18.985 -15.94471,18.985 -9.05334,0 -15.9447,-6.7562 -15.9447,-18.985 0,-12.2288 6.89136,-18.985 15.9447,-18.985"
           inkscape:connector-curvature="0" />
        <path
           id="path30481"
           style="font-weight:normal;-inkscape-font-specification:'Andale Mono';fill:url(#linearGradient14116)"
           d="m 304.43487,1986.7249 v 2.0945 h -5.33742 v 4.324 h 5.33742 v 28.3761 h 5.67524 v -28.3761 h 8.37772 v -4.324 h -8.37772 v -2.9728 c 0,-5.8779 2.49981,-9.3236 7.02648,-9.3236 2.09443,0 3.44568,0.3378 4.72936,0.8108 l 0.5405,-4.1889 c -1.21612,-0.4729 -3.51324,-0.9459 -5.33743,-0.9459 -8.0399,0 -12.63415,5.2023 -12.63415,14.5259"
           inkscape:connector-curvature="0" />
        <path
           id="path30483"
           style="font-weight:normal;-inkscape-font-specification:'Andale Mono';fill:url(#linearGradient14118)"
           d="m 323.30229,1986.7249 v 2.0945 h -5.33743 v 4.324 h 5.33743 v 28.3761 h 5.67523 v -28.3761 h 8.37773 v -4.324 h -8.37773 v -2.9728 c 0,-5.8779 2.49981,-9.3236 7.02648,-9.3236 2.09443,0 3.44568,0.3378 4.72937,0.8108 l 0.54049,-4.1889 c -1.21612,-0.4729 -3.51324,-0.9459 -5.33742,-0.9459 -8.03991,0 -12.63415,5.2023 -12.63415,14.5259"
           inkscape:connector-curvature="0" />
        <path
           id="path30485"
           style="font-weight:normal;-inkscape-font-specification:'Andale Mono';fill:url(#linearGradient14120)"
           d="m 343.92879,2021.5195 h 5.67523 v -32.7001 h -5.67523 v 32.7001 m 2.83762,-37.4971 c 1.9593,0 3.51324,-1.5539 3.51324,-3.5132 0,-1.9593 -1.55394,-3.5132 -3.51324,-3.5132 -1.95931,0 -3.51324,1.5539 -3.51324,3.5132 0,1.9593 1.55393,3.5132 3.51324,3.5132"
           inkscape:connector-curvature="0" />
        <path
           id="path30487"
           style="font-weight:normal;-inkscape-font-specification:'Andale Mono';fill:url(#linearGradient14122)"
           d="m 361.40465,2005.0343 c 0,-8.2426 4.93206,-12.5666 11.35047,-12.5666 3.37811,0 6.35086,0.8108 8.7831,1.9593 l 0.5405,-4.3239 c -2.02687,-1.0135 -5.26986,-1.9594 -8.85066,-1.9594 -10.13434,0 -17.76889,6.1482 -17.76889,17.6338 0,10.81 6.89136,16.4177 16.01227,16.4177 4.05373,0 6.95892,-0.473 10.26947,-1.8918 l -0.5405,-4.324 c -2.83761,1.2837 -5.87792,1.8918 -8.71554,1.8918 -6.55354,0 -11.08022,-4.1213 -11.08022,-12.8369"
           inkscape:connector-curvature="0" />
        <path
           id="path30489"
           style="font-weight:normal;-inkscape-font-specification:'Andale Mono';fill:url(#linearGradient14124)"
           d="m 414.09011,2006.4531 c 0.13512,-1.2161 0.20268,-2.2295 0.20268,-3.243 0,-8.3777 -4.39156,-15.0664 -12.83684,-15.0664 -9.1209,0 -15.80958,7.567 -15.80958,17.6338 0,11.0802 6.68868,16.4177 15.80958,16.4177 4.05374,0 7.09405,-0.6081 10.26947,-1.8918 l -0.54049,-4.324 c -2.49981,1.2161 -6.08062,1.8918 -8.91823,1.8918 -6.55354,0 -10.80997,-3.9862 -10.9451,-11.4181 h 22.76851 m -13.10709,-13.9854 c 4.9996,0 7.7021,4.1213 7.7021,9.5263 h -17.09327 c 0.81075,-5.7428 3.98618,-9.5263 9.39117,-9.5263"
           inkscape:connector-curvature="0" />
      </g>
      <g
         id="g30503"
         style="font-style:normal;font-variant:normal;font-weight:normal;font-stretch:normal;font-size:67.56232452px;font-family:Vegur;-inkscape-font-specification:Vegur;display:inline;fill:url(#linearGradient30531);fill-opacity:1;stroke:none;filter:url(#filter4195-6-9-1)"
         transform="matrix(0.99794294,0,0,1.0020613,4.9545742e-6,-244)">
        <path
           style="fill:url(#linearGradient14126)"
           id="path30493"
           d="m 103.61933,1975.7123 v 45.8072 h 29.65986 v -6.9589 h -20.60651 v -38.8483 h -9.05335"
           inkscape:connector-curvature="0" />
        <path
           style="fill:url(#linearGradient14128)"
           id="path30495"
           d="m 138.75075,2021.5195 h 9.05335 v -32.9704 h -9.05335 v 32.9704 m 4.52667,-35.808 c 2.83762,0 5.2023,-2.2971 5.2023,-5.2023 0,-2.8376 -2.36468,-5.2023 -5.2023,-5.2023 -2.90517,0 -5.2023,2.3647 -5.2023,5.2023 0,2.9052 2.29713,5.2023 5.2023,5.2023"
           inkscape:connector-curvature="0" />
        <path
           style="fill:url(#linearGradient14130)"
           id="path30497"
           d="m 163.5699,1992.4002 h -0.13513 v -19.5255 h -9.05335 v 48.6448 h 8.85067 l 0.20268,-3.851 h 0.13513 c 2.83761,3.1754 5.67524,4.5267 10.33704,4.5267 8.78309,0 14.59346,-7.9048 14.59346,-17.7689 0,-9.5263 -5.20231,-16.5528 -14.18809,-16.5528 -4.79692,0 -7.63455,1.4188 -10.74241,4.5267 m -0.13513,11.8909 c 0,-5.6752 2.56738,-9.4587 7.43186,-9.4587 5.40498,0 8.10748,3.8511 8.10748,10.1344 0,6.2157 -2.63494,10.2694 -7.97235,10.2694 -4.6618,0 -7.56699,-3.6483 -7.56699,-9.4587 v -1.4864"
           inkscape:connector-curvature="0" />
        <path
           style="fill:url(#linearGradient14132)"
           id="path30499"
           d="m 212.79284,1987.8735 c -4.32399,0.2702 -8.44529,2.9052 -10.33704,6.5535 h -0.13512 l -0.20269,-5.8779 h -8.85066 v 32.9704 h 9.05335 v -12.4314 c 0,-6.6211 1.21612,-8.9858 3.31055,-10.4722 1.82418,-1.2837 3.98618,-1.8242 6.95892,-1.9593 l 0.20269,-8.7831"
           inkscape:connector-curvature="0" />
        <path
           style="fill:url(#linearGradient14134)"
           id="path30501"
           d="m 246.10306,2003.075 c 0,-8.175 -4.99962,-15.2015 -13.64759,-15.2015 -10.40458,0 -17.09327,7.1616 -17.09327,18.0391 0,10.6073 6.89137,16.2826 17.09327,16.2826 4.79692,0 8.17505,-0.7432 11.35047,-2.162 l -0.94587,-6.7563 c -2.97274,1.2161 -6.01305,1.9593 -9.25604,1.9593 -5.47254,0 -8.98579,-2.4998 -9.3236,-7.6345 h 21.41726 c 0.27025,-1.2161 0.40537,-3.1079 0.40537,-4.5267 m -14.59346,-8.2426 c 3.91861,0 5.7428,3.1754 5.87792,6.5536 h -12.76928 c 0.67563,-3.7835 3.31056,-6.5536 6.89136,-6.5536"
           inkscape:connector-curvature="0" />
      </g>
    </g>
    <path
       inkscape:connector-curvature="0"
       style="fill:#241c1c;fill-opacity:0.17956657;stroke-width:0.19359139;filter:url(#filter30659)"
       d="m 71.241966,223.55001 c -0.04844,0 -0.09693,0.003 -0.145196,0.007 -0.709919,0.13547 -0.88389,0.43873 -0.871164,1.16117 v 22.45055 c 7.8e-5,0.81067 0.35069,1.1611 1.161549,1.16117 h 17.810037 c 0.81085,-7e-5 1.161086,-0.3505 1.161162,-1.16117 v -13.90341 c 0.0093,-0.40885 -0.151008,-0.81894 -0.435581,-1.11278 l -8.161841,-8.15995 c -0.293902,-0.28442 -0.704202,-0.44505 -1.113149,-0.43558 h -9.260628 c -0.04827,-0.004 -0.09672,-0.007 -0.145189,-0.007 z m 13.55329,0.003 c -0.04066,0 -0.08122,0.004 -0.12137,0.01 -0.515433,0.1651 -0.688882,0.94948 -0.291523,1.31847 l 4.664719,4.68891 c 0.430918,0.41075 1.288952,0.0593 1.311649,-0.53729 v -4.68892 c -4.3e-5,-0.40919 -0.370331,-0.7811 -0.777386,-0.78117 h -4.664344 c -0.04023,-0.006 -0.08114,-0.01 -0.121745,-0.01 z"
       id="path30639"
       transform="matrix(0.72750968,0,0,0.72750968,27.47132,-118.74239)" />
    <g
       id="g25451"
       transform="matrix(0.53230722,0,0,0.53230722,64.857514,-1.7368166)">
      <path
         id="path20676"
         d="m 26.118232,86.02899 c -0.06624,0 -0.132482,0.003 -0.198437,0.0093 -0.970249,0.185156 -1.208024,0.599611 -1.190625,1.586983 v 30.683397 c 1.05e-4,1.10794 0.47929,1.58688 1.5875,1.58699 h 24.341152 c 1.108207,-1.1e-4 1.586875,-0.47905 1.586981,-1.58699 V 99.306733 c 0.0127,-0.558774 -0.206385,-1.119253 -0.595312,-1.520838 L 40.494619,86.633604 C 40.092931,86.244878 39.532173,86.025353 38.973265,86.038291 H 26.31667 c -0.06593,-0.0063 -0.132192,-0.0093 -0.198438,-0.0093 z m 18.523421,0.0036 c -0.05555,0 -0.110987,0.0045 -0.16588,0.01292 -0.704445,0.225637 -0.941502,1.297661 -0.398426,1.801957 l 6.37532,6.408395 c 0.588944,0.561366 1.761622,0.08102 1.792652,-0.734323 v -6.408394 c -6.3e-5,-0.55925 -0.506142,-1.067556 -1.062463,-1.067635 H 44.80805 c -0.05492,-0.0085 -0.110845,-0.01292 -0.166397,-0.01292 z"
         style="fill:url(#k-8);stroke-width:0.26458332"
         inkscape:connector-curvature="0" />
      <path
         style="fill:url(#calc9);stroke-width:0.26458332"
         id="path20678"
         d="m 26.316156,87.61649 v 30.69167 H 50.657827 V 99.258157 L 39.016162,87.61649 Z"
         inkscape:connector-curvature="0" />
      <g
         id="g20732"
         transform="matrix(0.26458333,0,0,0.26458333,-94.333852,86.558156)">
        <path
           id="path20680"
           d="m 469,53.998 v 2 8 2 8 2 8 2 8 2 8 2 h 60 v -2 -50 h -58 z"
           inkscape:connector-curvature="0"
           style="fill:url(#b-3)" />
        <g
           id="g20688"
           style="fill:#92e285">
          <path
             id="path20682"
             d="m 470.99924,55.99855 h 17 v 8 h -17 z"
             inkscape:connector-curvature="0" />
          <path
             id="path20684"
             d="m 489.99748,55.99855 h 17.99994 v 8 h -17.99994 z"
             inkscape:connector-curvature="0" />
          <path
             id="path20686"
             d="m 509.99924,55.99855 h 17 v 8 h -17 z"
             inkscape:connector-curvature="0" />
        </g>
        <g
           id="g20708"
           style="fill:#ccf4c6">
          <path
             id="path20690"
             d="m 470.99924,65.99855 h 17 v 8 h -17 z"
             inkscape:connector-curvature="0" />
          <path
             id="path20692"
             d="m 509.99924,65.99855 h 17 v 8 h -17 z"
             inkscape:connector-curvature="0" />
          <path
             id="path20694"
             d="m 489.99748,75.99855 h 17.99994 v 8 h -17.99994 z"
             inkscape:connector-curvature="0" />
          <path
             id="path20696"
             d="m 509.99924,75.99855 h 17 v 8 h -17 z"
             inkscape:connector-curvature="0" />
          <path
             id="path20698"
             d="m 470.99924,75.99855 h 17 v 8 h -17 z"
             inkscape:connector-curvature="0" />
          <path
             id="path20700"
             d="m 489.99748,85.99855 h 17.99994 v 8 h -17.99994 z"
             inkscape:connector-curvature="0" />
          <path
             id="path20702"
             d="m 470.99924,85.99855 h 17 v 8 h -17 z"
             inkscape:connector-curvature="0" />
          <path
             id="path20704"
             d="m 489.99748,95.99855 h 17.99994 v 8 h -17.99994 z"
             inkscape:connector-curvature="0" />
          <path
             id="path20706"
             d="m 470.99924,95.99855 h 17 v 8 h -17 z"
             inkscape:connector-curvature="0" />
        </g>
        <path
           style="fill:url(#calc2)"
           id="path20710"
           d="m 493.99924,81.99855 h 39 v 28 h -39 z"
           inkscape:connector-curvature="0" />
        <path
           style="fill:url(#calc3)"
           id="path20712"
           d="m 495.99924,83.99855 h 35 v 24 h -35 z"
           inkscape:connector-curvature="0" />
        <path
           id="path20714"
           d="m 497.99924,90.99855 h 7 v 15.9999 h -7 z"
           inkscape:connector-curvature="0"
           style="fill:#18a303" />
        <path
           style="fill:url(#calc4)"
           id="path20716"
           d="m 498.99924,105.99855 h 5 v -14 h -5 z"
           inkscape:connector-curvature="0" />
        <path
           style="fill:url(#calc5)"
           id="path20718"
           d="m 505.99924,85.99855 h 7 v 20.9999 h -7 z"
           inkscape:connector-curvature="0" />
        <path
           style="fill:url(#calc6)"
           id="path20720"
           d="m 506.99924,105.99855 h 5 v -19 h -5 z"
           inkscape:connector-curvature="0" />
        <path
           id="path20722"
           d="m 513.99924,96.99855 h 7 v 9.9999 h -7 z"
           inkscape:connector-curvature="0"
           style="fill:#c99c00" />
        <path
           style="fill:url(#calc7)"
           id="path20724"
           d="m 514.99924,105.99855 h 5 v -8 h -5 z"
           inkscape:connector-curvature="0" />
        <path
           id="path20726"
           d="m 521.99924,92.99855 h 7 v 14 h -7 z"
           inkscape:connector-curvature="0"
           style="fill:#43c330" />
        <path
           style="fill:url(#calc8)"
           id="path20728"
           d="m 522.99924,105.99855 h 5 v -12 h -5 z"
           inkscape:connector-curvature="0" />
        <path
           id="path20730"
           d="m 489.99748,65.99855 h 17.99994 v 8 h -17.99994 z"
           inkscape:connector-curvature="0"
           style="fill:#ccf4c6" />
      </g>
    </g>
    <path
       id="path30533"
       d="m 49.454274,223.55001 c -0.04844,0 -0.09693,0.003 -0.145196,0.007 -0.709919,0.13547 -0.88389,0.43873 -0.871164,1.16117 v 22.45055 c 7.8e-5,0.81067 0.35069,1.1611 1.161549,1.16117 H 67.4095 c 0.81085,-7e-5 1.161086,-0.3505 1.161162,-1.16117 v -13.90341 c 0.0093,-0.40885 -0.151008,-0.81894 -0.435582,-1.11278 l -8.16184,-8.15995 c -0.293902,-0.28442 -0.704202,-0.44505 -1.113149,-0.43558 h -9.260628 c -0.04827,-0.004 -0.09672,-0.007 -0.145189,-0.007 z m 13.553289,0.003 c -0.04065,0 -0.08122,0.004 -0.121369,0.01 -0.515434,0.1651 -0.688882,0.94948 -0.291523,1.31847 l 4.664719,4.68891 c 0.430918,0.41075 1.288952,0.0593 1.311648,-0.53729 v -4.68892 c -4.2e-5,-0.40919 -0.37033,-0.7811 -0.777385,-0.78117 h -4.664344 c -0.04023,-0.006 -0.08113,-0.01 -0.121746,-0.01 z"
       style="fill:#241c1c;fill-opacity:0.17956657;stroke-width:0.19359139;filter:url(#filter30663)"
       inkscape:connector-curvature="0"
       transform="matrix(0.72750968,0,0,0.72750968,26.480365,-118.74239)" />
    <g
       id="g14378"
       transform="matrix(0.53230722,0,0,0.53230722,49.145807,16.0976)">
      <path
         id="path8811"
         d="m 23.917134,52.525 c -0.06624,0 -0.132482,0.003 -0.198437,0.0093 -0.970248,0.185155 -1.208024,0.599611 -1.190625,1.586983 v 30.683398 c 1.06e-4,1.107942 0.47929,1.586878 1.5875,1.586984 h 24.341152 c 1.108207,-1.06e-4 1.586875,-0.479042 1.586981,-1.586984 v -19.00194 c 0.0127,-0.558774 -0.206385,-1.119253 -0.595312,-1.520838 L 38.293521,53.129614 C 37.891833,52.740888 37.331075,52.521363 36.772167,52.534302 H 24.115572 c -0.06593,-0.0063 -0.132191,-0.0093 -0.198438,-0.0093 z m 18.523421,0.0036 c -0.05555,0 -0.110987,0.0045 -0.16588,0.01292 -0.704445,0.225637 -0.941502,1.297662 -0.398426,1.801958 l 6.37532,6.408394 c 0.588944,0.561366 1.761622,0.08102 1.792652,-0.734322 V 53.609155 C 50.044158,53.049906 49.538079,52.5416 48.981758,52.54152 h -6.374806 c -0.05492,-0.0085 -0.110845,-0.01292 -0.166397,-0.01292 z"
         style="fill:url(#k);stroke-width:0.26458332"
         inkscape:connector-curvature="0" />
      <path
         style="fill:url(#grey);stroke-width:0.26458332"
         id="path8813"
         d="m 24.115059,54.1125 v 30.691667 h 24.34167 v -19.05 L 36.815064,54.1125 Z"
         inkscape:connector-curvature="0" />
      <path
         id="path8815"
         d="m 27.554642,67.340633 v 1.058334 h 4.7625 v -1.058334 z m 5.820317,5.29e-4 v 7.408334 h 11.1125 v -7.408334 z m 0.794266,0.794255 h 9.525 v 5.820833 h -9.525 z M 27.554642,69.4573 v 1.058333 h 4.7625 V 69.4573 Z m 0,2.116667 V 72.6323 h 4.7625 v -1.058333 z m 0,2.116666 v 1.058334 h 4.7625 v -1.058334 z m 0,2.116667 v 1.058333 H 44.487975 V 75.8073 Z m 0,2.116667 V 78.9823 h 16.933333 v -1.058333 z m 0,2.116665 v 1.058333 h 11.1125 v -1.058333 z"
         style="fill:url(#i-9);stroke-width:0.26458332"
         inkscape:connector-curvature="0" />
      <path
         style="fill:url(#blue);stroke-width:0.26458332"
         id="path8817"
         d="m 34.169212,68.135073 h 9.524799 v 5.820807 h -9.524799 z"
         inkscape:connector-curvature="0" />
      <path
         id="path8819"
         d="m 41.154064,69.751941 c 0.634987,0.323401 1.738524,1.44952 2.539592,2.26367 v 0.970121 h -7.302174 c 1.270156,-1.616869 3.175116,-2.587017 4.762582,-3.233791 z"
         style="fill:url(#g);stroke-width:0.26458332"
         inkscape:connector-curvature="0" />
      <path
         id="path8821"
         d="m 38.822471,71.631594 0.05549,-0.456644 0.833805,-0.363326 0.468931,-0.446273 0.824545,-0.340518 -0.215175,0.551682 -0.321445,0.573511 -0.191336,0.623279 -0.132323,0.359119 z"
         style="fill:#333333;stroke-width:0.26458332"
         inkscape:connector-curvature="0" />
      <path
         id="path8823"
         d="m 39.090356,71.20715 c -0.950375,-0.80309 -1.428718,-1.455209 -2.063705,-2.42533 -0.185682,0.05712 -0.178588,0.0354 -0.317495,0 0,0 -0.849479,1.285399 -1.269973,1.940269 -0.420489,0.654897 -1.270156,1.616895 -1.270156,1.616895 v 0.646748 h 7.302177 c 0,0 -1.744514,-1.283467 -2.380848,-1.778556 z"
         style="fill:url(#f);stroke-width:0.26458332"
         inkscape:connector-curvature="0" />
      <path
         style="fill:url(#green);stroke-width:0.26458332"
         id="path8825"
         d="m 43.694011,72.338984 h -0.409279 l -1.813174,0.323374 c 0,0 -1.791747,-0.485061 -2.061284,-0.485061 -0.264826,0 -1.113652,0.161687 -1.272489,0.161687 -0.111321,0 -0.793642,-0.323373 -0.954995,-0.323373 -0.266221,0 -0.573006,0.343588 -1.366737,0.48506 0,0 -0.228045,-0.515355 -0.37687,-0.48506 -0.952479,0.373909 -1.270156,0.323373 -1.270156,0.323373 v 1.616896 h 9.524629 l 2.65e-4,-1.616896 h 3.7e-5 z"
         inkscape:connector-curvature="0" />
      <path
         style="fill:url(#darkb);stroke-width:0.26458332"
         id="path8827"
         d="m 34.169212,72.662358 -1.85e-4,1.293522 h 8.25501 l 0.317495,-0.323401 -0.317495,-0.323347 -0.634986,-0.3234 -1.587469,-0.323347 -1.587465,-0.161714 -1.428719,0.161714 h -1.90496 -1.111226 z"
         inkscape:connector-curvature="0" />
      <path
         id="path8829"
         d="m 34.804199,72.015611 0.45235,-0.739617 0.536154,-0.646297 0.409401,-0.75954 0.507052,-0.764963 -0.344154,0.966047 -0.251997,0.79584 -0.12188,0.501994 -0.227431,0.534881 c -0.09155,-0.06802 -0.207298,-0.07054 -0.311682,-0.105039 l -0.298076,0.119009 z"
         style="fill:#333333;stroke-width:0.26458332"
         inkscape:connector-curvature="0" />
      <path
         id="path8831"
         d="m 39.249103,72.015611 -0.462274,-0.713529 -0.819783,-0.910563 -0.678248,-0.908262 -0.262147,-0.378063 0.28412,0.981498 0.311605,0.588619 0.276413,0.899133 0.08034,0.441167 0.285384,0.09739 0.436243,-0.102923 c 0.183136,-0.01852 0.366284,0.0034 0.548343,0.0056 z"
         style="fill:#808080;stroke-width:0.26458332"
         inkscape:connector-curvature="0" />
      <path
         id="path8833"
         d="m 35.968934,72.029925 0.341352,-0.878073 0.166489,-0.90641 0.2408,-0.559593 0.150329,-0.580655 0.208677,0.597456 0.05928,0.570574 0.252421,0.508291 0.250235,0.583961 0.04678,0.412512 -0.420322,0.120174 -0.39927,-0.158538 -0.441373,0.29165 h -0.455398 v -0.0026 z"
         style="fill:#666666;stroke-width:0.26458332"
         inkscape:connector-curvature="0" />
      <path
         id="path8835"
         d="m 40.06107,72.17788 -0.55612,-0.408279 -0.355192,-0.288581 0.344969,0.547529 z"
         style="fill:#808080;stroke-width:0.26458332"
         inkscape:connector-curvature="0" />
      <path
         id="path8837"
         d="m 40.526996,71.788519 0.196255,-0.643705 0.240794,-0.559594 0.150331,-0.580601 0.208677,0.597455 0.267637,0.509932 0.192894,0.508291 -0.02756,0.54356 0.265055,0.271012 -0.545651,-0.03006 -1.101262,-0.232119 0.15284,-0.384255 z"
         style="fill:#666666;stroke-width:0.26458332"
         inkscape:connector-curvature="0" />
      <path
         id="path8839"
         d="m 43.565029,72.146976 -0.37298,-0.228467 -0.522134,-0.728689 -0.767543,-0.675826 -0.599483,-0.509375 0.115451,0.425661 0.529881,0.85135 0.05814,0.767794 0.318463,0.249132 0.714359,-0.141473 0.525849,-0.01005 z"
         style="fill:#808080;stroke-width:0.26458332"
         inkscape:connector-curvature="0" />
      <path
         id="path8841"
         d="m 34.486704,72.985732 -0.317492,0.970148 h 7.937331 v -0.323401 l -0.317492,-0.323347 -1.587469,-0.3234 -1.587465,-0.161661 -1.587466,0.161661 -1.718151,0.04823 z"
         style="fill:#0369a3;stroke-width:0.26458332"
         inkscape:connector-curvature="0" />
      <path
         id="path8843"
         d="m 37.661638,73.632479 0.317495,-0.323347 h 1.26997 l 0.952479,0.323347 0.317495,0.323401 H 39.88409 Z"
         style="opacity:0.5;fill:#1c99e0;stroke-width:0.26458332"
         inkscape:connector-curvature="0" />
      <path
         style="opacity:0.73999999;fill:url(#sol);stroke-width:0.26458332"
         id="path8845"
         d="m 43.694027,69.723642 c -0.876753,0 -1.5875,-0.71075 -1.5875,-1.587503 h 1.5875 z"
         inkscape:connector-curvature="0" />
    </g>
    <path
       sodipodi:nodetypes="cscsccccccccccscccccscccccssccsccsccccccssccscsccscscscccccccccccscscsccccccssccccccccccccccccccccccccccsccccccccccscscccccccscccccccccsccccccccccccccccccccsccccccccscssccccscccccscccccscccscccscccccscscccscccccccccccccccccccccccccccccccccccccsccccccscccccsccssscccscsccccccscscccccccccccccsssccccccscccsccscssccccccccccscccccccccccccccsccsccccccccsccccccccscscccccccccccccccccccccccccccccsccscccssccccccccccccccccccscccccscsccccscccsccc"
       style="fill:#0f0f0f;stroke-width:0.07120989"
       d="m 62.225431,94.024456 c -1.140987,-0.188601 -1.741647,-1.062453 -1.664182,-2.421036 0.04195,-0.735809 0.25213,-1.261525 0.672341,-1.681742 0.434485,-0.434477 0.74703,-0.55677 1.422969,-0.55677 0.532048,0 0.607531,0.01826 0.890122,0.216019 0.1818,0.127193 0.387712,0.362325 0.500734,0.571801 0.207047,0.383747 0.372367,1.203153 0.300503,1.489467 l -0.04434,0.176654 -1.505839,0.01921 -1.505842,0.01921 -0.02238,0.232762 c -0.02993,0.310806 0.269851,0.952542 0.529545,1.133583 0.45679,0.318439 0.985292,0.383522 1.667052,0.205298 0.435843,-0.113924 0.517829,-0.07752 0.483949,0.215014 -0.01937,0.167195 -0.07218,0.21563 -0.308208,0.282668 -0.426661,0.121218 -1.025064,0.162565 -1.416399,0.09791 z m 1.400926,-3.073398 c -0.02212,-0.37932 -0.266777,-0.814818 -0.537107,-0.956119 -0.344289,-0.179954 -0.853831,-0.150228 -1.185349,0.0691 -0.297021,0.196564 -0.576397,0.680519 -0.576397,0.998487 v 0.192895 l 1.15716,-0.01958 1.157161,-0.01958 z m 11.720358,3.074861 c -1.039524,-0.169405 -1.6999,-1.081045 -1.6999,-2.346685 0,-0.945753 0.389173,-1.707078 1.070049,-2.093259 0.356502,-0.202218 0.444437,-0.221022 1.030642,-0.220562 0.76191,5.29e-4 1.066239,0.12927 1.516997,0.64135 0.338931,0.385059 0.504385,0.817314 0.561374,1.466665 0.143822,1.638903 -0.980712,2.796685 -2.479162,2.552491 z m 0.889074,-0.593209 c 0.313452,-0.130977 0.651137,-0.554133 0.766038,-0.959943 0.141817,-0.500883 0.104894,-1.354931 -0.07628,-1.76453 -0.178885,-0.404402 -0.319781,-0.57163 -0.606515,-0.719918 -0.279852,-0.144711 -0.872903,-0.139682 -1.162066,0.0098 -0.887518,0.458949 -1.074071,2.321947 -0.313597,3.13172 0.361402,0.384836 0.910391,0.504219 1.392425,0.302808 z m 4.170299,0.594894 C 79.746048,93.917508 79.207679,93.5129 78.901728,92.897 c -0.139745,-0.28131 -0.162814,-0.438457 -0.163083,-1.110959 -2.04e-4,-0.693965 0.02066,-0.828037 0.183615,-1.175409 0.101161,-0.215646 0.293233,-0.501388 0.426826,-0.634965 0.553709,-0.55371 1.604076,-0.788917 2.439112,-0.546143 0.394337,0.114626 0.403804,0.123381 0.403804,0.37352 0,0.251511 -0.0043,0.255273 -0.231431,0.207418 -0.61659,-0.129813 -1.010004,-0.173157 -1.215953,-0.133961 -0.900952,0.171497 -1.407449,0.97817 -1.304743,2.078016 0.11452,1.226333 1.005044,1.825051 2.198524,1.478092 0.21863,-0.06357 0.413125,-0.11557 0.432231,-0.11557 0.08403,0 0.120285,0.378397 0.04493,0.46917 -0.16514,0.19898 -1.139206,0.336523 -1.709476,0.241395 z m 3.922208,0.0037 c -0.335235,-0.0632 -0.518888,-0.170468 -0.738151,-0.43104 -0.297188,-0.353203 -0.334039,-0.643213 -0.313499,-2.467557 l 0.01913,-1.696599 0.27759,-0.02265 c 0.17394,-0.01426 0.299837,0.01225 0.337159,0.07125 0.03274,0.05169 0.06008,0.807972 0.06064,1.680644 0.0011,1.703509 0.04291,1.952181 0.365458,2.178122 0.359265,0.251626 1.153896,0.08829 1.471809,-0.302356 0.288618,-0.35474 0.329726,-0.589946 0.368636,-2.109475 l 0.03832,-1.495409 0.300283,-0.02172 c 0.263232,-0.01908 0.305242,-0.0019 0.340389,0.142414 0.02207,0.09027 0.03114,1.109501 0.02016,2.264889 l -0.01998,2.100702 h -0.320444 c -0.314393,0 -0.320881,-0.0047 -0.343326,-0.249248 -0.01259,-0.137075 -0.0461,-0.273108 -0.07444,-0.302316 -0.02839,-0.02921 -0.192562,0.07454 -0.364898,0.230521 -0.414867,0.375447 -0.914643,0.52627 -1.424853,0.430022 z m 13.102624,0.02281 c -0.987129,-0.148642 -1.517928,-0.614166 -1.755225,-1.539348 -0.304196,-1.186056 0.200076,-2.498487 1.147842,-2.987371 0.352211,-0.181668 1.065414,-0.246023 1.422101,-0.128317 0.337487,0.111387 0.722591,0.448101 0.891765,0.779716 0.163478,0.320432 0.306811,1.027314 0.27541,1.358262 l -0.02363,0.248952 -1.531017,0.03923 c -0.842057,0.02162 -1.543381,0.0456 -1.558496,0.05337 -0.07908,0.04101 0.08719,0.719347 0.240363,0.9807 0.344686,0.588168 1.086686,0.798025 1.989796,0.562798 0.229217,-0.05983 0.42371,-0.09976 0.432205,-0.08905 0.0086,0.01069 0.03636,0.106685 0.06189,0.213188 0.06424,0.26793 -0.150932,0.394819 -0.815732,0.481134 -0.29043,0.03773 -0.544071,0.06515 -0.563658,0.06104 -0.01958,-0.0037 -0.115715,-0.01958 -0.213624,-0.03426 z m 1.267259,-2.957052 c 0.04212,-0.219437 -0.12786,-0.684551 -0.328845,-0.899702 -0.394076,-0.421857 -1.094127,-0.433353 -1.534877,-0.02508 -0.231006,0.213919 -0.467776,0.677911 -0.47012,0.921322 l -0.0019,0.161978 1.156255,-0.01958 c 1.015307,-0.01722 1.15905,-0.03409 1.179153,-0.138825 z m 8.061231,2.937804 c -0.34456,-0.07004 -0.54798,-0.191328 -0.6943,-0.414319 -0.10711,-0.163232 -0.12962,-0.430578 -0.16021,-1.902365 l -0.0356,-1.712425 -0.32045,-0.03558 c -0.31196,-0.03455 -0.32044,-0.04213 -0.32044,-0.284839 0,-0.239311 0.0113,-0.250161 0.28392,-0.272344 0.15615,-0.01262 0.30787,-0.06077 0.33715,-0.106818 0.0293,-0.04597 0.0536,-0.269708 0.0543,-0.497062 l 0.001,-0.413363 0.33825,0.02172 0.33825,0.02175 0.0356,0.462878 0.0356,0.462867 0.48012,0.02106 c 0.4432,0.0195 0.48351,0.03455 0.52422,0.196754 0.0726,0.289174 -0.076,0.387501 -0.5858,0.387501 h -0.45416 v 1.527657 c 0,0.98371 0.0286,1.590519 0.0804,1.704221 0.10146,0.222649 0.39828,0.348054 0.75047,0.317039 0.25423,-0.0223 0.27445,-0.01016 0.29621,0.180475 0.0127,0.112472 -0.003,0.228886 -0.0356,0.258713 -0.0929,0.0853 -0.67468,0.13232 -0.9491,0.07657 z m 9.87123,-0.0099 c -1.00567,-0.168016 -1.6821,-1.091169 -1.6821,-2.295639 0,-1.38996 0.73128,-2.298465 1.91849,-2.383399 0.93927,-0.06723 1.64637,0.352706 2.04045,1.21171 0.18068,0.393859 0.20361,0.522502 0.19978,1.121389 -0.005,0.730435 -0.10984,1.117695 -0.42883,1.578687 -0.4171,0.602779 -1.2236,0.904943 -2.04779,0.767252 z m 1.13417,-0.741548 c 0.15697,-0.119713 0.33443,-0.356669 0.44025,-0.587804 0.15989,-0.34925 0.17466,-0.458401 0.15045,-1.112356 -0.0234,-0.633277 -0.0514,-0.767045 -0.22086,-1.056193 -0.2587,-0.441417 -0.60255,-0.648644 -1.07633,-0.648644 -0.42496,0 -0.73513,0.138679 -0.99141,0.443248 -0.27372,0.325295 -0.36964,0.687526 -0.37017,1.397987 -5.3e-4,0.578131 0.0219,0.689666 0.21314,1.06267 0.16744,0.326636 0.28292,0.453787 0.53408,0.588092 0.4341,0.23213 0.94672,0.198364 1.32085,-0.08698 z m 3.55703,0.749054 c -0.45001,-0.107214 -0.68282,-0.28789 -0.85925,-0.666831 -0.16742,-0.359577 -0.17192,-0.416359 -0.1726,-2.171375 l -5.3e-4,-1.802143 0.30264,0.02191 0.30264,0.02191 0.0417,1.673423 c 0.0235,0.943835 0.0755,1.754738 0.11929,1.859918 0.25283,0.607348 1.18914,0.674338 1.70491,0.121954 0.34944,-0.37425 0.40127,-0.639103 0.434,-2.216994 l 0.0307,-1.481309 0.2945,0.02154 0.2945,0.02154 0.0188,2.260909 0.0188,2.260929 h -0.32145 c -0.31495,0 -0.32146,-0.0047 -0.32253,-0.231437 -0.002,-0.43987 -0.0972,-0.468246 -0.45723,-0.136406 -0.17935,0.165315 -0.39794,0.327062 -0.48577,0.359468 -0.26405,0.09741 -0.71581,0.137221 -0.94297,0.08307 z m 10.30027,-0.0099 c -1.01739,-0.19641 -1.55436,-1.075145 -1.49271,-2.442792 0.0461,-1.022408 0.42613,-1.710393 1.14187,-2.067052 0.26935,-0.134231 0.48005,-0.183565 0.78394,-0.183565 0.48621,0 0.78727,0.110723 1.13765,0.418354 0.13941,0.122407 0.27327,0.222538 0.29746,0.222538 0.0242,0 0.044,-0.604919 0.044,-1.344266 0,-1.487937 0.013,-1.53221 0.44042,-1.491181 l 0.23608,0.02265 0.0185,3.400279 0.0185,3.400253 H 133.933 c -0.31187,0 -0.31534,-0.0026 -0.363,-0.284824 -0.0513,-0.303281 -0.16497,-0.364924 -0.29352,-0.159073 -0.11391,0.182386 -0.72823,0.49134 -1.05948,0.532834 -0.15664,0.01958 -0.42433,0.0084 -0.59482,-0.02402 z m 1.03526,-0.567769 c 0.285,-0.107667 0.58846,-0.411636 0.74195,-0.743164 0.10033,-0.216694 0.1321,-0.455216 0.13275,-0.996942 0.001,-0.885415 -0.17388,-1.338734 -0.6343,-1.643425 -0.49902,-0.330229 -1.21008,-0.244409 -1.62096,0.195635 -0.39633,0.424479 -0.55836,1.424906 -0.34799,2.14857 0.24881,0.855882 1.00719,1.311889 1.72855,1.039326 z m 3.82723,0.578371 c -0.76773,-0.183054 -1.16714,-0.911442 -0.99703,-1.818232 0.0576,-0.307232 0.39658,-0.710198 0.74825,-0.889611 0.36181,-0.184579 1.0248,-0.293998 1.46672,-0.242049 0.33616,0.03951 0.37873,0.02903 0.4209,-0.103878 0.069,-0.217644 -0.0761,-0.674563 -0.27322,-0.859714 -0.3059,-0.287361 -0.69603,-0.313007 -1.66332,-0.109355 -0.22656,0.04775 -0.23143,0.04345 -0.23143,-0.202435 0,-0.218644 0.03,-0.262059 0.23143,-0.335283 0.12729,-0.04626 0.49062,-0.10165 0.8074,-0.123092 0.88181,-0.05983 1.38704,0.154694 1.68616,0.71554 0.15132,0.283718 0.15825,0.374253 0.15861,2.076891 l 8e-4,1.780255 h -0.32045 c -0.28867,0 -0.32256,-0.0176 -0.34174,-0.178025 -0.0447,-0.373962 -0.0781,-0.39093 -0.31924,-0.162169 -0.40783,0.386943 -0.92718,0.557559 -1.37345,0.451157 z m 1.10253,-0.699537 c 0.29106,-0.215141 0.50429,-0.667689 0.55118,-1.169866 0.0566,-0.606565 -0.005,-0.65605 -0.76222,-0.612214 -0.64554,0.03745 -0.87298,0.154591 -1.08626,0.559845 -0.23834,0.452914 -0.052,1.098759 0.38461,1.332924 0.22141,0.118763 0.67701,0.06347 0.91269,-0.110689 z m 3.78029,0.701048 c -0.33248,-0.0676 -0.52566,-0.197909 -0.686,-0.462667 -0.1166,-0.192566 -0.13728,-0.424788 -0.16851,-1.892911 l -0.0356,-1.673434 -0.17803,-0.01992 c -0.46581,-0.05225 -0.50824,-0.08015 -0.485,-0.32076 0.0208,-0.214381 0.0426,-0.231256 0.34258,-0.264586 l 0.32045,-0.03558 0.0356,-0.462867 0.0356,-0.462878 0.33489,-0.02162 0.33492,-0.02162 0.0211,0.484431 0.0212,0.484431 0.49847,0.03558 0.49846,0.03558 v 0.249232 0.249232 l -0.49846,0.03558 -0.49847,0.03558 v 1.590667 1.590675 l 0.20536,0.176575 c 0.16427,0.141211 0.26975,0.172572 0.52696,0.156766 0.28291,-0.01736 0.32918,0 0.38457,0.150455 0.0434,0.117303 0.0345,0.196948 -0.0286,0.256233 -0.11927,0.112176 -0.66499,0.172032 -0.98158,0.107643 z m 5.67703,-0.0104 c -0.95437,-0.154935 -1.59076,-0.967057 -1.6706,-2.131949 -0.071,-1.034905 0.37631,-1.958822 1.14716,-2.369807 0.4244,-0.226266 1.44554,-0.226152 1.87017,1.99e-4 0.41632,0.221956 0.7325,0.56176 0.94583,1.016547 0.16121,0.343636 0.18394,0.484495 0.18394,1.139801 0,0.656199 -0.0226,0.79561 -0.18445,1.139339 -0.25633,0.544359 -0.50836,0.818261 -0.94036,1.022098 -0.42851,0.202179 -0.86913,0.262083 -1.35169,0.183748 z m 0.89437,-0.591772 c 0.71749,-0.307002 1.07063,-1.355149 0.80542,-2.390408 -0.20291,-0.791998 -0.61435,-1.163608 -1.28837,-1.163608 -0.83514,0 -1.32345,0.626107 -1.34322,1.722226 -0.012,0.661844 0.11273,1.117907 0.40129,1.467995 0.36095,0.437891 0.91883,0.580319 1.42488,0.363795 z m -79.858504,0.544404 c -0.182917,-0.01463 -0.36752,-0.06845 -0.410231,-0.120005 -0.05406,-0.06518 -0.07201,-1.020172 -0.05907,-3.142263 l 0.01857,-3.048693 0.213627,-0.06273 c 0.409707,-0.120176 2.094175,-0.09592 2.675401,0.03858 1.476973,0.341689 2.273685,1.351085 2.273685,2.88067 0,1.09964 -0.298262,1.876142 -0.961598,2.503514 -0.859269,0.81267 -1.964415,1.092838 -3.750384,0.950862 z m 2.302309,-0.727208 c 0.726297,-0.273701 1.30992,-0.886944 1.521203,-1.598406 0.131871,-0.444047 0.136266,-1.48405 0.008,-1.91 -0.219867,-0.730565 -0.81075,-1.295387 -1.594062,-1.523781 -0.481153,-0.140279 -1.864246,-0.150048 -1.950683,-0.01378 -0.03236,0.05113 -0.05941,1.22346 -0.06001,2.605305 l -0.0011,2.512443 0.160222,0.06937 c 0.270576,0.117157 1.464148,0.02931 1.916332,-0.141158 z M 52.42627,91.127549 c 0,-2.112428 -0.02186,-2.859911 -0.08545,-2.923506 -0.05681,-0.05674 -0.367125,-0.08539 -0.92573,-0.08539 h -0.840279 v -0.285872 -0.285864 l 2.18971,0.01884 2.189702,0.01892 0.02196,0.26488 0.02196,0.264877 -0.912095,0.01995 -0.912096,0.01992 -0.03561,2.884003 -0.03561,2.883985 -0.338246,0.02177 -0.338246,0.0218 z m 3.394339,2.782787 c -0.02611,-0.02619 -0.04748,-1.528279 -0.04748,-3.338145 0,-3.622948 -0.0181,-3.481599 0.440418,-3.437583 l 0.236082,0.02267 0.01939,1.386633 c 0.01093,0.781622 0.04982,1.417045 0.08911,1.456346 0.0455,0.0455 0.162496,-0.02069 0.33665,-0.190383 0.724419,-0.705895 1.859238,-0.626716 2.296417,0.160208 0.175088,0.315158 0.17839,0.350747 0.200234,2.158169 l 0.02222,1.837753 -0.342654,-0.0218 -0.342657,-0.0218 -0.0356,-1.744665 c -0.03086,-1.511586 -0.05239,-1.769333 -0.161223,-1.929493 -0.350682,-0.516051 -1.200129,-0.458419 -1.671469,0.11339 -0.318426,0.386313 -0.374816,0.723196 -0.374816,2.239291 v 1.357074 h -0.308573 c -0.169717,0 -0.329941,-0.02133 -0.356053,-0.04749 z m 32.542913,0 c -0.0696,-0.06966 -0.05591,-4.315201 0.01429,-4.425887 0.03734,-0.05889 0.163221,-0.08539 0.337156,-0.07125 0.260254,0.02132 0.279021,0.03839 0.300474,0.271957 0.03469,0.377941 0.119925,0.403521 0.39008,0.117089 0.295561,-0.313402 0.654405,-0.473176 1.062358,-0.473036 0.520369,2.07e-4 0.790117,0.191117 1.165003,0.824548 0.06915,0.116824 0.1192,0.08642 0.503338,-0.306205 0.464796,-0.475001 0.695949,-0.565711 1.275344,-0.500404 0.427141,0.04822 0.769459,0.321895 0.933178,0.746239 0.114366,0.296399 0.130979,0.560811 0.130979,2.084115 v 1.744631 l -0.33256,0.02156 -0.332563,0.02154 -0.02347,-1.694883 c -0.02022,-1.458267 -0.04107,-1.727137 -0.149593,-1.925686 -0.191453,-0.350337 -0.421886,-0.470701 -0.816166,-0.426257 -0.273327,0.0309 -0.382272,0.08914 -0.598064,0.320538 -0.145116,0.15558 -0.301665,0.40708 -0.347879,0.558914 -0.04623,0.151825 -0.100939,0.924941 -0.121608,1.718053 l -0.03759,1.441987 h -0.30331 -0.303303 l -0.0271,-1.691643 c -0.02471,-1.545486 -0.0396,-1.713155 -0.172286,-1.940319 -0.189526,-0.324511 -0.419833,-0.440158 -0.801526,-0.402481 -0.373036,0.0368 -0.676412,0.294952 -0.891836,0.758796 -0.132403,0.285085 -0.151821,0.483504 -0.175959,1.79805 l -0.02716,1.477597 h -0.301382 c -0.165751,0 -0.322741,-0.02132 -0.348845,-0.04757 z m 12.232938,-0.04221 c -0.019,-0.04935 -0.026,-1.066784 -0.0156,-2.26092 l 0.0189,-2.171171 h 0.32044 0.32045 l 0.0219,0.302654 c 0.0263,0.363117 0.11828,0.380966 0.40394,0.07828 0.67032,-0.710221 1.88057,-0.630211 2.31575,0.153125 0.17508,0.315161 0.17838,0.350753 0.20024,2.158177 l 0.0222,1.837738 -0.34267,-0.0218 -0.34265,-0.0218 -0.0356,-1.744642 c -0.0309,-1.511601 -0.0523,-1.769327 -0.16122,-1.929495 -0.3288,-0.483862 -1.08676,-0.471069 -1.60317,0.02696 -0.37209,0.358926 -0.44311,0.728628 -0.44311,2.307013 v 1.375656 h -0.32268 c -0.19386,0 -0.33642,-0.03577 -0.35712,-0.08971 z m 10.3814,-3.092974 0.0185,-3.190565 1.58442,-0.01921 1.58442,-0.01921 v 0.284525 0.284504 l -1.22837,0.01947 -1.22837,0.01945 v 1.139365 1.139356 l 1.06815,0.03558 1.06815,0.03558 v 0.249232 0.249232 l -1.06815,0.03558 -1.06815,0.03558 -0.0356,1.424189 -0.0356,1.424199 -0.33899,0.0218 -0.33898,0.0218 z m 14.40121,3.097086 c -0.0197,-0.05158 -0.0275,-1.070896 -0.0172,-2.265032 l 0.0189,-2.171171 h 0.32046 0.32044 l 0.0219,0.302654 c 0.012,0.166452 0.0545,0.302631 0.0945,0.302631 0.0399,0 0.17355,-0.100968 0.29697,-0.224375 0.70909,-0.709094 1.89243,-0.631248 2.32822,0.153175 0.17687,0.318344 0.17802,0.332304 0.17802,2.136294 v 1.815843 h -0.32044 -0.32044 l -0.0356,-1.709034 c -0.0296,-1.417537 -0.0559,-1.746144 -0.15488,-1.926603 -0.37665,-0.687046 -1.55899,-0.421574 -1.92049,0.431189 -0.0585,0.138269 -0.10417,0.741259 -0.12915,1.709044 l -0.0386,1.495404 -0.30329,0.0218 c -0.20203,0.01463 -0.31534,-0.0099 -0.33933,-0.07202 z m 18.14145,-2.171343 0.0188,-2.26486 h 0.32045 0.32044 v 2.243119 2.243103 l -0.33925,0.0218 -0.33927,0.0218 z m 7.21862,2.144339 c -0.0664,-0.173119 -0.0492,-4.254076 0.0185,-4.360725 0.0373,-0.0588 0.16322,-0.08539 0.33715,-0.07126 0.26026,0.02138 0.27903,0.03839 0.30048,0.271958 0.0358,0.389834 0.11993,0.40664 0.46107,0.09223 0.38538,-0.355224 0.72739,-0.473017 1.26128,-0.434403 0.31035,0.02238 0.47631,0.07828 0.66902,0.22534 0.48978,0.37356 0.50281,0.435806 0.52745,2.520214 l 0.0221,1.869266 h -0.31714 c -0.22349,0 -0.32989,-0.03335 -0.36035,-0.112647 -0.0238,-0.06198 -0.0433,-0.81602 -0.0433,-1.675709 0,-1.753918 -0.0421,-1.964642 -0.43342,-2.166993 -0.54585,-0.282266 -1.29247,0.03408 -1.58595,0.67197 -0.13523,0.293944 -0.15356,0.482259 -0.17577,1.805765 l -0.0248,1.477614 h -0.3066 c -0.21391,0 -0.31969,-0.03399 -0.34984,-0.112647 z m -7.19088,-5.336169 c -0.0637,-0.06367 -0.11575,-0.204619 -0.11575,-0.313249 0,-0.439123 0.56727,-0.585657 0.78106,-0.201771 0.0979,0.175834 0.0979,0.215794 2e-5,0.391658 -0.13156,0.236291 -0.48658,0.302117 -0.66533,0.123362 z"
       id="path35821"
       inkscape:connector-curvature="0" />
  </g>
</svg>
