<?xml version="1.0" encoding="UTF-8" standalone="no"?>
<!-- Created with Inkscape (http://www.inkscape.org/) -->

<svg
   xmlns:dc="http://purl.org/dc/elements/1.1/"
   xmlns:cc="http://creativecommons.org/ns#"
   xmlns:rdf="http://www.w3.org/1999/02/22-rdf-syntax-ns#"
   xmlns:svg="http://www.w3.org/2000/svg"
   xmlns="http://www.w3.org/2000/svg"
   xmlns:xlink="http://www.w3.org/1999/xlink"
   xmlns:sodipodi="http://sodipodi.sourceforge.net/DTD/sodipodi-0.dtd"
   xmlns:inkscape="http://www.inkscape.org/namespaces/inkscape"
   width="851"
   height="315"
   viewBox="0 0 225.16041 83.343752"
   version="1.1"
   id="svg3134"
   inkscape:version="0.92.3 (2405546, 2018-03-11)"
   sodipodi:docname="dibujo.svg">
  <defs
     id="defs3128">
    <linearGradient
       inkscape:collect="always"
       xlink:href="#linearGradient3317"
       id="linearGradient4673"
       gradientUnits="userSpaceOnUse"
       gradientTransform="matrix(0.70959056,0,0,0.70959056,65.331278,205.91585)"
       x1="199.01804"
       y1="47.293537"
       x2="190.75688"
       y2="62.386272" />
    <linearGradient
       id="linearGradient3317"
       inkscape:collect="always">
      <stop
         id="stop3313"
         offset="0"
         style="stop-color:#fe8e29;stop-opacity:1;" />
      <stop
         id="stop3315"
         offset="1"
         style="stop-color:#0066ff;stop-opacity:1" />
    </linearGradient>
    <linearGradient
       inkscape:collect="always"
       xlink:href="#linearGradient3317"
       id="linearGradient4316"
       gradientUnits="userSpaceOnUse"
       x1="361.02408"
       y1="514.41864"
       x2="320.49225"
       y2="554.41284"
       gradientTransform="matrix(6.1328897,0,0,2.3213748,-1999.0412,-961.39405)" />
  </defs>
  <sodipodi:namedview
     id="base"
     pagecolor="#ffffff"
     bordercolor="#666666"
     borderopacity="1.0"
     inkscape:pageopacity="0.0"
     inkscape:pageshadow="2"
     inkscape:zoom="0.7"
     inkscape:cx="460.67271"
     inkscape:cy="240.30514"
     inkscape:document-units="mm"
     inkscape:current-layer="layer1"
     showgrid="false"
     units="px"
     showguides="true"
     inkscape:guide-bbox="true"
     inkscape:snap-global="false"
     inkscape:window-width="1600"
     inkscape:window-height="840"
     inkscape:window-x="0"
     inkscape:window-y="0"
     inkscape:window-maximized="1">
    <sodipodi:guide
       position="67.61919,99.290629"
       orientation="0,1"
       id="guide3886"
       inkscape:locked="false" />
  </sodipodi:namedview>
  <metadata
     id="metadata3131">
    <rdf:RDF>
      <cc:Work
         rdf:about="">
        <dc:format>image/svg+xml</dc:format>
        <dc:type
           rdf:resource="http://purl.org/dc/dcmitype/StillImage" />
        <dc:title></dc:title>
      </cc:Work>
    </rdf:RDF>
  </metadata>
  <g
     inkscape:label="Capa 1"
     inkscape:groupmode="layer"
     id="layer1"
     transform="translate(0,-213.65623)">
    <rect
       y="211.95535"
       x="-1.2212526"
       height="86.556549"
       width="228.6756"
       id="rect4298"
       style="display:inline;opacity:1;fill:url(#linearGradient4316);fill-opacity:1;stroke:none;stroke-width:0.14473794;stroke-miterlimit:4;stroke-dasharray:none;stroke-dashoffset:0;stroke-opacity:1;paint-order:fill markers stroke" />
    <rect
       y="180.9613"
       x="245.73486"
       height="26.458334"
       width="26.458334"
       id="rect20612"
       style="color:#000000;display:inline;overflow:visible;visibility:visible;fill:#ff8e2a;fill-opacity:1;fill-rule:nonzero;stroke:none;stroke-width:2.79010105;marker:none;enable-background:accumulate" />
    <rect
       style="display:inline;opacity:1;fill:#333333;fill-opacity:1;stroke:none;stroke-width:0.26499999;stroke-miterlimit:4;stroke-dasharray:none;stroke-dashoffset:0;stroke-opacity:1;paint-order:fill markers stroke"
       id="rect4538"
       width="26.444735"
       height="27.76697"
       x="265.68051"
       y="217.34863" />
    <g
       id="g3923"
       transform="matrix(1.1325188,0,0,1.1325188,-25.322158,-40.069282)"
       style="stroke-width:0.8829875">
      <g
         style="display:inline;fill:#ffffff;fill-opacity:1;stroke-width:0.8829875"
         transform="matrix(0.15999423,-0.0332472,0.03324723,0.15999439,218.2263,150.48372)"
         id="g14780-80-6-1-8-9">
        <path
           inkscape:connector-curvature="0"
           id="path14782-3-8-0-6-3"
           d="m -190.88509,549.55846 52.06891,51.75565 30.52019,-28.21031 -25.50547,-24.15111 -17.03141,16.57766 11.89183,11.39756 14.43039,-10.95934 1.2388,1.24669 -12.28329,12.79749 c -1.84296,1.8475 -3.85708,2.44832 -6.23129,0.42626 l -12.36732,-11.93974 c -1.48001,-1.85516 -1.80691,-3.67653 -0.58243,-5.45242 0,0 7.48483,-9.96501 17.76225,-18.95535 3.20411,-2.34714 5.98904,-1.76686 8.51775,0.60274 l 27.17969,23.66823 c 2.50926,2.87645 1.97316,6.47897 -0.64957,9.16365 l -31.25806,33.34621 c -2.95385,3.42313 -9.81213,3.20417 -12.78844,-0.10338 l -54.50543,-52.12566 z"
           style="color:#000000;display:inline;overflow:visible;visibility:visible;fill:#ffffff;fill-opacity:1;fill-rule:nonzero;stroke:none;stroke-width:2.28805351;marker:none;enable-background:accumulate"
           sodipodi:nodetypes="cccccccccccccccccccc" />
        <path
           sodipodi:nodetypes="cccccccccccccccccccc"
           style="color:#000000;display:inline;overflow:visible;visibility:visible;fill:#ffffff;fill-opacity:1;fill-rule:nonzero;stroke:none;stroke-width:2.28805351;marker:none;enable-background:accumulate"
           d="m -219.23273,519.18943 -52.06891,-51.75566 -30.52019,28.21032 25.50547,24.15111 17.03141,-16.57766 -11.89183,-11.39757 -14.43039,10.95934 -1.2388,-1.24669 12.28329,-12.79748 c 1.84296,-1.8475 3.85708,-2.44833 6.23129,-0.42627 l 12.36732,11.93975 c 1.48001,1.85515 1.80691,3.67652 0.58243,5.45241 0,0 -7.48483,9.96501 -17.76225,18.95535 -3.20411,2.34714 -5.98904,1.76686 -8.51775,-0.60274 l -27.17969,-23.66823 c -2.50926,-2.87645 -1.97316,-6.47896 0.64957,-9.16364 l 31.25806,-33.34622 c 2.95385,-3.42313 9.81213,-3.20417 12.78844,0.10339 l 54.50543,52.12565 z"
           id="path14784-1-8-6-8-3"
           inkscape:connector-curvature="0" />
        <path
           sodipodi:nodetypes="cccccccccccccccccccc"
           style="color:#000000;display:inline;overflow:visible;visibility:visible;fill:#ffffff;fill-opacity:1;fill-rule:nonzero;stroke:none;stroke-width:2.28805351;marker:none;enable-background:accumulate"
           d="m -189.8744,520.20012 51.75566,-52.06891 -28.21032,-30.52019 -24.15111,25.50547 16.57766,17.03141 11.39757,-11.89183 -10.95934,-14.43039 1.24669,-1.2388 12.79748,12.28329 c 1.8475,1.84296 2.44833,3.85708 0.42627,6.23129 l -11.93975,12.36732 c -1.85515,1.48001 -3.67652,1.80691 -5.45241,0.58243 0,0 -9.96501,-7.48483 -18.95535,-17.76225 -2.34714,-3.20411 -1.76686,-5.98904 0.60274,-8.51775 l 23.66823,-27.17969 c 2.87645,-2.50926 6.47896,-1.97316 9.16364,0.64957 l 33.34622,31.25806 c 3.42313,2.95385 3.20417,9.81213 -0.10339,12.78844 l -52.12565,54.50543 z"
           id="path14786-4-4-3-8-8"
           inkscape:connector-curvature="0" />
        <path
           inkscape:connector-curvature="0"
           id="path14788-8-3-2-4-0"
           d="m -220.24343,548.54776 -51.75566,52.06891 28.21032,30.52019 24.15111,-25.50547 -16.57766,-17.03141 -11.39757,11.89183 10.95934,14.43039 -1.24669,1.2388 -12.79748,-12.28329 c -1.8475,-1.84296 -2.44833,-3.85708 -0.42627,-6.23129 l 11.93975,-12.36732 c 1.85515,-1.48001 3.67652,-1.80691 5.45241,-0.58243 0,0 9.96501,7.48483 18.95535,17.76225 2.34714,3.20411 1.76686,5.98904 -0.60274,8.51775 l -23.66823,27.17969 c -2.87645,2.50926 -6.47896,1.97316 -9.16364,-0.64957 l -33.34622,-31.25806 c -3.42313,-2.95385 -3.20417,-9.81213 0.10339,-12.78844 l 52.12565,-54.50543 z"
           style="color:#000000;display:inline;overflow:visible;visibility:visible;fill:#ffffff;fill-opacity:1;fill-rule:nonzero;stroke:none;stroke-width:2.28805351;marker:none;enable-background:accumulate"
           sodipodi:nodetypes="cccccccccccccccccccc" />
        <g
           style="fill:#ffffff;fill-opacity:1;stroke-width:0.8829875"
           transform="matrix(1.0923337,0.25861982,-0.25861982,1.0923337,160.90403,65.72318)"
           id="g14790-9-1-0-3-5">
          <path
             sodipodi:nodetypes="ccsccc"
             inkscape:connector-curvature="0"
             id="path14792-0-49-6-1-6"
             d="m -212.37363,517.74995 15.31813,45.99113 c 0,0 10.85389,-5.00739 11.41711,1.79622 0.56321,6.80362 -14.99811,6.05293 -14.99811,6.05293 l -14.63562,-53.47392 z"
             style="color:#000000;display:inline;overflow:visible;visibility:visible;fill:#ffffff;fill-opacity:1;fill-rule:nonzero;stroke:none;stroke-width:2.28805351;marker:none;enable-background:accumulate" />
          <path
             style="color:#000000;display:inline;overflow:visible;visibility:visible;fill:#ffffff;fill-opacity:1;fill-rule:nonzero;stroke:none;stroke-width:2.28805351;marker:none;enable-background:accumulate"
             d="m -229.74419,444.99793 -15.31813,-45.99112 c 0,0 -10.85389,5.00739 -11.41711,-1.79622 -0.56321,-6.80363 14.99811,-6.05293 14.99811,-6.05293 l 14.63562,53.47391 z"
             id="path14798-5-2-1-4-6"
             inkscape:connector-curvature="0"
             sodipodi:nodetypes="ccsccc" />
          <path
             style="color:#000000;display:inline;overflow:visible;visibility:visible;fill:#ffffff;fill-opacity:1;fill-rule:nonzero;stroke:none;stroke-width:2.28805351;marker:none;enable-background:accumulate"
             d="m -184.6829,472.68866 45.99112,-15.31813 c 0,0 -5.00739,-10.85389 1.79622,-11.41711 6.80363,-0.56321 6.05293,14.99811 6.05293,14.99811 l -53.47391,14.63562 z"
             id="path14804-1-06-5-9-4"
             inkscape:connector-curvature="0"
             sodipodi:nodetypes="ccsccc" />
          <path
             sodipodi:nodetypes="ccsccc"
             inkscape:connector-curvature="0"
             id="path14810-3-8-5-2-0"
             d="m -257.43493,490.05922 -45.99112,15.31813 c 0,0 5.00739,10.85389 -1.79622,11.41711 -6.80363,0.56321 -6.05293,-14.99811 -6.05293,-14.99811 l 53.47391,-14.63562 z"
             style="color:#000000;display:inline;overflow:visible;visibility:visible;fill:#ffffff;fill-opacity:1;fill-rule:nonzero;stroke:none;stroke-width:2.28805351;marker:none;enable-background:accumulate" />
          <g
             id="g4806-01-9-4-0-0"
             style="fill:#ffffff;fill-opacity:1;stroke-width:0.8829875">
            <ellipse
               style="color:#000000;display:inline;overflow:visible;visibility:visible;fill:#ffffff;fill-opacity:1;fill-rule:nonzero;stroke:none;stroke-width:2.28805351;marker:none;enable-background:accumulate"
               id="ellipse14802-9-2-7-6-4"
               transform="matrix(-0.2246676,0.97443546,-0.98436155,-0.17615998,0,0)"
               cx="453.28552"
               cy="150.15218"
               rx="4.7945943"
               ry="4.8666015" />
            <ellipse
               style="color:#000000;display:inline;overflow:visible;visibility:visible;fill:#ffffff;fill-opacity:1;fill-rule:nonzero;stroke:none;stroke-width:2.28805351;marker:none;enable-background:accumulate"
               id="ellipse14802-7-92-66-6-8-6"
               transform="matrix(-0.2246676,0.97443546,-0.98436155,-0.17615998,0,0)"
               cx="463.44199"
               cy="143.8042"
               rx="4.7945943"
               ry="4.8666015" />
          </g>
          <g
             transform="matrix(-0.67537407,-0.73747441,-0.73747626,0.67537407,-18.518546,-11.303099)"
             style="display:inline;fill:#ffffff;fill-opacity:1;stroke-width:0.8829875"
             id="g4806-8-0-4-5-9-2">
            <ellipse
               style="color:#000000;display:inline;overflow:visible;visibility:visible;fill:#ffffff;fill-opacity:1;fill-rule:nonzero;stroke:none;stroke-width:2.28805351;marker:none;enable-background:accumulate"
               id="ellipse14802-77-0-9-6-2-6"
               transform="matrix(-0.2246676,0.97443546,-0.98436155,-0.17615998,0,0)"
               cx="453.28552"
               cy="150.15218"
               rx="4.7945943"
               ry="4.8666015" />
            <ellipse
               style="color:#000000;display:inline;overflow:visible;visibility:visible;fill:#ffffff;fill-opacity:1;fill-rule:nonzero;stroke:none;stroke-width:2.28805351;marker:none;enable-background:accumulate"
               id="ellipse14802-7-3-7-5-9-6-7"
               transform="matrix(-0.2246676,0.97443546,-0.98436155,-0.17615998,0,0)"
               cx="463.44199"
               cy="143.8042"
               rx="4.7945943"
               ry="4.8666015" />
          </g>
          <g
             transform="translate(52.984806,118.69311)"
             style="display:inline;fill:#ffffff;fill-opacity:1;stroke-width:0.8829875"
             id="g4806-5-3-0-3-6-5">
            <ellipse
               style="color:#000000;display:inline;overflow:visible;visibility:visible;fill:#ffffff;fill-opacity:1;fill-rule:nonzero;stroke:none;stroke-width:2.28805351;marker:none;enable-background:accumulate"
               id="ellipse14802-3-9-4-7-4-6"
               transform="matrix(-0.2246676,0.97443546,-0.98436155,-0.17615998,0,0)"
               cx="453.28552"
               cy="150.15218"
               rx="4.7945943"
               ry="4.8666015" />
            <ellipse
               style="color:#000000;display:inline;overflow:visible;visibility:visible;fill:#ffffff;fill-opacity:1;fill-rule:nonzero;stroke:none;stroke-width:2.28805351;marker:none;enable-background:accumulate"
               id="ellipse14802-7-9-7-8-4-9-9"
               transform="matrix(-0.2246676,0.97443546,-0.98436155,-0.17615998,0,0)"
               cx="463.44199"
               cy="143.8042"
               rx="4.7945943"
               ry="4.8666015" />
          </g>
          <g
             transform="matrix(-0.85564885,-0.51755599,-0.51755762,0.85564885,-274.59951,20.15603)"
             style="display:inline;fill:#ffffff;fill-opacity:1;stroke-width:0.8829875"
             id="g4806-0-6-7-5-5-8">
            <ellipse
               style="color:#000000;display:inline;overflow:visible;visibility:visible;fill:#ffffff;fill-opacity:1;fill-rule:nonzero;stroke:none;stroke-width:2.28805351;marker:none;enable-background:accumulate"
               id="ellipse14802-8-4-1-25-0-7"
               transform="matrix(-0.2246676,0.97443546,-0.98436155,-0.17615998,0,0)"
               cx="453.28552"
               cy="150.15218"
               rx="4.7945943"
               ry="4.8666015" />
            <ellipse
               style="color:#000000;display:inline;overflow:visible;visibility:visible;fill:#ffffff;fill-opacity:1;fill-rule:nonzero;stroke:none;stroke-width:2.28805351;marker:none;enable-background:accumulate"
               id="ellipse14802-7-1-9-7-4-4-2"
               transform="matrix(-0.2246676,0.97443546,-0.98436155,-0.17615998,0,0)"
               cx="463.44199"
               cy="143.8042"
               rx="4.7945943"
               ry="4.8666015" />
          </g>
        </g>
      </g>
      <ellipse
         ry="8.6608524"
         rx="8.6608438"
         cy="278.39774"
         cx="149.89404"
         id="circle14816-3-27-7-8-8"
         style="color:#000000;display:inline;overflow:visible;visibility:visible;fill:#ffffff;fill-opacity:1;fill-rule:nonzero;stroke:none;stroke-width:0.59366983;stroke-opacity:1;marker:none;enable-background:accumulate"
         transform="rotate(-11.739135)" />
      <path
         inkscape:connector-curvature="0"
         id="path4756-3-2-4-7-2"
         d="m 198.20187,236.43714 c 0.6304,0.0695 1.26083,0.13936 1.89123,0.2091 0.23594,0.53724 0.47185,1.07453 0.70779,1.61177 0.50131,-0.397 1.32159,-0.40496 1.51542,0.30206 0.23591,0.33367 0.47182,0.66723 0.70773,1.0009 1.046,-0.17706 2.09197,-0.3541 3.13797,-0.53114 0.52764,0.54703 1.05526,1.09404 1.5829,1.64101 0.52575,-0.0248 1.0515,-0.0504 1.57725,-0.0754 0.45204,1.65555 -0.51976,3.2402 -1.45392,4.52789 -0.6232,0.82974 -1.14856,1.71941 -1.55959,2.66297 -0.5496,0.26283 -0.10394,1.76922 -0.8152,1.24206 -0.25527,-0.66845 -0.0639,-1.46042 -0.14252,-2.19851 -0.0336,-1.09697 0.26275,-2.35004 -0.54903,-3.25256 -0.51509,-0.66517 -1.65631,-0.86591 -1.64099,-1.88547 0.0995,-0.84178 0.0958,-1.9083 -0.73242,-2.4038 -0.74247,-0.61558 -1.86329,-0.21096 -2.55535,-0.9006 -0.57492,-0.62772 -1.39774,-1.10385 -1.67127,-1.95024 z"
         style="display:inline;fill:url(#linearGradient4673);fill-opacity:1;fill-rule:evenodd;stroke:none;stroke-width:0.25315705px;stroke-linecap:butt;stroke-linejoin:miter;stroke-opacity:1"
         inkscape:export-xdpi="90"
         inkscape:export-ydpi="90" />
    </g>
    <flowRoot
       xml:space="preserve"
       id="flowRoot3278-1-2-7"
       style="font-style:normal;font-variant:normal;font-weight:normal;font-stretch:normal;font-size:53.33333206px;line-height:0.25;font-family:Montserrat;-inkscape-font-specification:Montserrat;font-variant-ligatures:normal;font-variant-caps:normal;font-variant-numeric:normal;text-align:start;letter-spacing:0px;word-spacing:0px;writing-mode:lr-tb;text-anchor:start;display:inline;fill:#ffffff;fill-opacity:1;stroke:none;stroke-width:0.80327457"
       transform="matrix(1.0709759,0,0,1.2549742,2074.2188,-763.64144)"><flowRegion
         id="flowRegion3280-7-2-6"
         style="fill:#ffffff;stroke-width:0.80327457"><rect
           id="rect3282-2-6-1"
           width="572.56848"
           height="334.83539"
           x="-1895.1682"
           y="784.33594"
           style="fill:#ffffff;stroke-width:0.80327457" /></flowRegion><flowPara
         style="font-style:normal;font-variant:normal;font-weight:600;font-stretch:normal;font-size:7.57634783px;font-family:'Fira Sans';-inkscape-font-specification:'Fira Sans Semi-Bold';fill:#ffffff;stroke-width:0.80327457"
         id="flowPara4062">15 años compartiendo Software Libre</flowPara></flowRoot>    <g
       id="g3897"
       transform="matrix(1.3686826,0,0,1.3686826,-55.089792,-90.572473)"
       style="stroke-width:0.73062962">
      <flowRoot
         transform="matrix(0.35828825,0,0,0.41984374,751.24657,-99.369865)"
         style="font-style:normal;font-variant:normal;font-weight:normal;font-stretch:normal;font-size:53.33333206px;line-height:0.25;font-family:Montserrat;-inkscape-font-specification:Montserrat;font-variant-ligatures:normal;font-variant-caps:normal;font-variant-numeric:normal;text-align:start;letter-spacing:0px;word-spacing:0px;writing-mode:lr-tb;text-anchor:start;display:inline;fill:#ffffff;fill-opacity:1;stroke:none;stroke-width:0.73062962"
         id="flowRoot3278-1-9"
         xml:space="preserve"><flowRegion
           style="fill:#ffffff;stroke-width:0.73062962"
           id="flowRegion3280-7-9"><rect
             style="fill:#ffffff;stroke-width:0.73062962"
             y="784.33594"
             x="-1895.1682"
             height="334.83539"
             width="572.56848"
             id="rect3282-2-60" /></flowRegion><flowPara
           style="font-style:normal;font-variant:normal;font-weight:800;font-stretch:normal;font-size:34.5640564px;font-family:'Fira Sans';-inkscape-font-specification:'Fira Sans Ultra-Bold';fill:#ffffff;stroke-width:0.73062962"
           id="flowPara3284-7-2">FLISOL</flowPara></flowRoot>      <flowRoot
         transform="matrix(1.5952892,0,0,1.8693668,3134.979,-1266.0306)"
         style="font-style:normal;font-variant:normal;font-weight:normal;font-stretch:normal;font-size:53.33333206px;line-height:0.25;font-family:Montserrat;-inkscape-font-specification:Montserrat;font-variant-ligatures:normal;font-variant-caps:normal;font-variant-numeric:normal;text-align:start;letter-spacing:0px;word-spacing:0px;writing-mode:lr-tb;text-anchor:start;display:inline;fill:#dbf5ff;fill-opacity:1;stroke:none;stroke-width:0.39400485"
         id="flowRoot3278-1-2-7-9"
         xml:space="preserve"><flowRegion
           style="fill:#dbf5ff;fill-opacity:1;stroke-width:0.21247406"
           id="flowRegion3280-7-2-6-6"><rect
             style="fill:#dbf5ff;fill-opacity:1;stroke-width:0.39400485"
             y="784.33594"
             x="-1895.1682"
             height="334.83539"
             width="572.56848"
             id="rect3282-2-6-1-1" /></flowRegion><flowPara
           id="flowPara4034-0"
           style="font-style:normal;font-variant:normal;font-weight:300;font-stretch:normal;font-size:7.7627902px;font-family:'Fira Sans';-inkscape-font-specification:'Fira Sans Light';fill:#dbf5ff;fill-opacity:1;stroke-width:0.21247406">ARGENTINA</flowPara><flowPara
           id="flowPara4062-4"
           style="font-style:normal;font-variant:normal;font-weight:500;font-stretch:normal;font-size:7.57634783px;font-family:'Fira Sans';-inkscape-font-specification:'Fira Sans Medium';fill:#dbf5ff;fill-opacity:1;stroke-width:0.21247406" /></flowRoot>    </g>
    <text
       xml:space="preserve"
       style="font-style:normal;font-variant:normal;font-weight:normal;font-stretch:normal;font-size:12.51716805px;line-height:0.25;font-family:Montserrat;-inkscape-font-specification:Montserrat;font-variant-ligatures:normal;font-variant-caps:normal;font-variant-numeric:normal;text-align:start;letter-spacing:0px;word-spacing:0px;writing-mode:lr-tb;text-anchor:start;display:inline;fill:#ffffff;fill-opacity:1;stroke:none;stroke-width:0.26458329"
       x="63.003895"
       y="279.6951"
       id="text4158-2"
       inkscape:export-xdpi="90"
       inkscape:export-ydpi="90"><tspan
         sodipodi:role="line"
         id="tspan4156-2"
         x="63.003895"
         y="279.6951"
         style="font-style:normal;font-variant:normal;font-weight:300;font-stretch:normal;font-size:7.51030016px;font-family:'Fira Sans';-inkscape-font-specification:'Fira Sans Light';fill:#ffffff;stroke-width:0.26458329">#flisol15aniversario #flisol2019</tspan><tspan
         sodipodi:role="line"
         x="63.003895"
         y="283.35342"
         style="fill:#ffffff;stroke-width:0.26458329"
         id="tspan4160-2" /></text>
    <rect
       y="174.91367"
       x="131.15775"
       height="26.458334"
       width="26.458334"
       id="rect4272-1"
       style="display:inline;opacity:1;fill:#0066ff;fill-opacity:1;stroke:none;stroke-width:0.0798509;stroke-miterlimit:4;stroke-dasharray:none;stroke-dashoffset:0;stroke-opacity:1;paint-order:fill markers stroke" />
    <text
       inkscape:export-ydpi="90"
       inkscape:export-xdpi="90"
       id="text3884"
       y="270.72906"
       x="63.102463"
       style="font-style:normal;font-variant:normal;font-weight:normal;font-stretch:normal;font-size:14.08726597px;line-height:0.25;font-family:Montserrat;-inkscape-font-specification:Montserrat;font-variant-ligatures:normal;font-variant-caps:normal;font-variant-numeric:normal;text-align:start;letter-spacing:0px;word-spacing:0px;writing-mode:lr-tb;text-anchor:start;display:inline;fill:#ffffff;fill-opacity:1;stroke:none;stroke-width:0.26458329"
       xml:space="preserve"><tspan
         style="font-style:normal;font-variant:normal;font-weight:500;font-stretch:normal;font-family:'Fira Sans';-inkscape-font-specification:'Fira Sans Medium';fill:#ffffff;stroke-width:0.26458329"
         y="270.72906"
         x="63.102463"
         id="tspan3880"
         sodipodi:role="line"><tspan
   style="font-style:normal;font-variant:normal;font-weight:800;font-stretch:normal;font-family:'Fira Sans';-inkscape-font-specification:'Fira Sans Ultra-Bold';stroke-width:0.26458329"
   id="tspan3925">27 de abril 2019</tspan> </tspan><tspan
         id="tspan3882"
         style="fill:#ffffff;stroke-width:0.26458329"
         y="274.25089"
         x="63.102463"
         sodipodi:role="line" /></text>
    <path
       style="color:#000000;display:inline;overflow:visible;visibility:visible;fill:#ffffff;fill-opacity:0.2275641;fill-rule:nonzero;stroke:none;stroke-width:0.42344412;marker:none;enable-background:accumulate"
       d="m 19.653178,235.07051 c -0.707531,0.027 -1.374232,0.35462 -1.880657,1.02276 l -7.086392,12.62183 c -0.7251463,1.18794 -0.7249623,2.32983 0.45979,3.39797 4.374956,3.30665 8.904246,5.43562 8.904246,5.43562 0.798366,0.3364 1.488551,0.0596 2.0971,-0.67398 l 3.683933,-5.83935 c 0.601107,-1.0988 0.200836,-1.84187 -0.676227,-2.41559 l -6.03672,-3.78374 -0.389144,0.58876 5.48946,4.77846 -3.510112,5.60833 -7.910654,-5.34255 7.412732,-12.00279 13.586268,9.69599 -8.077746,12.39753 A 21.285816,21.285794 78.260865 0 0 9.2686257,257.04068 l -4.462218,-18.27165 c 0,0 -7.003249,-0.53194 -6.834066,2.54118 0.1692,3.07312 5.1227461,0.95099 5.1227461,0.95099 l 4.5855759,15.15292 a 21.285816,21.285794 78.260865 0 0 -9.860838,6.0513 L -16.58846,254.46809 c -1.440608,-1.05739 -4.15572,-0.58371 -5.037517,1.00369 l -9.565899,15.66655 c -0.811936,1.26997 -0.728294,2.73098 0.493434,3.65702 l 12.621829,7.08526 c 1.187961,0.72515 2.329841,0.72609 3.397969,-0.45866 3.306654,-4.37497 5.4356283,-8.90537 5.4356283,-8.90537 0.336378,-0.79837 0.05957,-1.48743 -0.673986,-2.09598 l -5.8393483,-3.68394 c -1.098809,-0.60109 -1.841864,-0.20082 -2.415586,0.67624 l -3.783745,6.0356 0.588757,0.38914 4.778464,-5.48834 5.60721,3.51011 -5.34255,7.91065 -12.001671,-7.41273 9.695987,-13.58739 13.469638,8.77753 a 21.285816,21.285794 78.260865 0 0 -2.2619477,14.69313 21.285816,21.285794 78.260865 0 0 0.113265,0.46091 l -20.7141533,5.05995 c 0,0 -0.531929,7.00334 2.541188,6.83407 3.073109,-0.16921 0.950983,-5.12275 0.950983,-5.12275 l 17.6156093,-5.33246 a 21.285816,21.285794 78.260865 0 0 4.9365864,8.44782 l -10.3453017,16.56819 c -1.057394,1.44061 -0.58371,4.15458 1.003691,5.03639 l 15.6665427,9.56702 c 1.269973,0.81193 2.729862,0.72828 3.655901,-0.49343 l 7.0863913,-12.62183 c 0.725147,-1.18797 0.726083,-2.32984 -0.458671,-3.39797 -4.374955,-3.30666 -8.9053693,-5.43563 -8.9053693,-5.43563 -0.798368,-0.33636 -1.487429,-0.0596 -2.0959749,0.67399 l -3.68505807,5.83935 c -0.60111,1.09882 -0.199712,1.84075 0.677351,2.41446 l 6.03560097,3.78487 0.38914,-0.58876 -5.488337,-4.77958 3.510113,-5.60722 7.9095283,5.34255 -7.4116083,12.0028 -13.5873884,-9.69599 10.0077464,-15.35815 a 21.285816,21.285794 78.260865 0 0 13.7264503,3.22864 l 5.257314,21.52271 c 6e-6,0 7.003252,0.53192 6.83407,-2.54119 -0.169199,-3.07311 -5.122749,-0.9521 -5.122749,-0.9521 l -5.52534,-18.25371 a 21.285816,21.285794 78.260865 0 0 0.593241,-0.0931 21.285816,21.285794 78.260865 0 0 8.528568,-3.90374 l 16.085959,10.04475 c 1.440607,1.05739 4.155718,0.58371 5.037518,-1.00369 l 9.567021,-15.66654 c 0.811934,-1.26998 0.728293,-2.73099 -0.493437,-3.65702 L 43.85277,277.47894 c -1.187958,-0.72515 -2.330963,-0.72609 -3.39909,0.45867 -3.306658,4.37494 -5.43563,8.90537 -5.43563,8.90537 -0.336377,0.79836 -0.05845,1.4874 0.675107,2.09597 l 5.838227,3.68394 c 1.098811,0.6011 1.841861,0.20082 2.415585,-0.67623 l 3.784868,-6.0356 -0.589876,-0.38914 -4.778466,5.48834 -5.607207,-3.51012 5.342545,-7.91065 12.002794,7.41273 -9.695987,13.58627 -14.390342,-9.37637 a 21.285816,21.285794 78.260865 0 0 4.60464,-14.92976 L 53.79884,271.5981 c 0,0 0.53193,-7.00334 -2.541192,-6.83407 -3.0731,0.16921 -0.952103,5.12275 -0.952103,5.12275 l -15.872887,4.80425 a 21.285816,21.285794 78.260865 0 0 -0.173821,-1.11247 21.285816,21.285794 78.260865 0 0 -4.768372,-9.58833 l 8.609309,-13.787 c 1.057389,-1.44062 0.582589,-4.15461 -1.004812,-5.0364 l -15.666545,-9.56702 c -0.476241,-0.30448 -0.978635,-0.48276 -1.470207,-0.52259 -0.10241,-0.008 -0.203959,-0.0106 -0.305032,-0.007 z M 0.99911273,247.38619 a 2.1208089,2.2334126 66.515202 0 0 -2.31914203,1.69113 2.1208089,2.2334126 66.515202 0 0 1.60478403,2.53783 2.1208089,2.2334126 66.515202 0 0 2.69258207,-1.64628 2.1208089,2.2334126 66.515202 0 0 -1.6047831,-2.53782 2.1208089,2.2334126 66.515202 0 0 -0.37344097,-0.0448 z m 1.65076307,5.01284 a 2.1208089,2.2334126 66.515202 0 0 -2.31914207,1.69226 2.1208089,2.2334126 66.515202 0 0 1.60478297,2.53782 2.1208089,2.2334126 66.515202 0 0 2.692582,-1.64628 2.1208089,2.2334126 66.515202 0 0 -1.6047829,-2.53782 2.1208089,2.2334126 66.515202 0 0 -0.37344,-0.046 z m -2.00850307,11.6473 c 1.54933797,0.17079 3.09903907,0.34222 4.64837697,0.51362 0.57987,1.32037 1.159484,2.64056 1.739356,3.96093 1.232072,-0.97571 3.2479323,-0.99527 3.7243113,0.7424 0.579793,0.82006 1.160678,1.64037 1.740477,2.46044 2.570756,-0.43518 5.141398,-0.87025 7.712155,-1.30536 1.296781,1.34444 2.5935,2.6884 3.890281,4.0327 1.292137,-0.061 2.583567,-0.12362 3.875703,-0.18503 1.110978,4.06884 -1.27703,7.96331 -3.572916,11.12807 -1.531643,2.03926 -2.822895,4.22574 -3.833087,6.54473 -1.350755,0.64596 -0.255946,4.34817 -2.004014,3.05256 -0.627382,-1.64285 -0.156676,-3.5891 -0.349893,-5.4031 -0.08257,-2.69604 0.646019,-5.77549 -1.349095,-7.99364 -1.265937,-1.63478 -4.071474,-2.128 -4.033825,-4.6338 0.244543,-2.06884 0.235603,-4.68997 -1.799917,-5.90776 -1.8247703,-1.51291 -4.5791923,-0.51879 -6.2800713,-2.21372 -1.4129839,-1.54276 -3.435585,-2.71287 -4.10784197,-4.79304 z m 41.72324127,1.54198 a 2.2334126,2.1208088 74.163341 0 0 -1.582354,0.84445 2.2334126,2.1208088 74.163341 0 0 0.432878,3.12546 2.2334126,2.1208088 74.163341 0 0 2.979669,-0.36671 2.2334126,2.1208088 74.163341 0 0 -0.431753,-3.12546 2.2334126,2.1208088 74.163341 0 0 -1.39844,-0.47774 z m -4.925369,1.89972 a 2.2334126,2.1208088 74.163341 0 0 -1.581236,0.84445 2.2334126,2.1208088 74.163341 0 0 0.432879,3.12546 2.2334126,2.1208088 74.163341 0 0 2.979669,-0.36671 2.2334126,2.1208088 74.163341 0 0 -0.431753,-3.12546 2.2334126,2.1208088 74.163341 0 0 -1.399559,-0.47774 z m -49.674268,19.80354 a 2.2334126,2.1208088 57.815045 0 0 -1.909815,1.35919 2.2334126,2.1208088 57.815045 0 0 1.294144,2.87762 2.2334126,2.1208088 57.815045 0 0 2.756504,-1.19097 2.2334126,2.1208088 57.815045 0 0 -1.294144,-2.87762 2.2334126,2.1208088 57.815045 0 0 -0.846689,-0.16822 z m -4.190828,3.20957 a 2.2334126,2.1208088 57.815045 0 0 -1.909815,1.35919 2.2334126,2.1208088 57.815045 0 0 1.294144,2.8765 2.2334126,2.1208088 57.815045 0 0 2.756503,-1.19097 2.2334126,2.1208088 57.815045 0 0 -1.294143,-2.8765 2.2334126,2.1208088 57.815045 0 0 -0.846689,-0.16822 z m 39.826886,11.03387 a 2.1208089,2.2334126 66.515202 0 0 -2.319141,1.69113 2.1208089,2.2334126 66.515202 0 0 1.604783,2.53783 2.1208089,2.2334126 66.515202 0 0 2.69258,-1.64516 2.1208089,2.2334126 66.515202 0 0 -1.604782,-2.53894 2.1208089,2.2334126 66.515202 0 0 -0.37344,-0.0448 z m 1.650762,5.01284 a 2.1208089,2.2334126 66.515202 0 0 -2.31914,1.69226 2.1208089,2.2334126 66.515202 0 0 1.604782,2.53782 2.1208089,2.2334126 66.515202 0 0 2.691461,-1.64628 2.1208089,2.2334126 66.515202 0 0 -1.603663,-2.53782 2.1208089,2.2334126 66.515202 0 0 -0.37344,-0.046 z"
       id="path3927"
       inkscape:connector-curvature="0" />
  </g>
</svg>
