<?xml version="1.0" encoding="UTF-8" standalone="no"?>
<!-- Created with Inkscape (http://www.inkscape.org/) -->

<svg
   xmlns:dc="http://purl.org/dc/elements/1.1/"
   xmlns:cc="http://creativecommons.org/ns#"
   xmlns:rdf="http://www.w3.org/1999/02/22-rdf-syntax-ns#"
   xmlns:svg="http://www.w3.org/2000/svg"
   xmlns="http://www.w3.org/2000/svg"
   xmlns:sodipodi="http://sodipodi.sourceforge.net/DTD/sodipodi-0.dtd"
   xmlns:inkscape="http://www.inkscape.org/namespaces/inkscape"
   width="210mm"
   height="297mm"
   viewBox="0 0 210 297"
   version="1.1"
   id="svg16768"
   inkscape:version="0.92.3 (2405546, 2018-03-11)"
   sodipodi:docname="credenciales readme.svg">
  <defs
     id="defs16762" />
  <sodipodi:namedview
     id="base"
     pagecolor="#ffffff"
     bordercolor="#666666"
     borderopacity="1.0"
     inkscape:pageopacity="0.0"
     inkscape:pageshadow="2"
     inkscape:zoom="0.49497475"
     inkscape:cx="506.06361"
     inkscape:cy="619.08438"
     inkscape:document-units="mm"
     inkscape:current-layer="layer1"
     showgrid="false"
     inkscape:snap-global="false"
     inkscape:window-width="1600"
     inkscape:window-height="840"
     inkscape:window-x="0"
     inkscape:window-y="0"
     inkscape:window-maximized="1" />
  <metadata
     id="metadata16765">
    <rdf:RDF>
      <cc:Work
         rdf:about="">
        <dc:format>image/svg+xml</dc:format>
        <dc:type
           rdf:resource="http://purl.org/dc/dcmitype/StillImage" />
        <dc:title></dc:title>
      </cc:Work>
    </rdf:RDF>
  </metadata>
  <g
     inkscape:label="Capa 1"
     inkscape:groupmode="layer"
     id="layer1">
    <path
       inkscape:connector-curvature="0"
       id="path21414"
       d="m 41.476247,60.330917 1.603615,2.672697 18.307963,-43.297664 -2.672694,-0.06682 z"
       style="fill:#ff0000;fill-rule:evenodd;stroke:none;stroke-width:0.26458332px;stroke-linecap:butt;stroke-linejoin:miter;stroke-opacity:1"
       sodipodi:nodetypes="ccccc" />
    <path
       style="fill:#ff0000;fill-rule:evenodd;stroke:none;stroke-width:0.26458332px;stroke-linecap:butt;stroke-linejoin:miter;stroke-opacity:1"
       d="M 40.507395,60.330917 38.90378,63.003614 20.595817,19.70595 l 2.672694,-0.06682 z"
       id="path21412"
       inkscape:connector-curvature="0"
       sodipodi:nodetypes="ccccc" />
    <g
       id="g21350"
       transform="matrix(0.35204082,0,0,0.35372666,44.965481,61.516632)"
       style="stroke-width:2.8338027">
      <rect
         style="opacity:1;fill:#d45500;fill-opacity:1;fill-rule:nonzero;stroke:#b3b3b3;stroke-width:2.8338027;stroke-linecap:round;stroke-linejoin:miter;stroke-miterlimit:4;stroke-dasharray:none;stroke-dashoffset:0;stroke-opacity:1;paint-order:stroke markers fill"
         id="rect22847"
         width="98"
         height="132"
         x="-61.095238"
         y="4.2142854" />
      <path
         inkscape:connector-curvature="0"
         style="color:#000000;display:inline;overflow:visible;visibility:visible;fill:#ffffff;fill-opacity:1;fill-rule:nonzero;stroke:none;stroke-width:2.26987576;stroke-miterlimit:4;stroke-dasharray:none;stroke-opacity:1;marker:none;enable-background:accumulate"
         d="m -7.107599,34.098961 c -0.564545,0.0077 -1.098011,0.260598 -1.50082,0.792024 l -5.479552,9.760357 c -0.560753,0.918657 -0.561073,1.801935 0.355093,2.627916 3.383139,2.557026 6.886241,4.203531 6.886241,4.203531 0.617377,0.260123 1.150347,0.04564 1.620927,-0.521582 l 2.849188,-4.515063 c 0.464835,-0.849718 0.154901,-1.424197 -0.523335,-1.867854 l -4.667506,-2.926462 -0.300651,0.455553 4.244268,3.6953 -2.714308,4.336305 -6.11705,-4.131538 5.732101,-9.281629 10.506374,7.498073 -6.246649,9.586856 A 16.460245,16.460228 78.260865 0 0 -15.183811,51.08977 l -3.451207,-14.129681 c 0,0 -5.415817,-0.411298 -5.284972,1.965127 0.130844,2.376436 3.961532,0.735841 3.961532,0.735841 l 3.546386,11.71706 a 16.460245,16.460228 78.260865 0 0 -7.625235,4.679458 l -11.142108,-6.957529 c -1.114031,-0.817679 -3.213277,-0.450966 -3.895161,0.776567 l -7.397988,12.115008 c -0.627874,0.982073 -0.562969,2.111307 0.381795,2.827413 l 9.760015,5.479563 c 0.918635,0.560753 1.802288,0.561073 2.628258,-0.355093 2.557037,-3.38315 4.203189,-6.886241 4.203189,-6.886241 0.260123,-0.617377 0.04564,-1.150347 -0.521581,-1.620938 l -4.515075,-2.849177 c -0.849707,-0.464835 -1.424186,-0.154901 -1.867854,0.523334 l -2.926451,4.667507 0.455542,0.301004 3.695311,-4.244268 4.336294,2.714297 -4.131174,6.11705 -9.281651,-5.732443 7.497742,-10.506374 10.416112,6.787193 a 16.460245,16.460228 78.260865 0 0 -1.748773,11.361968 16.460245,16.460228 78.260865 0 0 0.08743,0.356857 l -16.018261,3.91236 c 0,0 -0.411299,5.415817 1.965127,5.284972 2.376425,-0.130844 0.735841,-3.961532 0.735841,-3.961532 l 13.621109,-4.12275 a 16.460245,16.460228 78.260865 0 0 3.817876,6.532195 l -8.000349,12.811873 c -0.81769,1.11401 -0.450613,3.21327 0.77692,3.89516 l 12.114688,7.397639 c 0.982062,0.62785 2.111307,0.5633 2.827402,-0.38144 l 5.479563,-9.760369 c 0.560753,-0.91865 0.561426,-1.80194 -0.35474,-2.62792 -3.383139,-2.55703 -6.886241,-4.203539 -6.886241,-4.203539 -0.617377,-0.260123 -1.1507,-0.04564 -1.621291,0.521581 l -2.849188,4.515088 c -0.464835,0.84969 -0.15489,1.42418 0.523334,1.86784 l 4.667518,2.92646 0.301004,-0.45555 -4.244279,-3.6953 2.714308,-4.336305 6.11705,4.131545 -5.73209,9.281629 -10.506738,-7.498079 7.738683,-11.876538 a 16.460245,16.460228 78.260865 0 0 10.614561,2.497248 l 4.065156,16.643089 c 0,0 5.415806,0.41129 5.284961,-1.965139 -0.130833,-2.37641 -3.961532,-0.73582 -3.961532,-0.73582 l -4.272725,-14.1167 a 16.460245,16.460228 78.260865 0 0 0.459764,-0.07166 16.460245,16.460228 78.260865 0 0 6.594718,-3.018477 l 12.43955,7.767827 c 1.11402,0.81769 3.213266,0.45097 3.895151,-0.77657 L 21.70105,75.201068 c 0.627862,-0.982062 0.563322,-2.111307 -0.381442,-2.827414 L 11.55924,66.894092 C 10.640605,66.33335 9.757327,66.33303 8.931335,67.249195 c -2.557015,3.38314 -4.203531,6.886231 -4.203531,6.886231 -0.260123,0.617377 -0.04542,1.150347 0.521934,1.620938 l 4.514733,2.849188 c 0.849696,0.464835 1.424164,0.154901 1.867832,-0.523335 l 2.926462,-4.667517 -0.455553,-0.300993 -3.6953,4.244279 -4.336294,-2.714319 4.131526,-6.116697 9.281641,5.732101 L 11.98669,84.765455 0.85865,77.514276 A 16.460245,16.460228 78.260865 0 0 4.420472,65.969304 l 14.830043,-3.622249 c 0,0 0.411298,-5.415805 -1.965138,-5.284971 -2.376436,0.130844 -0.73583,3.961543 -0.73583,3.961543 L 4.275416,64.73896 A 16.460245,16.460228 78.260865 0 0 4.140889,63.878448 16.460245,16.460228 78.260865 0 0 0.452964,56.464298 l 6.657594,-10.66197 c 0.817679,-1.11402 0.450966,-3.213255 -0.776567,-3.895161 l -12.11503,-7.397614 c -0.429644,-0.274698 -0.887512,-0.416711 -1.326593,-0.410592 z m -14.471433,9.524686 a 1.6400139,1.72709 66.51523 0 0 -1.793049,1.307983 1.6400139,1.72709 66.51523 0 0 1.240906,1.96268 1.6400139,1.72709 66.51523 0 0 2.081397,-1.272858 1.6400139,1.72709 66.51523 0 0 -1.240896,-1.962679 1.6400139,1.72709 66.51523 0 0 -0.288358,-0.03517 z m 1.276374,3.876894 a 1.6400139,1.72709 66.51523 0 0 -1.793038,1.307982 1.6400139,1.72709 66.51523 0 0 1.240895,1.96268 1.6400139,1.72709 66.51523 0 0 2.08175,-1.272868 1.6400139,1.72709 66.51523 0 0 -1.240896,-1.96268 1.6400139,1.72709 66.51523 0 0 -0.288711,-0.03506 z m -1.552804,9.006611 c 1.198108,0.13209 2.396414,0.264699 3.59451,0.397241 0.44842,1.021046 0.896806,2.042049 1.345214,3.063084 0.952758,-0.754506 2.511713,-0.769445 2.880102,0.574269 0.448354,0.634147 0.896508,1.268117 1.344862,1.902263 1.987959,-0.336505 3.975952,-0.672965 5.963901,-1.009437 1.0028,1.039657 2.005512,2.079048 3.008301,3.118584 0.999217,-0.04719 1.998555,-0.09581 2.99776,-0.143303 0.859123,3.146432 -0.987728,6.158206 -2.763137,8.605511 -1.184404,1.576948 -2.18286,3.267983 -2.964036,5.061253 -1.04454,0.499509 -0.197512,3.362158 -1.549286,2.360273 -0.485155,-1.27042 -0.121727,-2.775485 -0.271149,-4.178261 -0.06395,-2.084814 0.499664,-4.466388 -1.043162,-6.181656 -0.978942,-1.264192 -3.148042,-1.645568 -3.118937,-3.583276 0.189101,-1.599825 0.182144,-3.626736 -1.391915,-4.568458 -1.4111,-1.169927 -3.541205,-0.400857 -4.856486,-1.711541 -1.092654,-1.193003 -2.656681,-2.097945 -3.176542,-3.706546 z m 32.263759,1.192077 a 1.7270901,1.6400139 74.163341 0 0 -1.222991,0.653285 1.7270901,1.6400139 74.163341 0 0 0.334377,2.417174 1.7270901,1.6400139 74.163341 0 0 2.304421,-0.283783 1.7270901,1.6400139 74.163341 0 0 -0.334013,-2.416832 1.7270901,1.6400139 74.163341 0 0 -1.081794,-0.369844 z m -3.808053,1.469212 a 1.7270901,1.6400139 74.163341 0 0 -1.22298,0.653286 1.7270901,1.6400139 74.163341 0 0 0.334366,2.416809 1.7270901,1.6400139 74.163341 0 0 2.304432,-0.28343 1.7270901,1.6400139 74.163341 0 0 -0.334013,-2.417174 1.7270901,1.6400139 74.163341 0 0 -1.081805,-0.369491 z m -38.413465,15.314371 a 1.72709,1.6400139 57.815052 0 0 -1.476929,1.05088 1.72709,1.6400139 57.815052 0 0 1.001013,2.225052 1.72709,1.6400139 57.815052 0 0 2.131627,-0.920928 1.72709,1.6400139 57.815052 0 0 -1.001014,-2.225041 1.72709,1.6400139 57.815052 0 0 -0.654697,-0.129963 z m -3.240465,2.481802 a 1.72709,1.6400139 57.815052 0 0 -1.476929,1.050527 1.72709,1.6400139 57.815052 0 0 1.001014,2.225053 1.72709,1.6400139 57.815052 0 0 2.131626,-0.920929 1.72709,1.6400139 57.815052 0 0 -1.001003,-2.225041 1.72709,1.6400139 57.815052 0 0 -0.654708,-0.12961 z m 30.798087,8.53246 a 1.6400139,1.72709 66.51523 0 0 -1.793391,1.307982 1.6400139,1.72709 66.51523 0 0 1.240895,1.962685 1.6400139,1.72709 66.51523 0 0 2.08175,-1.27286 1.6400139,1.72709 66.51523 0 0 -1.240885,-1.962693 1.6400139,1.72709 66.51523 0 0 -0.288369,-0.03506 z m 1.276363,3.876887 a 1.6400139,1.72709 66.51523 0 0 -1.793027,1.308 1.6400139,1.72709 66.51523 0 0 1.240906,1.96268 1.6400139,1.72709 66.51523 0 0 2.081386,-1.27321 1.6400139,1.72709 66.51523 0 0 -1.240885,-1.96269 1.6400139,1.72709 66.51523 0 0 -0.28838,-0.0348 z"
         id="path22861" />
      <text
         inkscape:export-ydpi="90"
         inkscape:export-xdpi="90"
         id="text22871"
         y="133.25369"
         x="-44.938156"
         style="font-style:normal;font-variant:normal;font-weight:normal;font-stretch:normal;font-size:16.1117878px;line-height:0.25;font-family:Montserrat;-inkscape-font-specification:Montserrat;font-variant-ligatures:normal;font-variant-caps:normal;font-variant-numeric:normal;text-align:start;letter-spacing:0.75158px;word-spacing:0px;writing-mode:lr-tb;text-anchor:start;display:inline;fill:#ffffff;fill-opacity:1;stroke:none;stroke-width:0.64498216"
         xml:space="preserve"><tspan
           style="font-style:normal;font-variant:normal;font-weight:500;font-stretch:normal;font-size:16.03370667px;font-family:'Fira Sans';-inkscape-font-specification:'Fira Sans Medium';letter-spacing:0.75158px;fill:#ffffff;fill-opacity:1;stroke-width:0.64498216"
           y="133.25369"
           x="-44.938156"
           id="tspan22867"
           sodipodi:role="line"><tspan
             dx="0 0 0 0 0 0 0"
             style="font-style:normal;font-variant:normal;font-weight:800;font-stretch:normal;font-size:16.03370667px;font-family:'Fira Sans';-inkscape-font-specification:'Fira Sans Ultra-Bold';letter-spacing:0.75158px;fill:#ffffff;fill-opacity:1;stroke-width:0.64498216"
             id="tspan22865">DISERTA</tspan></tspan><tspan
           id="tspan22869"
           style="letter-spacing:0.75158px;fill:#ffffff;fill-opacity:1;stroke-width:0.64498216"
           y="137.28165"
           x="-44.938156"
           sodipodi:role="line" /></text>
      <rect
         ry="2.3548141"
         rx="2.3660908"
         y="7.7533212"
         x="-25.099211"
         height="1.6659211"
         width="26.00795"
         id="rect15231"
         style="opacity:1;fill:#ffffff;fill-opacity:1;fill-rule:nonzero;stroke:none;stroke-width:0.49985129;stroke-linecap:round;stroke-linejoin:miter;stroke-miterlimit:4;stroke-dasharray:none;stroke-dashoffset:0;stroke-opacity:1;paint-order:stroke markers fill" />
      <g
         transform="translate(-75.27368,-12.728309)"
         style="fill:#ffffff;stroke-width:2.8338027"
         id="g15352">
        <flowRoot
           xml:space="preserve"
           id="flowRoot34425"
           style="font-style:normal;font-variant:normal;font-weight:normal;font-stretch:normal;font-size:53.33333206px;line-height:0.25;font-family:Montserrat;-inkscape-font-specification:Montserrat;font-variant-ligatures:normal;font-variant-caps:normal;font-variant-numeric:normal;text-align:start;letter-spacing:0px;word-spacing:0px;writing-mode:lr-tb;text-anchor:start;display:inline;fill:#ffffff;fill-opacity:1;stroke:none;stroke-width:1.64650595"
           transform="matrix(0.71362422,0,0,0.8362279,1370.0473,-628.39145)"><flowRegion
             id="flowRegion34421"
             style="fill:#ffffff;stroke-width:1.64650595"><rect
               id="rect34419"
               width="572.56848"
               height="334.83539"
               x="-1895.1682"
               y="784.33594"
               style="fill:#ffffff;stroke-width:1.64650595" /></flowRegion><flowPara
             style="font-style:normal;font-variant:normal;font-weight:600;font-stretch:normal;font-size:7.57634783px;font-family:'Fira Sans';-inkscape-font-specification:'Fira Sans Semi-Bold';fill:#ffffff;stroke-width:1.64650595"
             id="flowPara34423">15 años compartiendo Software Libre</flowPara></flowRoot>        <g
           id="g34445"
           transform="matrix(0.91199536,0,0,0.91199536,-48.776406,-179.9048)"
           style="fill:#ffffff;stroke-width:1.49760234">
          <flowRoot
             transform="matrix(0.35828825,0,0,0.41984374,751.24657,-99.369865)"
             style="font-style:normal;font-variant:normal;font-weight:normal;font-stretch:normal;font-size:53.33333206px;line-height:0.25;font-family:Montserrat;-inkscape-font-specification:Montserrat;font-variant-ligatures:normal;font-variant-caps:normal;font-variant-numeric:normal;text-align:start;letter-spacing:0px;word-spacing:0px;writing-mode:lr-tb;text-anchor:start;display:inline;fill:#ffffff;fill-opacity:1;stroke:none;stroke-width:1.49760234"
             id="flowRoot34433"
             xml:space="preserve"><flowRegion
               style="fill:#ffffff;stroke-width:1.49760234"
               id="flowRegion34429"><rect
                 style="fill:#ffffff;stroke-width:1.49760234"
                 y="784.33594"
                 x="-1895.1682"
                 height="334.83539"
                 width="572.56848"
                 id="rect34427" /></flowRegion><flowPara
               style="font-style:normal;font-variant:normal;font-weight:800;font-stretch:normal;font-size:34.5640564px;font-family:'Fira Sans';-inkscape-font-specification:'Fira Sans Ultra-Bold';fill:#ffffff;stroke-width:1.49760234"
               id="flowPara34431">FLISOL</flowPara></flowRoot>          <flowRoot
             transform="matrix(1.5952892,0,0,1.8693668,3134.979,-1266.0306)"
             style="font-style:normal;font-variant:normal;font-weight:normal;font-stretch:normal;font-size:53.33333206px;line-height:0.25;font-family:Montserrat;-inkscape-font-specification:Montserrat;font-variant-ligatures:normal;font-variant-caps:normal;font-variant-numeric:normal;text-align:start;letter-spacing:0px;word-spacing:0px;writing-mode:lr-tb;text-anchor:start;display:inline;fill:#ffffff;fill-opacity:1;stroke:none;stroke-width:0.80760849"
             id="flowRoot34443"
             xml:space="preserve"><flowRegion
               style="fill:#ffffff;fill-opacity:1;stroke-width:0.43551707"
               id="flowRegion34437"><rect
                 style="fill:#ffffff;fill-opacity:1;stroke-width:0.80760849"
                 y="784.33594"
                 x="-1895.1682"
                 height="334.83539"
                 width="572.56848"
                 id="rect34435" /></flowRegion><flowPara
               id="flowPara34439"
               style="font-style:normal;font-variant:normal;font-weight:300;font-stretch:normal;font-size:7.7627902px;font-family:'Fira Sans';-inkscape-font-specification:'Fira Sans Light';fill:#ffffff;fill-opacity:1;stroke-width:0.43551707">ARGENTINA</flowPara><flowPara
               id="flowPara34441"
               style="font-style:normal;font-variant:normal;font-weight:500;font-stretch:normal;font-size:7.57634783px;font-family:'Fira Sans';-inkscape-font-specification:'Fira Sans Medium';fill:#ffffff;fill-opacity:1;stroke-width:0.43551707" /></flowRoot>        </g>
      </g>
    </g>
    <g
       id="g21377"
       transform="matrix(0.62359026,0,0,0.62359026,1.2511589,31.846847)">
      <rect
         ry="1.8562704"
         rx="1.8562704"
         y="49.393776"
         x="55.592056"
         height="3.6337287"
         width="16.036171"
         id="rect21354"
         style="opacity:1;fill:#999999;fill-opacity:1;fill-rule:nonzero;stroke:none;stroke-width:0.801;stroke-linecap:round;stroke-linejoin:miter;stroke-miterlimit:4;stroke-dasharray:none;stroke-dashoffset:0;stroke-opacity:1;paint-order:stroke markers fill" />
      <circle
         r="4.7106252"
         cy="40.588295"
         cx="63.844006"
         id="path21356"
         style="opacity:1;fill:#999999;fill-opacity:1;fill-rule:nonzero;stroke:none;stroke-width:0.801;stroke-linecap:round;stroke-linejoin:miter;stroke-miterlimit:4;stroke-dasharray:none;stroke-dashoffset:0;stroke-opacity:1;paint-order:stroke markers fill" />
      <circle
         style="opacity:1;fill:#ffffff;fill-opacity:1;fill-rule:nonzero;stroke:none;stroke-width:0.80099994;stroke-linecap:round;stroke-linejoin:miter;stroke-miterlimit:4;stroke-dasharray:none;stroke-dashoffset:0;stroke-opacity:1;paint-order:stroke markers fill"
         id="circle21358"
         cx="63.844006"
         cy="40.588295"
         r="1.4365735" />
      <rect
         style="opacity:1;fill:#4d4d4d;fill-opacity:1;fill-rule:nonzero;stroke:none;stroke-width:0.801;stroke-linecap:round;stroke-linejoin:miter;stroke-miterlimit:4;stroke-dasharray:none;stroke-dashoffset:0;stroke-opacity:1;paint-order:stroke markers fill"
         id="rect21360"
         width="8.817112"
         height="0.4973655"
         x="59.435448"
         y="44.883198" />
      <rect
         y="42.497223"
         x="60.380386"
         height="7.4663014"
         width="6.9272304"
         id="rect21362"
         style="opacity:1;fill:#999999;fill-opacity:1;fill-rule:nonzero;stroke:none;stroke-width:0.80099994;stroke-linecap:round;stroke-linejoin:miter;stroke-miterlimit:4;stroke-dasharray:none;stroke-dashoffset:0;stroke-opacity:1;paint-order:stroke markers fill" />
      <rect
         style="opacity:1;fill:#e6e6e6;fill-opacity:1;fill-rule:nonzero;stroke:none;stroke-width:0.801;stroke-linecap:round;stroke-linejoin:miter;stroke-miterlimit:4;stroke-dasharray:none;stroke-dashoffset:0;stroke-opacity:1;paint-order:stroke markers fill"
         id="rect21366"
         width="15.705441"
         height="1.5312364"
         x="55.75742"
         y="50.149727"
         rx="1.0607239"
         ry="1.0607239" />
      <circle
         r="4.309721"
         cy="40.588295"
         cx="63.844006"
         id="circle21368"
         style="opacity:1;fill:none;fill-opacity:1;fill-rule:nonzero;stroke:#ffffff;stroke-width:0.20100001;stroke-linecap:round;stroke-linejoin:miter;stroke-miterlimit:4;stroke-dasharray:none;stroke-dashoffset:0;stroke-opacity:1;paint-order:stroke markers fill" />
    </g>
    <path
       style="fill:none;fill-rule:evenodd;stroke:#000000;stroke-width:0.26458332px;stroke-linecap:butt;stroke-linejoin:miter;stroke-opacity:1"
       d="m 88.995913,97.473645 -2.17336,-35.030598 c 0,0 0.0879,-3.944191 2.74032,-3.968751 2.55134,-0.02362 2.64584,4.086868 2.64584,4.086868 l -1.22843,34.655692"
       id="path21381"
       inkscape:connector-curvature="0"
       sodipodi:nodetypes="ccscc" />
    <path
       sodipodi:nodetypes="ccscc"
       inkscape:connector-curvature="0"
       id="path21383"
       d="m 88.286223,98.263294 -2.17336,-35.030598 c 0,0 0.0879,-3.944191 2.74032,-3.96875 2.55134,-0.02362 2.64584,4.086867 2.64584,4.086867 l -1.22842,34.655692"
       style="fill:none;fill-rule:evenodd;stroke:#000000;stroke-width:0.26458332px;stroke-linecap:butt;stroke-linejoin:miter;stroke-opacity:1" />
    <path
       style="fill:#ff0000;fill-rule:evenodd;stroke:#000000;stroke-width:0.26458332px;stroke-linecap:round;stroke-linejoin:round;stroke-opacity:1"
       d="m 87.616643,59.638425 c 0.3331,-0.227843 0.73986,-0.36988 1.23654,-0.374479 2.55134,-0.02362 2.64584,4.086867 2.64584,4.086867 l -1.4056,34.407645 0.79237,0.462397 1.47823,-34.969396 c 0.0841,-2.222968 -1.09289,-4.152094 -2.17156,-4.443356 -1.67051,-0.451068 -2.57582,0.830322 -2.57582,0.830322 z"
       id="path21388"
       inkscape:connector-curvature="0"
       sodipodi:nodetypes="csccccsc" />
    <path
       sodipodi:nodetypes="ccccscc"
       inkscape:connector-curvature="0"
       id="path21391"
       d="m 86.928003,64.036166 2.19889,33.671317 -0.84067,0.555811 -2.22742,-34.278178 c -0.11364,-1.211857 0.15457,-2.356897 0.59454,-3.202909 0.36414,-0.700193 0.84595,-1.195555 1.32632,-1.354438 -0.42995,0.737565 -1.00338,1.379608 -1.05166,4.608397 z"
       style="fill:#ff0000;fill-rule:evenodd;stroke:#000000;stroke-width:0.26458332px;stroke-linecap:round;stroke-linejoin:round;stroke-opacity:1" />
    <ellipse
       style="opacity:1;fill:#ff0000;fill-opacity:1;fill-rule:nonzero;stroke:#000000;stroke-width:0.40099999;stroke-linecap:round;stroke-linejoin:round;stroke-miterlimit:4;stroke-dasharray:none;stroke-dashoffset:0;stroke-opacity:1;paint-order:stroke markers fill"
       id="path21393"
       cx="89.61602"
       cy="98.374405"
       rx="1.2343285"
       ry="0.95675224" />
    <path
       style="fill:#ff0000;fill-rule:evenodd;stroke:#000000;stroke-width:0.26458332px;stroke-linecap:butt;stroke-linejoin:miter;stroke-opacity:1"
       d="m 89.015833,99.202418 1.13393,-0.637836 0.43703,1.972568 -1.32292,0.33073 z"
       id="path21397"
       inkscape:connector-curvature="0" />
    <path
       style="opacity:1;fill:none;fill-opacity:1;fill-rule:nonzero;stroke:#000000;stroke-width:0.39814377;stroke-linecap:round;stroke-linejoin:round;stroke-miterlimit:4;stroke-dasharray:none;stroke-dashoffset:0;stroke-opacity:1;paint-order:stroke markers fill"
       d="m 93.716993,58.355664 h 2.54193 v 42.371786 h -2.54193"
       id="rect21399"
       inkscape:connector-curvature="0"
       sodipodi:nodetypes="cccc" />
    <rect
       style="opacity:1;fill:none;fill-opacity:1;fill-rule:nonzero;stroke:#000000;stroke-width:0.21119991;stroke-linecap:round;stroke-linejoin:round;stroke-miterlimit:4;stroke-dasharray:none;stroke-dashoffset:0;stroke-opacity:1;paint-order:stroke markers fill"
       id="rect21402"
       width="9.7888002"
       height="14.7888"
       x="110.98559"
       y="86.271721" />
    <ellipse
       style="opacity:1;fill:#ffffff;fill-opacity:1;fill-rule:nonzero;stroke:#000000;stroke-width:0.21100001;stroke-linecap:round;stroke-linejoin:round;stroke-miterlimit:4;stroke-dasharray:none;stroke-dashoffset:0;stroke-opacity:1;paint-order:stroke markers fill"
       id="path21404"
       cx="115.87386"
       cy="86.256699"
       rx="4.8882885"
       ry="0.18567508" />
    <text
       xml:space="preserve"
       style="font-style:normal;font-weight:normal;font-size:2.94931865px;line-height:125%;font-family:sans-serif;text-align:center;letter-spacing:0px;word-spacing:0px;text-anchor:middle;fill:#000000;fill-opacity:1;stroke:none;stroke-width:0.26458332px;stroke-linecap:butt;stroke-linejoin:miter;stroke-opacity:1"
       x="116.07362"
       y="105.50966"
       id="text21408"><tspan
         sodipodi:role="line"
         id="tspan21406"
         x="116.07362"
         y="105.50966"
         style="text-align:center;text-anchor:middle;stroke-width:0.26458332px">Bolsas nylon</tspan><tspan
         sodipodi:role="line"
         x="116.07362"
         y="109.1963"
         style="text-align:center;text-anchor:middle;stroke-width:0.26458332px"
         id="tspan21410">10 x 15</tspan></text>
    <text
       id="text21420"
       y="105.50966"
       x="90.359383"
       style="font-style:normal;font-weight:normal;font-size:2.94931865px;line-height:125%;font-family:sans-serif;text-align:center;letter-spacing:0px;word-spacing:0px;text-anchor:middle;fill:#000000;fill-opacity:1;stroke:none;stroke-width:0.26458332px;stroke-linecap:butt;stroke-linejoin:miter;stroke-opacity:1"
       xml:space="preserve"><tspan
         style="text-align:center;text-anchor:middle;stroke-width:0.26458332px"
         y="105.50966"
         x="90.828857"
         sodipodi:role="line"
         id="tspan21424">Cinta (80 cm </tspan><tspan
         style="text-align:center;text-anchor:middle;stroke-width:0.26458332px"
         y="109.1963"
         x="90.359383"
         sodipodi:role="line"
         id="tspan21438">por persona)</tspan></text>
    <text
       xml:space="preserve"
       style="font-style:normal;font-weight:normal;font-size:2.94931865px;line-height:125%;font-family:sans-serif;text-align:center;letter-spacing:0px;word-spacing:0px;text-anchor:middle;fill:#000000;fill-opacity:1;stroke:none;stroke-width:0.26458332px;stroke-linecap:butt;stroke-linejoin:miter;stroke-opacity:1"
       x="79.238533"
       y="-97.383507"
       id="text21434"
       transform="rotate(90)"><tspan
         id="tspan21432"
         sodipodi:role="line"
         x="79.238533"
         y="-97.383507"
         style="text-align:center;text-anchor:middle;stroke-width:0.26458332px">40 cm</tspan></text>
    <text
       xml:space="preserve"
       style="font-style:normal;font-variant:normal;font-weight:bold;font-stretch:normal;font-size:10.58333302px;line-height:125%;font-family:'Fira Sans';-inkscape-font-specification:'Fira Sans, Bold';font-variant-ligatures:normal;font-variant-caps:normal;font-variant-numeric:normal;font-feature-settings:normal;text-align:start;letter-spacing:0px;word-spacing:0px;writing-mode:lr-tb;text-anchor:start;fill:#000000;fill-opacity:1;stroke:none;stroke-width:0.26458332px;stroke-linecap:butt;stroke-linejoin:miter;stroke-opacity:1"
       x="85.75338"
       y="32.605656"
       id="text21444"><tspan
         sodipodi:role="line"
         id="tspan21442"
         x="85.75338"
         y="32.605656"
         style="font-style:normal;font-variant:normal;font-weight:bold;font-stretch:normal;font-size:10.58333302px;font-family:'Fira Sans';-inkscape-font-specification:'Fira Sans, Bold';font-variant-ligatures:normal;font-variant-caps:normal;font-variant-numeric:normal;font-feature-settings:normal;text-align:start;writing-mode:lr-tb;text-anchor:start;stroke-width:0.26458332px">HOW TO </tspan></text>
    <text
       id="text21448"
       y="32.605656"
       x="126.19684"
       style="font-style:normal;font-variant:normal;font-weight:300;font-stretch:normal;font-size:10.58333302px;line-height:125%;font-family:'Fira Sans';-inkscape-font-specification:'Fira Sans, Light';font-variant-ligatures:normal;font-variant-caps:normal;font-variant-numeric:normal;font-feature-settings:normal;text-align:start;letter-spacing:0px;word-spacing:0px;writing-mode:lr-tb;text-anchor:start;fill:#000000;fill-opacity:1;stroke:none;stroke-width:0.26458332px;stroke-linecap:butt;stroke-linejoin:miter;stroke-opacity:1"
       xml:space="preserve"><tspan
         style="font-style:normal;font-variant:normal;font-weight:300;font-stretch:normal;font-size:10.58333302px;font-family:'Fira Sans';-inkscape-font-specification:'Fira Sans, Light';font-variant-ligatures:normal;font-variant-caps:normal;font-variant-numeric:normal;font-feature-settings:normal;text-align:start;writing-mode:lr-tb;text-anchor:start;stroke-width:0.26458332px"
         y="32.605656"
         x="126.19684"
         id="tspan21446"
         sodipodi:role="line">CREDENCIALES</tspan></text>
    <rect
       style="opacity:1;fill:#4d4d4d;fill-opacity:1;fill-rule:nonzero;stroke:none;stroke-width:0.2387629;stroke-linecap:round;stroke-linejoin:miter;stroke-miterlimit:4;stroke-dasharray:none;stroke-dashoffset:0;stroke-opacity:1;paint-order:stroke markers fill"
       id="rect21456"
       width="2.6282136"
       height="0.14825521"
       x="160.08594"
       y="98.735237" />
    <rect
       ry="0.54157275"
       rx="0.54157275"
       y="100.07974"
       x="158.94031"
       height="1.0831455"
       width="4.7800779"
       id="rect21450"
       style="opacity:1;fill:#999999;fill-opacity:1;fill-rule:nonzero;stroke:#000000;stroke-width:0.2387629;stroke-linecap:round;stroke-linejoin:miter;stroke-miterlimit:4;stroke-dasharray:none;stroke-dashoffset:0;stroke-opacity:1;paint-order:stroke markers fill" />
    <rect
       y="98.024017"
       x="160.36763"
       height="2.2255628"
       width="2.0648758"
       id="rect21458"
       style="opacity:1;fill:#999999;fill-opacity:1;fill-rule:nonzero;stroke:#000000;stroke-width:0.23876289;stroke-linecap:round;stroke-linejoin:miter;stroke-miterlimit:4;stroke-dasharray:none;stroke-dashoffset:0;stroke-opacity:1;paint-order:stroke markers fill" />
    <circle
       cy="97.455009"
       cx="161.40007"
       id="circle21452"
       style="opacity:1;fill:#999999;fill-opacity:1;fill-rule:nonzero;stroke:#000000;stroke-width:0.2387629;stroke-linecap:round;stroke-linejoin:miter;stroke-miterlimit:4;stroke-dasharray:none;stroke-dashoffset:0;stroke-opacity:1;paint-order:stroke markers fill"
       r="1.404148" />
    <circle
       style="opacity:1;fill:#ffffff;fill-opacity:1;fill-rule:nonzero;stroke:none;stroke-width:0.23876289;stroke-linecap:round;stroke-linejoin:miter;stroke-miterlimit:4;stroke-dasharray:none;stroke-dashoffset:0;stroke-opacity:1;paint-order:stroke markers fill"
       id="circle21454"
       cx="161.40007"
       cy="97.455009"
       r="0.4282153" />
    <rect
       style="opacity:1;fill:#e6e6e6;fill-opacity:1;fill-rule:nonzero;stroke:#000000;stroke-width:0.23421763;stroke-linecap:round;stroke-linejoin:miter;stroke-miterlimit:4;stroke-dasharray:none;stroke-dashoffset:0;stroke-opacity:1;paint-order:stroke markers fill"
       id="rect21460"
       width="4.4605303"
       height="0.46097776"
       x="159.1001"
       y="100.30283"
       rx="0.22821625"
       ry="0.22821625" />
    <circle
       cy="97.455009"
       cx="161.40007"
       id="circle21462"
       style="opacity:1;fill:none;fill-opacity:1;fill-rule:nonzero;stroke:#ffffff;stroke-width:0.05991428;stroke-linecap:round;stroke-linejoin:miter;stroke-miterlimit:4;stroke-dasharray:none;stroke-dashoffset:0;stroke-opacity:1;paint-order:stroke markers fill"
       r="1.284646" />
    <text
       xml:space="preserve"
       style="font-style:normal;font-weight:normal;font-size:2.94931865px;line-height:125%;font-family:sans-serif;text-align:center;letter-spacing:0px;word-spacing:0px;text-anchor:middle;fill:#000000;fill-opacity:1;stroke:none;stroke-width:0.26458332px;stroke-linecap:butt;stroke-linejoin:miter;stroke-opacity:1"
       x="161.50803"
       y="105.50966"
       id="text21477"><tspan
         id="tspan21475"
         sodipodi:role="line"
         x="161.50803"
         y="105.50966"
         style="text-align:center;text-anchor:middle;stroke-width:0.26458332px">Gancho</tspan><tspan
         sodipodi:role="line"
         x="161.50803"
         y="109.1963"
         style="text-align:center;text-anchor:middle;stroke-width:0.26458332px"
         id="tspan21481">o broche</tspan></text>
    <rect
       style="opacity:1;fill:#d45500;fill-opacity:1;fill-rule:nonzero;stroke:#000000;stroke-width:0.12452929;stroke-linecap:round;stroke-linejoin:round;stroke-miterlimit:4;stroke-dasharray:none;stroke-dashoffset:0;stroke-opacity:1;paint-order:stroke markers fill"
       id="rect21483"
       width="9.2738609"
       height="13.850852"
       x="137.25603"
       y="87.358475" />
    <text
       id="text21489"
       y="105.62775"
       x="141.59787"
       style="font-style:normal;font-weight:normal;font-size:2.94931865px;line-height:125%;font-family:sans-serif;text-align:center;letter-spacing:0px;word-spacing:0px;text-anchor:middle;fill:#000000;fill-opacity:1;stroke:none;stroke-width:0.26458332px;stroke-linecap:butt;stroke-linejoin:miter;stroke-opacity:1"
       xml:space="preserve"><tspan
         id="tspan21487"
         style="text-align:center;text-anchor:middle;stroke-width:0.26458332px"
         y="105.62775"
         x="141.59787"
         sodipodi:role="line">Impresión</tspan><tspan
         style="text-align:center;text-anchor:middle;stroke-width:0.26458332px"
         y="109.3144"
         x="141.59787"
         sodipodi:role="line"
         id="tspan21493">ByN o color</tspan></text>
    <flowRoot
       xml:space="preserve"
       id="flowRoot21495"
       style="fill:black;stroke:none;stroke-opacity:1;stroke-width:1px;stroke-linejoin:miter;stroke-linecap:butt;fill-opacity:1;font-family:'Fira Sans';font-style:normal;font-weight:normal;font-size:14.66666667px;line-height:125%;letter-spacing:0px;word-spacing:0px;-inkscape-font-specification:'Fira Sans';font-stretch:normal;font-variant:normal;"><flowRegion
         id="flowRegion21497"
         style="font-size:14.66666667px;-inkscape-font-specification:'Fira Sans';font-family:'Fira Sans';font-weight:normal;font-style:normal;font-stretch:normal;font-variant:normal;"><rect
           id="rect21499"
           width="257.14285"
           height="144.28572"
           x="432.85715"
           y="113.94826"
           style="font-size:14.66666667px;-inkscape-font-specification:'Fira Sans';font-family:'Fira Sans';font-weight:normal;font-style:normal;font-stretch:normal;font-variant:normal;" /></flowRegion><flowPara
         id="flowPara21501"></flowPara></flowRoot>    <flowRoot
       xml:space="preserve"
       id="flowRoot21503"
       style="font-style:normal;font-variant:normal;font-weight:normal;font-stretch:normal;font-size:13.33333397px;line-height:125%;font-family:'Fira Sans';-inkscape-font-specification:'Fira Sans, Normal';font-variant-ligatures:normal;font-variant-caps:normal;font-variant-numeric:normal;font-feature-settings:normal;text-align:end;letter-spacing:0px;word-spacing:0px;writing-mode:lr-tb;text-anchor:end;fill:#000000;fill-opacity:1;stroke:none;stroke-width:1px;stroke-linecap:butt;stroke-linejoin:miter;stroke-opacity:1"
       transform="matrix(0.26458333,0,0,0.26458333,12.473214,10.96131)"><flowRegion
         id="flowRegion21505"
         style="font-style:normal;font-variant:normal;font-weight:normal;font-stretch:normal;font-size:13.33333397px;font-family:'Fira Sans';-inkscape-font-specification:'Fira Sans, Normal';font-variant-ligatures:normal;font-variant-caps:normal;font-variant-numeric:normal;font-feature-settings:normal;text-align:end;writing-mode:lr-tb;text-anchor:end"><rect
           id="rect21507"
           width="286.76697"
           height="167.16537"
           x="396.09619"
           y="108.86749"
           style="font-style:normal;font-variant:normal;font-weight:normal;font-stretch:normal;font-size:13.33333397px;font-family:'Fira Sans';-inkscape-font-specification:'Fira Sans, Normal';font-variant-ligatures:normal;font-variant-caps:normal;font-variant-numeric:normal;font-feature-settings:normal;text-align:end;writing-mode:lr-tb;text-anchor:end" /></flowRegion><flowPara
         id="flowPara21509">Para Hacer identificaciones económicas y que puedan usarse en otros eventos, recomen-damos usar estos elementos que pueden comprar en librerias, papeleras y mercecerias.</flowPara><flowPara
         id="flowPara21513" /><flowPara
         id="flowPara21511">Es posible laminar o plastificar las ID, pero no lo recomendamos porque la gente no puede poner su nombre y en cada evento hay que hacer nuevas.</flowPara></flowRoot>    <g
       id="g21577"
       transform="translate(10.100925,-4.5435818)">
      <text
         xml:space="preserve"
         style="font-style:normal;font-variant:normal;font-weight:bold;font-stretch:normal;font-size:10.58333302px;line-height:125%;font-family:'Fira Sans';-inkscape-font-specification:'Fira Sans, Bold';font-variant-ligatures:normal;font-variant-caps:normal;font-variant-numeric:normal;font-feature-settings:normal;text-align:start;letter-spacing:0px;word-spacing:0px;writing-mode:lr-tb;text-anchor:start;fill:#000000;fill-opacity:1;stroke:none;stroke-width:0.26458332px;stroke-linecap:butt;stroke-linejoin:miter;stroke-opacity:1"
         x="95.909622"
         y="153.94601"
         id="text21567"><tspan
           sodipodi:role="line"
           id="tspan21565"
           x="95.909622"
           y="153.94601"
           style="font-style:normal;font-variant:normal;font-weight:bold;font-stretch:normal;font-size:10.58333302px;font-family:'Fira Sans';-inkscape-font-specification:'Fira Sans, Bold';font-variant-ligatures:normal;font-variant-caps:normal;font-variant-numeric:normal;font-feature-settings:normal;text-align:start;writing-mode:lr-tb;text-anchor:start;stroke-width:0.26458332px">HOW TO </tspan></text>
      <text
         id="text21571"
         y="153.94601"
         x="136.35307"
         style="font-style:normal;font-variant:normal;font-weight:300;font-stretch:normal;font-size:10.58333302px;line-height:125%;font-family:'Fira Sans';-inkscape-font-specification:'Fira Sans, Light';font-variant-ligatures:normal;font-variant-caps:normal;font-variant-numeric:normal;font-feature-settings:normal;text-align:start;letter-spacing:0px;word-spacing:0px;writing-mode:lr-tb;text-anchor:start;fill:#000000;fill-opacity:1;stroke:none;stroke-width:0.26458332px;stroke-linecap:butt;stroke-linejoin:miter;stroke-opacity:1"
         xml:space="preserve"><tspan
           style="font-style:normal;font-variant:normal;font-weight:300;font-stretch:normal;font-size:10.58333302px;font-family:'Fira Sans';-inkscape-font-specification:'Fira Sans, Light';font-variant-ligatures:normal;font-variant-caps:normal;font-variant-numeric:normal;font-feature-settings:normal;text-align:start;writing-mode:lr-tb;text-anchor:start;stroke-width:0.26458332px"
           y="153.94601"
           x="136.35307"
           id="tspan21569"
           sodipodi:role="line">DIPLOMAS</tspan></text>
    </g>
    <flowRoot
       transform="matrix(0.26458333,0,0,0.26458333,12.473214,125.61994)"
       style="font-style:normal;font-variant:normal;font-weight:normal;font-stretch:normal;font-size:13.33333397px;line-height:125%;font-family:'Fira Sans';-inkscape-font-specification:'Fira Sans, Normal';font-variant-ligatures:normal;font-variant-caps:normal;font-variant-numeric:normal;font-feature-settings:normal;text-align:end;letter-spacing:0px;word-spacing:0px;writing-mode:lr-tb;text-anchor:end;fill:#000000;fill-opacity:1;stroke:none;stroke-width:1px;stroke-linecap:butt;stroke-linejoin:miter;stroke-opacity:1"
       id="flowRoot21589"
       xml:space="preserve"><flowRegion
         style="font-style:normal;font-variant:normal;font-weight:normal;font-stretch:normal;font-size:13.33333397px;font-family:'Fira Sans';-inkscape-font-specification:'Fira Sans, Normal';font-variant-ligatures:normal;font-variant-caps:normal;font-variant-numeric:normal;font-feature-settings:normal;text-align:end;writing-mode:lr-tb;text-anchor:end"
         id="flowRegion21581"><rect
           style="font-style:normal;font-variant:normal;font-weight:normal;font-stretch:normal;font-size:13.33333397px;font-family:'Fira Sans';-inkscape-font-specification:'Fira Sans, Normal';font-variant-ligatures:normal;font-variant-caps:normal;font-variant-numeric:normal;font-feature-settings:normal;text-align:end;writing-mode:lr-tb;text-anchor:end"
           y="108.86749"
           x="396.09619"
           height="167.16537"
           width="286.76697"
           id="rect21579" /></flowRegion><flowPara
         id="flowPara21587">Se pueden imprimir o mandar por mail como </flowPara><flowPara
         id="flowPara21596">forma de agradecimiento a los disetantes.</flowPara></flowRoot>    <rect
       style="opacity:1;fill:#f2f2f2;fill-opacity:1;fill-rule:nonzero;stroke:#000000;stroke-width:0.24237871;stroke-linecap:round;stroke-linejoin:round;stroke-miterlimit:4;stroke-dasharray:none;stroke-dashoffset:0;stroke-opacity:1;paint-order:stroke markers fill"
       id="rect21598"
       width="41.757622"
       height="29.457621"
       x="45.34597"
       y="138.82579" />
  </g>
</svg>
