<?xml version="1.0" encoding="UTF-8" standalone="no"?>
<!-- Created with Inkscape (http://www.inkscape.org/) -->

<svg
   xmlns:dc="http://purl.org/dc/elements/1.1/"
   xmlns:cc="http://creativecommons.org/ns#"
   xmlns:rdf="http://www.w3.org/1999/02/22-rdf-syntax-ns#"
   xmlns:svg="http://www.w3.org/2000/svg"
   xmlns="http://www.w3.org/2000/svg"
   xmlns:xlink="http://www.w3.org/1999/xlink"
   xmlns:sodipodi="http://sodipodi.sourceforge.net/DTD/sodipodi-0.dtd"
   xmlns:inkscape="http://www.inkscape.org/namespaces/inkscape"
   width="297mm"
   height="210mm"
   viewBox="0 0 297 210"
   version="1.1"
   id="svg17583"
   inkscape:version="0.92.3 (2405546, 2018-03-11)"
   sodipodi:docname="diploma generico.svg">
  <defs
     id="defs17577">
    <linearGradient
       inkscape:collect="always"
       xlink:href="#linearGradient17371"
       id="linearGradient17425"
       gradientUnits="userSpaceOnUse"
       gradientTransform="matrix(2.5581399,0,0,0.95608991,-85.843737,92.506873)"
       x1="81.918114"
       y1="108.06855"
       x2="81.918114"
       y2="83.649345" />
    <linearGradient
       inkscape:collect="always"
       id="linearGradient17371">
      <stop
         style="stop-color:#ffffff;stop-opacity:1;"
         offset="0"
         id="stop17367" />
      <stop
         id="stop17377"
         offset="0.17019869"
         style="stop-color:#ffffff;stop-opacity:0.84520125" />
      <stop
         id="stop17375"
         offset="0.56732899"
         style="stop-color:#ffffff;stop-opacity:0.42105263" />
      <stop
         style="stop-color:#ffffff;stop-opacity:0;"
         offset="1"
         id="stop17369" />
    </linearGradient>
    <linearGradient
       inkscape:collect="always"
       xlink:href="#linearGradient3317"
       id="linearGradient17427"
       x1="173.2894"
       y1="35.641853"
       x2="239.07751"
       y2="116.35725"
       gradientUnits="userSpaceOnUse"
       gradientTransform="matrix(0.54701505,0,0,0.54701505,37.806758,224.79525)" />
    <linearGradient
       id="linearGradient3317"
       inkscape:collect="always">
      <stop
         id="stop3313"
         offset="0"
         style="stop-color:#fe8e29;stop-opacity:1;" />
      <stop
         id="stop3315"
         offset="1"
         style="stop-color:#0066ff;stop-opacity:1" />
    </linearGradient>
    <linearGradient
       inkscape:collect="always"
       xlink:href="#linearGradient3317"
       id="linearGradient17467"
       x1="706.51398"
       y1="34.636021"
       x2="874.76117"
       y2="173.20746"
       gradientUnits="userSpaceOnUse"
       gradientTransform="matrix(0.48635335,0,0,0.48635335,-224.39146,79.803427)" />
    <linearGradient
       inkscape:collect="always"
       xlink:href="#linearGradient17433"
       id="linearGradient17435"
       x1="169.98341"
       y1="42.559418"
       x2="234.66264"
       y2="122.20574"
       gradientUnits="userSpaceOnUse"
       gradientTransform="matrix(2.780411,0,0,1.4724197,-415.17859,85.181305)" />
    <linearGradient
       inkscape:collect="always"
       id="linearGradient17433">
      <stop
         style="stop-color:#fff3ea;stop-opacity:1"
         offset="0"
         id="stop17429" />
      <stop
         style="stop-color:#daf0fb;stop-opacity:1"
         offset="1"
         id="stop17431" />
    </linearGradient>
  </defs>
  <sodipodi:namedview
     id="base"
     pagecolor="#ffffff"
     bordercolor="#666666"
     borderopacity="1.0"
     inkscape:pageopacity="0.0"
     inkscape:pageshadow="2"
     inkscape:zoom="0.49497475"
     inkscape:cx="599.53944"
     inkscape:cy="350.29377"
     inkscape:document-units="mm"
     inkscape:current-layer="layer1"
     showgrid="false"
     inkscape:window-width="1600"
     inkscape:window-height="840"
     inkscape:window-x="0"
     inkscape:window-y="0"
     inkscape:window-maximized="1" />
  <metadata
     id="metadata17580">
    <rdf:RDF>
      <cc:Work
         rdf:about="">
        <dc:format>image/svg+xml</dc:format>
        <dc:type
           rdf:resource="http://purl.org/dc/dcmitype/StillImage" />
        <dc:title></dc:title>
      </cc:Work>
    </rdf:RDF>
  </metadata>
  <g
     inkscape:label="Capa 1"
     inkscape:groupmode="layer"
     id="layer1"
     transform="translate(0,-87)">
    <rect
       y="100.70998"
       x="12.259861"
       height="182.58005"
       width="272.48029"
       id="rect17379"
       style="opacity:1;fill:url(#linearGradient17435);fill-opacity:1;fill-rule:nonzero;stroke:none;stroke-width:1;stroke-linecap:round;stroke-linejoin:miter;stroke-miterlimit:4;stroke-dasharray:none;stroke-dashoffset:0;stroke-opacity:1;paint-order:stroke markers fill" />
    <flowRoot
       transform="matrix(1.311774,0,0,1.5371424,2550.5363,-1100.7871)"
       style="font-style:normal;font-variant:normal;font-weight:normal;font-stretch:normal;font-size:53.33333206px;line-height:0.25;font-family:Montserrat;-inkscape-font-specification:Montserrat;font-variant-ligatures:normal;font-variant-caps:normal;font-variant-numeric:normal;text-align:start;letter-spacing:0px;word-spacing:0px;writing-mode:lr-tb;text-anchor:start;display:inline;fill:#4d4b72;fill-opacity:1;stroke:none;stroke-width:0.31608528"
       id="flowRoot17387"
       xml:space="preserve"><flowRegion
         style="fill:#4d4b72;fill-opacity:1;stroke-width:0.31608528"
         id="flowRegion17383"><rect
           style="fill:#4d4b72;fill-opacity:1;stroke-width:0.31608528"
           y="784.33594"
           x="-1895.1682"
           height="334.83539"
           width="572.56848"
           id="rect17381" /></flowRegion><flowPara
         id="flowPara17385"
         style="font-style:normal;font-variant:normal;font-weight:600;font-stretch:normal;font-size:7.57634783px;font-family:'Fira Sans';-inkscape-font-specification:'Fira Sans Semi-Bold';fill:#4d4b72;fill-opacity:1;stroke-width:0.31608528">15 años compartiendo Software Libre</flowPara></flowRoot>    <path
       style="font-style:normal;font-variant:normal;font-weight:normal;font-stretch:normal;font-size:53.33333206px;line-height:0.25;font-family:Montserrat;-inkscape-font-specification:Montserrat;font-variant-ligatures:normal;font-variant-caps:normal;font-variant-numeric:normal;text-align:start;letter-spacing:0px;word-spacing:0px;writing-mode:lr-tb;text-anchor:start;display:inline;fill:url(#linearGradient17467);fill-opacity:1;stroke:none;stroke-width:0.18693028"
       d="m 96.589389,106.16909 c -1.02418,0 -1.95186,0.21097 -2.78228,0.63263 -0.81657,0.40547 -1.45964,0.98939 -1.93022,1.75165 -0.45673,0.76226 -0.68489,1.64565 -0.68489,2.6512 0,1.28123 0.33212,2.34359 0.99646,3.18693 0.66434,0.84334 1.81312,1.56478 3.44627,2.16485 0.67818,0.24327 1.19001,0.47025 1.53601,0.68109 0.35984,0.19461 0.60917,0.42158 0.74757,0.68108 0.13841,0.24327 0.20709,0.55971 0.20709,0.94895 0,0.55142 -0.17978,0.99784 -0.53955,1.33843 -0.35986,0.32435 -0.8646,0.48635 -1.5151,0.48635 -1.24565,0 -2.44286,-0.55096 -3.59161,-1.6538 l -1.88937,2.45646 c 1.45324,1.63805 3.32881,2.45742 5.62631,2.45742 1.20412,0 2.24892,-0.22696 3.13469,-0.68109 0.899631,-0.4541 1.584091,-1.08699 2.054651,-1.8979 0.47058,-0.82713 0.70675,-1.77553 0.70675,-2.84594 0,-1.47586 -0.34624,-2.62769 -1.03827,-3.45481 -0.67816,-0.84334 -1.758261,-1.54027 -3.239171,-2.09169 -0.77507,-0.29194 -1.34239,-0.53587 -1.70224,-0.7305 -0.35986,-0.19461 -0.61529,-0.3971 -0.76753,-0.60794 -0.1522,-0.21082 -0.22893,-0.4783 -0.22893,-0.80266 0,-0.45411 0.1454,-0.80257 0.436,-1.04586 0.3045,-0.2595 0.74059,-0.38945 1.30803,-0.38945 1.09339,0 2.1382,0.46243 3.134701,1.38685 l 1.72313,-2.38425 c -0.66433,-0.74605 -1.41841,-1.30548 -2.262671,-1.67851 -0.83042,-0.373 -1.79244,-0.55949 -2.88583,-0.55949 z m 13.101141,0 c -1.38403,0 -2.5742,0.35694 -3.5707,1.07055 -0.98267,0.7136 -1.73675,1.73546 -2.26269,3.06535 -0.51208,1.32989 -0.76847,2.91024 -0.76847,4.74291 0,2.82196 0.57437,5.01167 1.72313,6.56861 1.16261,1.55694 2.78886,2.33582 4.87873,2.33582 1.38404,0 2.57515,-0.35694 3.57169,-1.07054 0.99649,-0.7136 1.75056,-1.73547 2.26266,-3.06536 0.52596,-1.3461 0.78843,-2.93588 0.78843,-4.76853 0,-2.80577 -0.58144,-4.98698 -1.74402,-6.54392 -1.16259,-1.55697 -2.78885,-2.33489 -4.87876,-2.33489 z m 51.04526,0.4094 c -1.05187,0 -2.03504,0.32399 -2.94852,0.97272 -0.89963,0.63252 -1.62643,1.59786 -2.18004,2.89532 -0.53976,1.28124 -0.80931,2.83805 -0.80931,4.67071 0,2.82196 0.52592,4.97117 1.57778,6.44703 1.05187,1.47586 2.48431,2.21328 4.29739,2.21328 1.45323,0 2.85841,-0.45395 4.21478,-1.36216 V 114.534 h -4.15208 l 0.1454,1.21587 h 2.78136 v 5.91129 c -0.88579,0.58384 -1.88214,0.8758 -2.98937,0.8758 -1.43939,0 -2.55993,-0.61592 -3.36268,-1.84851 -0.80274,-1.23258 -1.20448,-3.08983 -1.20448,-5.57121 0,-1.67047 0.21404,-3.0493 0.64309,-4.1359 0.4429,-1.10284 1.01117,-1.90527 1.70319,-2.40803 0.70587,-0.50276 1.467,-0.75422 2.28358,-0.75422 0.6228,0 1.17602,0.10551 1.66043,0.31631 0.48442,0.21084 0.98307,0.55177 1.49517,1.02211 l 0.74661,-0.92426 c -0.60899,-0.56765 -1.21063,-0.98205 -1.80576,-1.24153 -0.59515,-0.27571 -1.29373,-0.41323 -2.09645,-0.41323 z m -96.052891,0.0285 v 16.90743 h 3.84048 v -6.47078 h 4.06941 v -3.18696 h -4.06941 v -4.06276 h 4.62986 l 0.39422,-3.18693 z m 10.09658,0 v 16.90743 h 8.96809 l 0.41607,-3.50327 h -5.54367 v -13.40416 z m 10.74538,0 v 16.90743 h 3.84048 v -16.90743 z m 32.438461,0 v 16.90743 h 8.96807 l 0.4151,-3.50327 h -5.5427 v -13.40416 z m 16.74876,0.23937 -4.75335,16.66425 h 1.26626 l 1.24531,-4.54912 h 5.97872 l 1.24629,4.54912 h 1.30802 l -4.73339,-16.66425 z m 8.93676,0 v 16.66425 h 1.24532 v -7.46913 h 2.845 l 3.67423,7.46913 h 1.47425 l -3.90315,-7.73606 c 1.03802,-0.30815 1.82644,-0.81955 2.3662,-1.53315 0.53979,-0.71361 0.81029,-1.67047 0.81029,-2.87063 0,-3.01659 -1.68881,-4.52441 -5.06589,-4.52441 z m 24.89617,0 v 16.66425 h 7.37033 v -1.21684 h -6.12406 v -6.81178 h 5.04496 v -1.21589 h -5.04496 v -6.20386 h 5.83339 l 0.1454,-1.21588 z m 10.62378,0 v 16.66425 h 1.18359 v -9.31765 c 0,-1.80023 -0.0555,-3.71398 -0.16618,-5.74126 l 6.70539,15.05891 h 1.64051 v -16.66425 h -1.18357 v 10.12033 c 0,1.41099 0.0555,3.05631 0.16617,4.93762 l -6.74721,-15.05795 z m 11.99638,0 v 1.28902 h 4.21381 v 15.37523 h 1.22537 v -15.37523 h 4.17296 l 0.1454,-1.28902 z m 12.25194,0 v 16.66425 h 1.24531 v -16.66425 z m 5.83815,0 v 16.66425 h 1.18355 v -9.31765 c 0,-1.80023 -0.0555,-3.71398 -0.16617,-5.74126 l 6.70638,15.05891 h 1.63953 v -16.66425 h -1.18366 v 10.12033 c 0,1.41099 0.0555,3.05631 0.16617,4.93762 l -6.74721,-15.05795 z m 16.77156,0 -4.75428,16.66425 h 1.26622 l 1.24533,-4.54912 h 5.97967 l 1.24534,4.54912 h 1.30801 l -4.73338,-16.66425 z m -90.54627,1.19213 2.63697,9.68243 h -5.29386 z m 9.41361,0 h 2.15915 c 1.32866,0 2.29069,0.27501 2.88582,0.82643 0.59515,0.53519 0.8929,1.37057 0.8929,2.50585 0,2.31921 -1.19013,3.47952 -3.57069,3.47952 h -2.36718 z m 81.9002,0 2.63695,9.68243 h -5.29385 z m -117.10383,1.36598 c 0.91347,0 1.57865,0.43793 1.99386,1.31371 0.41523,0.87579 0.62219,2.31863 0.62219,4.3297 0,2.02726 -0.20696,3.47954 -0.62219,4.35533 -0.41521,0.87578 -1.08039,1.31371 -1.99386,1.31371 -0.88579,0 -1.54294,-0.43793 -1.97199,-1.31371 -0.42905,-0.892 -0.64309,-2.34428 -0.64309,-4.35533 0,-2.01107 0.20696,-3.45391 0.62217,-4.3297 0.42905,-0.87578 1.0933,-1.31371 1.99291,-1.31371 z"
       id="flowRoot17395"
       inkscape:connector-curvature="0" />
    <path
       id="path17409"
       d="m 268.37429,185.36682 c -1.16428,0.0163 -2.26446,0.53765 -3.0952,1.63365 l -11.30088,20.12922 c -1.15646,1.89459 -1.15699,3.71633 0.73246,5.4198 6.97727,5.27352 14.20194,8.66966 14.20194,8.66966 1.27323,0.53644 2.37241,0.0939 3.34292,-1.07593 l 5.87641,-9.31173 c 0.95867,-1.75241 0.31882,-2.93745 -1.07994,-3.85244 l -9.62574,-6.03509 -0.61999,0.93934 8.75337,7.62119 -5.59789,8.94282 -12.61583,-8.52035 11.82177,-19.14235 15.57245,11.11409 v -7.36208 l -13.63016,-8.32285 c -0.88609,-0.56653 -1.83012,-0.85955 -2.73569,-0.84695 z m -25.51485,5.84495 c -3.12875,-0.009 -9.36079,0.43306 -9.15842,4.10887 0.26985,4.90107 8.17021,1.51714 8.17021,1.51714 l 7.31387,24.1651 a 33.947085,33.947053 78.260865 0 0 -15.72577,9.65052 l -22.97942,-14.34857 c -2.2975,-1.68635 -6.62664,-0.93013 -8.03295,1.60151 l -15.25778,24.9853 c -1.29489,2.02537 -1.16108,4.35466 0.78737,5.83154 l 20.12925,11.30089 c 1.89458,1.15648 3.71699,1.15702 5.42044,-0.73246 5.27355,-6.97728 8.66834,-14.20194 8.66834,-14.20194 0.53645,-1.27326 0.0939,-2.3724 -1.07592,-3.34292 l -9.31174,-5.87642 c -1.75241,-0.95868 -2.93678,-0.3195 -3.85179,1.07926 l -6.03575,9.62643 0.93934,0.62065 7.62119,-8.75337 8.94285,5.5979 -8.51969,12.61583 -19.14236,-11.82244 15.46331,-21.66781 21.48169,13.99773 a 33.947085,33.947053 78.260865 0 0 -3.60673,23.43267 33.947085,33.947053 78.260865 0 0 0.18078,0.7358 l -33.03565,8.06844 c 0,0 -0.84847,11.16967 4.05262,10.89983 4.90106,-0.26985 1.5178,-8.17019 1.5178,-8.17019 l 28.0919,-8.50295 a 33.947085,33.947053 78.260865 0 0 7.87359,13.47215 l -3.86516,6.18975 h 9.532 l 0.65549,-1.00562 a 33.947085,33.947053 78.260865 0 0 1.7615,1.00562 h 33.03028 a 33.947085,33.947053 78.260865 0 0 3.94951,-2.58837 l 4.14502,2.58837 h 1.75148 v -50.82153 a 33.947085,33.947053 78.260865 0 0 -0.77331,-0.97617 l 0.77331,-1.23862 v -14.65051 l -6.78763,10.41645 a 33.947085,33.947053 78.260865 0 0 -26.23394,-5.61129 l -7.11771,-29.141 c 0,0 -0.69851,-0.0526 -1.74142,-0.0556 z m -4.33049,13.79888 a 3.3823127,3.5618956 66.51523 0 0 -3.69777,2.6975 3.3823127,3.5618956 66.51523 0 0 2.5589,4.04727 3.3823127,3.5618956 66.51523 0 0 4.29301,-2.62452 3.3823127,3.5618956 66.51523 0 0 -2.55959,-4.04794 3.3823127,3.5618956 66.51523 0 0 -0.59455,-0.0723 z m 2.63258,7.99545 a 3.3823127,3.5618956 66.51523 0 0 -3.69778,2.69751 3.3823127,3.5618956 66.51523 0 0 2.55892,4.04794 3.3823127,3.5618956 66.51523 0 0 4.29298,-2.6252 3.3823127,3.5618956 66.51523 0 0 -2.55893,-4.04794 3.3823127,3.5618956 66.51523 0 0 -0.59519,-0.0723 z m -3.20234,18.57459 c 2.47091,0.27241 4.94204,0.54613 7.41297,0.81949 0.92479,2.10578 1.84972,4.21119 2.77449,6.31696 1.96493,-1.55608 5.17962,-1.58684 5.93937,1.18439 0.92467,1.30786 1.84915,2.61556 2.77383,3.92341 4.09991,-0.69401 8.19992,-1.38762 12.29982,-2.08155 2.06813,2.14414 4.13631,4.28755 6.20446,6.43145 2.06072,-0.0973 4.12167,-0.19793 6.18238,-0.29593 1.77183,6.4891 -2.03743,12.70048 -5.69897,17.74773 -2.44269,3.25224 -4.50168,6.74016 -6.11275,10.43854 -2.15424,1.03018 -0.40712,6.9337 -3.19497,4.86744 -1.00056,-2.62007 -0.25157,-5.72375 -0.55973,-8.61678 -0.13176,-4.29966 1.03067,-9.21154 -2.15117,-12.74905 -2.01895,-2.60722 -6.49216,-3.39395 -6.43212,-7.39021 0.38997,-3.29945 0.37539,-7.47937 -2.87091,-9.42154 -2.91021,-2.41282 -7.30348,-0.82661 -10.01608,-3.52974 -2.25346,-2.4604 -5.47849,-4.32709 -6.55062,-7.64461 z m -20.53696,37.07286 a 3.5618956,3.3823125 57.815052 0 0 -3.04568,2.16725 3.5618956,3.3823125 57.815052 0 0 2.06414,4.58892 3.5618956,3.3823125 57.815052 0 0 4.3961,-1.89944 3.5618956,3.3823125 57.815052 0 0 -2.06414,-4.58891 3.5618956,3.3823125 57.815052 0 0 -1.35042,-0.26782 z m -6.68321,5.1185 a 3.5618956,3.3823125 57.815052 0 0 -3.04565,2.16658 3.5618956,3.3823125 57.815052 0 0 2.06413,4.58825 3.5618956,3.3823125 57.815052 0 0 4.39676,-1.89876 3.5618956,3.3823125 57.815052 0 0 -2.06479,-4.58892 3.5618956,3.3823125 57.815052 0 0 -1.35045,-0.26715 z"
       style="color:#000000;display:inline;overflow:visible;visibility:visible;fill:#955433;fill-opacity:0.08049538;fill-rule:nonzero;stroke:none;stroke-width:0.70453513;marker:none;enable-background:accumulate"
       inkscape:connector-curvature="0" />
    <rect
       y="165.02969"
       x="35.289417"
       height="34.029137"
       width="226.42116"
       id="rect17413"
       style="opacity:1;fill:url(#linearGradient17425);fill-opacity:1;fill-rule:nonzero;stroke:none;stroke-width:1.08866501;stroke-linecap:round;stroke-linejoin:miter;stroke-miterlimit:4;stroke-dasharray:none;stroke-dashoffset:0;stroke-opacity:1;paint-order:stroke markers fill" />
    <text
       xml:space="preserve"
       style="font-style:normal;font-variant:normal;font-weight:normal;font-stretch:normal;font-size:16.90944862px;line-height:0.25;font-family:Montserrat;-inkscape-font-specification:Montserrat;font-variant-ligatures:normal;font-variant-caps:normal;font-variant-numeric:normal;text-align:start;letter-spacing:0px;word-spacing:0px;writing-mode:lr-tb;text-anchor:start;display:inline;fill:#161950;fill-opacity:1;stroke:none;stroke-width:0.22760306"
       x="107.25281"
       y="191.83168"
       id="text17421"
       inkscape:export-xdpi="90"
       inkscape:export-ydpi="90"><tspan
         sodipodi:role="line"
         id="tspan17417"
         x="107.25281"
         y="191.83168"
         style="font-style:normal;font-variant:normal;font-weight:500;font-stretch:normal;font-family:'Fira Sans';-inkscape-font-specification:'Fira Sans Medium';fill:#161950;fill-opacity:1;stroke-width:0.22760306"><tspan
           id="tspan17415"
           style="font-style:normal;font-variant:normal;font-weight:800;font-stretch:normal;font-family:'Fira Sans';-inkscape-font-specification:'Fira Sans Ultra-Bold';fill:#161950;fill-opacity:1;stroke-width:0.22760306"
           dx="0 0 0 0 0 0.50445461">Disertante</tspan></tspan><tspan
         sodipodi:role="line"
         x="107.25281"
         y="196.05904"
         style="fill:#161950;fill-opacity:1;stroke-width:0.22760306"
         id="tspan17419" /></text>
    <path
       id="path17411"
       d="m 151.16418,242.67288 c -0.28011,0.004 -0.5448,0.1293 -0.74466,0.39297 l -2.71872,4.8427 c -0.27822,0.4558 -0.27838,0.89404 0.17619,1.30386 1.67857,1.26869 3.41666,2.08562 3.41666,2.08562 0.30632,0.12906 0.57076,0.0227 0.80424,-0.25879 l 1.41366,-2.24019 c 0.23062,-0.42159 0.0769,-0.70663 -0.25967,-0.92675 l -2.31582,-1.45199 -0.14918,0.22603 2.10584,1.83345 -1.34673,2.1515 -3.03502,-2.0499 2.84403,-4.60517 5.21283,3.72024 -3.09933,4.75661 a 8.1669032,8.1668949 78.260865 0 0 -6.31141,-1.35004 l -1.71235,-7.01057 c 0,0 -2.68711,-0.20407 -2.62219,0.97501 0.0649,1.17909 1.96555,0.3651 1.96555,0.3651 l 1.75957,5.81353 a 8.1669032,8.1668949 78.260865 0 0 -3.78333,2.32175 l -5.52826,-3.45204 c -0.55274,-0.4057 -1.5943,-0.22375 -1.93262,0.3853 l -3.67058,6.01097 c -0.31152,0.48727 -0.27932,1.04755 0.18943,1.40286 l 4.84252,2.71873 c 0.4558,0.27822 0.89422,0.27838 1.30404,-0.17618 1.2687,-1.67859 2.08545,-3.41668 2.08545,-3.41668 0.12906,-0.30632 0.0226,-0.57076 -0.25878,-0.80424 l -2.2402,-1.41364 c -0.4216,-0.23063 -0.70662,-0.0769 -0.92676,0.25965 l -1.45198,2.31582 0.22601,0.14935 1.83347,-2.10583 2.1515,1.34673 -2.04973,3.03502 -4.60518,-2.84419 3.72008,-5.21285 5.16805,3.36754 a 8.1669032,8.1668949 78.260865 0 0 -0.86767,5.63734 8.1669032,8.1668949 78.260865 0 0 0.0434,0.17706 l -7.94761,1.94116 c 0,0 -0.20407,2.6871 0.97502,2.62218 1.17909,-0.0649 0.36509,-1.96555 0.36509,-1.96555 l 6.75824,-2.04555 a 8.1669032,8.1668949 78.260865 0 0 1.89428,3.24102 l -3.96945,6.35672 c -0.4057,0.55273 -0.22358,1.5943 0.38547,1.93262 l 6.01082,3.67041 c 0.48726,0.31151 1.04754,0.27948 1.40284,-0.18926 l 2.71874,-4.84269 c 0.27822,-0.4558 0.27856,-0.89405 -0.17601,-1.30387 -1.67857,-1.26869 -3.41667,-2.08562 -3.41667,-2.08562 -0.30632,-0.12906 -0.57094,-0.0226 -0.80442,0.25879 l -1.41365,2.24019 c -0.23063,0.42159 -0.0769,0.70662 0.25966,0.92675 l 2.31583,1.45199 0.14934,-0.22602 -2.10583,-1.83346 1.34673,-2.1515 3.03503,2.0499 -2.84403,4.60517 -5.21302,-3.72025 3.83962,-5.89264 a 8.1669032,8.1668949 78.260865 0 0 5.26651,1.23903 l 2.01698,8.25762 c 0,0 2.68709,0.20406 2.62218,-0.97502 -0.0649,-1.17908 -1.96556,-0.36509 -1.96556,-0.36509 l -2.11995,-7.00412 a 8.1669032,8.1668949 78.260865 0 0 0.22811,-0.0356 8.1669032,8.1668949 78.260865 0 0 3.27203,-1.49764 l 6.172,3.85408 c 0.55273,0.4057 1.59431,0.22375 1.93262,-0.3853 l 3.67041,-6.01099 c 0.31152,-0.48726 0.27949,-1.04754 -0.18926,-1.40284 l -4.8427,-2.71874 c -0.45579,-0.27821 -0.89403,-0.27837 -1.30386,0.17619 -1.26868,1.67858 -2.08562,3.41667 -2.08562,3.41667 -0.12906,0.30632 -0.0225,0.57075 0.25896,0.80424 l 2.24003,1.41365 c 0.42159,0.23063 0.70661,0.0768 0.92674,-0.25966 l 1.45199,-2.31583 -0.22602,-0.14934 -1.83346,2.10584 -2.1515,-1.34673 2.0499,-3.03486 4.60517,2.84403 -3.72025,5.21285 -5.52127,-3.59774 a 8.1669032,8.1668949 78.260865 0 0 1.76723,-5.72815 l 7.35806,-1.79721 c 0,0 0.20407,-2.6871 -0.97502,-2.62219 -1.17909,0.0649 -0.36509,1.96555 -0.36509,1.96555 l -6.08993,1.8434 a 8.1669032,8.1668949 78.260865 0 0 -0.0667,-0.42695 8.1669032,8.1668949 78.260865 0 0 -1.8298,-3.6786 l 3.30322,-5.29003 c 0.4057,-0.55273 0.22376,-1.59429 -0.3853,-1.93262 l -6.01098,-3.67036 c -0.21317,-0.1363 -0.44035,-0.20676 -0.6582,-0.20373 z m -7.18014,4.72577 a 0.81370805,0.85691174 66.51523 0 0 -0.88964,0.64896 0.81370805,0.85691174 66.51523 0 0 0.6157,0.9738 0.81370805,0.85691174 66.51523 0 0 1.03269,-0.63154 0.81370805,0.85691174 66.51523 0 0 -0.61568,-0.9738 0.81370805,0.85691174 66.51523 0 0 -0.14307,-0.0175 z m 0.63328,1.92355 a 0.81370805,0.85691174 66.51523 0 0 -0.88963,0.64897 0.81370805,0.85691174 66.51523 0 0 0.61569,0.9738 0.81370805,0.85691174 66.51523 0 0 1.03288,-0.63155 0.81370805,0.85691174 66.51523 0 0 -0.61568,-0.9738 0.81370805,0.85691174 66.51523 0 0 -0.14326,-0.0174 z m -0.77044,4.46871 c 0.59445,0.0656 1.18901,0.13134 1.78345,0.19709 0.2225,0.50662 0.44496,1.01319 0.66744,1.51978 0.47272,-0.37435 1.24621,-0.38176 1.42899,0.28493 0.22246,0.31464 0.44481,0.6292 0.66727,0.94383 0.98634,-0.16696 1.97271,-0.33389 2.95904,-0.50084 0.49755,0.51584 0.99506,1.03154 1.4926,1.54732 0.49577,-0.0234 0.99161,-0.0475 1.48737,-0.0711 0.42627,1.56113 -0.49007,3.05546 -1.37095,4.26971 -0.58765,0.78242 -1.08306,1.62144 -1.47065,2.51118 -0.51825,0.24784 -0.098,1.66817 -0.76868,1.17107 -0.24072,-0.63032 -0.0604,-1.37708 -0.13454,-2.07308 -0.0317,-1.0344 0.24791,-2.21603 -0.51757,-3.06708 -0.48572,-0.62725 -1.56193,-0.81647 -1.54749,-1.77788 0.0938,-0.79376 0.0904,-1.79943 -0.69061,-2.26668 -0.70014,-0.58047 -1.75701,-0.19889 -2.4096,-0.8492 -0.54212,-0.59192 -1.31813,-1.04091 -1.57607,-1.83904 z m 16.00797,0.59147 a 0.85691181,0.81370805 74.163341 0 0 -0.6068,0.32413 0.85691181,0.81370805 74.163341 0 0 0.1659,1.1993 0.85691181,0.81370805 74.163341 0 0 1.14337,-0.1408 0.85691181,0.81370805 74.163341 0 0 -0.16573,-1.19914 0.85691181,0.81370805 74.163341 0 0 -0.53674,-0.18349 z m -1.8894,0.72896 a 0.85691181,0.81370805 74.163341 0 0 -0.6068,0.32413 0.85691181,0.81370805 74.163341 0 0 0.16591,1.19912 0.85691181,0.81370805 74.163341 0 0 1.14335,-0.14063 0.85691181,0.81370805 74.163341 0 0 -0.16572,-1.19929 0.85691181,0.81370805 74.163341 0 0 -0.53674,-0.18333 z m -19.0592,7.59836 a 0.85691174,0.81370805 57.815052 0 0 -0.73279,0.52141 0.85691174,0.81370805 57.815052 0 0 0.49666,1.10398 0.85691174,0.81370805 57.815052 0 0 1.05763,-0.45692 0.85691174,0.81370805 57.815052 0 0 -0.49666,-1.10399 0.85691174,0.81370805 57.815052 0 0 -0.32484,-0.0645 z m -1.60779,1.23137 a 0.85691174,0.81370805 57.815052 0 0 -0.73279,0.52123 0.85691174,0.81370805 57.815052 0 0 0.49666,1.10398 0.85691174,0.81370805 57.815052 0 0 1.05763,-0.45692 0.85691174,0.81370805 57.815052 0 0 -0.49665,-1.10398 0.85691174,0.81370805 57.815052 0 0 -0.32485,-0.0643 z m 15.28077,4.23346 a 0.81370805,0.85691174 66.51523 0 0 -0.88982,0.64897 0.81370805,0.85691174 66.51523 0 0 0.61568,0.9738 0.81370805,0.85691174 66.51523 0 0 1.03289,-0.63154 0.81370805,0.85691174 66.51523 0 0 -0.61569,-0.97381 0.81370805,0.85691174 66.51523 0 0 -0.14306,-0.0174 z m 0.63327,1.92355 a 0.81370805,0.85691174 66.51523 0 0 -0.88962,0.64898 0.81370805,0.85691174 66.51523 0 0 0.61568,0.9738 0.81370805,0.85691174 66.51523 0 0 1.0327,-0.63172 0.81370805,0.85691174 66.51523 0 0 -0.61567,-0.9738 0.81370805,0.85691174 66.51523 0 0 -0.14309,-0.0173 z"
       style="color:#000000;display:inline;overflow:visible;visibility:visible;fill:url(#linearGradient17427);fill-opacity:1;fill-rule:nonzero;stroke:none;stroke-width:0.40145016;marker:none;enable-background:accumulate"
       inkscape:connector-curvature="0" />
    <text
       inkscape:export-ydpi="90"
       inkscape:export-xdpi="90"
       id="text22129"
       y="164.70232"
       x="148.79025"
       style="font-style:normal;font-variant:normal;font-weight:normal;font-stretch:normal;font-size:12.92225075px;line-height:0.25;font-family:'Fira Sans';-inkscape-font-specification:'Fira Sans, Normal';font-variant-ligatures:normal;font-variant-caps:normal;font-variant-numeric:normal;font-feature-settings:normal;text-align:center;letter-spacing:0px;word-spacing:0px;writing-mode:lr-tb;text-anchor:middle;display:inline;fill:#161950;fill-opacity:1;stroke:none;stroke-width:0.22760306"
       xml:space="preserve"><tspan
         style="font-style:normal;font-variant:normal;font-weight:normal;font-stretch:normal;font-size:12.92225075px;font-family:'Fira Sans';-inkscape-font-specification:'Fira Sans, Normal';font-variant-ligatures:normal;font-variant-caps:normal;font-variant-numeric:normal;font-feature-settings:normal;text-align:center;writing-mode:lr-tb;text-anchor:middle;fill:#161950;fill-opacity:1;stroke-width:0.22760306"
         y="164.70232"
         x="148.79025"
         id="tspan22125"
         sodipodi:role="line"><tspan
           dx="0 0 0 0 0 0 0 0 0 0"
           style="font-style:normal;font-variant:normal;font-weight:normal;font-stretch:normal;font-size:12.92225075px;font-family:'Fira Sans';-inkscape-font-specification:'Fira Sans, Normal';font-variant-ligatures:normal;font-variant-caps:normal;font-variant-numeric:normal;font-feature-settings:normal;text-align:center;writing-mode:lr-tb;text-anchor:middle;fill:#161950;fill-opacity:1;stroke-width:0.22760306"
           id="tspan22123">Agradece a</tspan></tspan><tspan
         id="tspan22127"
         style="font-style:normal;font-variant:normal;font-weight:normal;font-stretch:normal;font-size:12.92225075px;font-family:'Fira Sans';-inkscape-font-specification:'Fira Sans, Normal';font-variant-ligatures:normal;font-variant-caps:normal;font-variant-numeric:normal;font-feature-settings:normal;text-align:center;writing-mode:lr-tb;text-anchor:middle;fill:#161950;fill-opacity:1;stroke-width:0.22760306"
         y="167.93288"
         x="148.79025"
         sodipodi:role="line" /></text>
    <text
       xml:space="preserve"
       style="font-style:normal;font-variant:normal;font-weight:normal;font-stretch:normal;font-size:12.92225075px;line-height:1;font-family:'Fira Sans';-inkscape-font-specification:'Fira Sans, Normal';font-variant-ligatures:normal;font-variant-caps:normal;font-variant-numeric:normal;font-feature-settings:normal;text-align:center;letter-spacing:0px;word-spacing:0px;writing-mode:lr-tb;text-anchor:middle;display:inline;fill:#161950;fill-opacity:1;stroke:none;stroke-width:0.22760306"
       x="148.79025"
       y="220.0002"
       id="text22137"
       inkscape:export-xdpi="90"
       inkscape:export-ydpi="90"><tspan
         sodipodi:role="line"
         id="tspan22133"
         x="148.79025"
         y="220.0002"
         style="font-style:normal;font-variant:normal;font-weight:normal;font-stretch:normal;font-size:12.92225075px;line-height:1;font-family:'Fira Sans';-inkscape-font-specification:'Fira Sans, Normal';font-variant-ligatures:normal;font-variant-caps:normal;font-variant-numeric:normal;font-feature-settings:normal;text-align:center;writing-mode:lr-tb;text-anchor:middle;fill:#161950;fill-opacity:1;stroke-width:0.22760306"><tspan
           id="tspan22131"
           style="font-style:normal;font-variant:normal;font-weight:normal;font-stretch:normal;font-size:12.92225075px;line-height:1;font-family:'Fira Sans';-inkscape-font-specification:'Fira Sans, Normal';font-variant-ligatures:normal;font-variant-caps:normal;font-variant-numeric:normal;font-feature-settings:normal;text-align:center;writing-mode:lr-tb;text-anchor:middle;fill:#161950;fill-opacity:1;stroke-width:0.22760306"
           dx="0 0 0 0 0 0 0 0 0 0 0 0 0 0 0 0 0 0 0 0 0 0 0 0 0 0 0 0 0">Por colaborar con la difusión</tspan></tspan><tspan
         sodipodi:role="line"
         x="148.79025"
         y="232.92245"
         style="font-style:normal;font-variant:normal;font-weight:normal;font-stretch:normal;font-size:12.92225075px;line-height:1;font-family:'Fira Sans';-inkscape-font-specification:'Fira Sans, Normal';font-variant-ligatures:normal;font-variant-caps:normal;font-variant-numeric:normal;font-feature-settings:normal;text-align:center;writing-mode:lr-tb;text-anchor:middle;fill:#161950;fill-opacity:1;stroke-width:0.22760306"
         id="tspan22139">del Software Libre en nuestro país.</tspan><tspan
         sodipodi:role="line"
         x="148.79025"
         y="245.8447"
         style="font-style:normal;font-variant:normal;font-weight:normal;font-stretch:normal;font-size:12.92225075px;line-height:1;font-family:'Fira Sans';-inkscape-font-specification:'Fira Sans, Normal';font-variant-ligatures:normal;font-variant-caps:normal;font-variant-numeric:normal;font-feature-settings:normal;text-align:center;writing-mode:lr-tb;text-anchor:middle;fill:#161950;fill-opacity:1;stroke-width:0.22760306"
         id="tspan22135" /></text>
  </g>
</svg>
